<svg width="80" height="80" viewBox="0 0 80 80" fill="none" xmlns="http://www.w3.org/2000/svg">
<g filter="url(#filter0_f_683_2947)">
<path d="M40.3511 75.8647H40.4047C59.9886 75.8647 75.8644 59.9746 75.8644 40.3733C75.8644 37.271 75.4667 34.2617 74.7196 31.3936C74.7123 31.3852 74.7051 31.3768 74.6978 31.3684L74.0766 29.4691C74.0766 29.4691 73.1888 26.9893 72.4504 25.4733C71.5768 23.6797 71.0083 22.7003 69.8558 21.0653C68.8742 19.6728 68.2593 18.9301 67.0967 17.6787C65.7303 16.2078 64.7991 15.4345 63.3524 14.2331L63.3515 14.2324C63.2218 14.1246 63.0878 14.0134 62.9491 13.8979C62.8075 13.7801 62.6743 13.6688 62.547 13.5624L62.5433 13.5593C61.7018 12.856 61.1211 12.3707 60.1169 11.676C59.6124 11.327 58.8014 10.8159 58.8014 10.8159C58.7039 10.7622 58.4944 10.6798 58.4359 10.7801L58.9658 11.4252C58.9658 11.4252 59.5286 12.0976 59.8794 12.5361C60.4899 13.2991 60.8259 13.7325 61.396 14.5251C62.0462 15.4291 62.4098 15.939 62.9856 16.8903C63.6991 18.0691 64.0827 18.7468 64.6301 20.0081C65.0719 21.0264 65.2781 21.6169 65.5985 22.678C65.9828 23.9508 66.1826 24.6776 66.3659 25.9929C66.5131 27.049 66.5288 27.6507 66.5486 28.7165C66.55 28.791 66.5514 28.8632 66.5527 28.9334L66.5528 28.9383C66.5701 29.8271 66.581 30.3925 66.4755 31.3326C66.3699 32.2739 66.2559 32.7978 66.0187 33.7157C65.7549 34.7368 65.5558 35.2989 65.1599 36.2781C64.6048 37.6512 64.2386 38.4108 63.4424 39.6647C62.7763 40.7137 62.3616 41.2859 61.5239 42.2091C60.7454 43.0669 60.2746 43.5299 59.3495 44.2339C58.538 44.8515 58.0573 45.1807 57.1386 45.6315C56.3446 46.0211 55.8844 46.2431 55.0191 46.4379C53.94 46.6807 53.2806 46.7324 52.187 46.5633C50.7141 46.3355 49.8803 45.9171 48.7153 45.0044C47.701 44.2096 47.2681 43.5777 46.6141 42.4779C45.8896 41.2595 45.6542 40.4665 45.3351 39.0913C44.951 37.4365 44.9831 36.4511 45.0427 34.755C45.1048 32.9896 45.2547 31.9914 45.6822 30.2754C46.056 28.7749 46.2796 27.9141 46.9795 26.5304C47.9156 24.6799 48.6296 23.6656 50.1954 22.2838C51.2605 21.3438 53.2285 20.259 53.2285 20.259L54.069 19.9185L49.9396 15.3135C49.9396 15.3135 48.7512 16.0284 48.021 16.5319C47.9196 16.6019 47.826 16.6657 47.7376 16.7259L47.737 16.7263C47.3495 16.9904 47.0617 17.1865 46.6506 17.5354C46.2109 17.9086 45.954 18.1832 45.6167 18.5439C45.5297 18.637 45.4373 18.7358 45.3351 18.8434C45.1471 19.0413 44.9865 19.2222 44.8358 19.3919C44.6937 19.5519 44.5604 19.7019 44.4215 19.8469C44.1352 20.1455 43.5992 20.9578 43.5992 20.9578C43.6175 20.695 43.6396 20.4114 43.6723 20.0619C43.6818 19.9602 43.6895 19.8697 43.6967 19.7848C43.7178 19.5365 43.7349 19.3358 43.782 19.0405C43.8858 18.389 44.0007 18.0159 44.1861 17.414C44.1973 17.3777 44.2088 17.3405 44.2205 17.3024C44.4284 16.6264 44.5655 16.2522 44.8417 15.6002C45.0623 15.0795 45.2203 14.7692 45.4531 14.3119C45.4658 14.287 45.4788 14.2615 45.492 14.2357C45.5121 14.196 45.5329 14.1552 45.5543 14.1129C45.5914 14.0399 45.6259 13.9715 45.6588 13.9065C45.8449 13.538 45.9763 13.2776 46.2121 12.8766C46.4089 12.5418 46.5897 12.2614 46.742 12.0344L40.378 4.89185L34.0139 12.0346C34.1662 12.2615 34.3469 12.5419 34.5438 12.8767C34.7796 13.2778 34.911 13.5381 35.0971 13.9067C35.1299 13.9717 35.1645 14.04 35.2015 14.1131C35.2369 14.1828 35.2705 14.2488 35.3027 14.312C35.5356 14.7693 35.6936 15.0796 35.9141 15.6003C36.1904 16.2524 36.3275 16.6266 36.5354 17.3026C36.5471 17.3407 36.5585 17.3778 36.5697 17.4141C36.7551 18.016 36.8701 18.3891 36.9739 19.0407C37.021 19.336 37.038 19.5366 37.0591 19.785L37.0592 19.7855C37.0664 19.8702 37.074 19.9605 37.0835 20.062C37.1162 20.4115 37.1383 20.6951 37.1566 20.9579C37.1566 20.9579 36.6206 20.1456 36.3344 19.847C36.1955 19.7021 36.0623 19.5521 35.9202 19.3921C35.7694 19.2224 35.6087 19.0414 35.4208 18.8436C35.3186 18.7359 35.2262 18.6371 35.1392 18.5441C34.8019 18.1834 34.545 17.9088 34.1052 17.5355C33.6942 17.1867 33.4064 16.9905 33.0189 16.7265L33.0179 16.7258C32.9296 16.6656 32.8362 16.6019 32.7349 16.5321C32.0047 16.0286 30.8163 15.3136 30.8163 15.3136L26.6869 19.9187L27.5274 20.2591C27.5274 20.2591 29.4954 21.3439 30.5605 22.2839C32.1263 23.6657 32.8403 24.68 33.7764 26.5306C34.4763 27.9143 34.6998 28.7751 35.0736 30.2755C35.5011 31.9915 35.6511 32.9897 35.7132 34.7551C35.7728 36.4512 35.8048 37.4366 35.4208 39.0914C35.1017 40.4665 34.8663 41.2596 34.1418 42.478C33.4878 43.5778 33.0549 44.2097 32.0405 45.0045C30.8756 45.9172 30.0418 46.3356 28.5689 46.5634C27.4753 46.7325 26.8159 46.6808 25.7368 46.4379C24.8715 46.2432 24.4113 46.0212 23.6173 45.6316C22.6986 45.1808 22.218 44.8516 21.4064 44.234C20.4813 43.53 20.0105 43.067 19.2321 42.2092C18.3944 41.286 17.9797 40.7138 17.3136 39.6648C16.5174 38.4109 16.1512 37.6513 15.596 36.2782C15.2002 35.299 15.0011 34.7369 14.7372 33.7159C14.5001 32.7979 14.3861 32.274 14.2805 31.3327C14.1749 30.3926 14.1859 29.8272 14.2031 28.9384L14.2033 28.932C14.2046 28.8623 14.206 28.7906 14.2074 28.7166C14.2271 27.6509 14.2429 27.0491 14.3901 25.993C14.5734 24.6778 14.7732 23.951 15.1575 22.6781C15.4779 21.617 15.6841 21.0265 16.1259 20.0083C16.6732 18.7469 17.0569 18.0693 17.7703 16.8905C18.3461 15.9392 18.7097 15.4292 19.36 14.5252C19.9301 13.7327 20.266 13.2993 20.8765 12.5363C21.2274 12.0978 21.7901 11.4253 21.7901 11.4253L22.32 10.7803C22.2615 10.6799 22.052 10.7624 21.9546 10.8161C21.9546 10.8161 21.1436 11.3272 20.639 11.6762C19.6348 12.3708 19.0542 12.8561 18.2127 13.5594C18.0843 13.6667 17.9499 13.7791 17.8069 13.8981C17.6686 14.0132 17.535 14.1241 17.4056 14.2315L17.4036 14.2333C15.9569 15.4347 15.0257 16.2079 13.6592 17.6789C12.4967 18.9302 11.8818 19.673 10.9002 21.0654C9.74768 22.7004 9.17913 23.6798 8.30562 25.4734C7.56722 26.9895 6.67943 29.4692 6.67943 29.4692L6.05819 31.3685C6.05095 31.3769 6.04368 31.3853 6.03638 31.3937C5.28928 34.2618 4.8916 37.2711 4.8916 40.3734C4.8916 59.9747 20.7674 75.8647 40.3511 75.8647Z" fill="#363636"/>
</g>
<g filter="url(#filter1_d_683_2947)">
<g filter="url(#filter2_i_683_2947)">
<path d="M10.0912 33.829L10.9598 35.4825L14.2863 36.9461L14.0719 35.3838L10.0912 33.829Z" fill="white"/>
<path d="M44.0025 23.4879L42.2933 20.1532C42.2933 20.1532 36.4048 16.7301 25.2744 21.828C17.2682 25.4949 14.0719 35.3838 14.0719 35.3838C14.0719 35.3838 16.5385 33.029 20.0719 34.4936C24.466 36.3151 24.4101 37.3187 24.4101 37.3187C24.4101 37.3187 23.761 42.5303 23.9328 45.8713C24.1654 50.3929 25.5083 52.3939 25.5083 52.3939L26.6507 52.4578L27.4152 55.3457L28.2923 60.9538L30.8829 65.0819C30.8829 65.0819 34.3546 68.4275 40.7526 68.3038C47.1506 68.18 51.4466 66.2316 51.4466 66.2316L53.9143 64.6625L55.505 59.061L60.2819 57.1833L62.0049 54.7409C62.0049 54.7409 65.2348 45.0423 61.043 36.4342C56.0602 26.2019 44.0025 23.4879 44.0025 23.4879Z" fill="white"/>
</g>
<g filter="url(#filter3_i_683_2947)">
<path fill-rule="evenodd" clip-rule="evenodd" d="M37.9342 19.3947C35.1276 19.1805 30.9262 19.5878 25.4063 22.116C21.4839 23.9125 18.7245 27.2421 16.9405 30.147C16.0501 31.5967 15.4071 32.9334 14.9869 33.9071C14.8885 34.1353 14.8023 34.3435 14.7281 34.5284C14.9807 34.3814 15.2846 34.2284 15.6343 34.0944C16.7532 33.6655 18.3383 33.4328 20.1932 34.2017C22.4045 35.1183 23.5262 35.8409 24.0997 36.3536C24.3878 36.6112 24.5457 36.823 24.6312 36.9883C24.6742 37.0714 24.699 37.1429 24.7124 37.2022C24.7192 37.2317 24.723 37.2579 24.7249 37.2805C24.7259 37.2918 24.7264 37.3022 24.7265 37.3116C24.7266 37.3163 24.7265 37.3207 24.7265 37.3249L24.7263 37.331L24.7262 37.3339L24.7261 37.3353C24.726 37.336 24.726 37.3367 24.4105 37.3191L24.726 37.3367L24.7254 37.3475L24.7241 37.3582L24.6809 37.3528C24.7241 37.3582 24.7241 37.3582 24.7241 37.3582L24.7223 37.3727L24.717 37.4164C24.7123 37.455 24.7055 37.5122 24.6968 37.5863C24.6795 37.7344 24.6549 37.9501 24.626 38.2194C24.568 38.7582 24.4925 39.5113 24.4224 40.3683C24.2818 42.0863 24.1641 44.207 24.2489 45.8554C24.3636 48.0869 24.7519 49.6885 25.1071 50.726C25.2848 51.2449 25.4544 51.6232 25.5777 51.869C25.6232 51.9598 25.6625 52.0326 25.6935 52.0878L26.8979 52.1551L27.7253 55.2809L28.595 60.8409L31.1289 64.8788C31.1311 64.8808 31.1335 64.883 31.1361 64.8853C31.1606 64.9076 31.1985 64.9412 31.2495 64.9845C31.3515 65.0712 31.5062 65.1967 31.7124 65.3478C32.125 65.65 32.7432 66.0544 33.5584 66.4557C35.1882 67.258 37.606 68.0486 40.747 67.9878C43.9157 67.9265 46.5634 67.4134 48.4175 66.9161C49.3443 66.6675 50.0722 66.423 50.567 66.2413C50.8143 66.1505 51.0033 66.0754 51.1297 66.0234C51.1929 65.9973 51.2404 65.9771 51.2718 65.9635C51.282 65.9591 51.2906 65.9553 51.2973 65.9524L53.6436 64.4604L55.2443 58.8242L60.0788 56.9238L61.7195 54.5981C61.7246 54.582 61.7311 54.5614 61.7388 54.5366C61.7607 54.4657 61.7927 54.3596 61.832 54.2211C61.9108 53.944 62.0191 53.537 62.1364 53.0211C62.3711 51.989 62.6411 50.5228 62.7813 48.7903C63.0623 45.3215 62.8215 40.8078 60.7593 36.5731C58.3075 31.5381 54.1092 28.3426 50.505 26.4029C48.7046 25.4339 47.0581 24.7814 45.8624 24.3715C45.2648 24.1665 44.7804 24.0224 44.4464 23.9297C44.2794 23.8834 44.1501 23.8499 44.0631 23.8281C44.0196 23.8173 43.9866 23.8093 43.9649 23.8042C43.954 23.8016 43.9459 23.7997 43.9407 23.7985L43.935 23.7972L43.9338 23.7969L43.7893 23.7644L42.0577 20.386C42.0169 20.3652 41.9602 20.3374 41.8876 20.3041C41.7147 20.225 41.4518 20.1154 41.1002 19.9986C40.3971 19.7649 39.3386 19.5019 37.9342 19.3947ZM42.2938 20.1536L42.4524 19.88L42.5326 19.9266L44.218 23.2148C44.31 23.2378 44.4439 23.2725 44.6152 23.32C44.9601 23.4157 45.4566 23.5636 46.0672 23.7729C47.2881 24.1916 48.9674 24.8571 50.8043 25.8457C54.4746 27.821 58.7966 31.0987 61.3275 36.2959C63.4572 40.6693 63.6974 45.309 63.4113 48.8415C63.2681 50.6096 62.9926 52.1061 62.7527 53.1615C62.6327 53.6893 62.5215 54.1073 62.4399 54.3942C62.3992 54.5377 62.3658 54.6484 62.3425 54.7238C62.3308 54.7615 62.3217 54.7903 62.3153 54.81C62.3122 54.8198 62.3097 54.8274 62.308 54.8326L62.306 54.8387L62.3053 54.8409C62.3053 54.8409 62.3052 54.8412 62.0054 54.7412L62.3052 54.8412L62.2904 54.8855L60.4859 57.4435L55.7666 59.2986L54.1857 64.8652L51.5977 66.5109L51.5774 66.5201L51.447 66.2319C51.5774 66.5201 51.5774 66.5201 51.5774 66.5201L51.5769 66.5203L51.5731 66.522L51.5625 66.5268C51.5533 66.5308 51.54 66.5367 51.5227 66.5442C51.488 66.5592 51.4369 66.581 51.3702 66.6085C51.2366 66.6634 51.04 66.7415 50.7846 66.8353C50.2739 67.0228 49.528 67.2732 48.5811 67.5272C46.6876 68.035 43.9885 68.5579 40.7592 68.6204C37.5022 68.6834 34.9851 67.8631 33.2795 67.0234C32.4271 66.6038 31.7775 66.1795 31.3391 65.8583C31.1199 65.6977 30.9534 65.5627 30.8406 65.4669C30.7842 65.419 30.7412 65.3809 30.7118 65.3542C30.697 65.3409 30.6857 65.3304 30.6778 65.3229L30.6684 65.3141L30.6657 65.3115L30.6645 65.3103C30.6645 65.3103 30.6642 65.3101 30.8834 65.0822L30.6642 65.3101L30.6363 65.2833L27.9907 61.0673L27.106 55.4112L26.4045 52.7611L25.3341 52.7013L25.2464 52.5706L25.5087 52.3942C25.2464 52.5706 25.2462 52.5704 25.2462 52.5704L25.246 52.57L25.2455 52.5693L25.2441 52.5672L25.2399 52.5608C25.2365 52.5555 25.2318 52.5482 25.226 52.539C25.2144 52.5204 25.1981 52.4939 25.1779 52.4593C25.1373 52.39 25.0807 52.2882 25.0128 52.1529C24.8771 51.8822 24.6964 51.4776 24.5093 50.9311C24.1349 49.8376 23.7355 48.178 23.6177 45.8879C23.5306 44.1953 23.6515 42.0397 23.7925 40.3166C23.8632 39.4531 23.9392 38.6945 23.9976 38.1517C24.0268 37.8803 24.0516 37.6627 24.0691 37.5128C24.0778 37.4378 24.0848 37.3798 24.0895 37.3404L24.0912 37.3266C24.0874 37.316 24.0808 37.3002 24.07 37.2793C24.0287 37.1995 23.9259 37.0465 23.6787 36.8255C23.1816 36.3811 22.1343 35.6911 19.9514 34.7862C18.273 34.0905 16.858 34.3028 15.8603 34.6852C15.3592 34.8773 14.9627 35.1127 14.6924 35.2994C14.5714 35.383 14.4762 35.4565 14.4087 35.5114L14.6767 37.4636L10.732 35.7279L9.40781 33.5619C9.40781 33.5619 9.2907 33.4195 9.29448 33.2998C9.29842 33.1749 9.53672 32.8955 9.53672 32.8955L13.882 34.9702C13.8962 34.9308 13.9119 34.888 13.9291 34.8419C14.0338 34.5597 14.192 34.154 14.4067 33.6563C14.8361 32.6612 15.4925 31.2965 16.4021 29.8157C18.2177 26.8594 21.0596 23.4111 25.1434 21.5407C30.7539 18.971 35.062 18.541 37.9823 18.7638C39.4413 18.8752 40.5505 19.1493 41.2993 19.3982C41.6737 19.5226 41.9578 19.6406 42.1504 19.7288C42.2467 19.7728 42.3201 19.8094 42.3705 19.8356C42.3957 19.8487 42.4152 19.8592 42.4288 19.8667C42.4356 19.8705 42.441 19.8735 42.445 19.8757L42.4498 19.8785L42.4514 19.8794L42.452 19.8798C42.452 19.8798 42.4525 19.88 42.2938 20.1536ZM13.7845 35.6113L10.7653 34.432L11.1885 35.2377L13.8968 36.4293L13.7845 35.6113Z" fill="black"/>
</g>
<path fill-rule="evenodd" clip-rule="evenodd" d="M37.9677 18.9991C35.1582 18.7842 30.9543 19.1973 25.432 21.7486C21.5039 23.5634 18.7406 26.9242 16.9544 29.8543C16.0629 31.3167 15.4189 32.6651 14.9981 33.6473C14.8862 33.9084 14.7902 34.1435 14.7095 34.3478C14.9732 34.1887 15.2978 34.02 15.6762 33.8736C16.7903 33.4428 18.3686 33.2084 20.2159 33.9795C22.4249 34.9017 23.543 35.6279 24.113 36.1415C24.3992 36.3994 24.5545 36.6102 24.638 36.7729C24.6799 36.8546 24.7037 36.9243 24.7166 36.9814C24.723 37.0099 24.7266 37.0349 24.7284 37.0563C24.7293 37.0669 24.7297 37.0767 24.7298 37.0854C24.7299 37.0898 24.7299 37.0939 24.7298 37.0978C24.7298 37.0997 24.7297 37.1016 24.7296 37.1034L24.7295 37.106L24.7295 37.1073C24.7294 37.108 24.7294 37.1086 24.4394 37.0924C24.7276 37.1282 24.7276 37.1282 24.7276 37.1282L24.7258 37.1429C24.7246 37.1527 24.7228 37.1675 24.7205 37.187C24.7158 37.2259 24.7089 37.2836 24.7002 37.3582C24.6829 37.5076 24.6582 37.725 24.6291 37.9965C24.5709 38.5395 24.4951 39.2986 24.4246 40.1624C24.2833 41.8936 24.1645 44.032 24.2487 45.6949C24.3625 47.946 24.7505 49.5622 25.106 50.6099C25.2838 51.1339 25.4536 51.5162 25.5773 51.765C25.6265 51.8639 25.6684 51.9417 25.7006 51.9989L26.8997 52.066L27.7201 55.1945L28.5876 60.8005L31.1238 64.8758C31.1268 64.8786 31.1301 64.8816 31.1337 64.8849C31.1584 64.9075 31.1964 64.9415 31.2476 64.9854C31.35 65.073 31.5051 65.1998 31.7117 65.3523C32.1249 65.6574 32.7439 66.0653 33.5601 66.47C35.1918 67.279 37.6119 68.0756 40.7559 68.0129C43.9256 67.9497 46.5745 67.4311 48.4295 66.9288C49.3569 66.6777 50.0852 66.4309 50.5805 66.2474C50.8281 66.1557 51.0173 66.0798 51.144 66.0272C51.2073 66.0009 51.2549 65.9804 51.2864 65.9667C51.2976 65.9618 51.3068 65.9577 51.3138 65.9546L53.6702 64.4437L55.2719 58.7673L60.1003 56.8524L61.7486 54.4982C61.7539 54.4813 61.7609 54.4591 61.7693 54.4317C61.7913 54.36 61.8234 54.253 61.8628 54.1131C61.9418 53.8334 62.0504 53.4228 62.168 52.9024C62.4033 51.8613 62.6741 50.3825 62.8152 48.6352C63.0978 45.137 62.8591 40.5835 60.7966 36.3114C58.3445 31.2324 54.1441 28.0113 50.5398 26.0573C48.7391 25.0811 47.0922 24.4239 45.8963 24.011C45.2985 23.8047 44.8139 23.6595 44.4797 23.5661C44.3126 23.5195 44.1831 23.4858 44.096 23.4639C44.0524 23.4529 44.0194 23.4449 43.9975 23.4397C43.9917 23.4383 43.9867 23.4371 43.9825 23.4361C43.9788 23.4352 43.9757 23.4345 43.9732 23.4339L43.9675 23.4326L43.9661 23.4323L43.8331 23.4022L42.1053 20.0024C42.0638 19.9809 42.0044 19.9513 41.927 19.9157C41.7535 19.8357 41.49 19.7251 41.1377 19.6073C40.4333 19.3716 39.3734 19.1066 37.9677 18.9991ZM42.3231 19.7896L42.4698 19.5386L42.5434 19.5817L44.2285 22.8975C44.2315 22.8983 44.2345 22.899 44.2375 22.8998C44.3293 22.9229 44.4637 22.9579 44.6358 23.006C44.9801 23.1021 45.4759 23.2507 46.0857 23.4612C47.305 23.8822 48.9821 24.5515 50.8164 25.5459C54.4821 27.5332 58.7957 30.8303 61.3197 36.0584C63.4436 40.4574 63.6816 45.126 63.3943 48.6821C63.2506 50.4619 62.9748 51.9684 62.7347 53.0307C62.6146 53.562 62.5034 53.9826 62.4219 54.2713C62.3812 54.4156 62.3479 54.527 62.3246 54.6027C62.3129 54.6406 62.3038 54.6696 62.2975 54.6893C62.2944 54.6992 62.2919 54.7067 62.2902 54.7119L62.2882 54.718L62.2877 54.7197L62.2875 54.7202C62.2875 54.7202 62.2874 54.7205 62.0117 54.6291L62.2874 54.7205L62.274 54.761L60.4761 57.3289L55.7529 59.2021L54.1693 64.8143L51.5918 66.467L51.5731 66.4756L51.4626 66.2336C51.5313 66.384 51.5573 66.4409 51.567 66.4625C51.573 66.4756 51.5731 66.4756 51.5731 66.4756L51.5718 66.4762L51.5689 66.4775C51.5664 66.4786 51.5629 66.4802 51.5583 66.4822C51.5493 66.4863 51.536 66.4922 51.5187 66.4997C51.4842 66.5148 51.4333 66.5367 51.3667 66.5644C51.2334 66.6197 51.0372 66.6984 50.7821 66.7928C50.2722 66.9818 49.5271 67.2341 48.5812 67.4902C46.6898 68.0023 43.9933 68.53 40.7675 68.5944C37.5159 68.6592 35.0039 67.8349 33.3022 66.9911C32.4518 66.5695 31.8038 66.143 31.3668 65.8203C31.1483 65.659 30.9823 65.5235 30.8701 65.4274C30.8139 65.3793 30.7712 65.3411 30.742 65.3144C30.7274 65.3011 30.7161 65.2906 30.7083 65.2832C30.7044 65.2795 30.7013 65.2766 30.6991 65.2745L30.6964 65.2719L30.6956 65.2711L30.6952 65.2708C30.6952 65.2708 30.695 65.2705 30.8973 65.0618L30.695 65.2705L30.6695 65.2458L28.0316 61.0071L27.1505 55.3132L26.4451 52.623L25.3692 52.5629L25.2887 52.4419L25.5304 52.2807C25.2887 52.4419 25.2885 52.4416 25.2885 52.4416L25.2883 52.4413L25.2878 52.4406L25.2865 52.4386C25.2855 52.437 25.2841 52.4349 25.2824 52.4323C25.2804 52.4292 25.278 52.4254 25.2751 52.4209C25.2732 52.4178 25.2711 52.4144 25.2688 52.4107C25.2573 52.3923 25.2412 52.3658 25.2211 52.3312C25.1809 52.2619 25.1247 52.1599 25.0572 52.0241C24.9222 51.7526 24.7422 51.3463 24.5558 50.797C24.183 49.6981 23.785 48.0288 23.6684 45.7244C23.5822 44.0211 23.7039 41.8509 23.8456 40.115C23.9165 39.2453 23.9929 38.4812 24.0514 37.9345C24.0807 37.6611 24.1056 37.4419 24.1232 37.291C24.1319 37.2155 24.1389 37.1571 24.1437 37.1174C24.1446 37.1098 24.1454 37.1028 24.1462 37.0966C24.1423 37.0848 24.1349 37.0654 24.1211 37.0386C24.0779 36.9544 23.9729 36.7978 23.7242 36.5738C23.2245 36.1234 22.175 35.4274 19.9923 34.5163C18.3083 33.8133 16.8877 34.0286 15.8855 34.4162C15.3824 34.6107 14.9842 34.8492 14.7126 35.0383C14.5855 35.1269 14.4866 35.2043 14.4182 35.2607L14.6524 37.4387L10.7965 35.5448L9.5581 33.1438L13.9305 34.766C13.9471 34.7195 13.9658 34.6679 13.9867 34.6114C14.0914 34.3275 14.2494 33.9191 14.4641 33.4181C14.8933 32.4163 15.5495 31.0424 16.4585 29.5513C18.2732 26.5745 21.1119 23.1039 25.1885 21.2206C30.7945 18.6306 35.097 18.1962 38.0119 18.4192C39.4683 18.5306 40.5751 18.8058 41.3219 19.0557C41.6951 19.1806 41.9783 19.2991 42.17 19.3874C42.2659 19.4316 42.3389 19.4683 42.3889 19.4945C42.4139 19.5076 42.4332 19.518 42.4467 19.5255C42.4534 19.5293 42.4587 19.5323 42.4626 19.5345L42.4673 19.5371L42.4688 19.538L42.4694 19.5384C42.4694 19.5384 42.4698 19.5386 42.3231 19.7896ZM13.8453 35.3573L10.7324 34.133L11.2275 35.1098L14.0269 36.5018L13.8453 35.3573ZM24.4394 37.0924L24.7276 37.1282L24.7288 37.1184L24.7294 37.1086L24.4394 37.0924Z" fill="black"/>
<path d="M14.6692 37.4361C14.6692 37.4361 15.4107 36.8288 15.9982 36.7529C16.5837 36.6772 17.1451 36.7289 17.6598 36.9781C19.7189 37.9753 22.7637 39.4687 22.7343 39.9962C22.7049 40.5238 15.8136 48.5578 15.7736 50.6045C15.7652 51.0359 15.92 51.3574 16.288 51.5819C16.9722 51.9993 19.167 52.5647 19.167 52.5647L19.9909 55.6603L21.0481 55.7735L21.5389 56.1218L22.129 56.4185L22.1655 57.2968L20.0093 62.7773L25.6498 65.9153C25.6498 65.9153 32.3522 68.7843 36.9172 69.2796C41.042 69.7272 43.5979 70.0232 47.5245 68.6819C49.8221 67.8971 53.018 65.7696 53.018 65.7696L55.2351 64.0783L53.9212 64.5852C53.9212 64.5852 52.3886 65.75 51.2732 66.2453C49.4209 67.0679 44.4739 68.5114 40.014 68.262C34.3921 67.9477 31.5672 65.6728 31.0256 65.1133C30.4841 64.5538 28.2696 60.8135 28.2696 60.8135L26.7129 52.3911L25.5709 52.3272C25.5709 52.3272 23.9459 48.1533 23.8918 45.3092C23.8245 41.7772 24.4798 37.139 24.4798 37.139C24.4798 37.139 25.356 36.4382 19.581 34.1306C16.5169 32.9063 14.1954 35.1085 14.1954 35.1085L14.6692 37.4361Z" fill="black"/>
<path d="M12.8358 28.5806L16.2683 30.2048C16.2683 30.2048 15.4591 31.6593 14.9974 32.6198C14.5538 33.5428 13.9448 35.0214 13.9448 35.0214L9.73458 33.1162C9.73458 33.1162 10.582 31.6308 11.2013 30.7287C11.7979 29.8597 12.8358 28.5806 12.8358 28.5806Z" fill="black"/>
<g filter="url(#filter4_i_683_2947)">
<path d="M19.8816 63.6228C19.5769 63.6647 19.3882 63.0083 19.3882 63.0083L18.7471 56.6338C18.7471 56.6338 18.6747 55.8737 18.9812 55.5905C19.3512 55.2486 20.2704 55.6039 20.2704 55.6039L26.884 58.9669C26.884 58.9669 28.159 59.5823 28.2734 60.3358C28.3468 60.8194 28.1082 61.0818 27.971 61.5514C27.6807 62.5446 27.0643 64.1418 27.0643 64.1418C27.0643 64.1418 25.6354 64.5314 24.7586 64.4824C24.6865 64.4784 24.6305 64.4716 24.5866 64.4141C24.531 64.3414 24.5526 64.2585 24.5996 64.18C25.2461 63.1011 26.4285 61.876 26.4579 61.3494C26.4711 61.1118 22.643 59.3167 22.643 59.3167C22.643 59.3167 21.9661 59.0052 21.7078 59.2644C21.5273 59.4455 21.6125 59.8301 21.5452 60.077C21.3434 60.8171 20.866 61.741 20.866 61.741L20.2649 63.0573C20.2649 63.0573 20.1457 63.5865 19.8816 63.6228Z" fill="#CFCFCF"/>
</g>
<g filter="url(#filter5_i_683_2947)">
<path fill-rule="evenodd" clip-rule="evenodd" d="M19.3733 55.7634C19.2721 55.7742 19.2206 55.8012 19.1966 55.8234C19.1744 55.8439 19.1439 55.8887 19.1167 55.9719C19.0903 56.0525 19.0738 56.1485 19.065 56.2471C19.0562 56.3444 19.0557 56.4355 19.0575 56.5027C19.0584 56.5361 19.0598 56.5628 19.061 56.5806C19.0615 56.5895 19.062 56.5961 19.0624 56.6002L19.0627 56.6041C19.0627 56.6042 19.0627 56.6043 19.0627 56.6044C19.0627 56.6044 19.0627 56.6043 19.0627 56.6044C19.0627 56.6044 19.0627 56.6046 19.0627 56.6047C19.0627 56.6047 19.0627 56.6046 19.0627 56.6047L19.7004 62.9452C19.705 62.9592 19.7115 62.9785 19.7199 63.0011C19.7392 63.0537 19.7666 63.1198 19.8 63.182C19.8177 63.215 19.8346 63.2422 19.85 63.2638C19.8616 63.2446 19.8739 63.2216 19.8862 63.1948C19.9099 63.1432 19.9283 63.0901 19.9409 63.0487C19.9471 63.0284 19.9516 63.0119 19.9544 63.001C19.9558 62.9956 19.9568 62.9917 19.9573 62.9894L19.9576 62.9882L19.9577 62.9879L19.9578 62.9877L19.9578 62.9874L19.9649 62.9561L20.5828 61.603L20.5863 61.5962L20.5874 61.5942L20.591 61.587C20.5943 61.5806 20.5993 61.5708 20.6058 61.558C20.6187 61.5323 20.6375 61.4945 20.6608 61.4467C20.7075 61.3511 20.772 61.2157 20.8425 61.0579C20.985 60.739 21.1469 60.3406 21.2413 59.9942C21.2493 59.9652 21.2552 59.9215 21.2591 59.8534C21.2609 59.8225 21.2622 59.7907 21.2636 59.7549L21.2639 59.7473C21.2653 59.7098 21.267 59.6681 21.2697 59.6261C21.2791 59.48 21.3029 59.2243 21.4851 59.0414C21.6234 58.9027 21.7995 58.8584 21.941 58.8482C22.0839 58.8378 22.2264 58.8589 22.3428 58.8852C22.4616 58.912 22.5684 58.9477 22.6445 58.9761C22.6829 58.9904 22.7145 59.0032 22.737 59.0127C22.7483 59.0175 22.7574 59.0214 22.7639 59.0243L22.7719 59.0279L22.7745 59.029L22.7754 59.0294L22.7757 59.0296C22.7758 59.0296 22.776 59.0297 22.644 59.3171L22.776 59.0297L22.7781 59.0307L22.6486 59.3073C22.7781 59.0307 22.778 59.0307 22.7781 59.0307L22.8215 59.0511C22.8497 59.0644 22.8911 59.0839 22.9436 59.1088C23.0486 59.1585 23.1986 59.2298 23.3785 59.3161C23.7381 59.4885 24.2179 59.7212 24.6978 59.9615C25.1767 60.2013 25.6596 60.4508 26.0237 60.6565C26.2046 60.7587 26.3633 60.8541 26.4789 60.9344C26.5355 60.9737 26.5918 61.0162 26.6369 61.0595C26.659 61.0807 26.6877 61.1108 26.7126 61.1485C26.7326 61.1788 26.7805 61.2582 26.7744 61.3675C26.7622 61.5856 26.6422 61.8211 26.517 62.027C26.3832 62.2471 26.2043 62.494 26.0139 62.7479C25.9394 62.8473 25.863 62.9481 25.7859 63.0497C25.5049 63.42 25.2153 63.8017 24.979 64.1703C25.3463 64.1637 25.7915 64.0966 26.1807 64.0205C26.4084 63.9759 26.6097 63.9298 26.754 63.8949C26.7809 63.8884 26.8058 63.8823 26.8284 63.8766C26.8408 63.8441 26.8549 63.8068 26.8705 63.7654C26.9325 63.601 27.0182 63.3716 27.1129 63.1113C27.303 62.5887 27.5266 61.9492 27.6687 61.463C27.7077 61.3297 27.7533 61.2132 27.7954 61.1111C27.8081 61.0803 27.8201 61.0518 27.8314 61.0248C27.8594 60.958 27.8835 60.9006 27.9055 60.8405C27.9614 60.6877 27.9882 60.5568 27.962 60.3838C27.9452 60.2734 27.8815 60.146 27.7658 60.0064C27.6518 59.8689 27.5029 59.7383 27.3482 59.623C27.1946 59.5087 27.0429 59.415 26.9291 59.3499C26.8724 59.3174 26.8259 59.2924 26.794 59.2758C26.778 59.2675 26.7658 59.2613 26.7579 59.2573L26.7494 59.2531L26.7477 59.2523L26.7475 59.2522L26.7448 59.2509L20.1445 55.8946C20.1398 55.8929 20.1339 55.8908 20.1269 55.8884C20.1046 55.8806 20.0714 55.8694 20.0301 55.8568C19.9468 55.8315 19.8342 55.8016 19.7136 55.7815C19.591 55.761 19.4724 55.7528 19.3733 55.7634ZM20.2714 55.6043L20.3852 55.3092L20.4002 55.315L27.0258 58.6841L27.0279 58.6852L27.0407 58.6916C27.0516 58.697 27.0668 58.7047 27.086 58.7147C27.1243 58.7347 27.1782 58.7637 27.2429 58.8007C27.3717 58.8745 27.546 58.9818 27.7254 59.1155C27.9037 59.2482 28.095 59.4128 28.2523 59.6025C28.4079 59.7903 28.5464 60.0223 28.5868 60.2887C28.634 60.5993 28.5782 60.8415 28.4989 61.0581C28.4715 61.1331 28.439 61.2106 28.4089 61.2822C28.3988 61.3064 28.3889 61.33 28.3796 61.3526C28.3407 61.4468 28.305 61.5392 28.2753 61.6407C28.1271 62.1477 27.8975 62.8034 27.7067 63.3277C27.611 63.5909 27.5244 63.8228 27.4618 63.9889C27.4304 64.072 27.4051 64.1387 27.3875 64.1846L27.3672 64.2376L27.3602 64.2559L27.3601 64.2561C27.3601 64.2562 27.3601 64.2562 27.0653 64.1422C27.1483 64.4474 27.1483 64.4475 27.1483 64.4475L27.1469 64.4478L27.1433 64.4488L27.1302 64.4523C27.1189 64.4553 27.1024 64.4597 27.0813 64.4651C27.0391 64.4761 26.9782 64.4915 26.9026 64.5098C26.7516 64.5464 26.5409 64.5946 26.3018 64.6414C25.832 64.7333 25.2225 64.8256 24.742 64.7987C24.7404 64.7986 24.7386 64.7985 24.7368 64.7984C24.661 64.7943 24.472 64.784 24.3365 64.6067C24.1576 64.3725 24.2643 64.1268 24.3296 64.0178C24.6017 63.5637 24.9658 63.0841 25.292 62.6544C25.3667 62.5561 25.4393 62.4604 25.5084 62.3682C25.6981 62.1151 25.8607 61.8896 25.9771 61.6981C26.0421 61.5911 26.0838 61.5086 26.1092 61.4477C26.0181 61.3852 25.8832 61.3036 25.7131 61.2075C25.3631 61.0098 24.8915 60.766 24.415 60.5273C23.9395 60.2892 23.4632 60.0582 23.1054 59.8866C22.9266 59.8009 22.7776 59.7301 22.6733 59.6807C22.6212 59.656 22.5803 59.6367 22.5524 59.6236L22.5118 59.6045L22.5087 59.6031C22.5053 59.6016 22.4995 59.5991 22.4918 59.5958C22.4763 59.5893 22.453 59.5798 22.4239 59.569C22.365 59.547 22.2865 59.521 22.2038 59.5024C22.1186 59.4832 22.0435 59.475 21.9868 59.4792C21.9533 59.4816 21.9374 59.4873 21.9316 59.4899C21.9271 59.4981 21.9088 59.5376 21.9004 59.6669C21.8983 59.6998 21.8969 59.7339 21.8954 59.7719L21.8951 59.7807C21.8937 59.8151 21.8923 59.8529 21.8901 59.8903C21.8855 59.9693 21.8768 60.0663 21.8511 60.1607C21.7437 60.5545 21.5661 60.9881 21.4194 61.3162C21.3454 61.4818 21.2779 61.6237 21.2287 61.7244C21.2042 61.7748 21.1841 61.815 21.1701 61.8427C21.1631 61.8566 21.1577 61.8674 21.1539 61.8749L21.1514 61.8796L20.5655 63.1627C20.5608 63.1807 20.5541 63.2049 20.5454 63.2334C20.5274 63.2923 20.4995 63.3738 20.4604 63.459C20.4223 63.542 20.3674 63.6421 20.2907 63.7291C20.2148 63.815 20.0945 63.9134 19.9256 63.9366C19.7216 63.9647 19.5624 63.8691 19.4632 63.7779C19.3652 63.6879 19.2933 63.5747 19.2432 63.4814C19.1914 63.3848 19.1525 63.2895 19.127 63.2202C19.114 63.1851 19.104 63.1554 19.0971 63.134C19.0937 63.1232 19.091 63.1145 19.089 63.1081L19.0867 63.1003L19.0859 63.0978L19.0857 63.0969L19.0856 63.0965C19.0856 63.0965 19.0855 63.0962 19.3892 63.0088L19.0855 63.0962L19.0776 63.0688L18.4335 56.6643L18.7476 56.6344C18.4335 56.6643 18.4335 56.6644 18.4335 56.6643L18.4335 56.6637L18.4334 56.6627L18.4331 56.66L18.4324 56.6512C18.4318 56.644 18.4311 56.634 18.4303 56.6216C18.4287 56.5967 18.4268 56.5618 18.4257 56.5195C18.4235 56.4354 18.424 56.3187 18.4355 56.1906C18.4468 56.0637 18.4697 55.9166 18.516 55.7751C18.5614 55.6361 18.6368 55.4796 18.7679 55.3585C18.9289 55.2098 19.131 55.153 19.3062 55.1343C19.4834 55.1153 19.6641 55.1318 19.8175 55.1574C19.9729 55.1834 20.1132 55.2209 20.2138 55.2515C20.2645 55.2669 20.306 55.2808 20.3354 55.2911C20.3501 55.2963 20.3619 55.3005 20.3703 55.3036L20.3804 55.3074L20.3834 55.3086L20.3845 55.309L20.3852 55.3092C20.3853 55.3093 20.3852 55.3092 20.2714 55.6043ZM21.929 59.4913C21.929 59.4913 21.9291 59.4913 21.9292 59.4912ZM27.0653 64.1422L27.1483 64.4475L27.3025 64.4054L27.3601 64.2561L27.0653 64.1422Z" fill="black"/>
</g>
<g filter="url(#filter6_i_683_2947)">
<path fill-rule="evenodd" clip-rule="evenodd" d="M65.6502 60.7312C68.2643 56.6965 69.8806 52.005 70.1631 46.9478C71.071 30.6922 57.8621 16.6573 40.5559 15.6907C34.2247 15.337 28.2437 16.7826 23.1596 19.554C14.3785 24.8491 9.90356 33.1048 9.90356 33.1048L14.2407 35.0673C14.2407 35.0673 16.7689 26.8461 23.5666 22.5784C32.9196 16.7064 42.4354 19.7523 42.4354 19.7523L44.1825 23.1577C44.1825 23.1577 56.4514 26.658 60.9027 35.9562C65.2923 45.1255 62.2516 54.0269 61.9204 54.8009C61.757 55.1829 59.9876 57.7182 59.3275 57.8754C57.9347 58.207 55.5704 59.0079 55.5704 59.0079C55.5704 59.0079 55.4118 59.0809 55.3432 59.1679C55.2692 59.262 55.2253 59.4643 55.2253 59.4643L53.8874 64.6583C53.8874 64.6583 55.2737 63.8573 56.11 63.3975C57.7486 62.4967 58.7846 62.1975 60.5876 61.704C62.4649 61.1902 65.5003 60.8667 65.5003 60.8667C65.5003 60.8667 65.5541 60.8227 65.6502 60.7312Z" fill="#2456B6"/>
</g>
<path d="M65.6502 60.7312L65.9949 61.0934L66.0377 61.0527L66.0698 61.0031L65.6502 60.7312ZM23.1596 19.554L22.9203 19.115L22.9107 19.1202L22.9014 19.1259L23.1596 19.554ZM9.90356 33.1048L9.46398 32.8665L9.20796 33.3388L9.69743 33.5603L9.90356 33.1048ZM14.2407 35.0673L14.0346 35.5228L14.5517 35.7568L14.7186 35.2142L14.2407 35.0673ZM23.5666 22.5784L23.8325 23.0018L23.8325 23.0018L23.5666 22.5784ZM42.4354 19.7523L42.8802 19.524L42.7855 19.3393L42.5878 19.2761L42.4354 19.7523ZM44.1825 23.1577L43.7376 23.3859L43.8367 23.579L44.0453 23.6385L44.1825 23.1577ZM60.9027 35.9562L61.3537 35.7403L60.9027 35.9562ZM61.9204 54.8009L62.3801 54.9976L62.3801 54.9976L61.9204 54.8009ZM59.3275 57.8754L59.4433 58.3618L59.4433 58.3618L59.3275 57.8754ZM55.5704 59.0079L55.4099 58.5343L55.3852 58.5427L55.3614 58.5537L55.5704 59.0079ZM55.3432 59.1679L54.9503 58.8587L54.9503 58.8587L55.3432 59.1679ZM55.2253 59.4643L55.7095 59.5891L55.7118 59.5798L55.7139 59.5704L55.2253 59.4643ZM53.8874 64.6583L53.4032 64.5336L53.1061 65.6872L54.1376 65.0912L53.8874 64.6583ZM56.11 63.3975L56.3509 63.8357L56.3509 63.8357L56.11 63.3975ZM60.5876 61.704L60.4556 61.2218L60.4556 61.2218L60.5876 61.704ZM65.5003 60.8667L65.5533 61.3639L65.7017 61.3481L65.8172 61.2535L65.5003 60.8667ZM69.6639 46.9199C69.3864 51.8869 67.7992 56.4947 65.2306 60.4593L66.0698 61.0031C68.7293 56.8983 70.3748 52.1232 70.6623 46.9757L69.6639 46.9199ZM40.528 16.1899C57.585 17.1426 70.555 30.9657 69.6639 46.9199L70.6623 46.9757C71.5871 30.4186 58.1393 16.172 40.5837 15.1914L40.528 16.1899ZM23.3989 19.9931C28.4023 17.2656 34.2909 15.8415 40.528 16.1899L40.5837 15.1914C34.1585 14.8326 28.0851 16.2995 22.9203 19.115L23.3989 19.9931ZM22.9014 19.1259C18.4468 21.812 15.091 25.2445 12.8507 27.9996C11.7297 29.3783 10.8856 30.5904 10.3207 31.4596C10.0382 31.8944 9.82539 32.2436 9.68253 32.4853C9.6111 32.6062 9.55715 32.7002 9.52071 32.7647C9.50249 32.7969 9.48865 32.8217 9.4792 32.8388C9.47447 32.8473 9.47084 32.854 9.4683 32.8586C9.46703 32.8609 9.46604 32.8627 9.46532 32.864C9.46496 32.8647 9.46467 32.8652 9.46444 32.8657C9.46433 32.8659 9.46422 32.8661 9.46416 32.8662C9.46406 32.8664 9.46398 32.8665 9.90356 33.1048C10.3431 33.343 10.3431 33.3431 10.3431 33.3432C10.3431 33.3432 10.3431 33.3432 10.3431 33.3431C10.3431 33.3431 10.3432 33.3428 10.3434 33.3425C10.3438 33.3418 10.3444 33.3406 10.3454 33.339C10.3472 33.3356 10.3501 33.3303 10.3541 33.3231C10.3621 33.3086 10.3745 33.2864 10.3912 33.2569C10.4246 33.1978 10.4754 33.1093 10.5434 32.9941C10.6796 32.7637 10.885 32.4265 11.1592 32.0045C11.7078 31.1604 12.5312 29.9776 13.6266 28.6305C15.8191 25.9341 19.0912 22.5912 23.4178 19.9822L22.9014 19.1259ZM9.69743 33.5603L14.0346 35.5228L14.4468 34.6117L10.1097 32.6492L9.69743 33.5603ZM14.2407 35.0673C14.7186 35.2142 14.7186 35.2144 14.7185 35.2144C14.7185 35.2144 14.7185 35.2145 14.7185 35.2144C14.7186 35.2144 14.7186 35.2142 14.7187 35.2139C14.7189 35.2133 14.7192 35.2122 14.7197 35.2106C14.7207 35.2074 14.7224 35.2022 14.7246 35.1952C14.7291 35.1811 14.7361 35.1593 14.7456 35.1303C14.7647 35.0723 14.7941 34.9854 14.834 34.8723C14.9139 34.6462 15.0363 34.3161 15.2046 33.9057C15.5412 33.0843 16.0604 31.9436 16.7885 30.6716C18.2478 28.1221 20.5289 25.0759 23.8325 23.0018L23.3008 22.1549C19.8067 24.3486 17.4248 27.5468 15.9206 30.1748C15.1669 31.4916 14.6291 32.6729 14.2793 33.5264C14.1043 33.9534 13.9761 34.2989 13.8912 34.539C13.8487 34.6591 13.8171 34.753 13.7958 34.8175C13.7852 34.8497 13.7772 34.8747 13.7717 34.8919C13.7689 34.9006 13.7668 34.9073 13.7653 34.912C13.7646 34.9144 13.764 34.9163 13.7636 34.9177C13.7634 34.9183 13.7632 34.9189 13.7631 34.9194C13.763 34.9196 13.7629 34.9198 13.7629 34.9199C13.7628 34.9201 13.7628 34.9203 14.2407 35.0673ZM23.8325 23.0018C28.4081 20.1292 33.0249 19.4364 36.5045 19.4633C38.2441 19.4768 39.6961 19.6702 40.7107 19.8596C41.2177 19.9543 41.6149 20.0478 41.8834 20.117C42.0176 20.1516 42.1196 20.1802 42.187 20.1997C42.2207 20.2095 42.2457 20.217 42.2618 20.2219C42.2699 20.2244 42.2757 20.2262 42.2792 20.2273C42.281 20.2278 42.2822 20.2282 42.2828 20.2284C42.2831 20.2285 42.2833 20.2286 42.2833 20.2286C42.2833 20.2286 42.2832 20.2286 42.2832 20.2286C42.2831 20.2285 42.283 20.2285 42.4354 19.7523C42.5878 19.2761 42.5876 19.276 42.5873 19.2759C42.5872 19.2759 42.5869 19.2758 42.5866 19.2757C42.586 19.2755 42.5853 19.2753 42.5845 19.275C42.5828 19.2745 42.5805 19.2738 42.5777 19.2729C42.572 19.2711 42.564 19.2686 42.5538 19.2655C42.5333 19.2592 42.5038 19.2504 42.4655 19.2393C42.3889 19.2171 42.2774 19.1859 42.1331 19.1487C41.8446 19.0743 41.4253 18.9757 40.8941 18.8766C39.8322 18.6784 38.3207 18.4773 36.5122 18.4633C32.8957 18.4353 28.0781 19.1556 23.3008 22.1549L23.8325 23.0018ZM41.9905 19.9805L43.7376 23.3859L44.6274 22.9294L42.8802 19.524L41.9905 19.9805ZM44.1825 23.1577C44.0453 23.6385 44.0452 23.6385 44.0452 23.6384C44.0452 23.6385 44.0452 23.6385 44.0453 23.6385C44.0455 23.6385 44.0459 23.6386 44.0464 23.6388C44.0475 23.6391 44.0494 23.6396 44.0519 23.6404C44.0571 23.6419 44.0651 23.6442 44.076 23.6475C44.0978 23.6539 44.1309 23.6638 44.1747 23.6772C44.2624 23.7041 44.3929 23.7452 44.5613 23.8009C44.8983 23.9124 45.387 24.0826 45.9882 24.316C47.1912 24.783 48.8416 25.5014 50.6283 26.5059C54.2127 28.5212 58.2902 31.6569 60.4517 36.1721L61.3537 35.7403C59.064 30.9573 54.7814 27.6937 51.1184 25.6343C49.2815 24.6015 47.5865 23.8637 46.35 23.3838C45.7315 23.1437 45.2268 22.9678 44.8754 22.8515C44.6997 22.7934 44.5623 22.7502 44.4681 22.7212C44.4209 22.7068 44.3846 22.6959 44.3597 22.6885C44.3472 22.6848 44.3376 22.682 44.3309 22.6801C44.3276 22.6791 44.3249 22.6784 44.3231 22.6778C44.3221 22.6776 44.3214 22.6773 44.3208 22.6772C44.3205 22.6771 44.3203 22.677 44.3201 22.677C44.3199 22.6769 44.3197 22.6769 44.1825 23.1577ZM60.4517 36.1721C62.5992 40.6579 62.9316 45.0834 62.6832 48.4904C62.4343 51.9041 61.6043 54.2687 61.4607 54.6042L62.3801 54.9976C62.5678 54.559 63.4237 52.0859 63.6805 48.5631C63.9379 45.0337 63.5958 40.4237 61.3537 35.7403L60.4517 36.1721ZM61.4607 54.6042C61.4608 54.6042 61.4542 54.6187 61.435 54.6529C61.4174 54.6846 61.3935 54.7251 61.3633 54.7743C61.3029 54.8725 61.222 54.9971 61.1253 55.1398C60.9319 55.4251 60.6811 55.7739 60.4155 56.1155C60.1486 56.4588 59.8737 56.7856 59.6316 57.0319C59.5102 57.1554 59.4048 57.2506 59.319 57.3159C59.2227 57.3892 59.1904 57.3941 59.2117 57.389L59.4433 58.3618C59.6295 58.3175 59.797 58.2087 59.9244 58.1118C60.0624 58.0068 60.2048 57.8752 60.3447 57.733C60.6251 57.4478 60.9266 57.0874 61.2049 56.7294C61.4846 56.3697 61.7481 56.0032 61.9531 55.7009C62.1457 55.4167 62.3168 55.1456 62.3801 54.9976L61.4607 54.6042ZM59.2117 57.389C58.4963 57.5593 57.5422 57.8472 56.776 58.0892C56.391 58.2108 56.0499 58.322 55.805 58.4027C55.6825 58.4431 55.584 58.4759 55.516 58.4987C55.482 58.5101 55.4556 58.5189 55.4377 58.525C55.4287 58.528 55.4218 58.5303 55.4172 58.5319C55.4148 58.5327 55.4131 58.5333 55.4119 58.5337C55.4113 58.5339 55.4108 58.5341 55.4105 58.5342C55.4103 58.5342 55.4102 58.5343 55.4101 58.5343C55.4101 58.5343 55.41 58.5343 55.41 58.5343C55.41 58.5343 55.4099 58.5343 55.5704 59.0079C55.7308 59.4815 55.7308 59.4815 55.7308 59.4815C55.7308 59.4815 55.7308 59.4815 55.7308 59.4815C55.7309 59.4814 55.731 59.4814 55.7311 59.4814C55.7314 59.4813 55.7318 59.4811 55.7323 59.481C55.7334 59.4806 55.735 59.48 55.7372 59.4793C55.7416 59.4778 55.7482 59.4756 55.7569 59.4727C55.7742 59.4668 55.8 59.4582 55.8334 59.447C55.9001 59.4247 55.9972 59.3923 56.1181 59.3524C56.3601 59.2727 56.6971 59.1629 57.0772 59.0428C57.8414 58.8014 58.7658 58.5231 59.4433 58.3618L59.2117 57.389ZM55.5704 59.0079C55.3614 58.5537 55.3614 58.5537 55.3613 58.5537C55.3613 58.5537 55.3612 58.5538 55.3612 58.5538C55.3611 58.5538 55.361 58.5539 55.3609 58.5539C55.3607 58.554 55.3605 58.5541 55.3603 58.5542C55.3599 58.5544 55.3594 58.5546 55.3589 58.5548C55.3579 58.5553 55.3567 58.5559 55.3554 58.5565C55.3527 58.5577 55.3494 58.5593 55.3455 58.5612C55.3378 58.5649 55.3277 58.5699 55.3158 58.576C55.2923 58.5881 55.2601 58.6055 55.224 58.6273C55.1663 58.6621 55.0434 58.7404 54.9503 58.8587L55.7361 59.4772C55.7192 59.4987 55.7081 59.5059 55.7148 59.5007C55.7193 59.4972 55.7282 59.491 55.741 59.4833C55.7531 59.4759 55.7648 59.4696 55.7732 59.4653C55.7772 59.4632 55.7801 59.4618 55.7813 59.4612C55.7819 59.4609 55.7821 59.4609 55.7818 59.461C55.7816 59.4611 55.7813 59.4612 55.7809 59.4614C55.7807 59.4615 55.7805 59.4616 55.7802 59.4617C55.7801 59.4618 55.7799 59.4619 55.7798 59.4619C55.7797 59.462 55.7796 59.462 55.7795 59.4621C55.7795 59.4621 55.7794 59.4621 55.7794 59.4621C55.7794 59.4621 55.7793 59.4622 55.5704 59.0079ZM54.9503 58.8587C54.8542 58.9808 54.8029 59.1293 54.7809 59.197C54.7669 59.2402 54.7563 59.2786 54.7491 59.3063C54.7455 59.3203 54.7427 59.3321 54.7406 59.3409C54.7396 59.3453 54.7387 59.349 54.738 59.3519C54.7377 59.3534 54.7374 59.3547 54.7372 59.3557C54.7371 59.3562 54.737 59.3567 54.7369 59.3571C54.7368 59.3574 54.7368 59.3576 54.7368 59.3577C54.7367 59.3578 54.7367 59.3579 54.7367 59.358C54.7367 59.3581 54.7367 59.3581 54.7367 59.3581C54.7367 59.3582 54.7366 59.3583 55.2253 59.4643C55.7139 59.5704 55.7139 59.5705 55.7139 59.5705C55.7139 59.5705 55.7138 59.5706 55.7138 59.5706C55.7138 59.5707 55.7138 59.5708 55.7138 59.5708C55.7138 59.571 55.7137 59.5711 55.7137 59.5712C55.7137 59.5715 55.7136 59.5716 55.7136 59.5718C55.7135 59.5721 55.7135 59.5722 55.7135 59.5722C55.7135 59.5721 55.7137 59.5713 55.714 59.57C55.7146 59.5674 55.7158 59.5626 55.7174 59.5562C55.7208 59.543 55.7258 59.5249 55.7321 59.5057C55.7385 59.4858 55.7446 59.47 55.7493 59.4596C55.7555 59.4458 55.7527 59.4561 55.7361 59.4772L54.9503 58.8587ZM54.7411 59.3396L53.4032 64.5336L54.3716 64.783L55.7095 59.5891L54.7411 59.3396ZM53.8874 64.6583C54.1376 65.0912 54.1376 65.0912 54.1376 65.0912C54.1376 65.0912 54.1376 65.0912 54.1376 65.0912C54.1377 65.0912 54.1377 65.0911 54.1378 65.0911C54.138 65.091 54.1382 65.0908 54.1385 65.0907C54.1392 65.0903 54.1402 65.0897 54.1415 65.0889C54.1441 65.0874 54.148 65.0852 54.1532 65.0822C54.1635 65.0763 54.1787 65.0675 54.1984 65.0561C54.2378 65.0334 54.2951 65.0004 54.3664 64.9593C54.5091 64.8772 54.7081 64.763 54.9331 64.6344C55.384 64.3769 55.9366 64.0634 56.3509 63.8357L55.8691 62.9594C55.4472 63.1913 54.8885 63.5083 54.4371 63.7662C54.211 63.8953 54.0111 64.0101 53.8678 64.0925C53.7961 64.1338 53.7385 64.1669 53.6988 64.1898C53.679 64.2013 53.6636 64.2101 53.6532 64.2161C53.648 64.2192 53.644 64.2214 53.6414 64.223C53.64 64.2238 53.639 64.2244 53.6383 64.2247C53.638 64.2249 53.6377 64.2251 53.6375 64.2252C53.6375 64.2252 53.6374 64.2253 53.6373 64.2253C53.6373 64.2253 53.6373 64.2253 53.6373 64.2253C53.6373 64.2254 53.6373 64.2254 53.8874 64.6583ZM56.3509 63.8357C57.9362 62.9641 58.9259 62.6772 60.7196 62.1863L60.4556 61.2218C58.6434 61.7178 57.5609 62.0293 55.8691 62.9594L56.3509 63.8357ZM60.7196 62.1863C61.6273 61.9379 62.8304 61.732 63.8202 61.5875C64.3123 61.5156 64.7464 61.4596 65.0573 61.4216C65.2127 61.4026 65.3372 61.3882 65.4227 61.3785C65.4654 61.3736 65.4983 61.3699 65.5204 61.3675C65.5314 61.3663 65.5398 61.3654 65.5453 61.3648C65.5481 61.3645 65.5501 61.3643 65.5515 61.3641C65.5521 61.3641 65.5526 61.364 65.5529 61.364C65.5531 61.364 65.5532 61.3639 65.5532 61.3639C65.5533 61.3639 65.5533 61.3639 65.5533 61.3639C65.5533 61.3639 65.5533 61.3639 65.5003 60.8667C65.4473 60.3696 65.4473 60.3696 65.4472 60.3696C65.4472 60.3696 65.4471 60.3696 65.4471 60.3696C65.4469 60.3696 65.4468 60.3696 65.4466 60.3696C65.4461 60.3697 65.4455 60.3698 65.4447 60.3698C65.4431 60.37 65.4408 60.3703 65.4377 60.3706C65.4317 60.3713 65.4227 60.3722 65.4111 60.3735C65.3878 60.3761 65.3537 60.3799 65.3097 60.3848C65.2218 60.3948 65.0945 60.4096 64.936 60.429C64.6192 60.4677 64.1771 60.5247 63.6757 60.598C62.6785 60.7436 61.4252 60.9564 60.4556 61.2218L60.7196 62.1863ZM65.5003 60.8667C65.8172 61.2535 65.8172 61.2535 65.8172 61.2535C65.8172 61.2535 65.8172 61.2535 65.8173 61.2534C65.8173 61.2534 65.8173 61.2534 65.8174 61.2533C65.8175 61.2533 65.8175 61.2532 65.8176 61.2531C65.8178 61.253 65.818 61.2529 65.8182 61.2527C65.8186 61.2524 65.819 61.252 65.8195 61.2516C65.8205 61.2508 65.8217 61.2498 65.8231 61.2486C65.8259 61.2463 65.8295 61.2432 65.8339 61.2395C65.8428 61.232 65.8548 61.2216 65.8699 61.2083C65.9 61.1818 65.9421 61.1436 65.9949 61.0934L65.3055 60.369C65.2621 60.4103 65.2293 60.4399 65.2085 60.4583C65.1981 60.4674 65.1907 60.4738 65.1865 60.4774C65.1843 60.4792 65.183 60.4803 65.1825 60.4807C65.1822 60.4809 65.1822 60.481 65.1823 60.4809C65.1824 60.4808 65.1825 60.4807 65.1827 60.4805C65.1828 60.4805 65.1829 60.4804 65.183 60.4803C65.1831 60.4802 65.1832 60.4802 65.1832 60.4801C65.1833 60.4801 65.1833 60.4801 65.1833 60.4801C65.1833 60.48 65.1834 60.48 65.1834 60.48C65.1834 60.48 65.1834 60.48 65.5003 60.8667Z" fill="black"/>
<g filter="url(#filter7_i_683_2947)">
<path d="M35.1157 53.5226C35.2242 53.4861 35.3418 53.543 35.3808 53.6507L37.2052 58.6974C37.2451 58.8077 37.1875 58.9293 37.0769 58.9681L30.3047 61.349C30.1844 61.3913 30.0544 61.3178 30.0286 61.1929L28.9122 55.8011C28.8906 55.6965 28.9504 55.5923 29.0515 55.5584L35.1157 53.5226Z" fill="#2456B6"/>
</g>
<g filter="url(#filter8_i_683_2947)">
<path fill-rule="evenodd" clip-rule="evenodd" d="M35.9762 53.4361L37.8007 58.4827C37.9601 58.9238 37.7296 59.4103 37.2875 59.5657L30.5152 61.9466C30.0341 62.1157 29.5143 61.8217 29.4109 61.3219L28.2945 55.9301C28.208 55.5119 28.4472 55.0949 28.8517 54.9591L34.9159 52.9233C35.3498 52.7777 35.8205 53.0053 35.9762 53.4361ZM35.3819 53.6513C35.343 53.5437 35.2253 53.4867 35.1168 53.5232L29.0527 55.559C28.9516 55.5929 28.8918 55.6972 28.9134 55.8017L30.0297 61.1935C30.0556 61.3184 30.1855 61.3919 30.3058 61.3496L37.0781 58.9688C37.1886 58.9299 37.2463 58.8083 37.2064 58.698L35.3819 53.6513Z" fill="black"/>
</g>
<g filter="url(#filter9_i_683_2947)">
<path d="M34.7107 52.0265C34.8451 51.982 34.8982 51.8202 34.8165 51.7045L33.3931 49.69C33.3399 49.6147 33.2439 49.5827 33.1562 49.6112L28.0641 51.263C27.9604 51.2966 27.8995 51.4039 27.9235 51.5103L27.9653 51.6945L28.4557 53.8566C28.4832 53.978 28.6093 54.0492 28.7274 54.0101L34.7107 52.0265Z" fill="#2456B6"/>
</g>
<g filter="url(#filter10_i_683_2947)">
<path fill-rule="evenodd" clip-rule="evenodd" d="M27.3079 51.6504C27.2115 51.2248 27.4552 50.7959 27.8699 50.6614L32.962 49.0096C33.3129 48.8958 33.6969 49.0236 33.9098 49.325L35.3332 51.3395C35.66 51.802 35.4474 52.4492 34.9101 52.6273L28.9268 54.6109C28.4545 54.7675 27.9502 54.4826 27.8401 53.9969L27.3079 51.6504ZM27.9242 51.5105C27.9001 51.4041 27.9611 51.2969 28.0647 51.2633L33.1569 49.6114C33.2446 49.583 33.3406 49.6149 33.3938 49.6903L34.8172 51.7048C34.8989 51.8204 34.8457 51.9822 34.7114 52.0268L28.7281 54.0103C28.61 54.0495 28.4839 53.9782 28.4564 53.8568L27.9242 51.5105Z" fill="black"/>
</g>
<path d="M19.7489 59.0203L19.6549 56.8166L20.0002 56.4605L20.7032 56.4998L21.5956 57.0323L21.5866 57.1927C21.5175 57.1352 21.3576 57.019 21.2711 57.0142C21.1846 57.0093 20.7704 56.9147 20.5741 56.868L20.0815 56.9477L20.0338 57.8029C20.0243 57.974 19.8399 58.6858 19.7489 59.0203Z" fill="#424242"/>
<path d="M23.2766 58.0383L26.6478 59.8355L27.363 60.6261L27.0927 60.611L23.2766 58.0383Z" fill="#414141"/>
<path d="M20.5135 57.9374L20.3185 58.5164L20.0754 58.9854L20.4539 59.0065L20.697 58.5375L20.7149 58.2168L20.5135 57.9374Z" fill="#606060"/>
<path d="M20.3589 61.606L21.2525 61.6666L21.0309 61.9964L20.3393 61.9577C20.3393 61.9577 20.226 61.8581 20.2307 61.7752C20.2353 61.6924 20.3589 61.606 20.3589 61.606Z" fill="#C4C4C4"/>
<path d="M26.003 61.9218L26.6687 61.959C26.6687 61.959 26.7607 62.0618 26.7563 62.1403C26.7519 62.2188 26.6491 62.3107 26.6491 62.3107L25.6054 62.2524L26.003 61.9218Z" fill="#C4C4C4"/>
<g opacity="0.8" filter="url(#filter11_i_683_2947)">
<path d="M16.6758 37.2759L15.3699 38.5701C15.3699 38.5701 15.9218 38.8989 16.3166 38.9758C16.7747 39.0651 17.5098 38.9102 17.5098 38.9102L17.4811 37.0563L16.8659 37.8158L16.6758 37.2759Z" fill="#773737"/>
</g>
<path opacity="0.8" fill-rule="evenodd" clip-rule="evenodd" d="M17.6664 36.5201L17.7059 39.0675L17.5497 39.1004L17.5098 38.9107C17.5497 39.1004 17.5497 39.1004 17.5497 39.1004L17.5494 39.1005L17.5488 39.1006L17.5468 39.101L17.5398 39.1024C17.5338 39.1037 17.5251 39.1054 17.514 39.1075C17.4919 39.1118 17.4601 39.1178 17.4207 39.1246C17.3419 39.1381 17.2319 39.1553 17.1069 39.1696C16.8627 39.1975 16.5395 39.2172 16.2796 39.1666C16.0558 39.123 15.7999 39.0118 15.61 38.9187C15.5129 38.8711 15.4287 38.826 15.3687 38.7928C15.3386 38.7762 15.3145 38.7625 15.2978 38.7528C15.2894 38.748 15.2829 38.7442 15.2783 38.7415L15.273 38.7384L15.2716 38.7375L15.2711 38.7373L15.271 38.7372C15.271 38.7372 15.2709 38.7371 15.3699 38.5706L15.2709 38.7371L15.0559 38.609L16.7568 36.9233L16.9335 37.425L17.6664 36.5201ZM15.6907 38.5254C15.7189 38.5399 15.7489 38.5551 15.7804 38.5705C15.9651 38.6611 16.1826 38.7527 16.3536 38.786C16.5518 38.8246 16.8251 38.8116 17.063 38.7844C17.1587 38.7734 17.2451 38.7607 17.3136 38.7494L17.2957 37.5935L16.7984 38.2075L16.5948 37.6294L15.6907 38.5254Z" fill="black"/>
<g filter="url(#filter12_i_683_2947)">
<path d="M17.7761 37.2932L17.6854 38.9199L19.0226 38.6419L17.7761 37.2932Z" fill="#773737"/>
</g>
<path fill-rule="evenodd" clip-rule="evenodd" d="M17.6079 36.8259L19.3971 38.7618L17.4776 39.1609L17.6079 36.8259ZM17.9437 37.7602L17.8925 38.6787L18.6475 38.5217L17.9437 37.7602Z" fill="black"/>
<g filter="url(#filter13_i_683_2947)">
<path d="M17.4374 39.3183L17.3217 42.9723L15.5606 40.5805L14.3237 39.8498L15.1268 38.8804L17.4374 39.3183Z" fill="#F8B249"/>
</g>
<path fill-rule="evenodd" clip-rule="evenodd" d="M15.0504 38.6683L17.636 39.1583L17.4973 43.5376L15.4279 40.7271L14.0293 39.9009L15.0504 38.6683ZM15.2027 39.0918L14.6176 39.7982L15.6928 40.4334L17.1456 42.4064L17.2384 39.4776L15.2027 39.0918Z" fill="black"/>
<g filter="url(#filter14_i_683_2947)">
<path d="M17.1588 43.253L17.5885 43.7726C17.5885 43.7726 18.9181 44.0955 19.4673 44.0541C20.009 44.0132 21.0703 43.5377 21.8589 43.0411C22.8627 42.4091 23.736 40.985 23.736 40.985L23.3518 44.7123C23.3518 44.7123 20.9357 46.6131 19.4934 46.7458C18.6149 46.8267 17.9367 46.2177 17.9367 46.2177L17.2075 45.0744L17.2372 43.753L17.1588 43.253Z" fill="#FEC775"/>
</g>
<g filter="url(#filter15_i_683_2947)">
<path fill-rule="evenodd" clip-rule="evenodd" d="M16.1774 41.0741L17.9387 43.204C17.9397 43.2042 17.9407 43.2044 17.9417 43.2047C18.0703 43.2332 18.2467 43.2708 18.4386 43.307C18.8532 43.3851 19.2414 43.4365 19.4196 43.423C19.5796 43.411 19.8991 43.3188 20.3203 43.1372C20.7224 42.9639 21.1559 42.7361 21.5222 42.5054C21.9314 42.2478 22.347 41.8022 22.678 41.3834C22.8386 41.1802 22.9702 40.995 23.0612 40.8611C23.1067 40.7944 23.1417 40.7408 23.1649 40.7048C23.1764 40.6868 23.185 40.6732 23.1905 40.6645L23.1962 40.6553L23.1971 40.6539C23.1971 40.6539 23.1972 40.6538 23.1978 40.6541L24.3644 41.0498L23.9527 45.0438L23.7421 45.2095L23.3515 44.7121L23.7357 40.9849C23.7357 40.9849 23.4407 41.466 22.9964 41.9931C22.6764 42.3728 22.279 42.7763 21.8587 43.041C21.0701 43.5375 20.0088 44.0131 19.4671 44.0539C19.0756 44.0834 18.2875 43.9279 17.8673 43.8361C17.6979 43.7991 17.5883 43.7725 17.5883 43.7725L17.1586 43.2528L17.2369 43.7528L17.2073 45.0742L17.9365 46.2176L17.5145 46.6885L17.4503 46.6309L16.5711 45.2525L16.6038 43.7951L16.1774 41.0741ZM17.9365 46.2176C17.5145 46.6885 17.5147 46.6887 17.5148 46.6888L17.5152 46.6892L17.5159 46.6898L17.5176 46.6913L17.5218 46.695C17.525 46.6978 17.5288 46.7011 17.5333 46.705C17.5424 46.7128 17.5542 46.7227 17.5686 46.7344C17.5974 46.7579 17.637 46.7889 17.6865 46.8245C17.7848 46.8955 17.9249 46.9873 18.0991 47.0759C18.442 47.2504 18.9532 47.4307 19.551 47.3756C20.0165 47.3328 20.5141 47.1551 20.9677 46.9471C21.4306 46.7348 21.8931 46.4696 22.2987 46.2153C22.7059 45.96 23.0649 45.7099 23.3218 45.5239C23.4506 45.4307 23.5544 45.3531 23.6266 45.2984C23.6626 45.271 23.6909 45.2493 23.7104 45.2342C23.7202 45.2266 23.7278 45.2207 23.7331 45.2166L23.7393 45.2117L23.7417 45.2098L23.7421 45.2095C23.7422 45.2095 23.7421 45.2095 23.3515 44.7121C23.3515 44.7121 20.9355 46.6129 19.4931 46.7456C18.6147 46.8265 17.9365 46.2176 17.9365 46.2176Z" fill="black"/>
</g>
<g filter="url(#filter16_i_683_2947)">
<path d="M17.5738 43.2799L17.6727 39.1397L19.6785 38.7226L20.3033 38.5812L22.0476 39.6931L22.6473 41.5789C22.6473 41.5789 21.1482 43.0901 20.0334 43.4174C19.0431 43.7081 17.5738 43.2799 17.5738 43.2799Z" fill="#DEB565"/>
</g>
<path fill-rule="evenodd" clip-rule="evenodd" d="M20.3392 38.3746L22.2109 39.5676L22.8675 41.6325L22.7847 41.7159L22.6473 41.5793C22.7847 41.7159 22.7847 41.7159 22.7847 41.7159L22.7846 41.716L22.7834 41.7172L22.7798 41.7208C22.7768 41.7238 22.7723 41.7283 22.7664 41.7341C22.7548 41.7456 22.7377 41.7625 22.7156 41.7839C22.6715 41.8268 22.6076 41.8881 22.5274 41.9626C22.3672 42.1114 22.1418 42.3135 21.8806 42.5261C21.3657 42.9455 20.686 43.4282 20.0879 43.6038C19.5515 43.7613 18.9025 43.7216 18.4047 43.6499C18.1525 43.6136 17.9323 43.568 17.7751 43.5314C17.6964 43.5131 17.6332 43.4971 17.5894 43.4855C17.5675 43.4797 17.5504 43.475 17.5387 43.4717C17.5328 43.4701 17.5282 43.4688 17.525 43.4679L17.5213 43.4668L17.5199 43.4664L17.5198 43.4664C17.5197 43.4664 17.5197 43.4664 17.5738 43.2802L17.5197 43.4664L17.3767 43.4247L17.4827 38.9816L19.6375 38.5335L20.3392 38.3746ZM17.7711 43.1318C17.7983 43.1385 17.8289 43.1459 17.8627 43.1538C18.0119 43.1884 18.221 43.2317 18.4598 43.2661C18.9442 43.3359 19.525 43.365 19.9789 43.2317C20.4956 43.08 21.1229 42.6434 21.6362 42.2254C21.8892 42.0193 22.1082 41.8231 22.2639 41.6784C22.3306 41.6164 22.3857 41.5639 22.4266 41.5243L21.8844 39.8192L20.2673 38.7884L19.7196 38.9125L17.8626 39.2986L17.7711 43.1318Z" fill="black"/>
<g filter="url(#filter17_i_683_2947)">
<path d="M29.7375 63.0441C35.5075 61.6937 41.476 59.8854 47.6746 57.1669C54.3118 54.2561 59.6918 50.2783 63.1341 46.8943C63.1341 46.8943 63.0645 48.1422 63.0329 48.7089C62.9966 49.3581 62.8311 50.2514 62.8311 50.2514C62.8311 50.2514 54.8623 56.6298 48.5797 59.3452C42.2048 62.1004 31.1079 65.058 31.1079 65.058C31.1079 65.058 30.589 64.5013 30.3292 64.0896C30.0823 63.6987 29.7375 63.0441 29.7375 63.0441Z" fill="#CDCDCD"/>
</g>
<g filter="url(#filter18_i_683_2947)">
<path fill-rule="evenodd" clip-rule="evenodd" d="M29.2668 62.8291L29.6653 62.7359C35.421 61.3888 41.3704 59.586 47.5474 56.877C54.1476 53.9823 59.4959 50.0269 62.9123 46.6684L63.4948 46.0958L63.4493 46.9117L63.4493 46.9119L63.4492 46.9126L63.348 48.7264C63.3291 49.066 63.2768 49.4634 63.2305 49.7706C63.2072 49.9254 63.185 50.0595 63.1686 50.155C63.1604 50.2028 63.1537 50.241 63.149 50.2673L63.1435 50.2978L63.142 50.3059L63.1416 50.3081L63.1415 50.3087L63.1414 50.3089C63.1414 50.3089 63.1414 50.3089 62.8307 50.2512C63.0281 50.4983 63.028 50.4983 63.028 50.4984L63.0219 50.5032L63.0043 50.5172C62.9888 50.5296 62.9658 50.5478 62.9356 50.5717C62.8752 50.6195 62.786 50.6897 62.6704 50.78C62.4392 50.9606 62.1021 51.2213 61.6782 51.5425C60.8304 52.1848 59.6344 53.0696 58.2415 54.0395C55.46 55.9763 51.876 58.2647 48.7046 59.6354C45.4997 61.0206 41.1172 62.4531 37.5446 63.5373C35.7565 64.08 34.168 64.5364 33.0265 64.8572C32.4557 65.0176 31.9966 65.1441 31.68 65.2305C31.5218 65.2737 31.3991 65.3069 31.316 65.3293C31.2744 65.3405 31.2427 65.3491 31.2214 65.3548L31.1891 65.3634C31.189 65.3634 31.1889 65.3635 31.1076 65.0578C30.8765 65.2736 30.8765 65.2736 30.8765 65.2735L30.8746 65.2715L30.8698 65.2663C30.8657 65.2618 30.8597 65.2553 30.852 65.247C30.8367 65.2302 30.8147 65.2061 30.7876 65.176C30.7334 65.1157 30.6585 65.0311 30.5751 64.9331C30.4111 64.7403 30.2042 64.4842 30.0617 64.2584C29.933 64.0545 29.7813 63.7862 29.6637 63.5728C29.6045 63.4653 29.5531 63.3701 29.5165 63.3019C29.4982 63.2677 29.4836 63.2403 29.4735 63.2213L29.4618 63.1993L29.4578 63.1916C29.4578 63.1916 29.4577 63.1914 29.7372 63.0439L29.4578 63.1916L29.2668 62.8291ZM30.2116 63.2571C30.2134 63.2605 30.2153 63.2639 30.2172 63.2673C30.3337 63.4789 30.4779 63.7334 30.596 63.9205C30.7133 64.1063 30.8958 64.3343 31.0562 64.5229C31.1139 64.5907 31.1675 64.6518 31.2121 64.7021C31.2898 64.6811 31.391 64.6536 31.5137 64.6201C31.8289 64.5341 32.2865 64.408 32.8557 64.2481C33.9941 63.9282 35.5782 63.473 37.3612 62.9319C40.9307 61.8485 45.2841 60.4246 48.454 59.0546C51.5653 57.7099 55.107 55.4514 57.8806 53.5201C59.2651 52.5561 60.4541 51.6765 61.2967 51.038C61.718 50.7189 62.0526 50.46 62.2817 50.2812C62.3942 50.1933 62.4812 50.1248 62.5406 50.0779C62.5422 50.0684 62.5439 50.0585 62.5457 50.048C62.5615 49.9558 62.583 49.8259 62.6056 49.6762C62.6511 49.3745 62.6997 49.0006 62.717 48.6911L62.7734 47.6798C59.2958 50.9603 54.113 54.6883 47.8011 57.4565C41.7251 60.1212 35.8709 61.9137 30.2116 63.2571ZM31.1076 65.0578L30.8765 65.2735L31.0058 65.4123L31.1891 65.3634L31.1076 65.0578ZM62.8307 50.2512L63.028 50.4984L63.12 50.4247L63.1414 50.3089L62.8307 50.2512Z" fill="black"/>
</g>
<path d="M10.4737 33.3519L10.2011 32.3718L9.83231 33.1158L10.4737 33.3519Z" fill="#CE5B37"/>
<path d="M12.1608 34.0834L11.5052 30.515L11.9002 29.9545L12.748 34.3165L12.1608 34.0834Z" fill="#CE5B37"/>
<path d="M13.3891 29.0183L13.9712 29.3421L14.7195 32.8793L14.3819 33.716L13.3891 29.0183Z" fill="#CE5B37"/>
<path fill-rule="evenodd" clip-rule="evenodd" d="M13.1406 28.6439L14.169 29.2171L14.9456 32.8985L14.3493 34.3792L13.1406 28.6439ZM13.6942 29.3961L14.4654 33.056L14.5431 32.8631L13.8273 29.4703L13.6942 29.3961ZM12.0349 29.4733L13.0341 34.629L12.0205 34.2259L11.3327 30.4718L12.0349 29.4733ZM11.7422 30.562L12.3619 33.9446L12.5199 34.0074L11.8284 30.4394L11.7422 30.562ZM10.287 31.8347L10.7953 33.6664L9.61962 33.2358L10.287 31.8347ZM10.1368 33.0105L10.2207 33.0414L10.185 32.913L10.1368 33.0105Z" fill="black"/>
<path d="M10.4822 32.2324L11.1464 31.0862L11.7127 33.976L10.7539 33.5583L10.4822 32.2324Z" fill="#D6A322"/>
<path d="M12.2156 29.5257L12.8745 28.798L14.0582 34.9628L13.1206 34.4917L12.2156 29.5257Z" fill="#D6A322"/>
<path d="M14.36 29.5546L15.0156 29.8643L15.4614 31.3274L14.8769 32.3507L14.36 29.5546Z" fill="#D6A322"/>
<path fill-rule="evenodd" clip-rule="evenodd" d="M12.992 28.3794L14.3231 35.3118L12.948 34.6208L12.0084 29.4657L12.992 28.3794ZM12.4238 29.5843L13.2943 34.3611L13.7944 34.6123L12.7581 29.2151L12.4238 29.5843ZM14.1013 29.2171L15.1763 29.7249L15.6715 31.3503L14.7831 32.9055L14.1013 29.2171ZM14.6197 29.8907L14.9716 31.7944L15.2522 31.3032L14.8559 30.0023L14.6197 29.8907ZM11.2379 30.5423L11.9742 34.3005L10.5849 33.6952L10.2782 32.1983L11.2379 30.5423ZM10.6872 32.265L10.9239 33.42L11.4521 33.6501L11.056 31.6287L10.6872 32.265Z" fill="black"/>
<path d="M15.8105 30.8681L16.1594 30.3393L15.532 30.0808L15.8105 30.8681Z" fill="#C4C4C4"/>
<path fill-rule="evenodd" clip-rule="evenodd" d="M15.6065 29.9018L16.4515 30.2499L15.7587 31.3L15.3265 30.0784L15.5693 29.9923L15.6065 29.9018ZM15.8602 30.4255L15.8641 30.4367L15.869 30.4292L15.8602 30.4255Z" fill="black"/>
<path d="M18.1759 39.2483L18.364 41.7365L18.5535 43.2797L19.1108 43.3109L19.7206 43.2846L19.3513 39.0013L18.1759 39.2483Z" fill="#EAEAEA"/>
<path d="M20.4966 40.0488L20.7942 42.8304L21.2026 42.5595L21.6166 42.2393L21.3633 39.4866L20.2832 38.8065L20.4966 40.0488Z" fill="#EAEAEA"/>
<path d="M20.9436 43.899L21.0187 45.8561L21.4568 45.6063L21.8505 45.3772L21.8102 43.436L20.9436 43.899Z" fill="#EAEAEA"/>
<path d="M19.5051 44.3719L19.6277 46.4312C19.6277 46.4312 19.9552 46.335 20.1582 46.2545C20.3704 46.1704 20.6881 46.0076 20.6881 46.0076L20.6194 44.0483L20.0547 44.2632L19.5051 44.3719Z" fill="#EAEAEA"/>
<path d="M21.8598 46.3925L22.3678 46.1714L22.5041 51.4176L22.8536 52.2568L24.204 54.0963L23.7862 54.4827L21.4758 52.0907L21.8598 46.3925Z" fill="#C4C4C4" stroke="black"/>
<path fill-rule="evenodd" clip-rule="evenodd" d="M22.4694 46.0128L22.6093 51.3956L22.9463 52.2049L24.345 54.1102L23.7824 54.6305L21.3679 52.1307L21.7594 46.3218L22.4694 46.0128ZM21.9609 46.4641L21.5844 52.0514L23.7907 54.3357L24.0638 54.0832L22.7616 52.3094L22.3997 51.4404L22.2669 46.3309L21.9609 46.4641Z" fill="black"/>
<g filter="url(#filter19_i_683_2947)">
<path d="M29.9326 46.2476C29.9594 46.4485 29.8425 46.6422 29.6511 46.7086L25.686 48.2363C25.4483 48.3187 25.1914 48.1762 25.1408 47.9297C24.3336 44.0042 24.5948 40.0843 25.6 36.1559C28.2899 26.3985 39.2411 21.7329 49.2255 26.5836C52.7683 28.5241 55.7095 31.4746 57.8448 34.9646C57.8517 34.9753 57.8586 34.986 57.8654 34.9968C58.6977 36.3173 57.736 38.271 56.6431 38.9532C55.5502 39.6353 53.9895 39.1178 53.1571 37.7973C53.1129 37.7271 53.0865 37.6929 53.0393 37.6246C47.8912 30.1891 40.538 28.5434 34.9374 31.9853C30.2627 35.0503 29.0399 39.5436 29.9326 46.2476Z" fill="white"/>
</g>
<g filter="url(#filter20_i_683_2947)">
<path fill-rule="evenodd" clip-rule="evenodd" d="M57.8448 34.9646C55.7095 31.4746 52.7684 28.5241 49.2255 26.5836C39.2411 21.7329 28.2899 26.3985 25.6 36.1559C24.5948 40.0843 24.3336 44.0042 25.1408 47.9297C25.1914 48.1762 25.4483 48.3187 25.686 48.2363L29.9761 46.8864C30.1675 46.8201 30.2844 46.6263 30.2576 46.4254C29.3649 39.7214 30.586 35.2775 35.2607 32.2125C40.8613 28.7707 47.8486 30.8129 52.9966 38.2484C53.0105 38.2684 53.0225 38.2855 53.0338 38.3014C53.0609 38.3398 53.0832 38.3714 53.1145 38.4211C53.9468 39.7416 56.0547 39.7318 57.1476 39.0497C58.2405 38.3675 58.6977 36.3173 57.8654 34.9968C57.8586 34.986 57.8517 34.9753 57.8448 34.9646ZM57.3297 35.3345C57.3241 35.3256 57.3185 35.3169 57.3128 35.3081L57.3086 35.3017L57.3046 35.2951C55.2232 31.8931 52.3643 29.0282 48.9349 27.1464C39.2713 22.4609 28.7863 26.994 26.212 36.3186C25.2481 40.0887 24.9883 43.8267 25.7121 47.5571L29.6084 46.3436C28.749 39.5797 30.0377 34.9371 34.9599 31.7098C40.9358 28.0373 48.2433 30.2705 53.5173 37.8879C53.5254 37.8997 53.5343 37.9122 53.5437 37.9256C53.5734 37.9677 53.6094 38.0186 53.6502 38.0834M57.3297 35.3345C58.0389 36.4597 57.5151 38.0738 56.8123 38.5124C56.1064 38.953 54.3598 39.209 53.6502 38.0834" fill="black"/>
</g>
<path d="M32.6004 30.3997C33.4649 31.1023 33.5962 32.3726 32.8937 33.2371C32.1911 34.1016 30.9208 34.2329 30.0563 33.5304C29.1918 32.8278 29.0605 31.5575 29.763 30.693C30.4656 29.8285 31.7359 29.6972 32.6004 30.3997Z" fill="#2456B6"/>
<path fill-rule="evenodd" clip-rule="evenodd" d="M32.6091 33.0058C33.1839 32.2985 33.0765 31.2591 32.3691 30.6843C31.6618 30.1095 30.6224 30.2169 30.0476 30.9243C29.4728 31.6316 29.5803 32.671 30.2876 33.2458C30.9949 33.8206 32.0343 33.7131 32.6091 33.0058ZM32.8937 33.2371C33.5962 32.3726 33.4649 31.1023 32.6004 30.3997C31.7359 29.6972 30.4656 29.8285 29.763 30.693C29.0605 31.5575 29.1918 32.8278 30.0563 33.5304C30.9208 34.2329 32.1911 34.1016 32.8937 33.2371Z" fill="black"/>
<path d="M28.6333 32.3738L29.17 31.7133L31.1771 31.842L30.6353 29.9102L31.1774 29.2431L31.7729 31.7668L31.8976 32.4274L31.2308 32.4339L28.6333 32.3738Z" fill="#EAA675"/>
<path fill-rule="evenodd" clip-rule="evenodd" d="M27.8767 32.7231L29.0046 31.3353L30.6842 31.4429L30.2308 29.8264L31.363 28.4332L32.1316 31.6907L32.3391 32.79L31.2282 32.8007L27.8767 32.7231ZM31.177 31.842L29.1699 31.7133L28.6331 32.3738L31.2306 32.4339L31.8974 32.4275L31.7727 31.7668L31.1773 29.2432L30.6352 29.9102L31.177 31.842Z" fill="black"/>
<path d="M29.1605 35.051C30.1426 35.4466 30.6181 36.5635 30.2225 37.5457C29.8269 38.5278 28.71 39.0033 27.7278 38.6077C26.7457 38.2121 26.2702 37.0952 26.6658 36.113C27.0614 35.1309 28.1783 34.6554 29.1605 35.051Z" fill="#2456B6"/>
<path fill-rule="evenodd" clip-rule="evenodd" d="M29.8991 37.4154C30.2228 36.6118 29.8338 35.698 29.0302 35.3743C28.2266 35.0506 27.3128 35.4397 26.9891 36.2433C26.6654 37.0468 27.0545 37.9607 27.858 38.2843C28.6616 38.608 29.5755 38.219 29.8991 37.4154ZM30.2225 37.5457C30.6181 36.5635 30.1426 35.4466 29.1605 35.051C28.1783 34.6554 27.0614 35.1309 26.6658 36.113C26.2702 37.0952 26.7457 38.2121 27.7278 38.6077C28.71 39.0033 29.8269 38.5278 30.2225 37.5457Z" fill="black"/>
<path d="M26.1111 37.9563L26.4133 37.2059L28.2723 36.7599L27.2385 35.1575L27.5437 34.3996L28.7922 36.5246L29.0908 37.0896L28.487 37.2825L26.1111 37.9563Z" fill="#EAA675"/>
<path fill-rule="evenodd" clip-rule="evenodd" d="M25.5222 38.4858L26.1573 36.9091L27.7129 36.5359L26.8478 35.1949L27.4854 33.6121L29.0969 36.355L29.5937 37.2952L28.5877 37.6164L25.5222 38.4858ZM28.2724 36.7601L26.4135 37.2061L26.1113 37.9565L28.4871 37.2826L29.0909 37.0898L28.7924 36.5248L27.5439 34.3998L27.2386 35.1576L28.2724 36.7601Z" fill="black"/>
<path d="M46.2743 28.5819C46.0248 29.7382 44.8853 30.4735 43.7289 30.2241C42.5726 29.9746 41.8373 28.8351 42.0867 27.6787C42.3361 26.5224 43.4757 25.7871 44.6321 26.0365C45.7884 26.2859 46.5237 27.4255 46.2743 28.5819Z" fill="#2456B6"/>
<path fill-rule="evenodd" clip-rule="evenodd" d="M43.811 29.8434C44.7571 30.0474 45.6895 29.4459 45.8936 28.4998C46.0976 27.5537 45.4961 26.6213 44.55 26.4172C43.6039 26.2132 42.6715 26.8147 42.4674 27.7608C42.2634 28.7069 42.8649 29.6393 43.811 29.8434ZM43.7289 30.2241C44.8853 30.4735 46.0248 29.7382 46.2743 28.5819C46.5237 27.4255 45.7884 26.2859 44.6321 26.0365C43.4757 25.7871 42.3361 26.5224 42.0867 27.6787C41.8373 28.8351 42.5726 29.9746 43.7289 30.2241Z" fill="black"/>
<path d="M42.4973 25.7751L43.3808 25.9657L44.2242 27.9278L45.7925 26.4859L46.6848 26.6783L44.5818 28.4557L44.0163 28.8915L43.6896 28.2633L42.4973 25.7751Z" fill="#EAA675"/>
<path fill-rule="evenodd" clip-rule="evenodd" d="M41.8027 25.2271L43.6591 25.6274L44.3649 27.2694L45.6774 26.0627L47.5409 26.4647L44.8264 28.7589L43.8854 29.484L43.341 28.4374L41.8027 25.2271ZM44.2241 27.9279L43.3807 25.9658L42.4972 25.7752L43.6895 28.2634L44.0162 28.8916L44.5818 28.4558L46.6847 26.6784L45.7925 26.486L44.2241 27.9279Z" fill="black"/>
<path d="M51.6682 32.0952C50.9796 33.0156 49.6753 33.2035 48.7549 32.5149C47.8345 31.8263 47.6466 30.522 48.3352 29.6016C49.0238 28.6812 50.3282 28.4933 51.2485 29.1819C52.1689 29.8705 52.3568 31.1749 51.6682 32.0952Z" fill="#2456B6"/>
<path fill-rule="evenodd" clip-rule="evenodd" d="M48.9816 32.2119C49.7346 32.7753 50.8018 32.6216 51.3652 31.8685C51.9286 31.1155 51.7749 30.0483 51.0218 29.4849C50.2688 28.9215 49.2016 29.0752 48.6382 29.8283C48.0748 30.5813 48.2285 31.6485 48.9816 32.2119ZM48.7549 32.5149C49.6753 33.2035 50.9796 33.0156 51.6682 32.0952C52.3568 31.1749 52.1689 29.8705 51.2485 29.1819C50.3282 28.4933 49.0238 28.6812 48.3352 29.6016C47.6466 30.522 47.8345 31.8263 48.7549 32.5149Z" fill="black"/>
<path d="M49.4688 28.0864L50.1719 28.6125L50.1222 30.6872L52.0916 30.0487L52.8018 30.5801L50.2244 31.2984L49.5484 31.4543L49.5142 30.767L49.4688 28.0864Z" fill="#EAA675"/>
<path fill-rule="evenodd" clip-rule="evenodd" d="M49.0771 27.321L50.5547 28.4265L50.5132 30.1627L52.1612 29.6284L53.6444 30.7382L50.3176 31.6653L49.1927 31.9247L49.1358 30.7797L49.0771 27.321ZM50.1221 30.6873L50.1718 28.6126L49.4686 28.0865L49.514 30.7671L49.5482 31.4544L50.2242 31.2985L52.8016 30.5802L52.0914 30.0488L50.1221 30.6873Z" fill="black"/>
<path d="M55.3541 36.766C54.4329 37.4666 53.1182 37.2879 52.4176 36.3668C51.7169 35.4456 51.8956 34.1309 52.8168 33.4303C53.7379 32.7296 55.0526 32.9083 55.7533 33.8295C56.4539 34.7506 56.2752 36.0653 55.3541 36.766Z" fill="#2456B6"/>
<path fill-rule="evenodd" clip-rule="evenodd" d="M52.7208 36.1361C53.2941 36.8898 54.3697 37.036 55.1234 36.4627C55.877 35.8895 56.0233 34.8138 55.45 34.0601C54.8768 33.3065 53.8011 33.1602 53.0474 33.7335C52.2938 34.3068 52.1475 35.3824 52.7208 36.1361ZM52.4176 36.3668C53.1182 37.2879 54.4329 37.4666 55.3541 36.766C56.2752 36.0653 56.4539 34.7506 55.7533 33.8295C55.0526 32.9083 53.7379 32.7296 52.8168 33.4303C51.8956 34.1309 51.7169 35.4456 52.4176 36.3668Z" fill="black"/>
<path d="M54.333 32.2769L54.8683 32.9806L54.2466 34.9754L56.3296 34.9018L56.8703 35.6126L54.1765 35.5953L53.4789 35.5593L53.6358 34.8846L54.333 32.2769Z" fill="#EAA675"/>
<path fill-rule="evenodd" clip-rule="evenodd" d="M54.1655 31.4277L55.2904 32.9065L54.7701 34.5759L56.5133 34.5142L57.6424 35.9987L54.1653 35.9764L53.0046 35.9166L53.266 34.7924L54.1655 31.4277ZM54.2464 34.9756L54.8681 32.9808L54.3328 32.277L53.6357 34.8847L53.4788 35.5595L54.1763 35.5955L56.8701 35.6127L56.3295 34.902L54.2464 34.9756Z" fill="black"/>
<g filter="url(#filter21_i_683_2947)">
<path d="M31.6422 45.386C31.6545 45.4413 31.692 45.4879 31.7432 45.5121L34.164 46.6519C34.3045 46.7181 34.4598 46.5912 34.4268 46.4394C33.4436 41.9237 34.8033 37.6324 38.1172 35.9256C41.9978 33.927 47.2078 36.1681 50.299 40.9565C50.3979 41.1098 50.6422 41.0491 50.6523 40.8669L50.8127 37.9952C50.8149 37.9558 50.8043 37.9164 50.7825 37.8835C47.3763 32.7426 41.2907 30.5532 36.546 32.9968C32.3578 35.1539 30.5018 40.2579 31.6422 45.386Z" fill="#2456B6"/>
</g>
<g filter="url(#filter22_i_683_2947)">
<path fill-rule="evenodd" clip-rule="evenodd" d="M34.3648 46.1362C34.3647 46.1355 34.3645 46.1348 34.3644 46.1341C33.5065 41.7313 34.8787 37.5938 38.1178 35.9256C41.92 33.9673 46.9983 36.0792 50.1095 40.6692C50.1172 40.6806 50.125 40.692 50.1327 40.7035C50.1638 40.7497 50.1948 40.7963 50.2256 40.843C50.2504 40.8807 50.275 40.9185 50.2996 40.9565C50.3985 41.1097 50.6427 41.049 50.6529 40.8669L50.8133 37.9952C50.8155 37.9557 50.8049 37.9164 50.7831 37.8834C47.3769 32.7425 41.2913 30.5531 36.5466 32.9968C32.3584 35.1539 30.5024 40.2578 31.6428 45.3859C31.6551 45.4412 31.6926 45.4879 31.7438 45.512L34.1646 46.6519C34.3051 46.7181 34.4604 46.5911 34.4274 46.4394C34.41 46.3595 34.3933 46.2797 34.3774 46.1999C34.3731 46.1787 34.369 46.1575 34.3648 46.1362ZM33.9287 47.1528L31.508 46.0129C31.3026 45.9162 31.1521 45.7295 31.1024 45.5061C29.9221 40.1984 31.8263 34.8052 36.2931 32.5046C41.3561 29.897 47.7282 32.2704 51.2446 37.5777C51.3325 37.7103 51.3749 37.8678 51.3661 38.026L51.2057 40.8978C51.1639 41.6446 50.2081 41.8355 49.8344 41.2567C46.8196 36.5865 41.8883 34.6064 38.3712 36.4177C35.3657 37.9657 34.0148 41.9421 34.9683 46.3216C35.0957 46.9066 34.4986 47.4211 33.9287 47.1528Z" fill="black"/>
</g>
<path d="M53.3175 40.5565C54.3346 42.4181 56.3803 43.3188 58.0567 42.5779C59.6041 41.894 60.3291 40.0358 59.8872 38.1768C59.8872 38.1768 59.6288 38.0824 59.4923 38.1547C59.361 38.2241 59.2887 38.4759 59.2887 38.4759C59.4965 40.2011 59.0244 41.3665 57.7227 41.9418C56.4823 42.49 55.1516 41.8872 53.9676 40.241C53.9676 40.241 53.6853 40.1375 53.5365 40.2169C53.3973 40.2912 53.3175 40.5565 53.3175 40.5565Z" fill="black"/>
<path d="M66.3728 47.8307C66.21 50.7457 65.5438 53.5254 64.4535 56.1064L64.4491 56.1062C64.0004 57.1739 62.4242 57.9017 60.595 57.7995C60.3207 57.7842 60.0542 57.751 59.7982 57.7018L60.2759 57.134C60.3918 57.148 60.51 57.1586 60.6304 57.1653C61.5902 57.2189 62.4434 57.017 63.0435 56.6806C63.4603 56.447 63.7179 56.1743 63.8456 55.9027L63.8493 55.9029C64.9248 53.3724 65.5812 50.6483 65.7405 47.7953C66.4752 34.6408 56.3721 22.8868 42.3617 19.9822L42.3975 19.3418C56.7121 22.2708 67.1299 34.2763 66.3728 47.8307Z" fill="black"/>
<g filter="url(#filter23_i_683_2947)">
<path d="M22.9285 25.0329C22.9285 25.0329 21.4276 25.4027 19.9596 27.392C19.3092 28.3898 18.8956 29.5814 19.3827 30.3582C19.9211 31.2168 21.3112 31.3665 22.5858 31.1683C23.7057 30.9942 24.9881 30.6437 26.3668 29.8952L26.7395 29.6864C28.1647 28.8434 28.5727 28.5178 29.6274 27.3008C30.0936 26.6396 30.3346 26.23 30.5527 25.4588C30.7064 24.915 30.5578 24.1075 30.1531 23.7794C29.479 23.233 28.2419 23.3965 28.2419 23.3965C28.2419 23.3965 29.2681 24.164 28.7491 25.358C28.5785 25.7507 27.7186 26.44 26.8277 26.6315C26.5364 26.6942 25.2277 26.7231 25.5321 25.5334C25.7425 24.7112 27.543 23.9966 27.543 23.9966L25.5727 23.1292L23.5159 25.1698C23.5159 25.1698 24.3781 25.6997 23.9584 26.4713C23.5001 27.3136 22.296 27.5225 22.296 27.5225C22.296 27.5225 21.1761 27.6967 21.343 26.917C21.5416 25.9893 22.9285 25.0329 22.9285 25.0329Z" fill="#2456B6"/>
</g>
<path d="M22.296 27.5225C22.3728 28.0166 22.3727 28.0166 22.3725 28.0166L22.3722 28.0167L22.3714 28.0168L22.3694 28.0171L22.3644 28.0179L22.3494 28.0199C22.3373 28.0215 22.3211 28.0235 22.3014 28.0257C22.2621 28.0299 22.2079 28.0346 22.1439 28.0372C22.0203 28.0422 21.8403 28.0402 21.655 28.0017C21.4783 27.9649 21.2298 27.8811 21.0449 27.6695C20.905 27.5093 20.8364 27.3173 20.8273 27.113C20.6765 27.2831 20.5235 27.4706 20.3705 27.6772C20.069 28.142 19.8364 28.6312 19.731 29.0738C19.6235 29.5252 19.6619 29.8623 19.8063 30.0926C19.9752 30.3619 20.3068 30.5649 20.8105 30.6701C21.309 30.7743 21.9116 30.7671 22.509 30.6743C23.5823 30.5074 24.807 30.1726 26.1254 29.4573L26.3086 29.3547L26.3093 29.3543L26.3264 29.3447C26.3943 29.3066 26.4639 29.2676 26.4907 29.2527C27.1973 28.8346 27.6257 28.5595 28.0047 28.2477C28.3793 27.9395 28.7196 27.584 29.2332 26.9923C29.6709 26.3699 29.8765 26.0125 30.0716 25.3227C30.1223 25.1433 30.128 24.8906 30.074 24.6459C30.0182 24.3926 29.9182 24.2327 29.8382 24.1679C29.6903 24.0479 29.4785 23.9696 29.2422 23.9241C29.4182 24.3524 29.4868 24.9152 29.2077 25.5573C29.1309 25.7339 28.9993 25.9006 28.862 26.0429C28.7186 26.1915 28.5425 26.3405 28.3468 26.4787C27.9588 26.7525 27.4596 27.0071 26.9328 27.1204C26.81 27.1468 26.6297 27.1617 26.4373 27.1532C26.2431 27.1445 26 27.1105 25.7666 27.0146C25.5303 26.9176 25.2753 26.7443 25.1208 26.445C24.9652 26.1434 24.9505 25.7895 25.0477 25.4095C25.1357 25.0655 25.3709 24.7862 25.5964 24.5785C25.8305 24.363 26.108 24.1763 26.3622 24.0262C26.3632 24.0256 26.3642 24.025 26.3652 24.0244L25.6831 23.7241L24.2383 25.1574C24.2598 25.184 24.281 25.2119 24.3018 25.2411C24.5388 25.5737 24.7258 26.1069 24.3976 26.7102C24.0913 27.2732 23.5571 27.5944 23.1566 27.7705C22.9497 27.8614 22.7607 27.9215 22.6229 27.9591C22.5536 27.978 22.4963 27.9915 22.4549 28.0005C22.4342 28.005 22.4174 28.0084 22.405 28.0108L22.3898 28.0137L22.3847 28.0146L22.3829 28.0149L22.3821 28.0151L22.3818 28.0151C22.3816 28.0151 22.3815 28.0152 22.296 27.5225ZM22.296 27.5225L22.3729 28.0167L22.3815 28.0152L22.296 27.5225Z" stroke="black"/>
<path fill-rule="evenodd" clip-rule="evenodd" d="M21.5483 25.8746L20.4671 26.8199L19.0704 28.8103L19.0685 29.5502L19.4441 30.6148L20.1743 30.9972L21.2927 31.1545L22.4788 31.1638L24.2444 30.7122L26.3061 29.9165L28.415 28.6301L29.0705 27.8697L29.9225 26.7788L30.2947 26.1354L30.5249 25.1995L30.4975 24.6287L30.2451 23.8366L29.4857 23.6234L28.608 23.4036L28.2883 23.4617L28.6446 24.1647L28.7016 25.2685L28.1728 25.8841L27.1687 26.5111L26.3312 26.6351L25.6432 26.5588L25.3334 26.086L25.4637 25.524L25.7682 25.0287L27.5346 23.856L26.6787 23.5995L25.7067 23.2985L24.4832 24.3118L23.6119 25.0411L23.8428 25.5094L23.9791 26.2571L23.6537 26.7702L22.9352 27.2424L22.1483 27.5211L21.5766 27.4891L21.1805 27.1444L21.4168 26.4555L21.5483 25.8746ZM20.5422 27.6022L20.7738 27.3494L20.8138 27.6932L21.1747 27.96L21.5866 28.021L22.0795 28.0485L22.5601 27.9425L22.9463 27.7554L23.3138 27.5482L23.562 27.3533L23.8331 27.1028L24.0275 26.8101L24.2084 26.4027L24.3581 26.2023L24.4538 25.9041L24.3919 25.597L24.306 25.3645L24.3426 25.0629L24.7869 24.898L24.9946 24.7199L24.9855 24.5296L25.2597 24.2223L25.7621 24.0796L26.3332 23.7699L27.2172 23.8762L25.4456 25.1435C25.3569 25.3157 25.1667 25.6745 25.116 25.7323C25.0654 25.7902 24.9672 26.1541 24.9245 26.3289C24.9839 26.446 25.1134 26.6999 25.1565 26.7783C25.1996 26.8566 25.3486 26.9977 25.4177 27.0585L26.1472 27.0992L26.9443 26.992L27.4291 26.8103L28.0737 26.5996L28.5701 26.2099L28.863 25.9226L29.0824 25.5364L29.2404 25.1847C29.2638 25.0026 29.3116 24.6194 29.3158 24.5438C29.32 24.4681 29.3537 24.3371 29.37 24.2811L29.4813 24.0596L29.7819 24.3421L30.0037 24.6201L30.1051 24.9294L30.0734 25.4969L30.0178 26.1389L29.4097 27.1107L28.4303 28.0048L27.6047 28.6228L27.7321 28.8197L27.3438 29.0447L27.3906 28.9145L27.3421 28.722L27.1896 28.6186L27.0182 28.8557L26.8073 29.0906L26.4739 29.3946L26.0419 29.693L25.3754 29.9404L24.8523 30.101L24.7019 29.9597L24.5932 29.7829L24.4302 29.8687L24.3946 30.1513L24.2411 30.0668L23.9961 30.2049L23.8165 30.2329L23.7077 30.056L23.6348 30.2986L23.4335 30.3633L23.5173 29.571L23.5208 29.1537L23.386 29.0893L22.7797 30.3837L22.5709 30.5808L22.3466 30.7011L22.3614 30.4362L22.2277 30.3528L21.8995 30.5622L21.7707 30.7448L21.589 30.8105L21.4792 30.6526L21.4116 30.8006L21.2394 30.6961L21.0859 30.6117L20.8969 30.8098C20.7986 30.798 20.5829 30.7657 20.5057 30.7311L20.2163 30.601L19.9717 30.3786L19.6142 29.6945L19.7529 28.9812L20.0474 28.3145L20.5422 27.6022Z" fill="black"/>
<path d="M65.9008 57.7953C67.5084 54.6304 68.0939 50.1341 68.2168 47.9349C69.0832 32.4228 56.4705 19.104 40.0455 18.1866C35.8198 17.9506 31.7435 18.7363 28.0194 20.0335L27.9912 20.5396C31.7034 19.2102 35.7729 18.5822 40.0101 18.8189C56.1205 19.7187 68.4295 32.7702 67.5845 47.8996C67.4393 50.499 66.8903 54.2706 65.2505 57.6193C64.9824 57.9793 64.6594 58.1497 64.2634 58.308C63.4875 58.6181 62.399 58.7431 61.1619 58.674C59.9248 58.6049 58.8488 58.3092 58.1122 57.9146C58.0019 57.9084 58.0404 57.813 57.8572 57.9003L57.4058 58.0347C58.1159 58.832 59.2219 59.1999 61.1266 59.3063C63.409 59.4338 65.2784 58.7893 65.8721 57.8418L65.9008 57.7953Z" fill="black"/>
<path fill-rule="evenodd" clip-rule="evenodd" d="M40.0521 53.045C41.5286 53.776 43.3235 53.1612 44.0611 51.6717C44.7988 50.1822 44.1998 48.3822 42.7233 47.6511C41.2467 46.9201 39.4518 47.535 38.7142 49.0245C37.9766 50.5139 38.5756 52.314 40.0521 53.045ZM39.7698 53.6151C41.5584 54.5006 43.7327 53.7558 44.6262 51.9515C45.5198 50.1471 44.7942 47.9666 43.0056 47.0811C41.2169 46.1956 39.0426 46.9404 38.1491 48.7447C37.2556 50.549 37.9812 52.7295 39.7698 53.6151Z" fill="#6D6D6D"/>
<path fill-rule="evenodd" clip-rule="evenodd" d="M37.7317 53.4846C37.5705 53.4048 37.5051 53.2083 37.5856 53.0457L42.5693 40.5958C42.6498 40.4332 42.8458 40.3661 43.007 40.4459C43.1681 40.5257 43.2335 40.7222 43.153 40.8848L38.1693 53.3347C38.0888 53.4973 37.8928 53.5644 37.7317 53.4846Z" fill="#6D6D6D"/>
<path fill-rule="evenodd" clip-rule="evenodd" d="M38.3294 54.7235C38.1683 54.6437 38.1029 54.4472 38.1834 54.2846L44.1234 39.9037C44.2039 39.7411 44.3998 39.674 44.561 39.7538C44.7222 39.8336 44.7875 40.0301 44.707 40.1927L38.7671 54.5736C38.6866 54.7362 38.4906 54.8033 38.3294 54.7235Z" fill="#6D6D6D"/>
<path fill-rule="evenodd" clip-rule="evenodd" d="M38.9272 55.9623C38.7661 55.8825 38.7007 55.686 38.7812 55.5234L45.6586 39.2496C45.7391 39.087 45.935 39.0199 46.0962 39.0997C46.2574 39.1795 46.3228 39.376 46.2423 39.5386L39.3649 55.8124C39.2843 55.975 39.0884 56.0421 38.9272 55.9623Z" fill="#6D6D6D"/>
<path fill-rule="evenodd" clip-rule="evenodd" d="M40.275 55.6867C40.1139 55.6069 40.0485 55.4104 40.129 55.2478L46.069 40.8669C46.1495 40.7043 46.3454 40.6372 46.5066 40.717C46.6678 40.7968 46.7331 40.9933 46.6526 41.1559L40.7127 55.5367C40.6322 55.6993 40.4362 55.7665 40.275 55.6867Z" fill="#6D6D6D"/>
<path fill-rule="evenodd" clip-rule="evenodd" d="M41.6228 55.4111C41.4616 55.3313 41.3962 55.1348 41.4768 54.9722L46.4605 42.5223C46.541 42.3597 46.7369 42.2926 46.8981 42.3723C47.0593 42.4521 47.1247 42.6486 47.0441 42.8112L42.0604 55.2612C41.9799 55.4238 41.784 55.4909 41.6228 55.4111Z" fill="#6D6D6D"/>
</g>
<defs>
<filter id="filter0_f_683_2947" x="0.891602" y="0.891846" width="78.9729" height="78.9729" filterUnits="userSpaceOnUse" color-interpolation-filters="sRGB">
<feFlood flood-opacity="0" result="BackgroundImageFix"/>
<feBlend mode="normal" in="SourceGraphic" in2="BackgroundImageFix" result="shape"/>
<feGaussianBlur stdDeviation="2" result="effect1_foregroundBlur_683_2947"/>
</filter>
<filter id="filter1_d_683_2947" x="5.20801" y="15.1382" width="69.4993" height="62.5183" filterUnits="userSpaceOnUse" color-interpolation-filters="sRGB">
<feFlood flood-opacity="0" result="BackgroundImageFix"/>
<feColorMatrix in="SourceAlpha" type="matrix" values="0 0 0 0 0 0 0 0 0 0 0 0 0 0 0 0 0 0 127 0" result="hardAlpha"/>
<feOffset dy="4"/>
<feGaussianBlur stdDeviation="2"/>
<feComposite in2="hardAlpha" operator="out"/>
<feColorMatrix type="matrix" values="0 0 0 0 0 0 0 0 0 0 0 0 0 0 0 0 0 0 0.25 0"/>
<feBlend mode="normal" in2="BackgroundImageFix" result="effect1_dropShadow_683_2947"/>
<feBlend mode="normal" in="SourceGraphic" in2="effect1_dropShadow_683_2947" result="shape"/>
</filter>
<filter id="filter2_i_683_2947" x="10.0913" y="17.0286" width="53.1016" height="51.2786" filterUnits="userSpaceOnUse" color-interpolation-filters="sRGB">
<feFlood flood-opacity="0" result="BackgroundImageFix"/>
<feBlend mode="normal" in="SourceGraphic" in2="BackgroundImageFix" result="shape"/>
<feColorMatrix in="SourceAlpha" type="matrix" values="0 0 0 0 0 0 0 0 0 0 0 0 0 0 0 0 0 0 127 0" result="hardAlpha"/>
<feOffset dy="-2"/>
<feGaussianBlur stdDeviation="3.5"/>
<feComposite in2="hardAlpha" operator="arithmetic" k2="-1" k3="1"/>
<feColorMatrix type="matrix" values="0 0 0 0 0 0 0 0 0 0 0 0 0 0 0 0 0 0 1 0"/>
<feBlend mode="normal" in2="shape" result="effect1_innerShadow_683_2947"/>
</filter>
<filter id="filter3_i_683_2947" x="9.29443" y="18.7126" width="54.2148" height="49.9111" filterUnits="userSpaceOnUse" color-interpolation-filters="sRGB">
<feFlood flood-opacity="0" result="BackgroundImageFix"/>
<feBlend mode="normal" in="SourceGraphic" in2="BackgroundImageFix" result="shape"/>
<feColorMatrix in="SourceAlpha" type="matrix" values="0 0 0 0 0 0 0 0 0 0 0 0 0 0 0 0 0 0 127 0" result="hardAlpha"/>
<feOffset/>
<feGaussianBlur stdDeviation="4"/>
<feComposite in2="hardAlpha" operator="arithmetic" k2="-1" k3="1"/>
<feColorMatrix type="matrix" values="0 0 0 0 0 0 0 0 0 0 0 0 0 0 0 0 0 0 0.8 0"/>
<feBlend mode="normal" in2="shape" result="effect1_innerShadow_683_2947"/>
</filter>
<filter id="filter4_i_683_2947" x="18.7397" y="55.4419" width="9.54736" height="9.04468" filterUnits="userSpaceOnUse" color-interpolation-filters="sRGB">
<feFlood flood-opacity="0" result="BackgroundImageFix"/>
<feBlend mode="normal" in="SourceGraphic" in2="BackgroundImageFix" result="shape"/>
<feColorMatrix in="SourceAlpha" type="matrix" values="0 0 0 0 0 0 0 0 0 0 0 0 0 0 0 0 0 0 127 0" result="hardAlpha"/>
<feOffset/>
<feGaussianBlur stdDeviation="9.5"/>
<feComposite in2="hardAlpha" operator="arithmetic" k2="-1" k3="1"/>
<feColorMatrix type="matrix" values="0 0 0 0 0 0 0 0 0 0 0 0 0 0 0 0 0 0 1 0"/>
<feBlend mode="normal" in2="shape" result="effect1_innerShadow_683_2947"/>
</filter>
<filter id="filter5_i_683_2947" x="18.4246" y="55.126" width="10.1797" height="9.67749" filterUnits="userSpaceOnUse" color-interpolation-filters="sRGB">
<feFlood flood-opacity="0" result="BackgroundImageFix"/>
<feBlend mode="normal" in="SourceGraphic" in2="BackgroundImageFix" result="shape"/>
<feColorMatrix in="SourceAlpha" type="matrix" values="0 0 0 0 0 0 0 0 0 0 0 0 0 0 0 0 0 0 127 0" result="hardAlpha"/>
<feOffset/>
<feGaussianBlur stdDeviation="4"/>
<feComposite in2="hardAlpha" operator="arithmetic" k2="-1" k3="1"/>
<feColorMatrix type="matrix" values="0 0 0 0 0 0 0 0 0 0 0 0 0 0 0 0 0 0 0.8 0"/>
<feBlend mode="normal" in2="shape" result="effect1_innerShadow_683_2947"/>
</filter>
<filter id="filter6_i_683_2947" x="7.20801" y="15.1382" width="63.4993" height="54.5491" filterUnits="userSpaceOnUse" color-interpolation-filters="sRGB">
<feFlood flood-opacity="0" result="BackgroundImageFix"/>
<feBlend mode="normal" in="SourceGraphic" in2="BackgroundImageFix" result="shape"/>
<feColorMatrix in="SourceAlpha" type="matrix" values="0 0 0 0 0 0 0 0 0 0 0 0 0 0 0 0 0 0 127 0" result="hardAlpha"/>
<feOffset dx="-2" dy="4"/>
<feGaussianBlur stdDeviation="2.5"/>
<feComposite in2="hardAlpha" operator="arithmetic" k2="-1" k3="1"/>
<feColorMatrix type="matrix" values="0 0 0 0 0 0 0 0 0 0 0 0 0 0 0 0 0 0 0.51 0"/>
<feBlend mode="normal" in2="shape" result="effect1_innerShadow_683_2947"/>
</filter>
<filter id="filter7_i_683_2947" x="28.9077" y="53.5115" width="8.31006" height="8.84961" filterUnits="userSpaceOnUse" color-interpolation-filters="sRGB">
<feFlood flood-opacity="0" result="BackgroundImageFix"/>
<feBlend mode="normal" in="SourceGraphic" in2="BackgroundImageFix" result="shape"/>
<feColorMatrix in="SourceAlpha" type="matrix" values="0 0 0 0 0 0 0 0 0 0 0 0 0 0 0 0 0 0 127 0" result="hardAlpha"/>
<feOffset dy="1"/>
<feGaussianBlur stdDeviation="2"/>
<feComposite in2="hardAlpha" operator="arithmetic" k2="-1" k3="1"/>
<feColorMatrix type="matrix" values="0 0 0 0 0 0 0 0 0 0 0 0 0 0 0 0 0 0 0.95 0"/>
<feBlend mode="normal" in2="shape" result="effect1_innerShadow_683_2947"/>
</filter>
<filter id="filter8_i_683_2947" x="28.2769" y="52.8794" width="9.57446" height="10.1152" filterUnits="userSpaceOnUse" color-interpolation-filters="sRGB">
<feFlood flood-opacity="0" result="BackgroundImageFix"/>
<feBlend mode="normal" in="SourceGraphic" in2="BackgroundImageFix" result="shape"/>
<feColorMatrix in="SourceAlpha" type="matrix" values="0 0 0 0 0 0 0 0 0 0 0 0 0 0 0 0 0 0 127 0" result="hardAlpha"/>
<feOffset dy="1"/>
<feGaussianBlur stdDeviation="4"/>
<feComposite in2="hardAlpha" operator="arithmetic" k2="-1" k3="1"/>
<feColorMatrix type="matrix" values="0 0 0 0 0 0 0 0 0 0 0 0 0 0 0 0 0 0 0.8 0"/>
<feBlend mode="normal" in2="shape" result="effect1_innerShadow_683_2947"/>
</filter>
<filter id="filter9_i_683_2947" x="27.9182" y="49.6008" width="6.93701" height="5.41992" filterUnits="userSpaceOnUse" color-interpolation-filters="sRGB">
<feFlood flood-opacity="0" result="BackgroundImageFix"/>
<feBlend mode="normal" in="SourceGraphic" in2="BackgroundImageFix" result="shape"/>
<feColorMatrix in="SourceAlpha" type="matrix" values="0 0 0 0 0 0 0 0 0 0 0 0 0 0 0 0 0 0 127 0" result="hardAlpha"/>
<feOffset dy="1"/>
<feGaussianBlur stdDeviation="2"/>
<feComposite in2="hardAlpha" operator="arithmetic" k2="-1" k3="1"/>
<feColorMatrix type="matrix" values="0 0 0 0 0 0 0 0 0 0 0 0 0 0 0 0 0 0 0.83 0"/>
<feBlend mode="normal" in2="shape" result="effect1_innerShadow_683_2947"/>
</filter>
<filter id="filter10_i_683_2947" x="27.2869" y="48.9685" width="8.20142" height="6.68555" filterUnits="userSpaceOnUse" color-interpolation-filters="sRGB">
<feFlood flood-opacity="0" result="BackgroundImageFix"/>
<feBlend mode="normal" in="SourceGraphic" in2="BackgroundImageFix" result="shape"/>
<feColorMatrix in="SourceAlpha" type="matrix" values="0 0 0 0 0 0 0 0 0 0 0 0 0 0 0 0 0 0 127 0" result="hardAlpha"/>
<feOffset dy="1"/>
<feGaussianBlur stdDeviation="4"/>
<feComposite in2="hardAlpha" operator="arithmetic" k2="-1" k3="1"/>
<feColorMatrix type="matrix" values="0 0 0 0 0 0 0 0 0 0 0 0 0 0 0 0 0 0 0.8 0"/>
<feBlend mode="normal" in2="shape" result="effect1_innerShadow_683_2947"/>
</filter>
<filter id="filter11_i_683_2947" x="15.3699" y="37.0564" width="2.13989" height="1.94727" filterUnits="userSpaceOnUse" color-interpolation-filters="sRGB">
<feFlood flood-opacity="0" result="BackgroundImageFix"/>
<feBlend mode="normal" in="SourceGraphic" in2="BackgroundImageFix" result="shape"/>
<feColorMatrix in="SourceAlpha" type="matrix" values="0 0 0 0 0 0 0 0 0 0 0 0 0 0 0 0 0 0 127 0" result="hardAlpha"/>
<feOffset/>
<feGaussianBlur stdDeviation="2"/>
<feComposite in2="hardAlpha" operator="arithmetic" k2="-1" k3="1"/>
<feColorMatrix type="matrix" values="0 0 0 0 0 0 0 0 0 0 0 0 0 0 0 0 0 0 0.4 0"/>
<feBlend mode="normal" in2="shape" result="effect1_innerShadow_683_2947"/>
</filter>
<filter id="filter12_i_683_2947" x="17.6853" y="37.2932" width="1.3374" height="1.62671" filterUnits="userSpaceOnUse" color-interpolation-filters="sRGB">
<feFlood flood-opacity="0" result="BackgroundImageFix"/>
<feBlend mode="normal" in="SourceGraphic" in2="BackgroundImageFix" result="shape"/>
<feColorMatrix in="SourceAlpha" type="matrix" values="0 0 0 0 0 0 0 0 0 0 0 0 0 0 0 0 0 0 127 0" result="hardAlpha"/>
<feOffset/>
<feGaussianBlur stdDeviation="2"/>
<feComposite in2="hardAlpha" operator="arithmetic" k2="-1" k3="1"/>
<feColorMatrix type="matrix" values="0 0 0 0 0 0 0 0 0 0 0 0 0 0 0 0 0 0 0.4 0"/>
<feBlend mode="normal" in2="shape" result="effect1_innerShadow_683_2947"/>
</filter>
<filter id="filter13_i_683_2947" x="14.3237" y="38.8804" width="3.11377" height="4.09204" filterUnits="userSpaceOnUse" color-interpolation-filters="sRGB">
<feFlood flood-opacity="0" result="BackgroundImageFix"/>
<feBlend mode="normal" in="SourceGraphic" in2="BackgroundImageFix" result="shape"/>
<feColorMatrix in="SourceAlpha" type="matrix" values="0 0 0 0 0 0 0 0 0 0 0 0 0 0 0 0 0 0 127 0" result="hardAlpha"/>
<feOffset/>
<feGaussianBlur stdDeviation="2"/>
<feComposite in2="hardAlpha" operator="arithmetic" k2="-1" k3="1"/>
<feColorMatrix type="matrix" values="0 0 0 0 0 0 0 0 0 0 0 0 0 0 0 0 0 0 0.4 0"/>
<feBlend mode="normal" in2="shape" result="effect1_innerShadow_683_2947"/>
</filter>
<filter id="filter14_i_683_2947" x="17.1589" y="40.9851" width="6.57715" height="5.76807" filterUnits="userSpaceOnUse" color-interpolation-filters="sRGB">
<feFlood flood-opacity="0" result="BackgroundImageFix"/>
<feBlend mode="normal" in="SourceGraphic" in2="BackgroundImageFix" result="shape"/>
<feColorMatrix in="SourceAlpha" type="matrix" values="0 0 0 0 0 0 0 0 0 0 0 0 0 0 0 0 0 0 127 0" result="hardAlpha"/>
<feOffset/>
<feGaussianBlur stdDeviation="2"/>
<feComposite in2="hardAlpha" operator="arithmetic" k2="-1" k3="1"/>
<feColorMatrix type="matrix" values="0 0 0 0 0 0 0 0 0 0 0 0 0 0 0 0 0 0 0.4 0"/>
<feBlend mode="normal" in2="shape" result="effect1_innerShadow_683_2947"/>
</filter>
<filter id="filter15_i_683_2947" x="16.1775" y="40.6538" width="8.18701" height="10.7319" filterUnits="userSpaceOnUse" color-interpolation-filters="sRGB">
<feFlood flood-opacity="0" result="BackgroundImageFix"/>
<feBlend mode="normal" in="SourceGraphic" in2="BackgroundImageFix" result="shape"/>
<feColorMatrix in="SourceAlpha" type="matrix" values="0 0 0 0 0 0 0 0 0 0 0 0 0 0 0 0 0 0 127 0" result="hardAlpha"/>
<feOffset dy="4"/>
<feGaussianBlur stdDeviation="2"/>
<feComposite in2="hardAlpha" operator="arithmetic" k2="-1" k3="1"/>
<feColorMatrix type="matrix" values="0 0 0 0 0 0 0 0 0 0 0 0 0 0 0 0 0 0 0.25 0"/>
<feBlend mode="normal" in2="shape" result="effect1_innerShadow_683_2947"/>
</filter>
<filter id="filter16_i_683_2947" x="17.5737" y="38.5811" width="5.07349" height="4.9375" filterUnits="userSpaceOnUse" color-interpolation-filters="sRGB">
<feFlood flood-opacity="0" result="BackgroundImageFix"/>
<feBlend mode="normal" in="SourceGraphic" in2="BackgroundImageFix" result="shape"/>
<feColorMatrix in="SourceAlpha" type="matrix" values="0 0 0 0 0 0 0 0 0 0 0 0 0 0 0 0 0 0 127 0" result="hardAlpha"/>
<feOffset/>
<feGaussianBlur stdDeviation="2"/>
<feComposite in2="hardAlpha" operator="arithmetic" k2="-1" k3="1"/>
<feColorMatrix type="matrix" values="0 0 0 0 0 0 0 0 0 0 0 0 0 0 0 0 0 0 0.4 0"/>
<feBlend mode="normal" in2="shape" result="effect1_innerShadow_683_2947"/>
</filter>
<filter id="filter17_i_683_2947" x="29.7375" y="46.8943" width="33.3965" height="18.1636" filterUnits="userSpaceOnUse" color-interpolation-filters="sRGB">
<feFlood flood-opacity="0" result="BackgroundImageFix"/>
<feBlend mode="normal" in="SourceGraphic" in2="BackgroundImageFix" result="shape"/>
<feColorMatrix in="SourceAlpha" type="matrix" values="0 0 0 0 0 0 0 0 0 0 0 0 0 0 0 0 0 0 127 0" result="hardAlpha"/>
<feOffset/>
<feGaussianBlur stdDeviation="11"/>
<feComposite in2="hardAlpha" operator="arithmetic" k2="-1" k3="1"/>
<feColorMatrix type="matrix" values="0 0 0 0 0 0 0 0 0 0 0 0 0 0 0 0 0 0 1 0"/>
<feBlend mode="normal" in2="shape" result="effect1_innerShadow_683_2947"/>
</filter>
<filter id="filter18_i_683_2947" x="29.2668" y="46.0957" width="34.228" height="19.3167" filterUnits="userSpaceOnUse" color-interpolation-filters="sRGB">
<feFlood flood-opacity="0" result="BackgroundImageFix"/>
<feBlend mode="normal" in="SourceGraphic" in2="BackgroundImageFix" result="shape"/>
<feColorMatrix in="SourceAlpha" type="matrix" values="0 0 0 0 0 0 0 0 0 0 0 0 0 0 0 0 0 0 127 0" result="hardAlpha"/>
<feOffset/>
<feGaussianBlur stdDeviation="12"/>
<feComposite in2="hardAlpha" operator="arithmetic" k2="-1" k3="1"/>
<feColorMatrix type="matrix" values="0 0 0 0 0 0 0 0 0 0 0 0 0 0 0 0 0 0 1 0"/>
<feBlend mode="normal" in2="shape" result="effect1_innerShadow_683_2947"/>
</filter>
<filter id="filter19_i_683_2947" x="24.6643" y="24.6484" width="33.5159" height="23.6113" filterUnits="userSpaceOnUse" color-interpolation-filters="sRGB">
<feFlood flood-opacity="0" result="BackgroundImageFix"/>
<feBlend mode="normal" in="SourceGraphic" in2="BackgroundImageFix" result="shape"/>
<feColorMatrix in="SourceAlpha" type="matrix" values="0 0 0 0 0 0 0 0 0 0 0 0 0 0 0 0 0 0 127 0" result="hardAlpha"/>
<feOffset/>
<feGaussianBlur stdDeviation="8"/>
<feComposite in2="hardAlpha" operator="arithmetic" k2="-1" k3="1"/>
<feColorMatrix type="matrix" values="0 0 0 0 0 0 0 0 0 0 0 0 0 0 0 0 0 0 1 0"/>
<feBlend mode="normal" in2="shape" result="effect1_innerShadow_683_2947"/>
</filter>
<filter id="filter20_i_683_2947" x="24.6643" y="24.6487" width="33.6292" height="23.6111" filterUnits="userSpaceOnUse" color-interpolation-filters="sRGB">
<feFlood flood-opacity="0" result="BackgroundImageFix"/>
<feBlend mode="normal" in="SourceGraphic" in2="BackgroundImageFix" result="shape"/>
<feColorMatrix in="SourceAlpha" type="matrix" values="0 0 0 0 0 0 0 0 0 0 0 0 0 0 0 0 0 0 127 0" result="hardAlpha"/>
<feOffset/>
<feGaussianBlur stdDeviation="15"/>
<feComposite in2="hardAlpha" operator="arithmetic" k2="-1" k3="1"/>
<feColorMatrix type="matrix" values="0 0 0 0 0 0 0 0 0 0 0 0 0 0 0 0 0 0 1 0"/>
<feBlend mode="normal" in2="shape" result="effect1_innerShadow_683_2947"/>
</filter>
<filter id="filter21_i_683_2947" x="31.312" y="31.9968" width="19.501" height="14.6731" filterUnits="userSpaceOnUse" color-interpolation-filters="sRGB">
<feFlood flood-opacity="0" result="BackgroundImageFix"/>
<feBlend mode="normal" in="SourceGraphic" in2="BackgroundImageFix" result="shape"/>
<feColorMatrix in="SourceAlpha" type="matrix" values="0 0 0 0 0 0 0 0 0 0 0 0 0 0 0 0 0 0 127 0" result="hardAlpha"/>
<feOffset/>
<feGaussianBlur stdDeviation="10.5"/>
<feComposite in2="hardAlpha" operator="arithmetic" k2="-1" k3="1"/>
<feColorMatrix type="matrix" values="0 0 0 0 0 0 0 0 0 0 0 0 0 0 0 0 0 0 0.56 0"/>
<feBlend mode="normal" in2="shape" result="effect1_innerShadow_683_2947"/>
</filter>
<filter id="filter22_i_683_2947" x="30.76" y="31.4407" width="20.6072" height="15.7852" filterUnits="userSpaceOnUse" color-interpolation-filters="sRGB">
<feFlood flood-opacity="0" result="BackgroundImageFix"/>
<feBlend mode="normal" in="SourceGraphic" in2="BackgroundImageFix" result="shape"/>
<feColorMatrix in="SourceAlpha" type="matrix" values="0 0 0 0 0 0 0 0 0 0 0 0 0 0 0 0 0 0 127 0" result="hardAlpha"/>
<feOffset/>
<feGaussianBlur stdDeviation="4"/>
<feComposite in2="hardAlpha" operator="arithmetic" k2="-1" k3="1"/>
<feColorMatrix type="matrix" values="0 0 0 0 0 0 0 0 0 0 0 0 0 0 0 0 0 0 0.8 0"/>
<feBlend mode="normal" in2="shape" result="effect1_innerShadow_683_2947"/>
</filter>
<filter id="filter23_i_683_2947" x="19.1694" y="23.1292" width="11.4426" height="8.11694" filterUnits="userSpaceOnUse" color-interpolation-filters="sRGB">
<feFlood flood-opacity="0" result="BackgroundImageFix"/>
<feBlend mode="normal" in="SourceGraphic" in2="BackgroundImageFix" result="shape"/>
<feColorMatrix in="SourceAlpha" type="matrix" values="0 0 0 0 0 0 0 0 0 0 0 0 0 0 0 0 0 0 127 0" result="hardAlpha"/>
<feOffset/>
<feGaussianBlur stdDeviation="2"/>
<feComposite in2="hardAlpha" operator="arithmetic" k2="-1" k3="1"/>
<feColorMatrix type="matrix" values="0 0 0 0 0 0 0 0 0 0 0 0 0 0 0 0 0 0 0.4 0"/>
<feBlend mode="normal" in2="shape" result="effect1_innerShadow_683_2947"/>
</filter>
</defs>
</svg>
