<svg width="108" height="108" viewBox="0 0 108 108" fill="none" xmlns="http://www.w3.org/2000/svg">
<circle cx="53.4213" cy="54.4967" r="50.0975" fill="black"/>
<path d="M16.5027 68.353C17.1827 67.673 18.2851 67.673 18.965 68.353V68.353C19.645 69.0329 19.645 70.1353 18.965 70.8152L5.5231 84.2572C4.84316 84.9371 3.74076 84.9371 3.06082 84.2572V84.2572C2.38088 83.5772 2.38088 82.4748 3.06082 81.7949L16.5027 68.353Z" fill="#F80000"/>
<path d="M36.9397 88.7899C37.6196 88.1099 38.722 88.1099 39.4019 88.7899V88.7899C40.0819 89.4698 40.0819 90.5722 39.4019 91.2522L25.96 104.694C25.2801 105.374 24.1777 105.374 23.4977 104.694V104.694C22.8178 104.014 22.8178 102.912 23.4977 102.232L36.9397 88.7899Z" fill="#F80000"/>
<path d="M36.8752 83.135C36.2556 83.2228 35.9532 83.0815 35.4654 82.5937L25.4515 72.5797C24.9637 72.0919 24.7617 71.4298 24.8495 70.8102C24.8637 70.7104 24.8962 70.5849 24.9314 70.449C25.0242 70.0909 25.1357 69.6607 24.9787 69.4388L23.9044 67.9203C23.7806 67.7452 23.5327 67.7189 23.3864 67.8652L19.531 71.7206C19.4012 71.8504 19.1868 71.8465 19.0521 71.7118L15.8385 68.4982C15.7038 68.3635 15.6998 68.149 15.8297 68.0192L20.4028 63.446C20.5168 63.3321 20.5295 63.1497 20.4331 63.0134L6.305 43.0427C6.18118 42.8677 5.93328 42.8414 5.78699 42.9876L2.44335 46.3313C2.31352 46.4611 2.09908 46.4572 1.96439 46.3225L0.268564 44.6267C0.133871 44.492 0.129934 44.2775 0.25977 44.1477L13.7627 30.6448C13.8159 30.5916 13.9785 30.429 14.1867 30.6371L14.6744 31.1249L42.3445 3.45479C42.926 2.87327 43.6844 3.57818 43.0761 4.18643L15.4061 31.8565L32.1621 48.6126C32.2968 48.7473 32.5113 48.7512 32.6411 48.6214L36.1394 45.1231C36.2693 44.9932 37.0098 44.3813 37.6998 45.0713L42.5192 49.8907C43.1773 50.5489 42.5728 51.2967 42.4429 51.4266L38.9446 54.9249C38.8148 55.0547 38.8187 55.2692 38.9534 55.4039L38.9762 55.4266C39.2895 55.74 39.7603 55.8262 40.1471 55.6411L44.1359 53.7324C44.299 53.6543 44.45 53.5541 44.5848 53.4344L85.2693 17.3115C85.3133 17.2725 85.3625 17.2396 85.4155 17.2139L88.8386 15.5514C89.6226 15.0481 90.205 15.6308 90.8845 16.3105L91.6579 17.0839C92.3376 17.7634 92.9203 18.3459 92.417 19.1298L90.7546 22.5529C90.7288 22.606 90.6959 22.6551 90.6569 22.6991L54.534 63.3837C54.4144 63.5184 54.3141 63.6694 54.2361 63.8325L52.3273 67.8213C52.1422 68.2081 52.2285 68.6789 52.5418 68.9922L52.5646 69.015C52.6992 69.1497 52.9137 69.1537 53.0435 69.0238L56.5541 65.5132C56.6839 65.3834 57.3479 64.7194 58.0757 65.4473L62.9422 70.3138C63.6514 71.0229 62.9874 71.6869 62.8576 71.8167L59.347 75.3273C59.2172 75.4571 59.2211 75.6716 59.3558 75.8063L76.1321 92.5825L103.802 64.9124C104.434 64.2803 105.166 65.012 104.534 65.6441L76.8637 93.3142L77.3515 93.8019C77.5077 93.9582 77.5482 94.093 77.4078 94.2333C76.35 95.2912 63.8207 107.709 63.8207 107.709C63.6909 107.839 63.4765 107.835 63.3418 107.7L61.6459 106.004C61.5112 105.869 61.5073 105.655 61.6371 105.525L64.9808 102.181C65.1271 102.035 65.1007 101.787 64.9257 101.663L44.955 87.5353C44.8187 87.4389 44.6364 87.4516 44.5224 87.5656L39.9492 92.1388C39.8194 92.2686 39.6049 92.2647 39.4703 92.13L36.2566 88.9163C36.122 88.7817 36.118 88.5672 36.2479 88.4374L40.1032 84.582C40.2495 84.4357 40.2232 84.1878 40.0481 84.064L38.5296 82.9897C38.3077 82.8327 37.8775 82.9442 37.5194 83.037C37.3835 83.0722 36.975 83.1208 36.8752 83.135Z" fill="#EDEDED"/>
<path d="M62.655 41.0315C62.0556 40.8748 61.9635 40.0905 62.4882 39.6121L80.5742 23.1235C80.7411 22.9713 80.9485 22.8776 81.1561 22.8607C81.9204 22.7983 82.1956 23.7109 81.5817 24.2721L63.5164 40.7844C63.2683 41.0112 62.9388 41.1057 62.655 41.0315Z" fill="#6A0D0D"/>
<path d="M67.0519 45.4284C67.2086 46.0278 67.9929 46.12 68.4713 45.5952L84.96 27.5092C85.1121 27.3423 85.2058 27.1349 85.2228 26.9273C85.2852 26.163 84.3725 25.8878 83.8113 26.5018L67.299 44.567C67.0722 44.8151 66.9777 45.1446 67.0519 45.4284Z" fill="#6A0D0D"/>
<path d="M21.28 39.0219C21.4215 38.8804 21.6325 38.8619 21.7512 38.9806L25.4478 42.6772C25.5665 42.7959 25.548 43.0068 25.4064 43.1484L19.2553 49.2995C19.1137 49.4411 18.9028 49.4596 18.7841 49.3409L15.0874 45.6443C14.9688 45.5256 14.9873 45.3146 15.1288 45.1731L21.28 39.0219Z" fill="#6A0D0D"/>
<path d="M13.8474 46.4546C13.989 46.3131 14.1999 46.2945 14.3186 46.4132L24.205 56.2996C24.3237 56.4183 24.3051 56.6292 24.1636 56.7708L23.5959 57.3385C23.4544 57.48 23.2434 57.4985 23.1247 57.3798L13.2384 47.4935C13.1197 47.3748 13.1382 47.1638 13.2797 47.0223L13.8474 46.4546Z" fill="#6A0D0D"/>
<path d="M19.3485 61.0891C19.4545 61.244 19.6926 61.2417 19.8501 61.0843L22.3695 58.5649C22.5111 58.4233 22.5296 58.2123 22.4109 58.0936L20.6441 56.3269C20.5254 56.2082 20.3145 56.2267 20.1729 56.3683L17.9856 58.5556C17.8594 58.6818 17.829 58.8662 17.9138 58.9903L19.3485 61.0891Z" fill="#6A0D0D"/>
<path d="M16.6363 56.9437C16.7422 57.0986 16.9804 57.0963 17.1379 56.9389L18.9407 55.136C19.0822 54.9945 19.1008 54.7835 18.9821 54.6648L17.2153 52.8981C17.0966 52.7794 16.8856 52.7979 16.7441 52.9395L15.2733 54.4102C15.1472 54.5364 15.1168 54.7207 15.2016 54.8449L16.6363 56.9437Z" fill="#6A0D0D"/>
<path d="M68.9926 86.7346C69.1341 86.593 69.1527 86.382 69.034 86.2633L65.3373 82.5667C65.2186 82.448 65.0077 82.4665 64.8661 82.6081L58.715 88.7592C58.5734 88.9008 58.5549 89.1117 58.6736 89.2304L62.3702 92.9271C62.4889 93.0458 62.6999 93.0272 62.8415 92.8857L68.9926 86.7346Z" fill="#6A0D0D"/>
<path d="M61.5599 94.1671C61.7014 94.0256 61.72 93.8146 61.6013 93.6959L51.715 83.8096C51.5963 83.6909 51.3853 83.7094 51.2437 83.8509L50.6761 84.4186C50.5345 84.5602 50.516 84.7711 50.6347 84.8898L60.521 94.7761C60.6397 94.8948 60.8507 94.8763 60.9922 94.7348L61.5599 94.1671Z" fill="#6A0D0D"/>
<path d="M46.9255 88.666C46.7705 88.5601 46.7728 88.3219 46.9302 88.1644L49.4497 85.645C49.5912 85.5035 49.8022 85.4849 49.9209 85.6036L51.6876 87.3704C51.8063 87.4891 51.7878 87.7001 51.6462 87.8416L49.4589 90.029C49.3327 90.1551 49.1484 90.1855 49.0242 90.1007L46.9255 88.666Z" fill="#6A0D0D"/>
<path d="M51.0709 91.3782C50.9159 91.2723 50.9182 91.0341 51.0756 90.8767L52.8785 89.0738C53.02 88.9323 53.231 88.9138 53.3497 89.0325L55.1164 90.7992C55.2351 90.9179 55.2166 91.1289 55.0751 91.2704L53.6043 92.7412C53.4781 92.8673 53.2938 92.8978 53.1697 92.8129L51.0709 91.3782Z" fill="#6A0D0D"/>
<path fill-rule="evenodd" clip-rule="evenodd" d="M27.8842 64.6397C27.7338 64.4893 27.7093 64.2699 27.8296 64.1497L35.3462 56.633C35.4665 56.5128 35.6859 56.5372 35.8363 56.6876L36.1087 56.96C36.2591 57.1104 36.2835 57.3298 36.1633 57.4501L28.6466 64.9667C28.5264 65.087 28.307 65.0625 28.1566 64.9121L27.8842 64.6397Z" fill="#4E3131"/>
<path fill-rule="evenodd" clip-rule="evenodd" d="M42.9714 79.7269C42.821 79.5765 42.7965 79.3571 42.9167 79.2368L50.4334 71.7202C50.5536 71.5999 50.7731 71.6244 50.9235 71.7748L51.1958 72.0471C51.3462 72.1976 51.3707 72.417 51.2505 72.5372L43.7338 80.0539C43.6135 80.1741 43.3941 80.1497 43.2437 79.9992L42.9714 79.7269Z" fill="#4E3131"/>
<path fill-rule="evenodd" clip-rule="evenodd" d="M54.3088 48.5807C54.845 48.135 55.6325 48.1713 56.1255 48.6643L58.8598 51.3986C59.3542 51.893 59.3891 52.6831 58.9403 53.2192L51.1545 62.5191C51.0342 62.6628 50.8852 62.7799 50.7171 62.8629L48.1008 64.1544C47.5822 64.4104 46.9582 64.3075 46.5492 63.8986L43.6227 60.9721C43.2181 60.5675 43.1126 59.9518 43.3594 59.4357L44.625 56.7888C44.709 56.6131 44.8301 56.4576 44.9799 56.3331L54.3088 48.5807ZM57.9056 52.3529L55.1713 49.6186L45.8425 57.371L44.5769 60.0178L47.5035 62.9443L50.1197 61.6528L57.9056 52.3529Z" fill="#868686"/>
<path d="M54.7852 49.3815C55.045 49.1645 55.4215 49.1761 55.6538 49.4084L58.2303 51.9849C58.4632 52.2178 58.4742 52.5955 58.2556 52.8552L50.6716 61.8659C50.613 61.9355 50.5409 61.9926 50.4599 62.0335L47.938 63.3071C47.6881 63.4334 47.3902 63.3887 47.1976 63.196L44.4399 60.4383C44.2493 60.2477 44.2033 59.954 44.3251 59.7052L45.5743 57.1545C45.6158 57.0698 45.6748 56.9946 45.7474 56.9339L54.7852 49.3815Z" fill="#303030"/>
<g filter="url(#filter0_f_684_3046)">
<path d="M48.0037 56.297L48.5998 55.0649C48.6175 55.0285 48.6429 54.996 48.6742 54.9699L49.1984 54.5331L55.8384 55.4681L54.388 57.196L48.0037 56.297Z" fill="white" fill-opacity="0.12"/>
</g>
<defs>
<filter id="filter0_f_684_3046" x="44.0037" y="50.5331" width="15.8347" height="10.663" filterUnits="userSpaceOnUse" color-interpolation-filters="sRGB">
<feFlood flood-opacity="0" result="BackgroundImageFix"/>
<feBlend mode="normal" in="SourceGraphic" in2="BackgroundImageFix" result="shape"/>
<feGaussianBlur stdDeviation="2" result="effect1_foregroundBlur_684_3046"/>
</filter>
</defs>
</svg>
