<svg width="120" height="71" viewBox="0 0 120 71" fill="none" xmlns="http://www.w3.org/2000/svg">
<path fill-rule="evenodd" clip-rule="evenodd" d="M59.5632 39.8097V40.6912L59.5815 40.6978C59.9786 40.8412 60.3913 40.9846 60.8199 41.1274H62.4942V41.6558C62.6315 41.6969 62.7701 41.7378 62.9102 41.7785H70.1463V42.4299H75.1934V44.1689C78.61 44.5556 82.4345 44.7881 86.6919 44.7881C99.3223 44.7881 107.909 42.7854 113.335 40.7864C116.048 39.7869 117.97 38.7882 119.213 38.0407C119.338 37.9656 119.456 37.8929 119.568 37.8231C119.616 37.0854 119.641 36.3412 119.641 35.5912C119.641 17.1117 104.661 2.1311 86.1832 2.1311C82.3934 2.1311 78.7509 2.76122 75.3545 3.92241H91.3114V6.14895H93.9983V8.29024H88.8694V10.5165H85.5318V11.3739H83.0086V11.8024H81.6246V12.9153H80.4033V13.2586H85.3692V14.372H83.9855V15.485H71.6118V15.3996H68.8434V15.5705H65.9127V15.7419H72.4253V18.1402H65.9127V18.1403H75.356V18.4828H78.3684V19.5964H78.5308V20.11H80.4033V21.7374H78.5308V21.9946H73.9724V22.6802H71.0416V22.9372H74.7862V24.5644H76.8217V25.9348H79.0196V28.3331H66.8086V28.3333H76.0889V30.7315H72.4251V31.4167H70.3902V33.5562H75.9259V35.1844H69.6577V36.8115H52.7471L52.7471 36.8122H59.5632V36.8127H63.0637V38.3112L59.5632 38.3112H65.099V39.8097H59.5632ZM109.025 33.3392C106.124 34.3431 102.338 31.0075 100.568 25.889C98.7979 20.7704 99.7147 15.8072 102.616 14.8034C105.516 13.7995 109.303 17.1351 111.073 22.2536C112.843 27.3722 111.926 32.3354 109.025 33.3392Z" fill="white"/>
<path d="M59.5632 40.9886V41.1274H59.9544C59.8224 41.0811 59.692 41.0349 59.5632 40.9886Z" fill="white"/>
<path d="M75.1934 44.4505C78.6126 44.8362 82.4372 45.0679 86.6919 45.0679C99.3523 45.0679 107.972 43.0603 113.431 41.0489C116.161 40.0433 118.1 39.0369 119.358 38.2805C119.421 38.2422 119.483 38.2045 119.543 38.1675C118.228 55.4432 103.795 69.0513 86.1832 69.0513C84.4023 69.0513 82.6538 68.9122 80.9482 68.6441H89.6019V67.6354H87.16V67.6351H92.2889V66.6652H87.16V65.6569H83.8224V65.2687H81.2992V65.0748H80.485V65.0472H83.1713V64.4152H83.6598V63.9108H83.1713V63.0755H78.0424V61.3117L78.6939 61.3117V60.5745H76.8214V60.458H74.7048V60.2361H72.2629V60.1476H72.1816V60.0308H73.0768V59.2943H75.1117V58.6734H77.3095V57.5871H74.5422V57.4757H74.3794V56.5003H73.1585V56.4503H70.7163V56.1901H68.6808V55.4419H61.5983V55.2202H74.2166V54.4831H72.1813V53.7459H64.529V53.6904H67.5414V52.665H67.7038V52.1919H69.5763V50.6934H67.7038V50.4567H63.1453V49.8254H60.2146V49.5941H73.4022V48.1289H76.2513V46.8258H79.2638V45.3604H60.5404V44.6281H75.1934V44.4505Z" fill="white"/>
<path d="M61.9817 12.4872L61.9815 12.4874H69.2508V12.4872H61.9817Z" fill="white"/>
<mask id="mask0_695_3003" style="mask-type:alpha" maskUnits="userSpaceOnUse" x="2" y="42" width="88" height="29">
<rect x="2.82422" y="42.2488" width="87.1092" height="28.588" fill="#D9D9D9"/>
</mask>
<g mask="url(#mask0_695_3003)">
<path d="M19.7228 23.4229C20.427 23.4229 20.9978 23.9937 20.9978 24.6978V24.6978C20.9978 25.402 20.427 25.9728 19.7228 25.9728L4.09921 25.9728C3.39505 25.9728 2.82423 25.402 2.82423 24.6978V24.6978C2.82423 23.9937 3.39505 23.4229 4.09921 23.4229L19.7228 23.4229Z" fill="#171717"/>
<path d="M19.7228 44.5875C20.427 44.5875 20.9978 45.1583 20.9978 45.8625V45.8625C20.9978 46.5666 20.427 47.1375 19.7228 47.1375H4.09921C3.39505 47.1375 2.82423 46.5666 2.82423 45.8625V45.8625C2.82423 45.1583 3.39505 44.5875 4.09921 44.5875H19.7228Z" fill="#171717"/>
<path d="M21.7877 41.9052C21.3913 41.6191 21.3011 41.3805 21.3011 40.8558V30.0836C21.3011 29.5589 21.5589 29.0941 21.9553 28.8081C22.0192 28.7621 22.1077 28.712 22.2036 28.6579C22.4563 28.5152 22.7598 28.3438 22.7962 28.14L23.0451 26.7454C23.0738 26.5847 22.9497 26.4372 22.7857 26.4372L18.4649 26.4372C18.3194 26.4372 18.2015 26.3197 18.2015 26.1748V22.7179C18.2015 22.573 18.3194 22.4555 18.4649 22.4555L23.5901 22.4555C23.7179 22.4555 23.8272 22.3643 23.8495 22.2391L27.1235 3.89887C27.1521 3.73813 27.028 3.59061 26.8641 3.59061L23.1168 3.59061C22.9713 3.59061 22.8533 3.47315 22.8533 3.32826V1.50404C22.8533 1.35915 22.9713 1.2417 23.1168 1.2417L38.2497 1.2417C38.3093 1.2417 38.4916 1.24168 38.4916 1.46561V1.9903L69.5019 1.9903C70.1536 1.9903 70.1835 2.77734 69.5019 2.77734L38.4916 2.77734V20.8021C38.4916 20.947 38.6095 21.0645 38.755 21.0645L42.6757 21.0645C42.8212 21.0645 43.579 21.1336 43.579 21.8759V27.0602C43.579 27.7682 42.8212 27.8452 42.6757 27.8452L38.755 27.8452C38.6095 27.8452 38.4916 27.9627 38.4916 28.1076V28.1321C38.4916 28.4691 38.7071 28.7687 39.0276 28.8772L42.3323 29.996C42.4674 30.0417 42.6082 30.069 42.7507 30.0772L85.7904 32.5307C85.8369 32.5333 85.8828 32.5421 85.927 32.5568L88.7768 33.5037C89.4981 33.6547 89.4979 34.2814 89.4978 35.0124V35.8444C89.4979 36.5754 89.4981 37.2022 88.7768 37.3531L85.927 38.3001C85.8828 38.3147 85.8369 38.3235 85.7904 38.3262L42.7507 40.7797C42.6082 40.7878 42.4674 40.8151 42.3323 40.8609L39.0276 41.9796C38.7071 42.0881 38.4916 42.3878 38.4916 42.7248V42.7493C38.4916 42.8942 38.6095 43.0116 38.755 43.0116H42.6894C42.8349 43.0116 43.579 43.0116 43.579 43.7946V49.0295C43.579 49.7924 42.8349 49.7924 42.6894 49.7924H38.755C38.6095 49.7924 38.4916 49.9099 38.4916 50.0547L38.4916 68.1012L69.5019 68.1012C70.2103 68.1012 70.2103 68.8883 69.5019 68.8883L38.4916 68.8883V69.4129C38.4916 69.581 38.4387 69.6753 38.2815 69.6753C37.0959 69.6753 23.1168 69.6152 23.1168 69.6152C22.9713 69.6152 22.8533 69.4977 22.8533 69.3528V67.5286C22.8533 67.3837 22.9713 67.2663 23.1168 67.2663H26.8641C27.028 67.2663 27.1521 67.1187 27.1235 66.958L23.8495 48.6178C23.8272 48.4925 23.7179 48.4013 23.5901 48.4013H18.4649C18.3194 48.4013 18.2015 48.2839 18.2015 48.139V44.682C18.2015 44.5372 18.3194 44.4197 18.4649 44.4197H22.7857C22.9497 44.4197 23.0738 44.2722 23.0451 44.1114L22.7962 42.7168C22.7598 42.5131 22.4563 42.3417 22.2036 42.199C22.1077 42.1448 21.8516 41.9512 21.7877 41.9052Z" fill="#0D0D0D"/>
<path d="M21.7877 41.9052C21.3913 41.6191 21.3011 41.3805 21.3011 40.8558V30.0836C21.3011 29.5589 21.5589 29.0941 21.9553 28.8081C22.0192 28.7621 22.1077 28.712 22.2036 28.6579C22.4563 28.5152 22.7598 28.3438 22.7962 28.14L23.0451 26.7454C23.0738 26.5847 22.9497 26.4372 22.7857 26.4372L18.4649 26.4372C18.3194 26.4372 18.2015 26.3197 18.2015 26.1748V22.7179C18.2015 22.573 18.3194 22.4555 18.4649 22.4555L23.5901 22.4555C23.7179 22.4555 23.8272 22.3643 23.8495 22.2391L27.1235 3.89887C27.1521 3.73813 27.028 3.59061 26.8641 3.59061L23.1168 3.59061C22.9713 3.59061 22.8533 3.47315 22.8533 3.32826V1.50404C22.8533 1.35915 22.9713 1.2417 23.1168 1.2417L38.2497 1.2417C38.3093 1.2417 38.4916 1.24168 38.4916 1.46561V1.9903L69.5019 1.9903C70.1536 1.9903 70.1835 2.77734 69.5019 2.77734L38.4916 2.77734V20.8021C38.4916 20.947 38.6095 21.0645 38.755 21.0645L42.6757 21.0645C42.8212 21.0645 43.579 21.1336 43.579 21.8759V27.0602C43.579 27.7682 42.8212 27.8452 42.6757 27.8452L38.755 27.8452C38.6095 27.8452 38.4916 27.9627 38.4916 28.1076V28.1321C38.4916 28.4691 38.7071 28.7687 39.0276 28.8772L42.3323 29.996C42.4674 30.0417 42.6082 30.069 42.7507 30.0772L85.7904 32.5307C85.8369 32.5333 85.8828 32.5421 85.927 32.5568L88.7768 33.5037C89.4981 33.6547 89.4979 34.2814 89.4978 35.0124V35.8444C89.4979 36.5754 89.4981 37.2022 88.7768 37.3531L85.927 38.3001C85.8828 38.3147 85.8369 38.3235 85.7904 38.3262L42.7507 40.7797C42.6082 40.7878 42.4674 40.8151 42.3323 40.8609L39.0276 41.9796C38.7071 42.0881 38.4916 42.3878 38.4916 42.7248V42.7493C38.4916 42.8942 38.6095 43.0116 38.755 43.0116H42.6894C42.8349 43.0116 43.579 43.0116 43.579 43.7946V49.0295C43.579 49.7924 42.8349 49.7924 42.6894 49.7924H38.755C38.6095 49.7924 38.4916 49.9099 38.4916 50.0547L38.4916 68.1012L69.5019 68.1012C70.2103 68.1012 70.2103 68.8883 69.5019 68.8883L38.4916 68.8883V69.4129C38.4916 69.581 38.4387 69.6753 38.2815 69.6753C37.0959 69.6753 23.1168 69.6152 23.1168 69.6152C22.9713 69.6152 22.8533 69.4977 22.8533 69.3528V67.5286C22.8533 67.3837 22.9713 67.2663 23.1168 67.2663H26.8641C27.028 67.2663 27.1521 67.1187 27.1235 66.958L23.8495 48.6178C23.8272 48.4925 23.7179 48.4013 23.5901 48.4013H18.4649C18.3194 48.4013 18.2015 48.2839 18.2015 48.139V44.682C18.2015 44.5372 18.3194 44.4197 18.4649 44.4197H22.7857C22.9497 44.4197 23.0738 44.2722 23.0451 44.1114L22.7962 42.7168C22.7598 42.5131 22.4563 42.3417 22.2036 42.199C22.1077 42.1448 21.8516 41.9512 21.7877 41.9052Z" fill="#181818"/>
<path d="M59.6895 33.1169C59.4461 32.7088 59.8267 32.2358 60.3784 32.2609L79.3911 33.1228C79.5666 33.1308 79.7322 33.1922 79.8557 33.2951C80.3103 33.6738 79.9597 34.3148 79.3135 34.2863L60.2991 33.4483C60.0379 33.4368 59.8048 33.31 59.6895 33.1169Z" fill="#171717"/>
<path d="M59.6895 37.8622C59.4461 38.2702 59.8267 38.7432 60.3784 38.7182L79.3911 37.8562C79.5666 37.8483 79.7322 37.7869 79.8557 37.684C80.3103 37.3053 79.9597 36.6643 79.3135 36.6927L60.2991 37.5308C60.0379 37.5423 59.8048 37.6691 59.6895 37.8622Z" fill="#171717"/>
<path d="M38.0423 9.70508C38.1979 9.70508 38.3241 9.80893 38.3241 9.93704V13.9267C38.3241 14.0548 38.1979 14.1586 38.0423 14.1586H31.2772C31.1215 14.1586 30.9953 14.0548 30.9953 13.9267V9.93704C30.9953 9.80893 31.1215 9.70508 31.2772 9.70508L38.0423 9.70508Z" fill="#171717"/>
<path d="M29.8678 9.70516C30.0235 9.70516 30.1497 9.80901 30.1497 9.93712V20.6071C30.1497 20.7352 30.0235 20.839 29.8678 20.839H29.2435C29.0878 20.839 28.9616 20.7352 28.9616 20.6071V9.93712C28.9616 9.80901 29.0878 9.70516 29.2435 9.70516H29.8678Z" fill="#171717"/>
<path d="M24.8453 20.571C24.8184 20.7117 24.9506 20.839 25.1238 20.839H27.8946C28.0503 20.839 28.1765 20.7352 28.1765 20.6071V18.7003C28.1765 18.5722 28.0503 18.4683 27.8946 18.4683H25.4889C25.3502 18.4683 25.2321 18.5514 25.2105 18.6642L24.8453 20.571Z" fill="#171717"/>
<path d="M25.6334 16.8704C25.6065 17.0111 25.7387 17.1384 25.9119 17.1384H27.8946C28.0503 17.1384 28.1765 17.0346 28.1765 16.9065V14.9997C28.1765 14.8716 28.0503 14.7677 27.8946 14.7677H26.2771C26.1383 14.7677 26.0202 14.8508 25.9986 14.9636L25.6334 16.8704Z" fill="#171717"/>
<path d="M38.0423 61.1997C38.1979 61.1997 38.3241 61.0958 38.3241 60.9677V56.9781C38.3241 56.85 38.1979 56.7461 38.0423 56.7461H31.2772C31.1215 56.7461 30.9953 56.85 30.9953 56.9781V60.9677C30.9953 61.0958 31.1215 61.1997 31.2772 61.1997H38.0423Z" fill="#171717"/>
<path d="M29.8678 61.1996C30.0235 61.1996 30.1497 61.0957 30.1497 60.9676V50.2977C30.1497 50.1695 30.0235 50.0657 29.8678 50.0657H29.2435C29.0878 50.0657 28.9616 50.1695 28.9616 50.2977V60.9676C28.9616 61.0957 29.0878 61.1996 29.2435 61.1996H29.8678Z" fill="#171717"/>
<path d="M24.8453 50.3338C24.8184 50.193 24.9506 50.0657 25.1238 50.0657H27.8946C28.0503 50.0657 28.1765 50.1695 28.1765 50.2977V52.2044C28.1765 52.3325 28.0503 52.4364 27.8946 52.4364H25.4889C25.3502 52.4364 25.2321 52.3533 25.2105 52.2406L24.8453 50.3338Z" fill="#171717"/>
<path d="M25.6334 54.0344C25.6065 53.8936 25.7387 53.7663 25.9119 53.7663H27.8946C28.0503 53.7663 28.1765 53.8702 28.1765 53.9983V55.905C28.1765 56.0332 28.0503 56.137 27.8946 56.137H26.2771C26.1383 56.137 26.0202 56.0539 25.9986 55.9412L25.6334 54.0344Z" fill="#171717"/>
<path fill-rule="evenodd" clip-rule="evenodd" d="M27.6372 26.5376C27.6372 26.3614 27.7443 26.2185 27.8764 26.2185H36.1353C36.2674 26.2185 36.3745 26.3614 36.3745 26.5376V26.8567C36.3745 27.0329 36.2674 27.1757 36.1353 27.1757H27.8764C27.7443 27.1757 27.6372 27.0329 27.6372 26.8567V26.5376Z" fill="#171717"/>
<path fill-rule="evenodd" clip-rule="evenodd" d="M27.6372 44.2133C27.6372 44.037 27.7443 43.8942 27.8764 43.8942H36.1353C36.2674 43.8942 36.3745 44.037 36.3745 44.2133V44.5323C36.3745 44.7086 36.2674 44.8514 36.1353 44.8514H27.8764C27.7443 44.8514 27.6372 44.7086 27.6372 44.5323V44.2133Z" fill="#171717"/>
</g>
<mask id="mask1_695_3003" style="mask-type:alpha" maskUnits="userSpaceOnUse" x="2" y="0" width="88" height="27">
<rect x="2.82422" y="0.345703" width="87.1092" height="26.3114" fill="#D9D9D9"/>
</mask>
<g mask="url(#mask1_695_3003)">
<path d="M19.8612 21.75C20.4889 21.75 20.9978 22.2589 20.9978 22.8866V22.8866C20.9978 23.5144 20.4889 24.0233 19.8612 24.0233L3.96085 24.0233C3.33311 24.0233 2.82423 23.5144 2.82423 22.8866V22.8866C2.82423 22.2589 3.33311 21.75 3.96085 21.75L19.8612 21.75Z" fill="#171717"/>
<path d="M19.8612 40.618C20.4889 40.618 20.9978 41.1269 20.9978 41.7547V41.7547C20.9978 42.3824 20.4889 42.8913 19.8612 42.8913H3.96085C3.33311 42.8913 2.82423 42.3824 2.82423 41.7547V41.7547C2.82423 41.1269 3.33311 40.618 3.96085 40.618H19.8612Z" fill="#171717"/>
<path d="M21.7877 38.2266C21.3913 37.9716 21.3011 37.7588 21.3011 37.291V27.6878C21.3011 27.22 21.5589 26.8057 21.9553 26.5507C22.0192 26.5096 22.1077 26.4651 22.2036 26.4168C22.4563 26.2896 22.7598 26.1368 22.7962 25.9551L23.0451 24.7118C23.0738 24.5685 22.9497 24.437 22.7857 24.437L18.4649 24.437C18.3194 24.437 18.2015 24.3323 18.2015 24.2032V21.1213C18.2015 20.9922 18.3194 20.8875 18.4649 20.8875L23.5901 20.8875C23.7179 20.8875 23.8272 20.8061 23.8495 20.6945L27.1235 4.34442C27.1521 4.20112 27.028 4.06961 26.8641 4.06961L23.1168 4.06961C22.9713 4.06961 22.8533 3.9649 22.8533 3.83573V2.20946C22.8533 2.08029 22.9713 1.97559 23.1168 1.97559L38.2497 1.97559C38.3093 1.97558 38.4916 1.97557 38.4916 2.1752V2.64296L69.5019 2.64296C70.1536 2.64296 70.1835 3.34459 69.5019 3.34459L38.4916 3.34459V19.4135C38.4916 19.5426 38.6095 19.6473 38.755 19.6473L42.6757 19.6473C42.8212 19.6473 43.579 19.709 43.579 20.3707L43.579 24.9924C43.579 25.6236 42.8212 25.6923 42.6757 25.6923L38.755 25.6923C38.6095 25.6923 38.4916 25.797 38.4916 25.9262V25.948C38.4916 26.2485 38.7071 26.5156 39.0276 26.6123L42.3323 27.6097C42.4674 27.6505 42.6082 27.6748 42.7507 27.6821L85.7904 29.8693C85.8369 29.8717 85.8828 29.8795 85.927 29.8926L88.7768 30.7368C89.4981 30.8714 89.4979 31.4301 89.4978 32.0818V32.8235C89.4979 33.4752 89.4981 34.0339 88.7768 34.1685L85.927 35.0127C85.8828 35.0258 85.8369 35.0336 85.7904 35.0359L42.7507 37.2232C42.6082 37.2305 42.4674 37.2548 42.3323 37.2956L39.0276 38.293C38.7071 38.3897 38.4916 38.6568 38.4916 38.9573V38.9791C38.4916 39.1083 38.6095 39.213 38.755 39.213H42.6894C42.8349 39.213 43.579 39.213 43.579 39.9109V44.5778C43.579 45.2579 42.8349 45.2579 42.6894 45.2579H38.755C38.6095 45.2579 38.4916 45.3627 38.4916 45.4918V61.58L69.5019 61.58C70.2103 61.58 70.2103 62.2817 69.5019 62.2817L38.4916 62.2817L38.4916 62.7494C38.4916 62.8992 38.4387 62.9833 38.2815 62.9833C37.0959 62.9833 23.1168 62.9297 23.1168 62.9297C22.9713 62.9297 22.8533 62.825 22.8533 62.6958V61.0695C22.8533 60.9404 22.9713 60.8357 23.1168 60.8357H26.8641C27.028 60.8357 27.1521 60.7042 27.1235 60.5609L23.8495 44.2108C23.8272 44.0991 23.7179 44.0178 23.5901 44.0178H18.4649C18.3194 44.0178 18.2015 43.9131 18.2015 43.7839L18.2015 40.7021C18.2015 40.5729 18.3194 40.4682 18.4649 40.4682H22.7857C22.9497 40.4682 23.0738 40.3367 23.0451 40.1934L22.7962 38.9502C22.7598 38.7685 22.4563 38.6157 22.2036 38.4885C22.1077 38.4402 21.8516 38.2676 21.7877 38.2266Z" fill="#0D0D0D"/>
<path d="M21.7877 38.2266C21.3913 37.9716 21.3011 37.7588 21.3011 37.291V27.6878C21.3011 27.22 21.5589 26.8057 21.9553 26.5507C22.0192 26.5096 22.1077 26.4651 22.2036 26.4168C22.4563 26.2896 22.7598 26.1368 22.7962 25.9551L23.0451 24.7118C23.0738 24.5685 22.9497 24.437 22.7857 24.437L18.4649 24.437C18.3194 24.437 18.2015 24.3323 18.2015 24.2032V21.1213C18.2015 20.9922 18.3194 20.8875 18.4649 20.8875L23.5901 20.8875C23.7179 20.8875 23.8272 20.8061 23.8495 20.6945L27.1235 4.34442C27.1521 4.20112 27.028 4.06961 26.8641 4.06961L23.1168 4.06961C22.9713 4.06961 22.8533 3.9649 22.8533 3.83573V2.20946C22.8533 2.08029 22.9713 1.97559 23.1168 1.97559L38.2497 1.97559C38.3093 1.97558 38.4916 1.97557 38.4916 2.1752V2.64296L69.5019 2.64296C70.1536 2.64296 70.1835 3.34459 69.5019 3.34459L38.4916 3.34459V19.4135C38.4916 19.5426 38.6095 19.6473 38.755 19.6473L42.6757 19.6473C42.8212 19.6473 43.579 19.709 43.579 20.3707L43.579 24.9924C43.579 25.6236 42.8212 25.6923 42.6757 25.6923L38.755 25.6923C38.6095 25.6923 38.4916 25.797 38.4916 25.9262V25.948C38.4916 26.2485 38.7071 26.5156 39.0276 26.6123L42.3323 27.6097C42.4674 27.6505 42.6082 27.6748 42.7507 27.6821L85.7904 29.8693C85.8369 29.8717 85.8828 29.8795 85.927 29.8926L88.7768 30.7368C89.4981 30.8714 89.4979 31.4301 89.4978 32.0818V32.8235C89.4979 33.4752 89.4981 34.0339 88.7768 34.1685L85.927 35.0127C85.8828 35.0258 85.8369 35.0336 85.7904 35.0359L42.7507 37.2232C42.6082 37.2305 42.4674 37.2548 42.3323 37.2956L39.0276 38.293C38.7071 38.3897 38.4916 38.6568 38.4916 38.9573V38.9791C38.4916 39.1083 38.6095 39.213 38.755 39.213H42.6894C42.8349 39.213 43.579 39.213 43.579 39.9109V44.5778C43.579 45.2579 42.8349 45.2579 42.6894 45.2579H38.755C38.6095 45.2579 38.4916 45.3627 38.4916 45.4918V61.58L69.5019 61.58C70.2103 61.58 70.2103 62.2817 69.5019 62.2817L38.4916 62.2817L38.4916 62.7494C38.4916 62.8992 38.4387 62.9833 38.2815 62.9833C37.0959 62.9833 23.1168 62.9297 23.1168 62.9297C22.9713 62.9297 22.8533 62.825 22.8533 62.6958V61.0695C22.8533 60.9404 22.9713 60.8357 23.1168 60.8357H26.8641C27.028 60.8357 27.1521 60.7042 27.1235 60.5609L23.8495 44.2108C23.8272 44.0991 23.7179 44.0178 23.5901 44.0178H18.4649C18.3194 44.0178 18.2015 43.9131 18.2015 43.7839L18.2015 40.7021C18.2015 40.5729 18.3194 40.4682 18.4649 40.4682H22.7857C22.9497 40.4682 23.0738 40.3367 23.0451 40.1934L22.7962 38.9502C22.7598 38.7685 22.4563 38.6157 22.2036 38.4885C22.1077 38.4402 21.8516 38.2676 21.7877 38.2266Z" fill="#181818"/>
<path d="M59.6895 30.3921C59.4461 30.0283 59.8267 29.6067 60.3784 29.629L79.3911 30.3974C79.5666 30.4045 79.7322 30.4592 79.8557 30.5509C80.3103 30.8886 79.9597 31.46 79.3135 31.4346L60.2991 30.6876C60.0379 30.6773 59.8048 30.5643 59.6895 30.3921Z" fill="#171717"/>
<path d="M59.6895 34.6225C59.4461 34.9863 59.8267 35.4079 60.3784 35.3856L79.3911 34.6172C79.5666 34.6101 79.7322 34.5554 79.8557 34.4637C80.3103 34.126 79.9597 33.5545 79.3135 33.5799L60.2991 34.327C60.0379 34.3373 59.8048 34.4503 59.6895 34.6225Z" fill="#171717"/>
<path d="M38.0423 9.52075C38.1979 9.52075 38.3241 9.61333 38.3241 9.72754V13.2843C38.3241 13.3985 38.1979 13.491 38.0423 13.491H31.2772C31.1215 13.491 30.9953 13.3985 30.9953 13.2843V9.72754C30.9953 9.61333 31.1215 9.52075 31.2772 9.52075H38.0423Z" fill="#171717"/>
<path d="M29.8678 9.52083C30.0235 9.52083 30.1497 9.61341 30.1497 9.72761V19.2398C30.1497 19.354 30.0235 19.4465 29.8678 19.4465H29.2435C29.0878 19.4465 28.9616 19.354 28.9616 19.2398V9.72762C28.9616 9.61341 29.0878 9.52083 29.2435 9.52083H29.8678Z" fill="#171717"/>
<path d="M24.8453 19.2076C24.8184 19.3331 24.9506 19.4465 25.1238 19.4465H27.8946C28.0503 19.4465 28.1765 19.354 28.1765 19.2398V17.5399C28.1765 17.4257 28.0503 17.3331 27.8946 17.3331H25.4889C25.3502 17.3331 25.2321 17.4072 25.2105 17.5077L24.8453 19.2076Z" fill="#171717"/>
<path d="M25.6334 15.9085C25.6065 16.034 25.7387 16.1475 25.9119 16.1475H27.8946C28.0503 16.1475 28.1765 16.0549 28.1765 15.9407V14.2408C28.1765 14.1266 28.0503 14.034 27.8946 14.034H26.2771C26.1383 14.034 26.0202 14.1081 25.9986 14.2086L25.6334 15.9085Z" fill="#171717"/>
<path d="M38.0423 55.4275C38.1979 55.4275 38.3241 55.335 38.3241 55.2207V51.664C38.3241 51.5498 38.1979 51.4572 38.0423 51.4572H31.2772C31.1215 51.4572 30.9953 51.5498 30.9953 51.664V55.2207C30.9953 55.335 31.1215 55.4275 31.2772 55.4275H38.0423Z" fill="#171717"/>
<path d="M29.8678 55.4275C30.0235 55.4275 30.1497 55.3349 30.1497 55.2207V45.7085C30.1497 45.5943 30.0235 45.5017 29.8678 45.5017H29.2435C29.0878 45.5017 28.9616 45.5943 28.9616 45.7085V55.2207C28.9616 55.3349 29.0878 55.4275 29.2435 55.4275H29.8678Z" fill="#171717"/>
<path d="M24.8453 45.7407C24.8184 45.6152 24.9506 45.5017 25.1238 45.5017H27.8946C28.0503 45.5017 28.1765 45.5943 28.1765 45.7085V47.4084C28.1765 47.5226 28.0503 47.6152 27.8946 47.6152H25.4889C25.3502 47.6152 25.2321 47.5411 25.2105 47.4406L24.8453 45.7407Z" fill="#171717"/>
<path d="M25.6334 49.0398C25.6065 48.9143 25.7387 48.8008 25.9119 48.8008H27.8946C28.0503 48.8008 28.1765 48.8934 28.1765 49.0076V50.7075C28.1765 50.8217 28.0503 50.9142 27.8946 50.9142H26.2771C26.1383 50.9142 26.0202 50.8402 25.9986 50.7396L25.6334 49.0398Z" fill="#171717"/>
<path fill-rule="evenodd" clip-rule="evenodd" d="M27.6372 24.5266C27.6372 24.3695 27.7443 24.2422 27.8764 24.2422H36.1353C36.2674 24.2422 36.3745 24.3695 36.3745 24.5266V24.8111C36.3745 24.9682 36.2674 25.0955 36.1353 25.0955H27.8764C27.7443 25.0955 27.6372 24.9682 27.6372 24.8111V24.5266Z" fill="#171717"/>
<path fill-rule="evenodd" clip-rule="evenodd" d="M27.6372 40.2843C27.6372 40.1272 27.7443 39.9998 27.8764 39.9998H36.1353C36.2674 39.9998 36.3745 40.1272 36.3745 40.2843V40.5687C36.3745 40.7258 36.2674 40.8532 36.1353 40.8532H27.8764C27.7443 40.8532 27.6372 40.7258 27.6372 40.5687V40.2843Z" fill="#171717"/>
</g>
<g filter="url(#filter0_d_695_3003)">
<path d="M10.9035 40.6756C9.80072 40.6756 8.81405 40.4144 7.94346 39.892C7.08447 39.3697 6.41121 38.6326 5.92368 37.6807C5.43615 36.7173 5.19238 35.5913 5.19238 34.3028C5.19238 33.0027 5.43615 31.8768 5.92368 30.9249C6.41121 29.9615 7.08447 29.2186 7.94346 28.6962C8.81405 28.1622 9.80072 27.8953 10.9035 27.8953C11.7276 27.8953 12.4822 28.0462 13.167 28.348C13.8635 28.6498 14.4671 29.0735 14.9779 29.619C15.21 29.8744 15.2855 30.1356 15.2042 30.4026C15.123 30.6579 14.9662 30.8553 14.7341 30.9946L14.647 31.0468C14.4961 31.1397 14.2814 31.1745 14.0028 31.1513C13.7242 31.1281 13.4688 31.0062 13.2367 30.7856C12.9349 30.4838 12.5866 30.2575 12.192 30.1066C11.8089 29.9441 11.3794 29.8628 10.9035 29.8628C10.1838 29.8628 9.55115 30.0485 9.00558 30.42C8.46001 30.7798 8.03632 31.2964 7.73452 31.9696C7.44432 32.6313 7.29922 33.409 7.29922 34.3028C7.29922 35.185 7.44432 35.9628 7.73452 36.636C8.03632 37.2977 8.46001 37.8142 9.00558 38.1857C9.55115 38.5455 10.1838 38.7254 10.9035 38.7254C11.8205 38.7254 12.5982 38.4178 13.2367 37.8026C13.4688 37.5821 13.7068 37.4544 13.9506 37.4196C14.1943 37.3847 14.4265 37.4196 14.647 37.524L14.6819 37.5589C14.9256 37.6749 15.0939 37.8723 15.1868 38.1509C15.2913 38.4178 15.2332 38.679 15.0127 38.9344C14.5019 39.4916 13.8983 39.9211 13.2018 40.2229C12.5054 40.5247 11.7392 40.6756 10.9035 40.6756Z" fill="#64BEFF"/>
<path d="M18.4581 40.397C17.8196 40.397 17.5004 40.0778 17.5004 39.4393V29.1663C17.5004 28.5279 17.8196 28.2087 18.4581 28.2087H18.5451C19.1835 28.2087 19.5028 28.5279 19.5028 29.1663V33.0492H25.0397V29.1663C25.0397 28.5279 25.3648 28.2087 26.0148 28.2087H26.1193C26.7577 28.2087 27.0769 28.5279 27.0769 29.1663V39.4393C27.0769 40.0778 26.7577 40.397 26.1193 40.397H26.0148C25.3648 40.397 25.0397 40.0778 25.0397 39.4393V34.9122H19.5028V39.4393C19.5028 40.0778 19.1835 40.397 18.5451 40.397H18.4581Z" fill="#64BEFF"/>
<path d="M29.6087 40.397C29.2721 40.397 29.0399 40.2983 28.9122 40.101C28.7846 39.9037 28.7846 39.6367 28.9122 39.3L32.8473 28.9748C33.0215 28.4641 33.3871 28.2087 33.9443 28.2087H34.0836C34.6408 28.2087 35.0064 28.4641 35.1805 28.9748L39.133 39.3C39.2607 39.6367 39.2549 39.9037 39.1156 40.101C38.9879 40.2983 38.7558 40.397 38.4191 40.397H38.0883C37.5427 40.397 37.1829 40.1358 37.0088 39.6135L36.3297 37.7156H31.6459L30.9668 39.6135C30.7927 40.1358 30.4329 40.397 29.8873 40.397H29.6087ZM32.3076 35.8525H35.6855L34.0139 31.099L32.3076 35.8525Z" fill="#64BEFF"/>
<path d="M41.9581 40.397C41.2964 40.397 40.9656 40.0546 40.9656 39.3697V29.236C40.9656 28.5511 41.2964 28.2087 41.9581 28.2087C42.6314 28.2087 42.968 28.5511 42.968 29.236V39.3697C42.968 40.0546 42.6314 40.397 41.9581 40.397Z" fill="#64BEFF"/>
<path d="M46.4301 40.397C45.7684 40.397 45.4376 40.0546 45.4376 39.3697V29.236C45.4376 28.5511 45.78 28.2087 46.4649 28.2087H51.0094C52.147 28.2087 53.0466 28.4757 53.7082 29.0096C54.3815 29.5436 54.7181 30.4432 54.7181 31.7085C54.7181 32.7764 54.4744 33.5889 53.9868 34.1461C53.4993 34.6917 52.826 35.0283 51.9671 35.156L53.9694 39.1782C54.1435 39.538 54.1784 39.834 54.0739 40.0662C53.9694 40.2867 53.7489 40.397 53.4122 40.397H53.0814C52.501 40.397 52.1006 40.1358 51.88 39.6135L49.8776 35.2431H47.44V39.3697C47.44 40.0546 47.1033 40.397 46.4301 40.397ZM47.44 33.3626H50.7308C51.3228 33.3626 51.7813 33.2349 52.1064 32.9795C52.4314 32.7242 52.5939 32.3005 52.5939 31.7085C52.5939 31.1281 52.4314 30.7102 52.1064 30.4548C51.7813 30.1994 51.3228 30.0717 50.7308 30.0717H47.44V33.3626Z" fill="#64BEFF"/>
<path d="M62.4647 40.397C61.803 40.397 61.4722 40.0546 61.4722 39.3697V29.236C61.4722 28.5511 61.8146 28.2087 62.4995 28.2087H68.7155C69.412 28.2087 69.7602 28.5221 69.7602 29.1489C69.7602 29.7641 69.412 30.0717 68.7155 30.0717H63.4745V33.2407H68.1932C68.5182 33.2407 68.7677 33.322 68.9419 33.4845C69.1276 33.647 69.2205 33.8791 69.2205 34.181C69.2205 34.8078 68.878 35.1212 68.1932 35.1212H63.4745V39.3697C63.4745 40.0546 63.1379 40.397 62.4647 40.397Z" fill="#64BEFF"/>
<path d="M76.4361 40.6756C75.3333 40.6756 74.3466 40.4144 73.476 39.892C72.617 39.3697 71.9438 38.6326 71.4563 37.6807C70.9687 36.7173 70.725 35.5913 70.725 34.3028C70.725 33.0027 70.9687 31.8768 71.4563 30.9249C71.9438 29.9615 72.617 29.2186 73.476 28.6962C74.3466 28.1622 75.3333 27.8953 76.4361 27.8953C77.5388 27.8953 78.5139 28.1622 79.3612 28.6962C80.2202 29.2186 80.8935 29.9615 81.381 30.9249C81.8802 31.8768 82.1297 33.0027 82.1297 34.3028C82.1297 35.5913 81.8802 36.7173 81.381 37.6807C80.8935 38.6326 80.2202 39.3697 79.3612 39.892C78.5139 40.4144 77.5388 40.6756 76.4361 40.6756ZM76.4361 38.7254C77.1673 38.7254 77.8 38.5455 78.3339 38.1857C78.8679 37.8142 79.28 37.2977 79.5702 36.636C79.872 35.9628 80.0229 35.185 80.0229 34.3028C80.0229 33.409 79.872 32.6313 79.5702 31.9696C79.28 31.2964 78.8679 30.7798 78.3339 30.42C77.8 30.0485 77.1673 29.8628 76.4361 29.8628C75.7164 29.8628 75.0837 30.0485 74.5382 30.42C73.9926 30.7798 73.5689 31.2964 73.2671 31.9696C72.9769 32.6313 72.8318 33.409 72.8318 34.3028C72.8318 35.185 72.9769 35.9628 73.2671 36.636C73.5689 37.2977 73.9926 37.8142 74.5382 38.1857C75.0837 38.5455 75.7164 38.7254 76.4361 38.7254Z" fill="#64BEFF"/>
<path d="M84.9777 40.397C84.316 40.397 83.9852 40.0546 83.9852 39.3697V29.236C83.9852 28.5511 84.3276 28.2087 85.0125 28.2087H89.557C90.6946 28.2087 91.5942 28.4757 92.2558 29.0096C92.9291 29.5436 93.2657 30.4432 93.2657 31.7085C93.2657 32.7764 93.0219 33.5889 92.5344 34.1461C92.0469 34.6917 91.3736 35.0283 90.5146 35.156L92.517 39.1782C92.6911 39.538 92.7259 39.834 92.6215 40.0662C92.517 40.2867 92.2965 40.397 91.9598 40.397H91.629C91.0486 40.397 90.6481 40.1358 90.4276 39.6135L88.4252 35.2431H85.9875V39.3697C85.9875 40.0546 85.6509 40.397 84.9777 40.397ZM85.9875 33.3626H89.2784C89.8704 33.3626 90.3289 33.2349 90.6539 32.9795C90.979 32.7242 91.1415 32.3005 91.1415 31.7085C91.1415 31.1281 90.979 30.7102 90.6539 30.4548C90.3289 30.1994 89.8704 30.0717 89.2784 30.0717H85.9875V33.3626Z" fill="#64BEFF"/>
<path d="M100.241 40.6756C99.1386 40.6756 98.1519 40.4144 97.2813 39.892C96.4223 39.3697 95.7491 38.6326 95.2616 37.6807C94.774 36.7173 94.5302 35.5913 94.5302 34.3028C94.5302 33.0027 94.774 31.8768 95.2616 30.9249C95.7491 29.9615 96.4223 29.2186 97.2813 28.6962C98.1519 28.1622 99.1386 27.8953 100.241 27.8953C101.066 27.8953 101.82 28.0462 102.505 28.348C103.201 28.6498 103.805 29.0735 104.316 29.619C104.548 29.8744 104.623 30.1356 104.542 30.4026C104.461 30.6579 104.304 30.8553 104.072 30.9946L103.985 31.0468C103.834 31.1397 103.619 31.1745 103.341 31.1513C103.062 31.1281 102.807 31.0062 102.575 30.7856C102.273 30.4838 101.924 30.2575 101.53 30.1066C101.147 29.9441 100.717 29.8628 100.241 29.8628C99.5216 29.8628 98.889 30.0485 98.3435 30.42C97.7979 30.7798 97.3742 31.2964 97.0724 31.9696C96.7822 32.6313 96.6371 33.409 96.6371 34.3028C96.6371 35.185 96.7822 35.9628 97.0724 36.636C97.3742 37.2977 97.7979 37.8142 98.3435 38.1857C98.889 38.5455 99.5216 38.7254 100.241 38.7254C101.158 38.7254 101.936 38.4178 102.575 37.8026C102.807 37.5821 103.045 37.4544 103.288 37.4196C103.532 37.3847 103.764 37.4196 103.985 37.524L104.02 37.5589C104.263 37.6749 104.432 37.8723 104.525 38.1509C104.629 38.4178 104.571 38.679 104.351 38.9344C103.84 39.4916 103.236 39.9211 102.54 40.2229C101.843 40.5247 101.077 40.6756 100.241 40.6756Z" fill="#64BEFF"/>
<path d="M107.866 40.397C107.181 40.397 106.838 40.0546 106.838 39.3697V29.236C106.838 28.5511 107.181 28.2087 107.866 28.2087H113.96C114.645 28.2087 114.987 28.5221 114.987 29.1489C114.987 29.7641 114.645 30.0717 113.96 30.0717H108.841V33.2407H113.42C114.105 33.2407 114.447 33.5541 114.447 34.181C114.447 34.8078 114.105 35.1212 113.42 35.1212H108.841V38.5339H114.151C114.836 38.5339 115.179 38.8415 115.179 39.4567C115.179 40.0836 114.836 40.397 114.151 40.397H107.866Z" fill="#64BEFF"/>
<path d="M10.9035 40.6756C9.80072 40.6756 8.81405 40.4144 7.94346 39.892C7.08447 39.3697 6.41121 38.6326 5.92368 37.6807C5.43615 36.7173 5.19238 35.5913 5.19238 34.3028C5.19238 33.0027 5.43615 31.8768 5.92368 30.9249C6.41121 29.9615 7.08447 29.2186 7.94346 28.6962C8.81405 28.1622 9.80072 27.8953 10.9035 27.8953C11.7276 27.8953 12.4822 28.0462 13.167 28.348C13.8635 28.6498 14.4671 29.0735 14.9779 29.619C15.21 29.8744 15.2855 30.1356 15.2042 30.4026C15.123 30.6579 14.9662 30.8553 14.7341 30.9946L14.647 31.0468C14.4961 31.1397 14.2814 31.1745 14.0028 31.1513C13.7242 31.1281 13.4688 31.0062 13.2367 30.7856C12.9349 30.4838 12.5866 30.2575 12.192 30.1066C11.8089 29.9441 11.3794 29.8628 10.9035 29.8628C10.1838 29.8628 9.55115 30.0485 9.00558 30.42C8.46001 30.7798 8.03632 31.2964 7.73452 31.9696C7.44432 32.6313 7.29922 33.409 7.29922 34.3028C7.29922 35.185 7.44432 35.9628 7.73452 36.636C8.03632 37.2977 8.46001 37.8142 9.00558 38.1857C9.55115 38.5455 10.1838 38.7254 10.9035 38.7254C11.8205 38.7254 12.5982 38.4178 13.2367 37.8026C13.4688 37.5821 13.7068 37.4544 13.9506 37.4196C14.1943 37.3847 14.4265 37.4196 14.647 37.524L14.6819 37.5589C14.9256 37.6749 15.0939 37.8723 15.1868 38.1509C15.2913 38.4178 15.2332 38.679 15.0127 38.9344C14.5019 39.4916 13.8983 39.9211 13.2018 40.2229C12.5054 40.5247 11.7392 40.6756 10.9035 40.6756Z" stroke="black"/>
<path d="M18.4581 40.397C17.8196 40.397 17.5004 40.0778 17.5004 39.4393V29.1663C17.5004 28.5279 17.8196 28.2087 18.4581 28.2087H18.5451C19.1835 28.2087 19.5028 28.5279 19.5028 29.1663V33.0492H25.0397V29.1663C25.0397 28.5279 25.3648 28.2087 26.0148 28.2087H26.1193C26.7577 28.2087 27.0769 28.5279 27.0769 29.1663V39.4393C27.0769 40.0778 26.7577 40.397 26.1193 40.397H26.0148C25.3648 40.397 25.0397 40.0778 25.0397 39.4393V34.9122H19.5028V39.4393C19.5028 40.0778 19.1835 40.397 18.5451 40.397H18.4581Z" stroke="black"/>
<path d="M29.6087 40.397C29.2721 40.397 29.0399 40.2983 28.9122 40.101C28.7846 39.9037 28.7846 39.6367 28.9122 39.3L32.8473 28.9748C33.0215 28.4641 33.3871 28.2087 33.9443 28.2087H34.0836C34.6408 28.2087 35.0064 28.4641 35.1805 28.9748L39.133 39.3C39.2607 39.6367 39.2549 39.9037 39.1156 40.101C38.9879 40.2983 38.7558 40.397 38.4191 40.397H38.0883C37.5427 40.397 37.1829 40.1358 37.0088 39.6135L36.3297 37.7156H31.6459L30.9668 39.6135C30.7927 40.1358 30.4329 40.397 29.8873 40.397H29.6087ZM32.3076 35.8525H35.6855L34.0139 31.099L32.3076 35.8525Z" stroke="black"/>
<path d="M41.9581 40.397C41.2964 40.397 40.9656 40.0546 40.9656 39.3697V29.236C40.9656 28.5511 41.2964 28.2087 41.9581 28.2087C42.6314 28.2087 42.968 28.5511 42.968 29.236V39.3697C42.968 40.0546 42.6314 40.397 41.9581 40.397Z" stroke="black"/>
<path d="M46.4301 40.397C45.7684 40.397 45.4376 40.0546 45.4376 39.3697V29.236C45.4376 28.5511 45.78 28.2087 46.4649 28.2087H51.0094C52.147 28.2087 53.0466 28.4757 53.7082 29.0096C54.3815 29.5436 54.7181 30.4432 54.7181 31.7085C54.7181 32.7764 54.4744 33.5889 53.9868 34.1461C53.4993 34.6917 52.826 35.0283 51.9671 35.156L53.9694 39.1782C54.1435 39.538 54.1784 39.834 54.0739 40.0662C53.9694 40.2867 53.7489 40.397 53.4122 40.397H53.0814C52.501 40.397 52.1006 40.1358 51.88 39.6135L49.8776 35.2431H47.44V39.3697C47.44 40.0546 47.1033 40.397 46.4301 40.397ZM47.44 33.3626H50.7308C51.3228 33.3626 51.7813 33.2349 52.1064 32.9795C52.4314 32.7242 52.5939 32.3005 52.5939 31.7085C52.5939 31.1281 52.4314 30.7102 52.1064 30.4548C51.7813 30.1994 51.3228 30.0717 50.7308 30.0717H47.44V33.3626Z" stroke="black"/>
<path d="M62.4647 40.397C61.803 40.397 61.4722 40.0546 61.4722 39.3697V29.236C61.4722 28.5511 61.8146 28.2087 62.4995 28.2087H68.7155C69.412 28.2087 69.7602 28.5221 69.7602 29.1489C69.7602 29.7641 69.412 30.0717 68.7155 30.0717H63.4745V33.2407H68.1932C68.5182 33.2407 68.7677 33.322 68.9419 33.4845C69.1276 33.647 69.2205 33.8791 69.2205 34.181C69.2205 34.8078 68.878 35.1212 68.1932 35.1212H63.4745V39.3697C63.4745 40.0546 63.1379 40.397 62.4647 40.397Z" stroke="black"/>
<path d="M76.4361 40.6756C75.3333 40.6756 74.3466 40.4144 73.476 39.892C72.617 39.3697 71.9438 38.6326 71.4563 37.6807C70.9687 36.7173 70.725 35.5913 70.725 34.3028C70.725 33.0027 70.9687 31.8768 71.4563 30.9249C71.9438 29.9615 72.617 29.2186 73.476 28.6962C74.3466 28.1622 75.3333 27.8953 76.4361 27.8953C77.5388 27.8953 78.5139 28.1622 79.3612 28.6962C80.2202 29.2186 80.8935 29.9615 81.381 30.9249C81.8802 31.8768 82.1297 33.0027 82.1297 34.3028C82.1297 35.5913 81.8802 36.7173 81.381 37.6807C80.8935 38.6326 80.2202 39.3697 79.3612 39.892C78.5139 40.4144 77.5388 40.6756 76.4361 40.6756ZM76.4361 38.7254C77.1673 38.7254 77.8 38.5455 78.3339 38.1857C78.8679 37.8142 79.28 37.2977 79.5702 36.636C79.872 35.9628 80.0229 35.185 80.0229 34.3028C80.0229 33.409 79.872 32.6313 79.5702 31.9696C79.28 31.2964 78.8679 30.7798 78.3339 30.42C77.8 30.0485 77.1673 29.8628 76.4361 29.8628C75.7164 29.8628 75.0837 30.0485 74.5382 30.42C73.9926 30.7798 73.5689 31.2964 73.2671 31.9696C72.9769 32.6313 72.8318 33.409 72.8318 34.3028C72.8318 35.185 72.9769 35.9628 73.2671 36.636C73.5689 37.2977 73.9926 37.8142 74.5382 38.1857C75.0837 38.5455 75.7164 38.7254 76.4361 38.7254Z" stroke="black"/>
<path d="M84.9777 40.397C84.316 40.397 83.9852 40.0546 83.9852 39.3697V29.236C83.9852 28.5511 84.3276 28.2087 85.0125 28.2087H89.557C90.6946 28.2087 91.5942 28.4757 92.2558 29.0096C92.9291 29.5436 93.2657 30.4432 93.2657 31.7085C93.2657 32.7764 93.0219 33.5889 92.5344 34.1461C92.0469 34.6917 91.3736 35.0283 90.5146 35.156L92.517 39.1782C92.6911 39.538 92.7259 39.834 92.6215 40.0662C92.517 40.2867 92.2965 40.397 91.9598 40.397H91.629C91.0486 40.397 90.6481 40.1358 90.4276 39.6135L88.4252 35.2431H85.9875V39.3697C85.9875 40.0546 85.6509 40.397 84.9777 40.397ZM85.9875 33.3626H89.2784C89.8704 33.3626 90.3289 33.2349 90.6539 32.9795C90.979 32.7242 91.1415 32.3005 91.1415 31.7085C91.1415 31.1281 90.979 30.7102 90.6539 30.4548C90.3289 30.1994 89.8704 30.0717 89.2784 30.0717H85.9875V33.3626Z" stroke="black"/>
<path d="M100.241 40.6756C99.1386 40.6756 98.1519 40.4144 97.2813 39.892C96.4223 39.3697 95.7491 38.6326 95.2616 37.6807C94.774 36.7173 94.5302 35.5913 94.5302 34.3028C94.5302 33.0027 94.774 31.8768 95.2616 30.9249C95.7491 29.9615 96.4223 29.2186 97.2813 28.6962C98.1519 28.1622 99.1386 27.8953 100.241 27.8953C101.066 27.8953 101.82 28.0462 102.505 28.348C103.201 28.6498 103.805 29.0735 104.316 29.619C104.548 29.8744 104.623 30.1356 104.542 30.4026C104.461 30.6579 104.304 30.8553 104.072 30.9946L103.985 31.0468C103.834 31.1397 103.619 31.1745 103.341 31.1513C103.062 31.1281 102.807 31.0062 102.575 30.7856C102.273 30.4838 101.924 30.2575 101.53 30.1066C101.147 29.9441 100.717 29.8628 100.241 29.8628C99.5216 29.8628 98.889 30.0485 98.3435 30.42C97.7979 30.7798 97.3742 31.2964 97.0724 31.9696C96.7822 32.6313 96.6371 33.409 96.6371 34.3028C96.6371 35.185 96.7822 35.9628 97.0724 36.636C97.3742 37.2977 97.7979 37.8142 98.3435 38.1857C98.889 38.5455 99.5216 38.7254 100.241 38.7254C101.158 38.7254 101.936 38.4178 102.575 37.8026C102.807 37.5821 103.045 37.4544 103.288 37.4196C103.532 37.3847 103.764 37.4196 103.985 37.524L104.02 37.5589C104.263 37.6749 104.432 37.8723 104.525 38.1509C104.629 38.4178 104.571 38.679 104.351 38.9344C103.84 39.4916 103.236 39.9211 102.54 40.2229C101.843 40.5247 101.077 40.6756 100.241 40.6756Z" stroke="black"/>
<path d="M107.866 40.397C107.181 40.397 106.838 40.0546 106.838 39.3697V29.236C106.838 28.5511 107.181 28.2087 107.866 28.2087H113.96C114.645 28.2087 114.987 28.5221 114.987 29.1489C114.987 29.7641 114.645 30.0717 113.96 30.0717H108.841V33.2407H113.42C114.105 33.2407 114.447 33.5541 114.447 34.181C114.447 34.8078 114.105 35.1212 113.42 35.1212H108.841V38.5339H114.151C114.836 38.5339 115.179 38.8415 115.179 39.4567C115.179 40.0836 114.836 40.397 114.151 40.397H107.866Z" stroke="black"/>
</g>
<defs>
<filter id="filter0_d_695_3003" x="0.692383" y="23.3953" width="118.986" height="21.7803" filterUnits="userSpaceOnUse" color-interpolation-filters="sRGB">
<feFlood flood-opacity="0" result="BackgroundImageFix"/>
<feColorMatrix in="SourceAlpha" type="matrix" values="0 0 0 0 0 0 0 0 0 0 0 0 0 0 0 0 0 0 127 0" result="hardAlpha"/>
<feOffset/>
<feGaussianBlur stdDeviation="2"/>
<feComposite in2="hardAlpha" operator="out"/>
<feColorMatrix type="matrix" values="0 0 0 0 0 0 0 0 0 0 0 0 0 0 0 0 0 0 0.72 0"/>
<feBlend mode="normal" in2="BackgroundImageFix" result="effect1_dropShadow_695_3003"/>
<feBlend mode="normal" in="SourceGraphic" in2="effect1_dropShadow_695_3003" result="shape"/>
</filter>
</defs>
</svg>
