<svg width="80" height="80" viewBox="0 0 80 80" fill="none" xmlns="http://www.w3.org/2000/svg">
<g filter="url(#filter0_f_683_2947)">
<path d="M40.3511 75.8647H40.4047C59.9886 75.8647 75.8644 59.9746 75.8644 40.3733C75.8644 37.271 75.4667 34.2617 74.7196 31.3936C74.7123 31.3852 74.7051 31.3768 74.6978 31.3684L74.0766 29.4691C74.0766 29.4691 73.1888 26.9893 72.4504 25.4733C71.5768 23.6797 71.0083 22.7003 69.8558 21.0653C68.8742 19.6728 68.2593 18.9301 67.0967 17.6787C65.7303 16.2078 64.7991 15.4345 63.3524 14.2331L63.3515 14.2324C63.2218 14.1246 63.0878 14.0134 62.9491 13.8979C62.8075 13.7801 62.6743 13.6688 62.547 13.5624L62.5433 13.5593C61.7018 12.856 61.1211 12.3707 60.1169 11.676C59.6124 11.327 58.8014 10.8159 58.8014 10.8159C58.7039 10.7622 58.4944 10.6798 58.4359 10.7801L58.9658 11.4252C58.9658 11.4252 59.5286 12.0976 59.8794 12.5361C60.4899 13.2991 60.8259 13.7325 61.396 14.5251C62.0462 15.4291 62.4098 15.939 62.9856 16.8903C63.6991 18.0691 64.0827 18.7468 64.6301 20.0081C65.0719 21.0264 65.2781 21.6169 65.5985 22.678C65.9828 23.9508 66.1826 24.6776 66.3659 25.9929C66.5131 27.049 66.5288 27.6507 66.5486 28.7165C66.55 28.791 66.5514 28.8632 66.5527 28.9334L66.5528 28.9383C66.5701 29.8271 66.581 30.3925 66.4755 31.3326C66.3699 32.2739 66.2559 32.7978 66.0187 33.7157C65.7549 34.7368 65.5558 35.2989 65.1599 36.2781C64.6048 37.6512 64.2386 38.4108 63.4424 39.6647C62.7763 40.7137 62.3616 41.2859 61.5239 42.2091C60.7454 43.0669 60.2746 43.5299 59.3495 44.2339C58.538 44.8515 58.0573 45.1807 57.1386 45.6315C56.3446 46.0211 55.8844 46.2431 55.0191 46.4379C53.94 46.6807 53.2806 46.7324 52.187 46.5633C50.7141 46.3355 49.8803 45.9171 48.7153 45.0044C47.701 44.2096 47.2681 43.5777 46.6141 42.4779C45.8896 41.2595 45.6542 40.4665 45.3351 39.0913C44.951 37.4365 44.9831 36.4511 45.0427 34.755C45.1048 32.9896 45.2547 31.9914 45.6822 30.2754C46.056 28.7749 46.2796 27.9141 46.9795 26.5304C47.9156 24.6799 48.6296 23.6656 50.1954 22.2838C51.2605 21.3438 53.2285 20.259 53.2285 20.259L54.069 19.9185L49.9396 15.3135C49.9396 15.3135 48.7512 16.0284 48.021 16.5319C47.9196 16.6019 47.826 16.6657 47.7376 16.7259L47.737 16.7263C47.3495 16.9904 47.0617 17.1865 46.6506 17.5354C46.2109 17.9086 45.954 18.1832 45.6167 18.5439C45.5297 18.637 45.4373 18.7358 45.3351 18.8434C45.1471 19.0413 44.9865 19.2222 44.8358 19.3919C44.6937 19.5519 44.5604 19.7019 44.4215 19.8469C44.1352 20.1455 43.5992 20.9578 43.5992 20.9578C43.6175 20.695 43.6396 20.4114 43.6723 20.0619C43.6818 19.9602 43.6895 19.8697 43.6967 19.7848C43.7178 19.5365 43.7349 19.3358 43.782 19.0405C43.8858 18.389 44.0007 18.0159 44.1861 17.414C44.1973 17.3777 44.2088 17.3405 44.2205 17.3024C44.4284 16.6264 44.5655 16.2522 44.8417 15.6002C45.0623 15.0795 45.2203 14.7692 45.4531 14.3119C45.4658 14.287 45.4788 14.2615 45.492 14.2357C45.5121 14.196 45.5329 14.1552 45.5543 14.1129C45.5914 14.0399 45.6259 13.9715 45.6588 13.9065C45.8449 13.538 45.9763 13.2776 46.2121 12.8766C46.4089 12.5418 46.5897 12.2614 46.742 12.0344L40.378 4.89185L34.0139 12.0346C34.1662 12.2615 34.3469 12.5419 34.5438 12.8767C34.7796 13.2778 34.911 13.5381 35.0971 13.9067C35.1299 13.9717 35.1645 14.04 35.2015 14.1131C35.2369 14.1828 35.2705 14.2488 35.3027 14.312C35.5356 14.7693 35.6936 15.0796 35.9141 15.6003C36.1904 16.2524 36.3275 16.6266 36.5354 17.3026C36.5471 17.3407 36.5585 17.3778 36.5697 17.4141C36.7551 18.016 36.8701 18.3891 36.9739 19.0407C37.021 19.336 37.038 19.5366 37.0591 19.785L37.0592 19.7855C37.0664 19.8702 37.074 19.9605 37.0835 20.062C37.1162 20.4115 37.1383 20.6951 37.1566 20.9579C37.1566 20.9579 36.6206 20.1456 36.3344 19.847C36.1955 19.7021 36.0623 19.5521 35.9202 19.3921C35.7694 19.2224 35.6087 19.0414 35.4208 18.8436C35.3186 18.7359 35.2262 18.6371 35.1392 18.5441C34.8019 18.1834 34.545 17.9088 34.1052 17.5355C33.6942 17.1867 33.4064 16.9905 33.0189 16.7265L33.0179 16.7258C32.9296 16.6656 32.8362 16.6019 32.7349 16.5321C32.0047 16.0286 30.8163 15.3136 30.8163 15.3136L26.6869 19.9187L27.5274 20.2591C27.5274 20.2591 29.4954 21.3439 30.5605 22.2839C32.1263 23.6657 32.8403 24.68 33.7764 26.5306C34.4763 27.9143 34.6998 28.7751 35.0736 30.2755C35.5011 31.9915 35.6511 32.9897 35.7132 34.7551C35.7728 36.4512 35.8048 37.4366 35.4208 39.0914C35.1017 40.4665 34.8663 41.2596 34.1418 42.478C33.4878 43.5778 33.0549 44.2097 32.0405 45.0045C30.8756 45.9172 30.0418 46.3356 28.5689 46.5634C27.4753 46.7325 26.8159 46.6808 25.7368 46.4379C24.8715 46.2432 24.4113 46.0212 23.6173 45.6316C22.6986 45.1808 22.218 44.8516 21.4064 44.234C20.4813 43.53 20.0105 43.067 19.2321 42.2092C18.3944 41.286 17.9797 40.7138 17.3136 39.6648C16.5174 38.4109 16.1512 37.6513 15.596 36.2782C15.2002 35.299 15.0011 34.7369 14.7372 33.7159C14.5001 32.7979 14.3861 32.274 14.2805 31.3327C14.1749 30.3926 14.1859 29.8272 14.2031 28.9384L14.2033 28.932C14.2046 28.8623 14.206 28.7906 14.2074 28.7166C14.2271 27.6509 14.2429 27.0491 14.3901 25.993C14.5734 24.6778 14.7732 23.951 15.1575 22.6781C15.4779 21.617 15.6841 21.0265 16.1259 20.0083C16.6732 18.7469 17.0569 18.0693 17.7703 16.8905C18.3461 15.9392 18.7097 15.4292 19.36 14.5252C19.9301 13.7327 20.266 13.2993 20.8765 12.5363C21.2274 12.0978 21.7901 11.4253 21.7901 11.4253L22.32 10.7803C22.2615 10.6799 22.052 10.7624 21.9546 10.8161C21.9546 10.8161 21.1436 11.3272 20.639 11.6762C19.6348 12.3708 19.0542 12.8561 18.2127 13.5594C18.0843 13.6667 17.9499 13.7791 17.8069 13.8981C17.6686 14.0132 17.535 14.1241 17.4056 14.2315L17.4036 14.2333C15.9569 15.4347 15.0257 16.2079 13.6592 17.6789C12.4967 18.9302 11.8818 19.673 10.9002 21.0654C9.74768 22.7004 9.17913 23.6798 8.30562 25.4734C7.56722 26.9895 6.67943 29.4692 6.67943 29.4692L6.05819 31.3685C6.05095 31.3769 6.04368 31.3853 6.03638 31.3937C5.28928 34.2618 4.8916 37.2711 4.8916 40.3734C4.8916 59.9747 20.7674 75.8647 40.3511 75.8647Z" fill="#363636"/>
</g>
<g filter="url(#filter1_d_683_2947)">
<g filter="url(#filter2_i_683_2947)">
<path d="M10.0912 33.829L10.9598 35.4825L14.2863 36.9461L14.0719 35.3838L10.0912 33.829Z" fill="white"/>
<path d="M44.0025 23.4879L42.2933 20.1532C42.2933 20.1532 36.4048 16.7301 25.2744 21.828C17.2682 25.4949 14.0719 35.3838 14.0719 35.3838C14.0719 35.3838 16.5385 33.029 20.0719 34.4936C24.466 36.3151 24.4101 37.3187 24.4101 37.3187C24.4101 37.3187 23.761 42.5303 23.9328 45.8713C24.1654 50.3929 25.5083 52.3939 25.5083 52.3939L26.6507 52.4578L27.4152 55.3457L28.2923 60.9538L30.8829 65.0819C30.8829 65.0819 34.3546 68.4275 40.7526 68.3038C47.1506 68.18 51.4466 66.2316 51.4466 66.2316L53.9143 64.6625L55.505 59.061L60.2819 57.1833L62.0049 54.7409C62.0049 54.7409 65.2348 45.0423 61.043 36.4342C56.0602 26.2019 44.0025 23.4879 44.0025 23.4879Z" fill="white"/>
</g>
<g filter="url(#filter3_i_683_2947)">
<path fill-rule="evenodd" clip-rule="evenodd" d="M37.934 19.3947C35.1274 19.1805 30.9259 19.5878 25.4061 22.116C21.4837 23.9125 18.7243 27.2421 16.9402 30.147C16.0499 31.5967 15.4068 32.9334 14.9867 33.9071C14.8882 34.1353 14.802 34.3435 14.7278 34.5284C14.9805 34.3814 15.2844 34.2284 15.634 34.0944C16.753 33.6655 18.338 33.4328 20.193 34.2017C22.4043 35.1183 23.526 35.8409 24.0995 36.3536C24.3876 36.6112 24.5454 36.823 24.6309 36.9883C24.6739 37.0714 24.6987 37.1429 24.7122 37.2022C24.7189 37.2317 24.7228 37.2579 24.7247 37.2805C24.7256 37.2918 24.7261 37.3022 24.7263 37.3116C24.7263 37.3163 24.7263 37.3207 24.7262 37.3249L24.726 37.331L24.7259 37.3339L24.7258 37.3353C24.7258 37.336 24.7258 37.3367 24.4102 37.3191L24.7258 37.3367L24.7252 37.3475L24.7238 37.3582L24.6806 37.3528C24.7238 37.3582 24.7238 37.3582 24.7238 37.3582L24.722 37.3727L24.7167 37.4164C24.7121 37.455 24.7052 37.5122 24.6966 37.5863C24.6793 37.7344 24.6547 37.9501 24.6257 38.2194C24.5678 38.7582 24.4923 39.5113 24.4222 40.3683C24.2816 42.0863 24.1638 44.207 24.2486 45.8554C24.3634 48.0869 24.7517 49.6885 25.1069 50.726C25.2846 51.2449 25.4541 51.6232 25.5774 51.869C25.623 51.9598 25.6622 52.0326 25.6933 52.0878L26.8976 52.1551L27.7251 55.2809L28.5947 60.8409L31.1287 64.8788C31.1309 64.8808 31.1333 64.883 31.1358 64.8853C31.1604 64.9076 31.1982 64.9412 31.2492 64.9845C31.3513 65.0712 31.506 65.1967 31.7122 65.3478C32.1247 65.65 32.7429 66.0544 33.5582 66.4557C35.1879 67.258 37.6057 68.0486 40.7467 67.9878C43.9154 67.9265 46.5632 67.4134 48.4172 66.9161C49.3441 66.6675 50.072 66.423 50.5667 66.2413C50.8141 66.1505 51.0031 66.0754 51.1295 66.0234C51.1927 65.9973 51.2402 65.9771 51.2715 65.9635C51.2818 65.9591 51.2903 65.9553 51.2971 65.9524L53.6434 64.4604L55.244 58.8242L60.0785 56.9238L61.7193 54.5981C61.7244 54.582 61.7308 54.5614 61.7385 54.5366C61.7605 54.4657 61.7924 54.3596 61.8318 54.2211C61.9105 53.944 62.0189 53.537 62.1362 53.0211C62.3708 51.989 62.6408 50.5228 62.7811 48.7903C63.062 45.3215 62.8212 40.8078 60.7591 36.5731C58.3072 31.5381 54.109 28.3426 50.5048 26.4029C48.7043 25.4339 47.0578 24.7814 45.8622 24.3715C45.2645 24.1665 44.7801 24.0224 44.4462 23.9297C44.2792 23.8834 44.1498 23.8499 44.0628 23.8281C44.0193 23.8173 43.9864 23.8093 43.9646 23.8042C43.9537 23.8016 43.9456 23.7997 43.9404 23.7985L43.9347 23.7972L43.9335 23.7969L43.7891 23.7644L42.0575 20.386C42.0167 20.3652 41.96 20.3374 41.8873 20.3041C41.7145 20.225 41.4516 20.1154 41.1 19.9986C40.3969 19.7649 39.3383 19.5019 37.934 19.3947ZM42.2935 20.1536L42.4522 19.88L42.5324 19.9266L44.2177 23.2148C44.3097 23.2378 44.4437 23.2725 44.615 23.32C44.9599 23.4157 45.4563 23.5636 46.067 23.7729C47.2879 24.1916 48.9672 24.8571 50.804 25.8457C54.4744 27.821 58.7964 31.0987 61.3272 36.2959C63.4569 40.6693 63.6971 45.309 63.4111 48.8415C63.2679 50.6096 62.9924 52.1061 62.7524 53.1615C62.6324 53.6893 62.5212 54.1073 62.4397 54.3942C62.3989 54.5377 62.3656 54.6484 62.3423 54.7238C62.3306 54.7615 62.3214 54.7903 62.3151 54.81C62.3119 54.8198 62.3095 54.8274 62.3078 54.8326L62.3058 54.8387L62.305 54.8409C62.305 54.8409 62.3049 54.8412 62.0051 54.7412L62.3049 54.8412L62.2902 54.8855L60.4857 57.4435L55.7664 59.2986L54.1855 64.8652L51.5975 66.5109L51.5772 66.5201L51.4468 66.2319C51.5772 66.5201 51.5772 66.5201 51.5772 66.5201L51.5767 66.5203L51.5728 66.522L51.5622 66.5268C51.5531 66.5308 51.5398 66.5367 51.5224 66.5442C51.4877 66.5592 51.4367 66.581 51.3699 66.6085C51.2364 66.6634 51.0398 66.7415 50.7844 66.8353C50.2737 67.0228 49.5277 67.2732 48.5808 67.5272C46.6874 68.035 43.9882 68.5579 40.7589 68.6204C37.5019 68.6834 34.9849 67.8631 33.2793 67.0234C32.4269 66.6038 31.7773 66.1795 31.3389 65.8583C31.1197 65.6977 30.9531 65.5627 30.8403 65.4669C30.7839 65.419 30.741 65.3809 30.7115 65.3542C30.6968 65.3409 30.6855 65.3304 30.6775 65.3229L30.6682 65.3141L30.6654 65.3115L30.6642 65.3103C30.6642 65.3103 30.664 65.3101 30.8831 65.0822L30.664 65.3101L30.6361 65.2833L27.9904 61.0673L27.1057 55.4112L26.4042 52.7611L25.3338 52.7013L25.2461 52.5706L25.5085 52.3942C25.2461 52.5706 25.246 52.5704 25.246 52.5704L25.2458 52.57L25.2452 52.5693L25.2438 52.5672L25.2396 52.5608C25.2362 52.5555 25.2316 52.5482 25.2258 52.539C25.2141 52.5204 25.1979 52.4939 25.1776 52.4593C25.1371 52.39 25.0805 52.2882 25.0126 52.1529C24.8768 51.8822 24.6961 51.4776 24.509 50.9311C24.1346 49.8376 23.7352 48.178 23.6174 45.8879C23.5304 44.1953 23.6513 42.0397 23.7922 40.3166C23.8629 39.4531 23.9389 38.6945 23.9973 38.1517C24.0265 37.8803 24.0513 37.6627 24.0688 37.5128C24.0776 37.4378 24.0845 37.3798 24.0893 37.3404L24.091 37.3266C24.0871 37.316 24.0806 37.3002 24.0697 37.2793C24.0284 37.1995 23.9256 37.0465 23.6785 36.8255C23.1814 36.3811 22.134 35.6911 19.9512 34.7862C18.2727 34.0905 16.8578 34.3028 15.86 34.6852C15.359 34.8773 14.9624 35.1127 14.6922 35.2994C14.5712 35.383 14.4759 35.4565 14.4085 35.5114L14.6765 37.4636L10.7317 35.7279L9.40757 33.5619C9.40757 33.5619 9.29045 33.4195 9.29423 33.2998C9.29817 33.1749 9.53647 32.8955 9.53647 32.8955L13.8817 34.9702C13.896 34.9308 13.9117 34.888 13.9288 34.8419C14.0336 34.5597 14.1917 34.154 14.4065 33.6563C14.8358 32.6612 15.4923 31.2965 16.4018 29.8157C18.2175 26.8594 21.0593 23.4111 25.1431 21.5407C30.7537 18.971 35.0618 18.541 37.982 18.7638C39.4411 18.8752 40.5503 19.1493 41.2991 19.3982C41.6734 19.5226 41.9576 19.6406 42.1502 19.7288C42.2465 19.7728 42.3199 19.8094 42.3703 19.8356C42.3955 19.8487 42.4149 19.8592 42.4286 19.8667C42.4354 19.8705 42.4408 19.8735 42.4447 19.8757L42.4496 19.8785L42.4512 19.8794L42.4517 19.8798C42.4517 19.8798 42.4522 19.88 42.2935 20.1536ZM13.7843 35.6113L10.765 34.432L11.1883 35.2377L13.8966 36.4293L13.7843 35.6113Z" fill="black"/>
</g>
<path fill-rule="evenodd" clip-rule="evenodd" d="M37.9677 18.9988C35.1582 18.7839 30.9543 19.1971 25.432 21.7484C21.5039 23.5631 18.7406 26.924 16.9544 29.854C16.0629 31.3165 15.4189 32.6648 14.9981 33.6471C14.8862 33.9082 14.7902 34.1432 14.7095 34.3476C14.9732 34.1885 15.2978 34.0197 15.6762 33.8734C16.7903 33.4426 18.3686 33.2081 20.2159 33.9793C22.4249 34.9014 23.543 35.6277 24.113 36.1413C24.3992 36.3992 24.5545 36.61 24.638 36.7727C24.6799 36.8544 24.7037 36.9241 24.7166 36.9812C24.723 37.0096 24.7266 37.0346 24.7284 37.056C24.7293 37.0667 24.7297 37.0764 24.7298 37.0852C24.7299 37.0895 24.7299 37.0937 24.7298 37.0975C24.7298 37.0995 24.7297 37.1013 24.7296 37.1031L24.7295 37.1058L24.7295 37.1071C24.7294 37.1077 24.7294 37.1084 24.4394 37.0922C24.7276 37.128 24.7276 37.128 24.7276 37.128L24.7258 37.1426C24.7246 37.1525 24.7228 37.1673 24.7205 37.1867C24.7158 37.2256 24.7089 37.2833 24.7002 37.358C24.6829 37.5074 24.6582 37.7248 24.6291 37.9962C24.5709 38.5393 24.4951 39.2983 24.4246 40.1621C24.2833 41.8934 24.1645 44.0318 24.2487 45.6947C24.3625 47.9458 24.7505 49.562 25.106 50.6097C25.2838 51.1337 25.4536 51.516 25.5773 51.7647C25.6265 51.8636 25.6684 51.9414 25.7006 51.9987L26.8997 52.0657L27.7201 55.1943L28.5876 60.8003L31.1238 64.8756C31.1268 64.8784 31.1301 64.8814 31.1337 64.8847C31.1584 64.9073 31.1964 64.9413 31.2476 64.9851C31.35 65.0728 31.5051 65.1995 31.7117 65.352C32.1249 65.6572 32.7439 66.0651 33.5601 66.4698C35.1918 67.2788 37.6119 68.0754 40.7559 68.0127C43.9256 67.9494 46.5745 67.4309 48.4295 66.9286C49.3569 66.6775 50.0852 66.4306 50.5805 66.2472C50.8281 66.1554 51.0173 66.0796 51.144 66.027C51.2073 66.0007 51.2549 65.9802 51.2864 65.9664C51.2976 65.9615 51.3068 65.9575 51.3138 65.9544L53.6702 64.4435L55.2719 58.7671L60.1003 56.8522L61.7486 54.4979C61.7539 54.481 61.7609 54.4588 61.7693 54.4314C61.7913 54.3598 61.8234 54.2527 61.8628 54.1129C61.9418 53.8332 62.0504 53.4225 62.168 52.9021C62.4033 51.861 62.6741 50.3823 62.8152 48.635C63.0978 45.1367 62.8591 40.5832 60.7966 36.3112C58.3445 31.2321 54.1441 28.0111 50.5398 26.057C48.7391 25.0808 47.0922 24.4237 45.8963 24.0108C45.2985 23.8044 44.8139 23.6593 44.4797 23.5659C44.3126 23.5192 44.1831 23.4855 44.096 23.4636C44.0524 23.4526 44.0194 23.4446 43.9975 23.4394C43.9917 23.438 43.9867 23.4368 43.9825 23.4358C43.9788 23.435 43.9757 23.4343 43.9732 23.4337L43.9675 23.4324L43.9661 23.432L43.8331 23.4019L42.1053 20.0021C42.0638 19.9807 42.0044 19.9511 41.927 19.9155C41.7535 19.8355 41.49 19.7249 41.1377 19.607C40.4333 19.3713 39.3734 19.1063 37.9677 18.9988ZM42.3231 19.7894L42.4698 19.5384L42.5434 19.5815L44.2285 22.8973C44.2315 22.898 44.2345 22.8988 44.2375 22.8996C44.3293 22.9226 44.4637 22.9576 44.6358 23.0057C44.9801 23.1019 45.4759 23.2505 46.0857 23.461C47.305 23.8819 48.9821 24.5512 50.8164 25.5457C54.4821 27.5329 58.7957 30.83 61.3197 36.0581C63.4436 40.4572 63.6816 45.1257 63.3943 48.6818C63.2506 50.4617 62.9748 51.9681 62.7347 53.0305C62.6146 53.5618 62.5034 53.9824 62.4219 54.271C62.3812 54.4154 62.3479 54.5267 62.3246 54.6025C62.3129 54.6404 62.3038 54.6693 62.2975 54.6891C62.2944 54.6989 62.2919 54.7065 62.2902 54.7117L62.2882 54.7177L62.2877 54.7194L62.2875 54.7199C62.2875 54.7199 62.2874 54.7202 62.0117 54.6288L62.2874 54.7202L62.274 54.7608L60.4761 57.3287L55.7529 59.2018L54.1693 64.8141L51.5918 66.4668L51.5731 66.4753L51.4626 66.2333C51.5313 66.3838 51.5573 66.4407 51.567 66.4623C51.573 66.4754 51.5731 66.4753 51.5731 66.4753L51.5718 66.4759L51.5689 66.4773C51.5664 66.4784 51.5629 66.48 51.5583 66.482C51.5493 66.4861 51.536 66.4919 51.5187 66.4995C51.4842 66.5146 51.4333 66.5364 51.3667 66.5641C51.2334 66.6195 51.0372 66.6981 50.7821 66.7926C50.2722 66.9815 49.5271 67.2339 48.5812 67.49C46.6898 68.0021 43.9933 68.5298 40.7675 68.5941C37.5159 68.659 35.0039 67.8346 33.3022 66.9909C32.4518 66.5692 31.8038 66.1427 31.3668 65.8201C31.1483 65.6587 30.9823 65.5232 30.8701 65.4271C30.8139 65.3791 30.7712 65.3409 30.742 65.3142C30.7274 65.3008 30.7161 65.2903 30.7083 65.283C30.7044 65.2793 30.7013 65.2764 30.6991 65.2742L30.6964 65.2717L30.6956 65.2708L30.6952 65.2705C30.6952 65.2705 30.695 65.2703 30.8973 65.0616L30.695 65.2703L30.6695 65.2455L28.0316 61.0068L27.1505 55.3129L26.4451 52.6228L25.3692 52.5626L25.2887 52.4416L25.5304 52.2804C25.2887 52.4416 25.2885 52.4414 25.2885 52.4414L25.2883 52.4411L25.2878 52.4404L25.2865 52.4383C25.2855 52.4367 25.2841 52.4346 25.2824 52.432C25.2804 52.4289 25.278 52.4251 25.2751 52.4206C25.2732 52.4176 25.2711 52.4142 25.2688 52.4104C25.2573 52.392 25.2412 52.3656 25.2211 52.3309C25.1809 52.2616 25.1247 52.1596 25.0572 52.0239C24.9222 51.7524 24.7422 51.346 24.5558 50.7967C24.183 49.6978 23.785 48.0285 23.6684 45.7241C23.5822 44.0209 23.7039 41.8507 23.8456 40.1148C23.9165 39.245 23.9929 38.481 24.0514 37.9342C24.0807 37.6608 24.1056 37.4417 24.1232 37.2907C24.1319 37.2152 24.1389 37.1568 24.1437 37.1172C24.1446 37.1095 24.1454 37.1026 24.1462 37.0963C24.1423 37.0845 24.1349 37.0652 24.1211 37.0383C24.0779 36.9541 23.9729 36.7975 23.7242 36.5735C23.2245 36.1232 22.175 35.4272 19.9923 34.5161C18.3083 33.8131 16.8877 34.0284 15.8855 34.4159C15.3824 34.6105 14.9842 34.8489 14.7126 35.0381C14.5855 35.1266 14.4866 35.204 14.4182 35.2605L14.6524 37.4384L10.7965 35.5446L9.5581 33.1435L13.9305 34.7657C13.9471 34.7193 13.9658 34.6677 13.9867 34.6111C14.0914 34.3272 14.2494 33.9189 14.4641 33.4178C14.8933 32.4161 15.5495 31.0421 16.4585 29.5511C18.2732 26.5742 21.1119 23.1037 25.1885 21.2203C30.7945 18.6304 35.097 18.196 38.0119 18.4189C39.4683 18.5303 40.5751 18.8056 41.3219 19.0554C41.6951 19.1803 41.9783 19.2988 42.17 19.3872C42.2659 19.4314 42.3389 19.4681 42.3889 19.4942C42.4139 19.5073 42.4332 19.5178 42.4467 19.5253C42.4534 19.529 42.4587 19.532 42.4626 19.5342L42.4673 19.5369L42.4688 19.5378L42.4694 19.5381C42.4694 19.5381 42.4698 19.5384 42.3231 19.7894ZM13.8453 35.3571L10.7324 34.1327L11.2275 35.1095L14.0269 36.5016L13.8453 35.3571ZM24.4394 37.0922L24.7276 37.128L24.7288 37.1182L24.7294 37.1084L24.4394 37.0922Z" fill="black"/>
<path d="M14.6692 37.4361C14.6692 37.4361 15.4107 36.8288 15.9982 36.7529C16.5837 36.6772 17.1451 36.7289 17.6598 36.9781C19.7189 37.9753 22.7637 39.4687 22.7343 39.9962C22.7049 40.5238 15.8136 48.5578 15.7736 50.6045C15.7652 51.0359 15.92 51.3574 16.288 51.5819C16.9722 51.9993 19.167 52.5647 19.167 52.5647L19.9909 55.6603L21.0481 55.7735L21.5389 56.1218L22.129 56.4185L22.1655 57.2968L20.0093 62.7773L25.6498 65.9153C25.6498 65.9153 32.3522 68.7843 36.9172 69.2796C41.042 69.7272 43.5979 70.0232 47.5245 68.6819C49.8221 67.8971 53.018 65.7696 53.018 65.7696L55.2351 64.0783L53.9212 64.5852C53.9212 64.5852 52.3886 65.75 51.2732 66.2453C49.4209 67.0679 44.4739 68.5114 40.014 68.262C34.3921 67.9477 31.5672 65.6728 31.0256 65.1133C30.4841 64.5538 28.2696 60.8135 28.2696 60.8135L26.7129 52.3911L25.5709 52.3272C25.5709 52.3272 23.9459 48.1533 23.8918 45.3092C23.8245 41.7772 24.4798 37.139 24.4798 37.139C24.4798 37.139 25.356 36.4382 19.581 34.1306C16.5169 32.9063 14.1954 35.1085 14.1954 35.1085L14.6692 37.4361Z" fill="black"/>
<path d="M12.8358 28.5806L16.2683 30.2048C16.2683 30.2048 15.4591 31.6593 14.9974 32.6198C14.5538 33.5428 13.9448 35.0214 13.9448 35.0214L9.73458 33.1162C9.73458 33.1162 10.582 31.6308 11.2013 30.7287C11.7979 29.8597 12.8358 28.5806 12.8358 28.5806Z" fill="black"/>
<g filter="url(#filter4_i_683_2947)">
<path d="M19.8813 63.6228C19.5766 63.6647 19.3879 63.0083 19.3879 63.0083L18.7469 56.6338C18.7469 56.6338 18.6744 55.8737 18.981 55.5905C19.3509 55.2486 20.2701 55.6039 20.2701 55.6039L26.8837 58.9669C26.8837 58.9669 28.1587 59.5823 28.2731 60.3358C28.3466 60.8194 28.108 61.0818 27.9708 61.5514C27.6805 62.5446 27.064 64.1418 27.064 64.1418C27.064 64.1418 25.6351 64.5314 24.7584 64.4824C24.6862 64.4784 24.6302 64.4716 24.5863 64.4141C24.5308 64.3414 24.5523 64.2585 24.5994 64.18C25.2459 63.1011 26.4282 61.876 26.4576 61.3494C26.4709 61.1118 22.6427 59.3167 22.6427 59.3167C22.6427 59.3167 21.9659 59.0052 21.7075 59.2644C21.527 59.4455 21.6122 59.8301 21.5449 60.077C21.3432 60.8171 20.8658 61.741 20.8658 61.741L20.2647 63.0573C20.2647 63.0573 20.1454 63.5865 19.8813 63.6228Z" fill="#CFCFCF"/>
</g>
<g filter="url(#filter5_i_683_2947)">
<path fill-rule="evenodd" clip-rule="evenodd" d="M19.373 55.7631C19.2719 55.7739 19.2203 55.801 19.1963 55.8231C19.1741 55.8437 19.1436 55.8884 19.1164 55.9716C19.0901 56.0523 19.0736 56.1483 19.0647 56.2469C19.056 56.3441 19.0555 56.4352 19.0572 56.5025C19.0581 56.5358 19.0596 56.5626 19.0607 56.5804C19.0613 56.5893 19.0618 56.5959 19.0621 56.5999L19.0625 56.6039C19.0625 56.604 19.0625 56.6041 19.0625 56.6041C19.0625 56.6042 19.0625 56.6041 19.0625 56.6041C19.0625 56.6042 19.0625 56.6044 19.0625 56.6044C19.0625 56.6044 19.0625 56.6044 19.0625 56.6044L19.7001 62.945C19.7047 62.959 19.7113 62.9782 19.7196 63.0009C19.739 63.0534 19.7664 63.1196 19.7997 63.1818C19.8174 63.2147 19.8344 63.242 19.8498 63.2636C19.8614 63.2444 19.8736 63.2213 19.8859 63.1946C19.9096 63.1429 19.928 63.0899 19.9407 63.0484C19.9469 63.0281 19.9514 63.0116 19.9542 63.0008C19.9556 62.9954 19.9566 62.9914 19.9571 62.9892L19.9574 62.9879L19.9575 62.9877L19.9575 62.9875L19.9576 62.9872L19.9646 62.9559L20.5826 61.6028L20.5861 61.596L20.5871 61.5939L20.5908 61.5868C20.5941 61.5803 20.5991 61.5706 20.6055 61.5577C20.6184 61.5321 20.6373 61.4943 20.6606 61.4465C20.7073 61.3508 20.7717 61.2155 20.8423 61.0576C20.9847 60.7388 21.1467 60.3403 21.2411 59.9939C21.249 59.9649 21.2549 59.9213 21.2589 59.8531C21.2607 59.8223 21.2619 59.7904 21.2633 59.7547L21.2636 59.7471C21.2651 59.7095 21.2667 59.6678 21.2695 59.6258C21.2789 59.4797 21.3026 59.2241 21.4848 59.0412C21.6231 58.9024 21.7992 58.8582 21.9408 58.8479C22.0836 58.8375 22.2262 58.8587 22.3425 58.885C22.4613 58.9118 22.5682 58.9475 22.6442 58.9758C22.6827 58.9901 22.7143 59.003 22.7368 59.0125C22.7481 59.0172 22.7571 59.0212 22.7637 59.0241L22.7717 59.0276L22.7742 59.0288L22.7751 59.0292L22.7755 59.0294C22.7755 59.0294 22.7758 59.0295 22.6438 59.3169L22.7758 59.0295L22.7778 59.0304L22.6484 59.3071C22.7778 59.0304 22.7778 59.0304 22.7778 59.0304L22.8213 59.0509C22.8495 59.0642 22.8908 59.0837 22.9433 59.1085C23.0484 59.1583 23.1983 59.2296 23.3782 59.3158C23.7378 59.4883 24.2177 59.7209 24.6976 59.9613C25.1764 60.2011 25.6594 60.4506 26.0235 60.6563C26.2044 60.7585 26.363 60.8538 26.4787 60.9342C26.5352 60.9734 26.5915 61.016 26.6366 61.0592C26.6587 61.0804 26.6874 61.1106 26.7124 61.1483C26.7324 61.1785 26.7803 61.258 26.7742 61.3672C26.762 61.5854 26.6419 61.8208 26.5168 62.0268C26.383 62.2468 26.2041 62.4937 26.0137 62.7477C25.9392 62.8471 25.8627 62.9478 25.7856 63.0495C25.5046 63.4198 25.2151 63.8014 24.9787 64.17C25.346 64.1635 25.7912 64.0963 26.1804 64.0202C26.4082 63.9757 26.6095 63.9296 26.7538 63.8946C26.7806 63.8881 26.8055 63.882 26.8282 63.8764C26.8405 63.8438 26.8547 63.8066 26.8703 63.7652C26.9323 63.6008 27.0179 63.3713 27.1126 63.111C27.3027 62.5884 27.5264 61.9489 27.6685 61.4628C27.7075 61.3294 27.753 61.213 27.7952 61.1108C27.8079 61.08 27.8198 61.0515 27.8311 61.0246C27.8592 60.9578 27.8832 60.9004 27.9052 60.8403C27.9612 60.6874 27.988 60.5565 27.9617 60.3835C27.945 60.2732 27.8812 60.1457 27.7656 60.0062C27.6516 59.8686 27.5027 59.7381 27.3479 59.6228C27.1943 59.5084 27.0427 59.4148 26.9288 59.3496C26.8722 59.3172 26.8256 59.2922 26.7937 59.2756C26.7778 59.2672 26.7656 59.2611 26.7577 59.2571L26.7491 59.2528L26.7475 59.252L26.7472 59.2519L26.7445 59.2506L20.1442 55.8944C20.1395 55.8927 20.1336 55.8906 20.1267 55.8881C20.1044 55.8803 20.0712 55.8692 20.0299 55.8566C19.9465 55.8313 19.8339 55.8014 19.7133 55.7812C19.5907 55.7608 19.4722 55.7525 19.373 55.7631ZM20.2711 55.6041L20.3849 55.309L20.3999 55.3148L27.0255 58.6839L27.0277 58.6849L27.0405 58.6913C27.0513 58.6967 27.0666 58.7045 27.0858 58.7145C27.1241 58.7345 27.178 58.7634 27.2427 58.8005C27.3715 58.8742 27.5457 58.9816 27.7252 59.1152C27.9035 59.248 28.0948 59.4125 28.252 59.6023C28.4076 59.79 28.5461 60.0221 28.5866 60.2885C28.6337 60.5991 28.578 60.8412 28.4987 61.0579C28.4712 61.1329 28.4387 61.2104 28.4087 61.2819C28.3985 61.3062 28.3886 61.3298 28.3793 61.3523C28.3404 61.4466 28.3047 61.539 28.2751 61.6404C28.1269 62.1475 27.8972 62.8032 27.7065 63.3275C27.6108 63.5906 27.5242 63.8225 27.4615 63.9887C27.4302 64.0717 27.4048 64.1384 27.3873 64.1844L27.367 64.2373L27.3599 64.2556L27.3599 64.2559C27.3598 64.2559 27.3598 64.256 27.065 64.142C27.1481 64.4472 27.1481 64.4472 27.148 64.4472L27.1466 64.4476L27.1431 64.4486L27.13 64.4521C27.1186 64.4551 27.1022 64.4594 27.0811 64.4649C27.0388 64.4758 26.978 64.4913 26.9024 64.5096C26.7514 64.5461 26.5406 64.5944 26.3016 64.6411C25.8317 64.733 25.2223 64.8253 24.7418 64.7984C24.7401 64.7984 24.7384 64.7983 24.7366 64.7982C24.6608 64.794 24.4717 64.7837 24.3363 64.6064C24.1574 64.3722 24.2641 64.1266 24.3294 64.0176C24.6015 63.5635 24.9655 63.0839 25.2918 62.6541C25.3664 62.5558 25.4391 62.4601 25.5082 62.3679C25.6979 62.1149 25.8605 61.8893 25.9769 61.6979C26.0419 61.5909 26.0836 61.5084 26.109 61.4475C26.0178 61.3849 25.883 61.3034 25.7128 61.2072C25.3629 61.0095 24.8913 60.7657 24.4148 60.5271C23.9393 60.2889 23.4629 60.0579 23.1052 59.8864C22.9264 59.8006 22.7774 59.7298 22.6731 59.6804C22.621 59.6558 22.58 59.6365 22.5522 59.6233L22.5115 59.6042L22.5085 59.6029C22.505 59.6013 22.4993 59.5988 22.4916 59.5956C22.4761 59.589 22.4527 59.5796 22.4237 59.5687C22.3647 59.5468 22.2862 59.5208 22.2035 59.5021C22.1184 59.4829 22.0433 59.4748 21.9865 59.4789C21.9531 59.4814 21.9371 59.4871 21.9314 59.4897C21.9269 59.4978 21.9085 59.5374 21.9002 59.6667C21.898 59.6995 21.8966 59.7337 21.8952 59.7717L21.8948 59.7804C21.8935 59.8148 21.892 59.8527 21.8898 59.89C21.8852 59.969 21.8766 60.066 21.8508 60.1605C21.7435 60.5542 21.5658 60.9878 21.4192 61.316C21.3452 61.4816 21.2776 61.6235 21.2285 61.7242C21.2039 61.7745 21.1839 61.8147 21.1699 61.8425C21.1629 61.8564 21.1574 61.8672 21.1536 61.8746L21.1512 61.8793L20.5652 63.1625C20.5605 63.1805 20.5538 63.2046 20.5452 63.2332C20.5272 63.2921 20.4993 63.3735 20.4602 63.4587C20.4221 63.5417 20.3672 63.6419 20.2904 63.7288C20.2145 63.8148 20.0942 63.9132 19.9254 63.9364C19.7213 63.9645 19.5622 63.8689 19.463 63.7777C19.365 63.6876 19.293 63.5744 19.243 63.4812C19.1911 63.3846 19.1523 63.2892 19.1267 63.22C19.1138 63.1848 19.1038 63.1551 19.0969 63.1337C19.0934 63.123 19.0907 63.1142 19.0888 63.1079L19.0864 63.1001L19.0857 63.0975L19.0854 63.0966L19.0853 63.0963C19.0853 63.0962 19.0852 63.096 19.3889 63.0085L19.0852 63.096L19.0774 63.0686L18.4333 56.6641L18.7473 56.6341C18.4333 56.6641 18.4333 56.6642 18.4333 56.6641L18.4332 56.6634L18.4331 56.6625L18.4329 56.6597L18.4322 56.651C18.4316 56.6437 18.4308 56.6338 18.43 56.6213C18.4284 56.5964 18.4266 56.5616 18.4254 56.5192C18.4232 56.4351 18.4237 56.3185 18.4352 56.1903C18.4466 56.0635 18.4695 55.9164 18.5157 55.7748C18.5612 55.6358 18.6366 55.4794 18.7676 55.3583C18.9286 55.2095 19.1307 55.1528 19.3059 55.134C19.4832 55.1151 19.6638 55.1316 19.8173 55.1572C19.9727 55.1831 20.113 55.2207 20.2136 55.2513C20.2642 55.2667 20.3058 55.2806 20.3352 55.2909C20.3499 55.296 20.3616 55.3003 20.37 55.3034L20.3801 55.3071L20.3832 55.3083L20.3842 55.3087L20.3849 55.309C20.385 55.309 20.3849 55.309 20.2711 55.6041ZM21.9288 59.4911C21.9288 59.4911 21.9288 59.491 21.929 59.4909ZM27.065 64.142L27.148 64.4472L27.3022 64.4052L27.3599 64.2559L27.065 64.142Z" fill="black"/>
</g>
<g filter="url(#filter6_i_683_2947)">
<path fill-rule="evenodd" clip-rule="evenodd" d="M65.6496 60.7317C68.2638 56.6969 69.8803 52.0052 70.1628 46.9478C71.0707 30.6922 57.8619 16.6573 40.5556 15.6907C34.2257 15.3371 28.2459 16.7819 23.1625 19.5523C14.3793 24.8473 9.90331 33.1049 9.90331 33.1049L14.2404 35.0674C14.2404 35.0674 16.7687 26.8462 23.5664 22.5785C32.9194 16.7065 42.4351 19.7524 42.4351 19.7524L44.1823 23.1578C44.1823 23.1578 56.4512 26.6582 60.9025 35.9563C65.292 45.1257 62.2514 54.027 61.9202 54.801C61.7568 55.183 59.9874 57.7184 59.3272 57.8756C57.9344 58.2072 55.5701 59.0081 55.5701 59.0081C55.5701 59.0081 55.4115 59.081 55.343 59.1681C55.2689 59.2621 55.225 59.4645 55.225 59.4645L53.8872 64.6584C53.8872 64.6584 55.2735 63.8574 56.1098 63.3977C57.7483 62.4969 58.7844 62.1977 60.5874 61.7042C62.4647 61.1904 65.5 60.8669 65.5 60.8669C65.5 60.8669 65.5537 60.823 65.6496 60.7317Z" fill="#2456B6"/>
</g>
<path d="M65.6496 60.7317L65.9942 61.094L66.037 61.0532L66.0692 61.0036L65.6496 60.7317ZM23.1625 19.5523L22.9232 19.1133L22.9136 19.1185L22.9043 19.1241L23.1625 19.5523ZM9.9033 33.1049L9.46373 32.8667L9.2077 33.339L9.69718 33.5605L9.9033 33.1049ZM14.2404 35.0674L14.0343 35.523L14.5515 35.757L14.7183 35.2144L14.2404 35.0674ZM23.5664 22.5785L23.3005 22.1551L23.5664 22.5785ZM42.4351 19.7524L42.88 19.5242L42.7852 19.3395L42.5876 19.2762L42.4351 19.7524ZM44.1823 23.1578L43.7374 23.3861L43.8364 23.5791L44.0451 23.6386L44.1823 23.1578ZM60.9024 35.9563L61.3534 35.7404L60.9024 35.9563ZM61.9202 54.801L62.3799 54.9977L62.3799 54.9977L61.9202 54.801ZM59.3272 57.8756L59.443 58.362L59.443 58.362L59.3272 57.8756ZM55.5701 59.0081L55.4097 58.5345L55.3849 58.5429L55.3612 58.5538L55.5701 59.0081ZM55.343 59.1681L54.9501 58.8588L54.9501 58.8588L55.343 59.1681ZM55.225 59.4645L55.7092 59.5892L55.7116 59.5799L55.7136 59.5706L55.225 59.4645ZM53.8872 64.6584L53.403 64.5337L53.1058 65.6874L54.1373 65.0914L53.8872 64.6584ZM56.1097 63.3977L56.3506 63.8358L56.1097 63.3977ZM60.5874 61.7042L60.4554 61.2219L60.5874 61.7042ZM65.5 60.8669L65.553 61.3641L65.7015 61.3483L65.8169 61.2537L65.5 60.8669ZM69.6636 46.9199C69.3861 51.8871 67.7988 56.4951 65.2299 60.4599L66.0692 61.0036C68.7289 56.8987 70.3745 52.1234 70.662 46.9757L69.6636 46.9199ZM40.5277 16.1899C57.5847 17.1426 70.5547 30.9657 69.6636 46.9199L70.662 46.9757C71.5868 30.4186 58.139 16.172 40.5834 15.1914L40.5277 16.1899ZM23.4017 19.9913C28.4045 17.265 34.2919 15.8416 40.5277 16.1899L40.5834 15.1914C34.1595 14.8326 28.0874 16.2989 22.9232 19.1133L23.4017 19.9913ZM22.9043 19.1241C18.4487 21.8102 15.092 25.2432 12.8513 27.9988C11.73 29.3777 10.8857 30.5901 10.3207 31.4595C10.0381 31.8943 9.82522 32.2436 9.68233 32.4854C9.61088 32.6063 9.55691 32.7004 9.52047 32.7648C9.50225 32.797 9.48841 32.8219 9.47895 32.839C9.47422 32.8475 9.47058 32.8541 9.46805 32.8587C9.46678 32.8611 9.46579 32.8629 9.46506 32.8642C9.4647 32.8649 9.46441 32.8654 9.46419 32.8658C9.46408 32.866 9.46396 32.8662 9.46391 32.8663C9.46381 32.8665 9.46373 32.8667 9.9033 33.1049C10.3429 33.3432 10.3428 33.3433 10.3428 33.3433C10.3428 33.3433 10.3428 33.3433 10.3428 33.3433C10.3429 33.3432 10.343 33.343 10.3432 33.3427C10.3436 33.342 10.3442 33.3408 10.3451 33.3391C10.3469 33.3358 10.3499 33.3305 10.3539 33.3232C10.3619 33.3087 10.3743 33.2865 10.391 33.257C10.4244 33.1979 10.4751 33.1094 10.5432 32.9942C10.6794 32.7637 10.8849 32.4265 11.1592 32.0044C11.7079 31.1601 12.5315 29.9771 13.6271 28.6297C15.8202 25.9328 19.0931 22.5894 23.4206 19.9805L22.9043 19.1241ZM9.69718 33.5605L14.0343 35.523L14.4466 34.6119L10.1094 32.6494L9.69718 33.5605ZM14.2404 35.0674C14.7183 35.2144 14.7183 35.2145 14.7183 35.2146C14.7183 35.2146 14.7183 35.2146 14.7183 35.2146C14.7183 35.2145 14.7184 35.2144 14.7185 35.214C14.7186 35.2134 14.719 35.2123 14.7195 35.2107C14.7205 35.2075 14.7221 35.2024 14.7244 35.1953C14.7288 35.1812 14.7358 35.1595 14.7454 35.1305C14.7645 35.0725 14.7938 34.9855 14.8338 34.8725C14.9137 34.6464 15.0361 34.3163 15.2043 33.9058C15.541 33.0845 16.0602 31.9437 16.7882 30.6718C18.2475 28.1223 20.5286 25.0761 23.8322 23.002L23.3005 22.1551C19.8064 24.3487 17.4246 27.547 15.9203 30.175C15.1666 31.4918 14.6289 32.673 14.279 33.5266C14.104 33.9535 13.9758 34.299 13.8909 34.5392C13.8485 34.6593 13.8168 34.7531 13.7956 34.8176C13.785 34.8499 13.7769 34.8748 13.7714 34.8921C13.7687 34.9007 13.7666 34.9074 13.7651 34.9122C13.7643 34.9146 13.7638 34.9164 13.7633 34.9178C13.7631 34.9185 13.7629 34.9191 13.7628 34.9195C13.7627 34.9197 13.7627 34.92 13.7626 34.9201C13.7626 34.9203 13.7625 34.9205 14.2404 35.0674ZM23.8322 23.002C28.4079 20.1293 33.0247 19.4365 36.5042 19.4635C38.2439 19.4769 39.6958 19.6704 40.7104 19.8598C41.2175 19.9544 41.6146 20.0479 41.8831 20.1172C42.0173 20.1518 42.1193 20.1803 42.1867 20.1999C42.2204 20.2096 42.2455 20.2172 42.2615 20.2221C42.2696 20.2245 42.2754 20.2263 42.2789 20.2274C42.2807 20.228 42.2819 20.2284 42.2825 20.2286C42.2829 20.2287 42.283 20.2287 42.2831 20.2287C42.2831 20.2287 42.283 20.2287 42.283 20.2287C42.2829 20.2287 42.2827 20.2286 42.4351 19.7524C42.5876 19.2762 42.5873 19.2762 42.5871 19.2761C42.5869 19.276 42.5866 19.2759 42.5863 19.2758C42.5858 19.2757 42.5851 19.2754 42.5842 19.2752C42.5825 19.2746 42.5803 19.2739 42.5774 19.273C42.5718 19.2713 42.5638 19.2688 42.5535 19.2657C42.5331 19.2594 42.5035 19.2505 42.4652 19.2394C42.3887 19.2172 42.2771 19.1861 42.1328 19.1489C41.8444 19.0745 41.4251 18.9759 40.8939 18.8767C39.832 18.6785 38.3204 18.4775 36.512 18.4635C32.8954 18.4355 28.0779 19.1557 23.3005 22.1551L23.8322 23.002ZM41.9903 19.9807L43.7374 23.3861L44.6271 22.9296L42.88 19.5242L41.9903 19.9807ZM44.1823 23.1578C44.0451 23.6386 44.045 23.6386 44.0449 23.6386C44.045 23.6386 44.045 23.6386 44.0451 23.6386C44.0453 23.6387 44.0456 23.6388 44.0462 23.639C44.0473 23.6393 44.0491 23.6398 44.0517 23.6406C44.0568 23.642 44.0649 23.6444 44.0758 23.6476C44.0975 23.6541 44.1306 23.664 44.1745 23.6774C44.2621 23.7043 44.3926 23.7453 44.5611 23.8011C44.8981 23.9126 45.3867 24.0828 45.9879 24.3162C47.191 24.7831 48.8414 25.5015 50.6281 26.5061C54.2124 28.5214 58.2899 31.657 60.4515 36.1722L61.3534 35.7404C59.0637 30.9574 54.7811 27.6939 51.1182 25.6344C49.2813 24.6016 47.5862 23.8638 46.3498 23.3839C45.7312 23.1438 45.2265 22.9679 44.8752 22.8517C44.6995 22.7936 44.5621 22.7503 44.4678 22.7214C44.4207 22.7069 44.3843 22.6961 44.3594 22.6887C44.3469 22.685 44.3373 22.6822 44.3306 22.6802C44.3273 22.6793 44.3247 22.6785 44.3228 22.678C44.3219 22.6777 44.3211 22.6775 44.3206 22.6773C44.3203 22.6773 44.32 22.6772 44.3199 22.6771C44.3196 22.6771 44.3194 22.677 44.1823 23.1578ZM60.4515 36.1722C62.599 40.6581 62.9313 45.0835 62.6829 48.4906C62.434 51.9043 61.604 54.2689 61.4605 54.6044L62.3799 54.9977C62.5675 54.5592 63.4234 52.0861 63.6803 48.5633C63.9376 45.0338 63.5955 40.4239 61.3534 35.7404L60.4515 36.1722ZM61.4605 54.6044C61.4605 54.6043 61.4539 54.6189 61.4348 54.6531C61.4171 54.6847 61.3933 54.7253 61.363 54.7744C61.3026 54.8726 61.2218 54.9972 61.125 55.14C60.9316 55.4253 60.6809 55.7741 60.4153 56.1157C60.1483 56.4589 59.8735 56.7857 59.6313 57.0321C59.5099 57.1556 59.4046 57.2508 59.3187 57.3161C59.2224 57.3893 59.1902 57.3942 59.2114 57.3892L59.443 58.362C59.6293 58.3176 59.7967 58.2089 59.9242 58.1119C60.0621 58.007 60.2046 57.8754 60.3444 57.7331C60.6248 57.4479 60.9263 57.0875 61.2047 56.7295C61.4844 56.3699 61.7479 56.0034 61.9528 55.701C62.1454 55.4169 62.3166 55.1457 62.3799 54.9977L61.4605 54.6044ZM59.2114 57.3892C58.496 57.5595 57.5419 57.8474 56.7758 58.0894C56.3907 58.211 56.0496 58.3221 55.8047 58.4029C55.6822 58.4433 55.5837 58.4761 55.5157 58.4989C55.4817 58.5102 55.4554 58.5191 55.4374 58.5251C55.4284 58.5282 55.4216 58.5305 55.4169 58.5321C55.4146 58.5328 55.4128 58.5334 55.4116 58.5339C55.411 58.5341 55.4105 58.5342 55.4102 58.5343C55.4101 58.5344 55.4099 58.5344 55.4099 58.5344C55.4098 58.5345 55.4098 58.5345 55.4097 58.5345C55.4097 58.5345 55.4097 58.5345 55.5701 59.0081C55.7305 59.4816 55.7305 59.4816 55.7305 59.4816C55.7305 59.4816 55.7306 59.4816 55.7306 59.4816C55.7306 59.4816 55.7307 59.4816 55.7309 59.4815C55.7311 59.4814 55.7315 59.4813 55.7321 59.4811C55.7331 59.4808 55.7348 59.4802 55.737 59.4795C55.7413 59.478 55.7479 59.4758 55.7566 59.4728C55.774 59.467 55.7997 59.4583 55.8331 59.4472C55.8999 59.4248 55.9969 59.3925 56.1179 59.3526C56.3598 59.2728 56.6968 59.163 57.077 59.043C57.8411 58.8016 58.7656 58.5233 59.443 58.362L59.2114 57.3892ZM55.5701 59.0081C55.3612 58.5538 55.3611 58.5538 55.3611 58.5539C55.361 58.5539 55.361 58.5539 55.3609 58.5539C55.3608 58.554 55.3607 58.554 55.3606 58.5541C55.3605 58.5542 55.3602 58.5542 55.36 58.5543C55.3596 58.5545 55.3591 58.5548 55.3586 58.555C55.3576 58.5555 55.3564 58.556 55.3551 58.5566C55.3524 58.5579 55.3491 58.5595 55.3453 58.5614C55.3376 58.5651 55.3275 58.5701 55.3156 58.5762C55.2921 58.5883 55.2598 58.6057 55.2238 58.6274C55.166 58.6623 55.0432 58.7405 54.9501 58.8588L55.7358 59.4774C55.7189 59.4988 55.7079 59.5061 55.7145 59.5009C55.7191 59.4973 55.7279 59.4912 55.7407 59.4834C55.7529 59.4761 55.7646 59.4698 55.773 59.4655C55.777 59.4634 55.7798 59.462 55.7811 59.4614C55.7817 59.4611 55.7818 59.461 55.7815 59.4612C55.7814 59.4612 55.7811 59.4614 55.7807 59.4616C55.7805 59.4617 55.7802 59.4618 55.78 59.4619C55.7798 59.462 55.7797 59.462 55.7795 59.4621C55.7795 59.4621 55.7794 59.4622 55.7793 59.4622C55.7792 59.4622 55.7792 59.4623 55.7792 59.4623C55.7791 59.4623 55.779 59.4623 55.5701 59.0081ZM54.9501 58.8588C54.8539 58.981 54.8026 59.1295 54.7806 59.1972C54.7666 59.2404 54.756 59.2788 54.7489 59.3065C54.7453 59.3205 54.7424 59.3323 54.7403 59.3411C54.7393 59.3455 54.7385 59.3492 54.7378 59.3521C54.7375 59.3535 54.7372 59.3548 54.7369 59.3559C54.7368 59.3564 54.7367 59.3569 54.7366 59.3573C54.7366 59.3575 54.7365 59.3577 54.7365 59.3579C54.7365 59.358 54.7365 59.3581 54.7364 59.3582C54.7364 59.3582 54.7364 59.3583 54.7364 59.3583C54.7364 59.3584 54.7364 59.3584 55.225 59.4645C55.7136 59.5706 55.7136 59.5706 55.7136 59.5707C55.7136 59.5707 55.7136 59.5708 55.7136 59.5708C55.7136 59.5709 55.7135 59.5709 55.7135 59.571C55.7135 59.5711 55.7135 59.5713 55.7134 59.5714C55.7134 59.5716 55.7134 59.5718 55.7133 59.572C55.7133 59.5722 55.7132 59.5724 55.7132 59.5723C55.7133 59.5722 55.7134 59.5715 55.7137 59.5702C55.7144 59.5675 55.7155 59.5628 55.7172 59.5563C55.7206 59.5431 55.7256 59.5251 55.7318 59.5059C55.7383 59.486 55.7443 59.4702 55.7491 59.4597C55.7553 59.446 55.7525 59.4562 55.7358 59.4774L54.9501 58.8588ZM54.7408 59.3398L53.403 64.5337L54.3714 64.7832L55.7092 59.5892L54.7408 59.3398ZM53.8872 64.6584C54.1373 65.0914 54.1373 65.0914 54.1373 65.0914C54.1373 65.0914 54.1374 65.0914 54.1374 65.0913C54.1374 65.0913 54.1375 65.0913 54.1375 65.0912C54.1377 65.0911 54.138 65.091 54.1383 65.0908C54.1389 65.0904 54.1399 65.0899 54.1412 65.0891C54.1438 65.0876 54.1478 65.0853 54.1529 65.0824C54.1632 65.0764 54.1784 65.0676 54.1981 65.0563C54.2375 65.0335 54.2948 65.0005 54.3662 64.9595C54.5089 64.8774 54.7079 64.7632 54.9329 64.6346C55.3837 64.377 55.9363 64.0636 56.3506 63.8358L55.8689 62.9595C55.4469 63.1915 54.8882 63.5084 54.4368 63.7663C54.2107 63.8955 54.0109 64.0102 53.8675 64.0927C53.7958 64.1339 53.7383 64.1671 53.6986 64.19C53.6788 64.2014 53.6634 64.2103 53.653 64.2163C53.6478 64.2193 53.6438 64.2216 53.6411 64.2232C53.6398 64.2239 53.6388 64.2245 53.6381 64.2249C53.6377 64.2251 53.6375 64.2253 53.6373 64.2254C53.6372 64.2254 53.6371 64.2254 53.6371 64.2255C53.6371 64.2255 53.637 64.2255 53.637 64.2255C53.637 64.2255 53.637 64.2255 53.8872 64.6584ZM56.3506 63.8358C57.936 62.9643 58.9256 62.6774 60.7194 62.1864L60.4554 61.2219C58.6431 61.7179 57.5607 62.0294 55.8689 62.9595L56.3506 63.8358ZM60.7194 62.1864C61.6271 61.938 62.8301 61.7322 63.8199 61.5876C64.312 61.5158 64.7461 61.4598 65.0571 61.4218C65.2125 61.4028 65.337 61.3883 65.4224 61.3786C65.4651 61.3738 65.498 61.3701 65.5201 61.3677C65.5312 61.3665 65.5395 61.3655 65.5451 61.3649C65.5478 61.3646 65.5499 61.3644 65.5512 61.3643C65.5519 61.3642 65.5524 61.3642 65.5527 61.3641C65.5528 61.3641 65.5529 61.3641 65.553 61.3641C65.553 61.3641 65.553 61.3641 65.553 61.3641C65.553 61.3641 65.553 61.3641 65.5 60.8669C65.4471 60.3697 65.447 60.3697 65.447 60.3697C65.4469 60.3697 65.4469 60.3697 65.4468 60.3697C65.4467 60.3698 65.4465 60.3698 65.4463 60.3698C65.4459 60.3698 65.4452 60.3699 65.4444 60.37C65.4428 60.3702 65.4405 60.3704 65.4375 60.3708C65.4314 60.3714 65.4225 60.3724 65.4108 60.3737C65.3876 60.3762 65.3535 60.38 65.3095 60.385C65.2216 60.395 65.0943 60.4098 64.9358 60.4292C64.619 60.4679 64.1769 60.5249 63.6754 60.5981C62.6782 60.7438 61.425 60.9566 60.4554 61.2219L60.7194 62.1864ZM65.5 60.8669C65.8169 61.2537 65.8169 61.2536 65.817 61.2536C65.817 61.2536 65.817 61.2536 65.817 61.2536C65.8171 61.2536 65.8171 61.2535 65.8171 61.2535C65.8172 61.2534 65.8173 61.2534 65.8174 61.2533C65.8176 61.2532 65.8177 61.253 65.8179 61.2528C65.8183 61.2525 65.8188 61.2522 65.8193 61.2517C65.8202 61.2509 65.8214 61.2499 65.8228 61.2488C65.8256 61.2464 65.8293 61.2434 65.8337 61.2397C65.8425 61.2322 65.8545 61.2218 65.8695 61.2086C65.8995 61.1821 65.9416 61.144 65.9942 61.094L65.3049 60.3695C65.2616 60.4107 65.2289 60.4402 65.2082 60.4585C65.1978 60.4676 65.1904 60.474 65.1862 60.4776C65.1841 60.4794 65.1827 60.4805 65.1822 60.4809C65.182 60.4811 65.1819 60.4812 65.1821 60.481C65.1822 60.481 65.1823 60.4809 65.1825 60.4807C65.1826 60.4806 65.1827 60.4806 65.1828 60.4805C65.1828 60.4804 65.1829 60.4804 65.183 60.4803C65.183 60.4803 65.183 60.4803 65.1831 60.4802C65.1831 60.4802 65.1831 60.4802 65.1831 60.4802C65.1831 60.4802 65.1832 60.4801 65.5 60.8669Z" fill="black"/>
<g filter="url(#filter7_i_683_2947)">
<path d="M35.1154 53.5226C35.2239 53.4861 35.3416 53.543 35.3805 53.6507L37.205 58.6974C37.2449 58.8077 37.1872 58.9293 37.0767 58.9681L30.3044 61.349C30.1841 61.3913 30.0542 61.3178 30.0283 61.1929L28.912 55.8011C28.8904 55.6965 28.9502 55.5923 29.0513 55.5584L35.1154 53.5226Z" fill="#2456B6"/>
</g>
<g filter="url(#filter8_i_683_2947)">
<path fill-rule="evenodd" clip-rule="evenodd" d="M35.976 53.4361L37.8005 58.4827C37.9599 58.9238 37.7293 59.4103 37.2873 59.5657L30.515 61.9466C30.0339 62.1157 29.5141 61.8217 29.4106 61.3219L28.2943 55.9301C28.2077 55.5119 28.447 55.0949 28.8515 54.9591L34.9156 52.9233C35.3495 52.7777 35.8203 53.0053 35.976 53.4361ZM35.3817 53.6513C35.3428 53.5437 35.2251 53.4867 35.1166 53.5232L29.0525 55.559C28.9513 55.5929 28.8915 55.6972 28.9132 55.8017L30.0295 61.1935C30.0553 61.3184 30.1853 61.3919 30.3056 61.3496L37.0779 58.9688C37.1884 58.9299 37.246 58.8083 37.2062 58.698L35.3817 53.6513Z" fill="black"/>
</g>
<g filter="url(#filter9_i_683_2947)">
<path d="M34.7105 52.0265C34.8448 51.982 34.898 51.8202 34.8162 51.7045L33.3929 49.69C33.3396 49.6147 33.2436 49.5827 33.1559 49.6112L28.0638 51.263C27.9601 51.2966 27.8992 51.4039 27.9233 51.5103L27.965 51.6945L28.4555 53.8566C28.483 53.978 28.6091 54.0492 28.7271 54.0101L34.7105 52.0265Z" fill="#2456B6"/>
</g>
<g filter="url(#filter10_i_683_2947)">
<path fill-rule="evenodd" clip-rule="evenodd" d="M27.3079 51.6504C27.2115 51.2248 27.4552 50.7959 27.8699 50.6614L32.962 49.0096C33.3129 48.8958 33.6969 49.0236 33.9098 49.325L35.3332 51.3395C35.66 51.802 35.4474 52.4492 34.9101 52.6273L28.9268 54.6109C28.4545 54.7675 27.9502 54.4826 27.8401 53.9969L27.3079 51.6504ZM27.9242 51.5105C27.9001 51.4041 27.9611 51.2969 28.0647 51.2633L33.1569 49.6114C33.2446 49.583 33.3406 49.6149 33.3938 49.6903L34.8172 51.7048C34.8989 51.8204 34.8457 51.9822 34.7114 52.0268L28.7281 54.0103C28.61 54.0495 28.4839 53.9782 28.4564 53.8568L27.9242 51.5105Z" fill="black"/>
</g>
<path d="M19.7489 59.0203L19.6549 56.8166L20.0002 56.4605L20.7032 56.4998L21.5956 57.0323L21.5866 57.1927C21.5175 57.1352 21.3576 57.019 21.2711 57.0142C21.1846 57.0093 20.7704 56.9147 20.5741 56.868L20.0815 56.9477L20.0338 57.8029C20.0243 57.974 19.8399 58.6858 19.7489 59.0203Z" fill="#424242"/>
<path d="M23.2764 58.0383L26.6475 59.8355L27.3628 60.6261L27.0924 60.611L23.2764 58.0383Z" fill="#414141"/>
<path d="M20.5135 57.9374L20.3185 58.5164L20.0754 58.9854L20.4539 59.0065L20.697 58.5375L20.7149 58.2168L20.5135 57.9374Z" fill="#606060"/>
<path d="M20.3587 61.606L21.2523 61.6666L21.0306 61.9964L20.3391 61.9577C20.3391 61.9577 20.2258 61.8581 20.2304 61.7752C20.235 61.6924 20.3587 61.606 20.3587 61.606Z" fill="#C4C4C4"/>
<path d="M26.003 61.9218L26.6687 61.959C26.6687 61.959 26.7607 62.0618 26.7563 62.1403C26.7519 62.2188 26.6491 62.3107 26.6491 62.3107L25.6054 62.2524L26.003 61.9218Z" fill="#C4C4C4"/>
<g opacity="0.8" filter="url(#filter11_i_683_2947)">
<path d="M16.6758 37.2759L15.3699 38.5701C15.3699 38.5701 15.9218 38.8989 16.3166 38.9758C16.7747 39.0651 17.5098 38.9102 17.5098 38.9102L17.4811 37.0563L16.8659 37.8158L16.6758 37.2759Z" fill="#773737"/>
</g>
<path opacity="0.8" fill-rule="evenodd" clip-rule="evenodd" d="M17.6662 36.5201L17.7057 39.0675L17.5494 39.1004L17.5096 38.9107C17.5494 39.1004 17.5495 39.1004 17.5494 39.1004L17.5491 39.1005L17.5485 39.1006L17.5466 39.101L17.5396 39.1024C17.5335 39.1037 17.5249 39.1054 17.5138 39.1075C17.4917 39.1118 17.4599 39.1178 17.4204 39.1246C17.3416 39.1381 17.2317 39.1553 17.1067 39.1696C16.8625 39.1975 16.5392 39.2172 16.2793 39.1666C16.0555 39.123 15.7997 39.0118 15.6098 38.9187C15.5126 38.8711 15.4284 38.826 15.3684 38.7928C15.3384 38.7762 15.3143 38.7625 15.2975 38.7528C15.2892 38.748 15.2826 38.7442 15.2781 38.7415L15.2728 38.7384L15.2713 38.7375L15.2709 38.7373L15.2707 38.7372C15.2707 38.7372 15.2706 38.7371 15.3697 38.5706L15.2706 38.7371L15.0556 38.609L16.7565 36.9233L16.9332 37.425L17.6662 36.5201ZM15.6905 38.5254C15.7186 38.5399 15.7487 38.5551 15.7802 38.5705C15.9649 38.6611 16.1824 38.7527 16.3533 38.786C16.5515 38.8246 16.8249 38.8116 17.0628 38.7844C17.1584 38.7734 17.2449 38.7607 17.3134 38.7494L17.2955 37.5935L16.7981 38.2075L16.5945 37.6294L15.6905 38.5254Z" fill="black"/>
<g filter="url(#filter12_i_683_2947)">
<path d="M17.7759 37.2932L17.6851 38.9199L19.0224 38.6419L17.7759 37.2932Z" fill="#773737"/>
</g>
<path fill-rule="evenodd" clip-rule="evenodd" d="M17.6079 36.8259L19.3971 38.7618L17.4776 39.1609L17.6079 36.8259ZM17.9437 37.7602L17.8925 38.6787L18.6475 38.5217L17.9437 37.7602Z" fill="black"/>
<g filter="url(#filter13_i_683_2947)">
<path d="M17.4372 39.318L17.3214 42.9721L15.5604 40.5803L14.3235 39.8496L15.1265 38.8801L17.4372 39.318Z" fill="#F8B249"/>
</g>
<path fill-rule="evenodd" clip-rule="evenodd" d="M15.0504 38.6683L17.636 39.1583L17.4973 43.5376L15.4279 40.7271L14.0293 39.9009L15.0504 38.6683ZM15.2027 39.0918L14.6176 39.7982L15.6928 40.4334L17.1456 42.4064L17.2384 39.4776L15.2027 39.0918Z" fill="black"/>
<g filter="url(#filter14_i_683_2947)">
<path d="M17.1586 43.253L17.5883 43.7726C17.5883 43.7726 18.9178 44.0955 19.4671 44.0541C20.0088 44.0132 21.0701 43.5377 21.8587 43.0411C22.8625 42.4091 23.7357 40.985 23.7357 40.985L23.3515 44.7123C23.3515 44.7123 20.9355 46.6131 19.4931 46.7458C18.6147 46.8267 17.9365 46.2177 17.9365 46.2177L17.2072 45.0744L17.2369 43.753L17.1586 43.253Z" fill="#FEC775"/>
</g>
<g filter="url(#filter15_i_683_2947)">
<path fill-rule="evenodd" clip-rule="evenodd" d="M16.1772 41.0741L17.9384 43.204C17.9394 43.2042 17.9404 43.2044 17.9414 43.2047C18.07 43.2332 18.2464 43.2708 18.4384 43.307C18.8529 43.3851 19.2411 43.4365 19.4194 43.423C19.5794 43.411 19.8989 43.3188 20.3201 43.1372C20.7221 42.9639 21.1556 42.7361 21.5219 42.5054C21.9312 42.2478 22.3468 41.8022 22.6777 41.3834C22.8383 41.1802 22.9699 40.995 23.061 40.8611C23.1064 40.7944 23.1414 40.7408 23.1646 40.7048C23.1762 40.6868 23.1848 40.6732 23.1902 40.6645L23.196 40.6553L23.1969 40.6539C23.1969 40.6539 23.197 40.6538 23.1975 40.6541L24.3642 41.0498L23.9525 45.0438L23.7418 45.2095L23.3513 44.7121L23.7355 40.9849C23.7355 40.9849 23.4404 41.466 22.9962 41.9931C22.6762 42.3728 22.2788 42.7763 21.8585 43.041C21.0699 43.5375 20.0086 44.0131 19.4669 44.0539C19.0753 44.0834 18.2873 43.9279 17.867 43.8361C17.6977 43.7991 17.5881 43.7725 17.5881 43.7725L17.1583 43.2528L17.2367 43.7528L17.207 45.0742L17.9363 46.2176L17.5143 46.6885L17.45 46.6309L16.5708 45.2525L16.6036 43.7951L16.1772 41.0741ZM17.9363 46.2176C17.5143 46.6885 17.5144 46.6887 17.5146 46.6888L17.5149 46.6892L17.5157 46.6898L17.5174 46.6913L17.5216 46.695C17.5247 46.6978 17.5286 46.7011 17.5331 46.705C17.5421 46.7128 17.5539 46.7227 17.5684 46.7344C17.5972 46.7579 17.6368 46.7889 17.6862 46.8245C17.7845 46.8955 17.9246 46.9873 18.0988 47.0759C18.4418 47.2504 18.9529 47.4307 19.5508 47.3756C20.0163 47.3328 20.5138 47.1551 20.9675 46.9471C21.4303 46.7348 21.8928 46.4696 22.2985 46.2153C22.7056 45.96 23.0646 45.7099 23.3216 45.5239C23.4503 45.4307 23.5541 45.3531 23.6263 45.2984C23.6624 45.271 23.6906 45.2493 23.7102 45.2342C23.7199 45.2266 23.7275 45.2207 23.7328 45.2166L23.7391 45.2117L23.7415 45.2098L23.7418 45.2095C23.7419 45.2095 23.7418 45.2095 23.3513 44.7121C23.3513 44.7121 20.9353 46.6129 19.4929 46.7456C18.6144 46.8265 17.9363 46.2176 17.9363 46.2176Z" fill="black"/>
</g>
<g filter="url(#filter16_i_683_2947)">
<path d="M17.5738 43.2799L17.6727 39.1397L19.6785 38.7226L20.3033 38.5812L22.0476 39.6931L22.6473 41.5789C22.6473 41.5789 21.1482 43.0901 20.0334 43.4174C19.0431 43.7081 17.5738 43.2799 17.5738 43.2799Z" fill="#DEB565"/>
</g>
<path fill-rule="evenodd" clip-rule="evenodd" d="M20.339 38.3746L22.2106 39.5676L22.8672 41.6325L22.7845 41.7159L22.6471 41.5793C22.7845 41.7159 22.7845 41.7159 22.7844 41.7159L22.7844 41.716L22.7831 41.7172L22.7796 41.7208C22.7765 41.7238 22.772 41.7283 22.7662 41.7341C22.7545 41.7456 22.7374 41.7625 22.7154 41.7839C22.6713 41.8268 22.6073 41.8881 22.5272 41.9626C22.367 42.1114 22.1415 42.3135 21.8804 42.5261C21.3654 42.9455 20.6857 43.4282 20.0877 43.6038C19.5513 43.7613 18.9023 43.7216 18.4044 43.6499C18.1522 43.6136 17.9321 43.568 17.7749 43.5314C17.6961 43.5131 17.633 43.4971 17.5892 43.4855C17.5673 43.4797 17.5502 43.475 17.5384 43.4717C17.5325 43.4701 17.528 43.4688 17.5248 43.4679L17.5211 43.4668L17.5197 43.4664L17.5195 43.4664C17.5195 43.4664 17.5195 43.4664 17.5736 43.2802L17.5195 43.4664L17.3764 43.4247L17.4825 38.9816L19.6373 38.5335L20.339 38.3746ZM17.7709 43.1318C17.798 43.1385 17.8287 43.1459 17.8624 43.1538C18.0116 43.1884 18.2207 43.2317 18.4596 43.2661C18.944 43.3359 19.5248 43.365 19.9787 43.2317C20.4954 43.08 21.1226 42.6434 21.6359 42.2254C21.8889 42.0193 22.1079 41.8231 22.2637 41.6784C22.3304 41.6164 22.3854 41.5639 22.4264 41.5243L21.8841 39.8192L20.2671 38.7884L19.7194 38.9125L17.8624 39.2986L17.7709 43.1318Z" fill="black"/>
<g filter="url(#filter17_i_683_2947)">
<path d="M29.7373 63.0441C35.5073 61.6937 41.4758 59.8854 47.6743 57.1669C54.3115 54.2561 59.6915 50.2783 63.1339 46.8943C63.1339 46.8943 63.0642 48.1422 63.0326 48.7089C62.9964 49.3581 62.8308 50.2514 62.8308 50.2514C62.8308 50.2514 54.8621 56.6298 48.5794 59.3452C42.2046 62.1004 31.1077 65.058 31.1077 65.058C31.1077 65.058 30.5888 64.5013 30.3289 64.0896C30.0821 63.6987 29.7373 63.0441 29.7373 63.0441Z" fill="#CDCDCD"/>
</g>
<g filter="url(#filter18_i_683_2947)">
<path fill-rule="evenodd" clip-rule="evenodd" d="M29.2668 62.8291L29.6653 62.7359C35.421 61.3888 41.3704 59.586 47.5474 56.877C54.1476 53.9823 59.4959 50.0269 62.9123 46.6684L63.4948 46.0958L63.4493 46.9117L63.4493 46.9119L63.4492 46.9126L63.348 48.7264C63.3291 49.066 63.2768 49.4634 63.2305 49.7706C63.2072 49.9254 63.185 50.0595 63.1686 50.155C63.1604 50.2028 63.1537 50.241 63.149 50.2673L63.1435 50.2978L63.142 50.3059L63.1416 50.3081L63.1415 50.3087L63.1414 50.3089C63.1414 50.3089 63.1414 50.3089 62.8307 50.2512C63.0281 50.4983 63.028 50.4983 63.028 50.4984L63.0219 50.5032L63.0043 50.5172C62.9888 50.5296 62.9658 50.5478 62.9356 50.5717C62.8752 50.6195 62.786 50.6897 62.6704 50.78C62.4392 50.9606 62.1021 51.2213 61.6782 51.5425C60.8304 52.1848 59.6344 53.0696 58.2415 54.0395C55.46 55.9763 51.876 58.2647 48.7046 59.6354C45.4997 61.0206 41.1172 62.4531 37.5446 63.5373C35.7565 64.08 34.168 64.5364 33.0265 64.8572C32.4557 65.0176 31.9966 65.1441 31.68 65.2305C31.5218 65.2737 31.3991 65.3069 31.316 65.3293C31.2744 65.3405 31.2427 65.3491 31.2214 65.3548L31.1891 65.3634C31.189 65.3634 31.1889 65.3635 31.1076 65.0578C30.8765 65.2736 30.8765 65.2736 30.8765 65.2735L30.8746 65.2715L30.8698 65.2663C30.8657 65.2618 30.8597 65.2553 30.852 65.247C30.8367 65.2302 30.8147 65.2061 30.7876 65.176C30.7334 65.1157 30.6585 65.0311 30.5751 64.9331C30.4111 64.7403 30.2042 64.4842 30.0617 64.2584C29.933 64.0545 29.7813 63.7862 29.6637 63.5728C29.6045 63.4653 29.5531 63.3701 29.5165 63.3019C29.4982 63.2677 29.4836 63.2403 29.4735 63.2213L29.4618 63.1993L29.4578 63.1916C29.4578 63.1916 29.4577 63.1914 29.7372 63.0439L29.4578 63.1916L29.2668 62.8291ZM30.2116 63.2571C30.2134 63.2605 30.2153 63.2639 30.2172 63.2673C30.3337 63.4789 30.4779 63.7334 30.596 63.9205C30.7133 64.1063 30.8958 64.3343 31.0562 64.5229C31.1139 64.5907 31.1675 64.6518 31.2121 64.7021C31.2898 64.6811 31.391 64.6536 31.5137 64.6201C31.8289 64.5341 32.2865 64.408 32.8557 64.2481C33.9941 63.9282 35.5782 63.473 37.3612 62.9319C40.9307 61.8485 45.2841 60.4246 48.454 59.0546C51.5653 57.7099 55.107 55.4514 57.8806 53.5201C59.2651 52.5561 60.4541 51.6765 61.2967 51.038C61.718 50.7189 62.0526 50.46 62.2817 50.2812C62.3942 50.1933 62.4812 50.1248 62.5406 50.0779C62.5422 50.0684 62.5439 50.0585 62.5457 50.048C62.5615 49.9558 62.583 49.8259 62.6056 49.6762C62.6511 49.3745 62.6997 49.0006 62.717 48.6911L62.7734 47.6798C59.2958 50.9603 54.113 54.6883 47.8011 57.4565C41.7251 60.1212 35.8709 61.9137 30.2116 63.2571ZM31.1076 65.0578L30.8765 65.2735L31.0058 65.4123L31.1891 65.3634L31.1076 65.0578ZM62.8307 50.2512L63.028 50.4984L63.12 50.4247L63.1414 50.3089L62.8307 50.2512Z" fill="black"/>
</g>
<path d="M10.4737 33.3519L10.2011 32.3718L9.83231 33.1158L10.4737 33.3519Z" fill="#CE5B37"/>
<path d="M12.1608 34.0834L11.5052 30.515L11.9002 29.9545L12.748 34.3165L12.1608 34.0834Z" fill="#CE5B37"/>
<path d="M13.3891 29.0183L13.9712 29.3421L14.7195 32.8793L14.3819 33.716L13.3891 29.0183Z" fill="#CE5B37"/>
<path fill-rule="evenodd" clip-rule="evenodd" d="M13.1406 28.6439L14.169 29.2171L14.9456 32.8985L14.3493 34.3792L13.1406 28.6439ZM13.6942 29.3961L14.4654 33.056L14.5431 32.8631L13.8273 29.4703L13.6942 29.3961ZM12.0349 29.4733L13.0341 34.629L12.0205 34.2259L11.3327 30.4718L12.0349 29.4733ZM11.7422 30.562L12.3619 33.9446L12.5199 34.0074L11.8284 30.4394L11.7422 30.562ZM10.287 31.8347L10.7953 33.6664L9.61962 33.2358L10.287 31.8347ZM10.1368 33.0105L10.2207 33.0414L10.185 32.913L10.1368 33.0105Z" fill="black"/>
<path d="M10.4822 32.2324L11.1464 31.0862L11.7127 33.976L10.7539 33.5583L10.4822 32.2324Z" fill="#D6A322"/>
<path d="M12.2156 29.5257L12.8745 28.798L14.0582 34.9628L13.1206 34.4917L12.2156 29.5257Z" fill="#D6A322"/>
<path d="M14.36 29.5546L15.0156 29.8643L15.4614 31.3274L14.8769 32.3507L14.36 29.5546Z" fill="#D6A322"/>
<path fill-rule="evenodd" clip-rule="evenodd" d="M12.992 28.3794L14.3231 35.3118L12.948 34.6208L12.0084 29.4657L12.992 28.3794ZM12.4238 29.5843L13.2943 34.3611L13.7944 34.6123L12.7581 29.2151L12.4238 29.5843ZM14.1013 29.2171L15.1763 29.7249L15.6715 31.3503L14.7831 32.9055L14.1013 29.2171ZM14.6197 29.8907L14.9716 31.7944L15.2522 31.3032L14.8559 30.0023L14.6197 29.8907ZM11.2379 30.5423L11.9742 34.3005L10.5849 33.6952L10.2782 32.1983L11.2379 30.5423ZM10.6872 32.265L10.9239 33.42L11.4521 33.6501L11.056 31.6287L10.6872 32.265Z" fill="black"/>
<path d="M15.8103 30.8681L16.1592 30.3393L15.5317 30.0808L15.8103 30.8681Z" fill="#C4C4C4"/>
<path fill-rule="evenodd" clip-rule="evenodd" d="M15.6063 29.9018L16.4513 30.2499L15.7584 31.3L15.3262 30.0784L15.5691 29.9923L15.6063 29.9018ZM15.8599 30.4255L15.8639 30.4367L15.8688 30.4292L15.8599 30.4255Z" fill="black"/>
<path d="M18.1759 39.2483L18.364 41.7365L18.5535 43.2797L19.1108 43.3109L19.7206 43.2846L19.3513 39.0013L18.1759 39.2483Z" fill="#EAEAEA"/>
<path d="M20.4966 40.0488L20.7942 42.8304L21.2026 42.5595L21.6166 42.2393L21.3633 39.4866L20.2832 38.8065L20.4966 40.0488Z" fill="#EAEAEA"/>
<path d="M20.9436 43.899L21.0187 45.8561L21.4568 45.6063L21.8505 45.3772L21.8102 43.436L20.9436 43.899Z" fill="#EAEAEA"/>
<path d="M19.5051 44.3719L19.6277 46.4312C19.6277 46.4312 19.9552 46.335 20.1582 46.2545C20.3704 46.1704 20.6881 46.0076 20.6881 46.0076L20.6194 44.0483L20.0547 44.2632L19.5051 44.3719Z" fill="#EAEAEA"/>
<path d="M21.8596 46.3925L22.3675 46.1714L22.5039 51.4176L22.8534 52.2568L24.2038 54.0963L23.7859 54.4827L21.4756 52.0907L21.8596 46.3925Z" fill="#C4C4C4" stroke="black"/>
<path fill-rule="evenodd" clip-rule="evenodd" d="M22.4691 46.0128L22.609 51.3956L22.9461 52.2049L24.3448 54.1102L23.7821 54.6305L21.3677 52.1307L21.7591 46.3218L22.4691 46.0128ZM21.9607 46.4641L21.5842 52.0514L23.7905 54.3357L24.0635 54.0832L22.7613 52.3094L22.3995 51.4404L22.2667 46.3309L21.9607 46.4641Z" fill="black"/>
<g filter="url(#filter19_i_683_2947)">
<path d="M29.9326 46.2476C29.9594 46.4485 29.8425 46.6422 29.6511 46.7086L25.686 48.2363C25.4483 48.3187 25.1914 48.1762 25.1408 47.9297C24.3336 44.0042 24.5948 40.0843 25.6 36.1559C28.2899 26.3985 39.2411 21.7329 49.2255 26.5836C52.7683 28.5241 55.7095 31.4746 57.8448 34.9646C57.8517 34.9753 57.8586 34.986 57.8654 34.9968C58.6977 36.3173 57.736 38.271 56.6431 38.9532C55.5502 39.6353 53.9895 39.1178 53.1571 37.7973C53.1129 37.7271 53.0865 37.6929 53.0393 37.6246C47.8912 30.1891 40.538 28.5434 34.9374 31.9853C30.2627 35.0503 29.0399 39.5436 29.9326 46.2476Z" fill="white"/>
</g>
<g filter="url(#filter20_i_683_2947)">
<path fill-rule="evenodd" clip-rule="evenodd" d="M57.8448 34.9646C55.7095 31.4746 52.7684 28.5241 49.2255 26.5836C39.2411 21.7329 28.2899 26.3985 25.6 36.1559C24.5948 40.0843 24.3336 44.0042 25.1408 47.9297C25.1914 48.1762 25.4483 48.3187 25.686 48.2363L29.9761 46.8864C30.1675 46.8201 30.2844 46.6263 30.2576 46.4254C29.3649 39.7214 30.586 35.2775 35.2607 32.2125C40.8613 28.7707 47.8486 30.8129 52.9966 38.2484C53.0105 38.2684 53.0225 38.2855 53.0338 38.3014C53.0609 38.3398 53.0832 38.3714 53.1145 38.4211C53.9468 39.7416 56.0547 39.7318 57.1476 39.0497C58.2405 38.3675 58.6977 36.3173 57.8654 34.9968C57.8586 34.986 57.8517 34.9753 57.8448 34.9646ZM57.3297 35.3345C57.3241 35.3256 57.3185 35.3169 57.3128 35.3081L57.3086 35.3017L57.3046 35.2951C55.2232 31.8931 52.3643 29.0282 48.9349 27.1464C39.2713 22.4609 28.7863 26.994 26.212 36.3186C25.2481 40.0887 24.9883 43.8267 25.7121 47.5571L29.6084 46.3436C28.749 39.5797 30.0377 34.9371 34.9599 31.7098C40.9358 28.0373 48.2433 30.2705 53.5173 37.8879C53.5254 37.8997 53.5343 37.9122 53.5437 37.9256C53.5734 37.9677 53.6094 38.0186 53.6502 38.0834M57.3297 35.3345C58.0389 36.4597 57.5151 38.0738 56.8123 38.5124C56.1064 38.953 54.3598 39.209 53.6502 38.0834" fill="black"/>
</g>
<path d="M32.6004 30.3997C33.4649 31.1023 33.5962 32.3726 32.8937 33.2371C32.1911 34.1016 30.9208 34.2329 30.0563 33.5304C29.1918 32.8278 29.0605 31.5575 29.763 30.693C30.4656 29.8285 31.7359 29.6972 32.6004 30.3997Z" fill="#2456B6"/>
<path fill-rule="evenodd" clip-rule="evenodd" d="M32.6091 33.0058C33.1839 32.2985 33.0765 31.2591 32.3691 30.6843C31.6618 30.1095 30.6224 30.2169 30.0476 30.9243C29.4728 31.6316 29.5803 32.671 30.2876 33.2458C30.9949 33.8206 32.0343 33.7131 32.6091 33.0058ZM32.8937 33.2371C33.5962 32.3726 33.4649 31.1023 32.6004 30.3997C31.7359 29.6972 30.4656 29.8285 29.763 30.693C29.0605 31.5575 29.1918 32.8278 30.0563 33.5304C30.9208 34.2329 32.1911 34.1016 32.8937 33.2371Z" fill="black"/>
<path d="M28.6333 32.3738L29.17 31.7133L31.1771 31.842L30.6353 29.9102L31.1774 29.2431L31.7729 31.7668L31.8976 32.4274L31.2308 32.4339L28.6333 32.3738Z" fill="#EAA675"/>
<path fill-rule="evenodd" clip-rule="evenodd" d="M27.8767 32.7231L29.0046 31.3353L30.6842 31.4429L30.2308 29.8264L31.363 28.4332L32.1316 31.6907L32.3391 32.79L31.2282 32.8007L27.8767 32.7231ZM31.177 31.842L29.1699 31.7133L28.6331 32.3738L31.2306 32.4339L31.8974 32.4275L31.7727 31.7668L31.1773 29.2432L30.6352 29.9102L31.177 31.842Z" fill="black"/>
<path d="M29.1602 35.051C30.1424 35.4466 30.6178 36.5635 30.2222 37.5457C29.8266 38.5278 28.7097 39.0033 27.7276 38.6077C26.7454 38.2121 26.2699 37.0952 26.6655 36.113C27.0612 35.1309 28.1781 34.6554 29.1602 35.051Z" fill="#2456B6"/>
<path fill-rule="evenodd" clip-rule="evenodd" d="M29.8989 37.4154C30.2226 36.6118 29.8335 35.698 29.03 35.3743C28.2264 35.0506 27.3126 35.4397 26.9889 36.2433C26.6652 37.0468 27.0542 37.9607 27.8578 38.2843C28.6614 38.608 29.5752 38.219 29.8989 37.4154ZM30.2222 37.5457C30.6178 36.5635 30.1424 35.4466 29.1602 35.051C28.1781 34.6554 27.0612 35.1309 26.6655 36.113C26.2699 37.0952 26.7454 38.2121 27.7276 38.6077C28.7097 39.0033 29.8266 38.5278 30.2222 37.5457Z" fill="black"/>
<path d="M26.1108 37.9563L26.4131 37.2059L28.272 36.7599L27.2382 35.1575L27.5435 34.3996L28.792 36.5246L29.0905 37.0896L28.4867 37.2825L26.1108 37.9563Z" fill="#EAA675"/>
<path fill-rule="evenodd" clip-rule="evenodd" d="M25.522 38.4858L26.1571 36.9091L27.7127 36.5359L26.8476 35.1949L27.4851 33.6121L29.0967 36.355L29.5934 37.2952L28.5875 37.6164L25.522 38.4858ZM28.2722 36.7601L26.4133 37.2061L26.111 37.9565L28.4869 37.2826L29.0907 37.0898L28.7922 36.5248L27.5437 34.3998L27.2384 35.1576L28.2722 36.7601Z" fill="black"/>
<path d="M46.2743 28.5816C46.0248 29.738 44.8853 30.4732 43.7289 30.2238C42.5726 29.9744 41.8373 28.8348 42.0867 27.6785C42.3361 26.5221 43.4757 25.7869 44.6321 26.0363C45.7884 26.2857 46.5237 27.4253 46.2743 28.5816Z" fill="#2456B6"/>
<path fill-rule="evenodd" clip-rule="evenodd" d="M43.811 29.8431C44.7571 30.0472 45.6895 29.4456 45.8936 28.4995C46.0976 27.5534 45.4961 26.621 44.55 26.417C43.6039 26.2129 42.6715 26.8145 42.4674 27.7606C42.2634 28.7067 42.8649 29.6391 43.811 29.8431ZM43.7289 30.2238C44.8853 30.4732 46.0248 29.738 46.2743 28.5816C46.5237 27.4253 45.7884 26.2857 44.6321 26.0363C43.4757 25.7869 42.3361 26.5221 42.0867 27.6785C41.8373 28.8348 42.5726 29.9744 43.7289 30.2238Z" fill="black"/>
<path d="M42.4973 25.7749L43.3808 25.9654L44.2242 27.9276L45.7925 26.4856L46.6848 26.6781L44.5818 28.4555L44.0163 28.8913L43.6896 28.263L42.4973 25.7749Z" fill="#EAA675"/>
<path fill-rule="evenodd" clip-rule="evenodd" d="M41.8027 25.2268L43.6591 25.6272L44.3649 27.2692L45.6774 26.0625L47.5409 26.4644L44.8264 28.7587L43.8854 29.4838L43.341 28.4372L41.8027 25.2268ZM44.2241 27.9277L43.3807 25.9655L42.4972 25.775L43.6895 28.2631L44.0162 28.8914L44.5818 28.4556L46.6847 26.6782L45.7925 26.4857L44.2241 27.9277Z" fill="black"/>
<path d="M51.668 32.0952C50.9794 33.0156 49.675 33.2035 48.7546 32.5149C47.8342 31.8263 47.6463 30.522 48.3349 29.6016C49.0236 28.6812 50.3279 28.4933 51.2483 29.1819C52.1687 29.8705 52.3566 31.1749 51.668 32.0952Z" fill="#2456B6"/>
<path fill-rule="evenodd" clip-rule="evenodd" d="M48.9813 32.2119C49.7344 32.7753 50.8016 32.6216 51.365 31.8685C51.9284 31.1155 51.7746 30.0483 51.0216 29.4849C50.2686 28.9215 49.2014 29.0752 48.638 29.8283C48.0745 30.5813 48.2283 31.6485 48.9813 32.2119ZM48.7546 32.5149C49.675 33.2035 50.9794 33.0156 51.668 32.0952C52.3566 31.1749 52.1687 29.8705 51.2483 29.1819C50.3279 28.4933 49.0236 28.6812 48.3349 29.6016C47.6463 30.522 47.8342 31.8263 48.7546 32.5149Z" fill="black"/>
<path d="M49.4685 28.0864L50.1717 28.6125L50.122 30.6872L52.0913 30.0487L52.8015 30.5801L50.2241 31.2984L49.5481 31.4543L49.5139 30.767L49.4685 28.0864Z" fill="#EAA675"/>
<path fill-rule="evenodd" clip-rule="evenodd" d="M49.0769 27.321L50.5545 28.4265L50.5129 30.1627L52.1609 29.6284L53.6442 30.7382L50.3173 31.6653L49.1925 31.9247L49.1355 30.7797L49.0769 27.321ZM50.1218 30.6873L50.1715 28.6126L49.4683 28.0865L49.5138 30.7671L49.548 31.4544L50.224 31.2985L52.8014 30.5802L52.0912 30.0488L50.1218 30.6873Z" fill="black"/>
<path d="M55.3541 36.766C54.4329 37.4666 53.1182 37.2879 52.4176 36.3668C51.7169 35.4456 51.8956 34.1309 52.8168 33.4303C53.7379 32.7296 55.0526 32.9083 55.7533 33.8295C56.4539 34.7506 56.2752 36.0653 55.3541 36.766Z" fill="#2456B6"/>
<path fill-rule="evenodd" clip-rule="evenodd" d="M52.7208 36.1361C53.2941 36.8898 54.3697 37.036 55.1234 36.4627C55.877 35.8895 56.0233 34.8138 55.45 34.0601C54.8768 33.3065 53.8011 33.1602 53.0474 33.7335C52.2938 34.3068 52.1475 35.3824 52.7208 36.1361ZM52.4176 36.3668C53.1182 37.2879 54.4329 37.4666 55.3541 36.766C56.2752 36.0653 56.4539 34.7506 55.7533 33.8295C55.0526 32.9083 53.7379 32.7296 52.8168 33.4303C51.8956 34.1309 51.7169 35.4456 52.4176 36.3668Z" fill="black"/>
<path d="M54.333 32.2769L54.8683 32.9806L54.2466 34.9754L56.3296 34.9018L56.8703 35.6126L54.1765 35.5953L53.4789 35.5593L53.6358 34.8846L54.333 32.2769Z" fill="#EAA675"/>
<path fill-rule="evenodd" clip-rule="evenodd" d="M54.1655 31.4277L55.2904 32.9065L54.7701 34.5759L56.5133 34.5142L57.6424 35.9987L54.1653 35.9764L53.0046 35.9166L53.266 34.7924L54.1655 31.4277ZM54.2464 34.9756L54.8681 32.9808L54.3328 32.277L53.6357 34.8847L53.4788 35.5595L54.1763 35.5955L56.8701 35.6127L56.3295 34.902L54.2464 34.9756Z" fill="black"/>
<g filter="url(#filter21_i_683_2947)">
<path d="M31.6419 45.386C31.6542 45.4413 31.6917 45.4879 31.743 45.5121L34.1637 46.6519C34.3042 46.7181 34.4596 46.5912 34.4265 46.4394C33.4433 41.9237 34.8031 37.6324 38.1169 35.9256C41.9976 33.927 47.2075 36.1681 50.2987 40.9565C50.3976 41.1098 50.6419 41.0491 50.6521 40.8669L50.8125 37.9952C50.8147 37.9558 50.804 37.9164 50.7822 37.8835C47.3761 32.7426 41.2905 30.5532 36.5458 32.9968C32.3576 35.1539 30.5016 40.2579 31.6419 45.386Z" fill="#2456B6"/>
</g>
<g filter="url(#filter22_i_683_2947)">
<path fill-rule="evenodd" clip-rule="evenodd" d="M34.3648 46.1362C34.3647 46.1355 34.3645 46.1348 34.3644 46.1341C33.5065 41.7313 34.8787 37.5938 38.1178 35.9256C41.92 33.9673 46.9983 36.0792 50.1095 40.6692C50.1172 40.6806 50.125 40.692 50.1327 40.7035C50.1638 40.7497 50.1948 40.7963 50.2256 40.843C50.2504 40.8807 50.275 40.9185 50.2996 40.9565C50.3985 41.1097 50.6427 41.049 50.6529 40.8669L50.8133 37.9952C50.8155 37.9557 50.8049 37.9164 50.7831 37.8834C47.3769 32.7425 41.2913 30.5531 36.5466 32.9968C32.3584 35.1539 30.5024 40.2578 31.6428 45.3859C31.6551 45.4412 31.6926 45.4879 31.7438 45.512L34.1646 46.6519C34.3051 46.7181 34.4604 46.5911 34.4274 46.4394C34.41 46.3595 34.3933 46.2797 34.3774 46.1999C34.3731 46.1787 34.369 46.1575 34.3648 46.1362ZM33.9287 47.1528L31.508 46.0129C31.3026 45.9162 31.1521 45.7295 31.1024 45.5061C29.9221 40.1984 31.8263 34.8052 36.2931 32.5046C41.3561 29.897 47.7282 32.2704 51.2446 37.5777C51.3325 37.7103 51.3749 37.8678 51.3661 38.026L51.2057 40.8978C51.1639 41.6446 50.2081 41.8355 49.8344 41.2567C46.8196 36.5865 41.8883 34.6064 38.3712 36.4177C35.3657 37.9657 34.0148 41.9421 34.9683 46.3216C35.0957 46.9066 34.4986 47.4211 33.9287 47.1528Z" fill="black"/>
</g>
<path d="M53.3173 40.5565C54.3343 42.4181 56.3801 43.3188 58.0565 42.5779C59.6039 41.894 60.3288 40.0358 59.887 38.1768C59.887 38.1768 59.6286 38.0824 59.492 38.1547C59.3607 38.2241 59.2884 38.4759 59.2884 38.4759C59.4962 40.2011 59.0241 41.3665 57.7225 41.9418C56.482 42.49 55.1514 41.8872 53.9674 40.241C53.9674 40.241 53.685 40.1375 53.5362 40.2169C53.397 40.2912 53.3173 40.5565 53.3173 40.5565Z" fill="black"/>
<path d="M66.3726 47.8307C66.2097 50.7457 65.5435 53.5254 64.4533 56.1064L64.4489 56.1062C64.0002 57.1739 62.424 57.9017 60.5947 57.7995C60.3205 57.7842 60.054 57.751 59.7979 57.7018L60.2757 57.134C60.3915 57.148 60.5098 57.1586 60.6301 57.1653C61.59 57.2189 62.4432 57.017 63.0432 56.6806C63.46 56.447 63.7176 56.1743 63.8453 55.9027L63.849 55.9029C64.9246 53.3724 65.5809 50.6483 65.7403 47.7953C66.475 34.6408 56.3719 22.8868 42.3614 19.9822L42.3972 19.3418C56.7118 22.2708 67.1296 34.2763 66.3726 47.8307Z" fill="black"/>
<g filter="url(#filter23_i_683_2947)">
<path d="M22.9285 25.0329C22.9285 25.0329 21.4276 25.4027 19.9596 27.392C19.3092 28.3898 18.8956 29.5814 19.3827 30.3582C19.9211 31.2168 21.3112 31.3665 22.5858 31.1683C23.7057 30.9942 24.9881 30.6437 26.3668 29.8952L26.7395 29.6864C28.1647 28.8434 28.5727 28.5178 29.6274 27.3008C30.0936 26.6396 30.3346 26.23 30.5527 25.4588C30.7064 24.915 30.5578 24.1075 30.1531 23.7794C29.479 23.233 28.2419 23.3965 28.2419 23.3965C28.2419 23.3965 29.2681 24.164 28.7491 25.358C28.5785 25.7507 27.7186 26.44 26.8277 26.6315C26.5364 26.6942 25.2277 26.7231 25.5321 25.5334C25.7425 24.7112 27.543 23.9966 27.543 23.9966L25.5727 23.1292L23.5159 25.1698C23.5159 25.1698 24.3781 25.6997 23.9584 26.4713C23.5001 27.3136 22.296 27.5225 22.296 27.5225C22.296 27.5225 21.1761 27.6967 21.343 26.917C21.5416 25.9893 22.9285 25.0329 22.9285 25.0329Z" fill="#2456B6"/>
</g>
<path d="M22.296 27.5225C22.3728 28.0166 22.3727 28.0166 22.3725 28.0166L22.3722 28.0167L22.3714 28.0168L22.3694 28.0171L22.3644 28.0179L22.3494 28.0199C22.3373 28.0215 22.3211 28.0235 22.3014 28.0257C22.2621 28.0299 22.2079 28.0346 22.1439 28.0372C22.0203 28.0422 21.8403 28.0402 21.655 28.0017C21.4783 27.9649 21.2298 27.8811 21.0449 27.6695C20.905 27.5093 20.8364 27.3173 20.8273 27.113C20.6765 27.2831 20.5235 27.4706 20.3705 27.6772C20.069 28.142 19.8364 28.6312 19.731 29.0738C19.6235 29.5252 19.6619 29.8623 19.8063 30.0926C19.9752 30.3619 20.3068 30.5649 20.8105 30.6701C21.309 30.7743 21.9116 30.7671 22.509 30.6743C23.5823 30.5074 24.807 30.1726 26.1254 29.4573L26.3086 29.3547L26.3093 29.3543L26.3264 29.3447C26.3943 29.3066 26.4639 29.2676 26.4907 29.2527C27.1973 28.8346 27.6257 28.5595 28.0047 28.2477C28.3793 27.9395 28.7196 27.584 29.2332 26.9923C29.6709 26.3699 29.8765 26.0125 30.0716 25.3227C30.1223 25.1433 30.128 24.8906 30.074 24.6459C30.0182 24.3926 29.9182 24.2327 29.8382 24.1679C29.6903 24.0479 29.4785 23.9696 29.2422 23.9241C29.4182 24.3524 29.4868 24.9152 29.2077 25.5573C29.1309 25.7339 28.9993 25.9006 28.862 26.0429C28.7186 26.1915 28.5425 26.3405 28.3468 26.4787C27.9588 26.7525 27.4596 27.0071 26.9328 27.1204C26.81 27.1468 26.6297 27.1617 26.4373 27.1532C26.2431 27.1445 26 27.1105 25.7666 27.0146C25.5303 26.9176 25.2753 26.7443 25.1208 26.445C24.9652 26.1434 24.9505 25.7895 25.0477 25.4095C25.1357 25.0655 25.3709 24.7862 25.5964 24.5785C25.8305 24.363 26.108 24.1763 26.3622 24.0262C26.3632 24.0256 26.3642 24.025 26.3652 24.0244L25.6831 23.7241L24.2383 25.1574C24.2598 25.184 24.281 25.2119 24.3018 25.2411C24.5388 25.5737 24.7258 26.1069 24.3976 26.7102C24.0913 27.2732 23.5571 27.5944 23.1566 27.7705C22.9497 27.8614 22.7607 27.9215 22.6229 27.9591C22.5536 27.978 22.4963 27.9915 22.4549 28.0005C22.4342 28.005 22.4174 28.0084 22.405 28.0108L22.3898 28.0137L22.3847 28.0146L22.3829 28.0149L22.3821 28.0151L22.3818 28.0151C22.3816 28.0151 22.3815 28.0152 22.296 27.5225ZM22.296 27.5225L22.3729 28.0167L22.3815 28.0152L22.296 27.5225Z" stroke="black"/>
<path fill-rule="evenodd" clip-rule="evenodd" d="M21.548 25.8746L20.4668 26.8199L19.0702 28.8103L19.0682 29.5502L19.4438 30.6148L20.174 30.9972L21.2925 31.1545L22.4786 31.1638L24.2442 30.7122L26.3059 29.9165L28.4147 28.6301L29.0703 27.8697L29.9223 26.7788L30.2944 26.1354L30.5247 25.1995L30.4972 24.6287L30.2448 23.8366L29.4854 23.6234L28.6077 23.4036L28.2881 23.4617L28.6443 24.1647L28.7014 25.2685L28.1726 25.8841L27.1685 26.5111L26.3309 26.6351L25.643 26.5588L25.3332 26.086L25.4635 25.524L25.768 25.0287L27.5343 23.856L26.6785 23.5995L25.7064 23.2985L24.483 24.3118L23.6116 25.0411L23.8426 25.5094L23.9788 26.2571L23.6535 26.7702L22.9349 27.2424L22.1481 27.5211L21.5763 27.4891L21.1803 27.1444L21.4165 26.4555L21.548 25.8746ZM20.5419 27.6022L20.7735 27.3494L20.8136 27.6932L21.1745 27.96L21.5864 28.021L22.0792 28.0485L22.5598 27.9425L22.946 27.7554L23.3136 27.5482L23.5618 27.3533L23.8329 27.1028L24.0272 26.8101L24.2082 26.4027L24.3578 26.2023L24.4536 25.9041L24.3916 25.597L24.3057 25.3645L24.3423 25.0629L24.7866 24.898L24.9944 24.7199L24.9852 24.5296L25.2595 24.2223L25.7619 24.0796L26.3329 23.7699L27.2169 23.8762L25.4453 25.1435C25.3566 25.3157 25.1665 25.6745 25.1158 25.7323C25.0651 25.7902 24.967 26.1541 24.9243 26.3289C24.9837 26.446 25.1132 26.6999 25.1563 26.7783C25.1994 26.8566 25.3484 26.9977 25.4175 27.0585L26.147 27.0992L26.944 26.992L27.4288 26.8103L28.0734 26.5996L28.5699 26.2099L28.8628 25.9226L29.0821 25.5364L29.2402 25.1847C29.2636 25.0026 29.3113 24.6194 29.3155 24.5438C29.3198 24.4681 29.3535 24.3371 29.3698 24.2811L29.481 24.0596L29.7817 24.3421L30.0035 24.6201L30.1049 24.9294L30.0732 25.4969L30.0175 26.1389L29.4095 27.1107L28.43 28.0048L27.6045 28.6228L27.7319 28.8197L27.3436 29.0447L27.3904 28.9145L27.3418 28.722L27.1894 28.6186L27.0179 28.8557L26.807 29.0906L26.4736 29.3946L26.0416 29.693L25.3752 29.9404L24.852 30.101L24.7017 29.9597L24.5929 29.7829L24.4299 29.8687L24.3943 30.1513L24.2408 30.0668L23.9958 30.2049L23.8163 30.2329L23.7075 30.056L23.6346 30.2986L23.4332 30.3633L23.517 29.571L23.5206 29.1537L23.3857 29.0893L22.7794 30.3837L22.5707 30.5808L22.3464 30.7011L22.3612 30.4362L22.2274 30.3528L21.8993 30.5622L21.7704 30.7448L21.5888 30.8105L21.4789 30.6526L21.4113 30.8006L21.2392 30.6961L21.0857 30.6117L20.8966 30.8098C20.7984 30.798 20.5827 30.7657 20.5055 30.7311L20.2161 30.601L19.9714 30.3786L19.614 29.6945L19.7526 28.9812L20.0471 28.3145L20.5419 27.6022Z" fill="black"/>
<path d="M65.9006 57.7953C67.5082 54.6304 68.0937 50.1341 68.2165 47.9349C69.0829 32.4228 56.4702 19.104 40.0452 18.1866C35.8195 17.9506 31.7432 18.7363 28.0192 20.0335L27.9909 20.5396C31.7032 19.2102 35.7727 18.5822 40.0099 18.8189C56.1202 19.7187 68.4293 32.7702 67.5842 47.8996C67.439 50.499 66.8901 54.2706 65.2503 57.6193C64.9821 57.9793 64.6592 58.1497 64.2631 58.308C63.4872 58.6181 62.3988 58.7431 61.1617 58.674C59.9246 58.6049 58.8485 58.3092 58.112 57.9146C58.0016 57.9084 58.0402 57.813 57.8569 57.9003L57.4055 58.0347C58.1156 58.832 59.2217 59.1999 61.1264 59.3063C63.4088 59.4338 65.2782 58.7893 65.8719 57.8418L65.9006 57.7953Z" fill="black"/>
<path fill-rule="evenodd" clip-rule="evenodd" d="M40.0521 53.045C41.5286 53.776 43.3235 53.1612 44.0611 51.6717C44.7988 50.1822 44.1998 48.3822 42.7233 47.6511C41.2467 46.9201 39.4518 47.535 38.7142 49.0245C37.9766 50.5139 38.5756 52.314 40.0521 53.045ZM39.7698 53.6151C41.5584 54.5006 43.7327 53.7558 44.6262 51.9515C45.5198 50.1471 44.7942 47.9666 43.0056 47.0811C41.2169 46.1956 39.0426 46.9404 38.1491 48.7447C37.2556 50.549 37.9812 52.7295 39.7698 53.6151Z" fill="#6D6D6D"/>
<path fill-rule="evenodd" clip-rule="evenodd" d="M37.7317 53.4846C37.5705 53.4048 37.5051 53.2083 37.5856 53.0457L42.5693 40.5958C42.6498 40.4332 42.8458 40.3661 43.007 40.4459C43.1681 40.5257 43.2335 40.7222 43.153 40.8848L38.1693 53.3347C38.0888 53.4973 37.8928 53.5644 37.7317 53.4846Z" fill="#6D6D6D"/>
<path fill-rule="evenodd" clip-rule="evenodd" d="M38.3294 54.7235C38.1683 54.6437 38.1029 54.4472 38.1834 54.2846L44.1234 39.9037C44.2039 39.7411 44.3998 39.674 44.561 39.7538C44.7222 39.8336 44.7875 40.0301 44.707 40.1927L38.7671 54.5736C38.6866 54.7362 38.4906 54.8033 38.3294 54.7235Z" fill="#6D6D6D"/>
<path fill-rule="evenodd" clip-rule="evenodd" d="M38.9272 55.9623C38.7661 55.8825 38.7007 55.686 38.7812 55.5234L45.6586 39.2496C45.7391 39.087 45.935 39.0199 46.0962 39.0997C46.2574 39.1795 46.3228 39.376 46.2423 39.5386L39.3649 55.8124C39.2843 55.975 39.0884 56.0421 38.9272 55.9623Z" fill="#6D6D6D"/>
<path fill-rule="evenodd" clip-rule="evenodd" d="M40.275 55.6867C40.1139 55.6069 40.0485 55.4104 40.129 55.2478L46.069 40.8669C46.1495 40.7043 46.3454 40.6372 46.5066 40.717C46.6678 40.7968 46.7331 40.9933 46.6526 41.1559L40.7127 55.5367C40.6322 55.6993 40.4362 55.7665 40.275 55.6867Z" fill="#6D6D6D"/>
<path fill-rule="evenodd" clip-rule="evenodd" d="M41.6228 55.4111C41.4616 55.3313 41.3962 55.1348 41.4768 54.9722L46.4605 42.5223C46.541 42.3597 46.7369 42.2926 46.8981 42.3723C47.0593 42.4521 47.1247 42.6486 47.0441 42.8112L42.0604 55.2612C41.9799 55.4238 41.784 55.4909 41.6228 55.4111Z" fill="#6D6D6D"/>
</g>
<defs>
<filter id="filter0_f_683_2947" x="0.891602" y="0.891846" width="78.9729" height="78.9729" filterUnits="userSpaceOnUse" color-interpolation-filters="sRGB">
<feFlood flood-opacity="0" result="BackgroundImageFix"/>
<feBlend mode="normal" in="SourceGraphic" in2="BackgroundImageFix" result="shape"/>
<feGaussianBlur stdDeviation="2" result="effect1_foregroundBlur_683_2947"/>
</filter>
<filter id="filter1_d_683_2947" x="3.36841" y="14.0046" width="72.4429" height="65.1917" filterUnits="userSpaceOnUse" color-interpolation-filters="sRGB">
<feFlood flood-opacity="0" result="BackgroundImageFix"/>
<feColorMatrix in="SourceAlpha" type="matrix" values="0 0 0 0 0 0 0 0 0 0 0 0 0 0 0 0 0 0 127 0" result="hardAlpha"/>
<feOffset dy="4"/>
<feGaussianBlur stdDeviation="2"/>
<feComposite in2="hardAlpha" operator="out"/>
<feColorMatrix type="matrix" values="0 0 0 0 0 0 0 0 0 0 0 0 0 0 0 0 0 0 0.25 0"/>
<feBlend mode="normal" in2="BackgroundImageFix" result="effect1_dropShadow_683_2947"/>
<feBlend mode="normal" in="SourceGraphic" in2="effect1_dropShadow_683_2947" result="shape"/>
</filter>
<filter id="filter2_i_683_2947" x="10.0913" y="17.0286" width="53.1016" height="51.2786" filterUnits="userSpaceOnUse" color-interpolation-filters="sRGB">
<feFlood flood-opacity="0" result="BackgroundImageFix"/>
<feBlend mode="normal" in="SourceGraphic" in2="BackgroundImageFix" result="shape"/>
<feColorMatrix in="SourceAlpha" type="matrix" values="0 0 0 0 0 0 0 0 0 0 0 0 0 0 0 0 0 0 127 0" result="hardAlpha"/>
<feOffset dy="-2"/>
<feGaussianBlur stdDeviation="3.5"/>
<feComposite in2="hardAlpha" operator="arithmetic" k2="-1" k3="1"/>
<feColorMatrix type="matrix" values="0 0 0 0 0 0 0 0 0 0 0 0 0 0 0 0 0 0 1 0"/>
<feBlend mode="normal" in2="shape" result="effect1_innerShadow_683_2947"/>
</filter>
<filter id="filter3_i_683_2947" x="9.29419" y="18.7126" width="54.2148" height="49.9111" filterUnits="userSpaceOnUse" color-interpolation-filters="sRGB">
<feFlood flood-opacity="0" result="BackgroundImageFix"/>
<feBlend mode="normal" in="SourceGraphic" in2="BackgroundImageFix" result="shape"/>
<feColorMatrix in="SourceAlpha" type="matrix" values="0 0 0 0 0 0 0 0 0 0 0 0 0 0 0 0 0 0 127 0" result="hardAlpha"/>
<feOffset/>
<feGaussianBlur stdDeviation="4"/>
<feComposite in2="hardAlpha" operator="arithmetic" k2="-1" k3="1"/>
<feColorMatrix type="matrix" values="0 0 0 0 0 0 0 0 0 0 0 0 0 0 0 0 0 0 0.8 0"/>
<feBlend mode="normal" in2="shape" result="effect1_innerShadow_683_2947"/>
</filter>
<filter id="filter4_i_683_2947" x="18.7395" y="55.4419" width="9.54736" height="9.04468" filterUnits="userSpaceOnUse" color-interpolation-filters="sRGB">
<feFlood flood-opacity="0" result="BackgroundImageFix"/>
<feBlend mode="normal" in="SourceGraphic" in2="BackgroundImageFix" result="shape"/>
<feColorMatrix in="SourceAlpha" type="matrix" values="0 0 0 0 0 0 0 0 0 0 0 0 0 0 0 0 0 0 127 0" result="hardAlpha"/>
<feOffset/>
<feGaussianBlur stdDeviation="9.5"/>
<feComposite in2="hardAlpha" operator="arithmetic" k2="-1" k3="1"/>
<feColorMatrix type="matrix" values="0 0 0 0 0 0 0 0 0 0 0 0 0 0 0 0 0 0 1 0"/>
<feBlend mode="normal" in2="shape" result="effect1_innerShadow_683_2947"/>
</filter>
<filter id="filter5_i_683_2947" x="18.4243" y="55.1257" width="10.1797" height="9.67749" filterUnits="userSpaceOnUse" color-interpolation-filters="sRGB">
<feFlood flood-opacity="0" result="BackgroundImageFix"/>
<feBlend mode="normal" in="SourceGraphic" in2="BackgroundImageFix" result="shape"/>
<feColorMatrix in="SourceAlpha" type="matrix" values="0 0 0 0 0 0 0 0 0 0 0 0 0 0 0 0 0 0 127 0" result="hardAlpha"/>
<feOffset/>
<feGaussianBlur stdDeviation="4"/>
<feComposite in2="hardAlpha" operator="arithmetic" k2="-1" k3="1"/>
<feColorMatrix type="matrix" values="0 0 0 0 0 0 0 0 0 0 0 0 0 0 0 0 0 0 0.8 0"/>
<feBlend mode="normal" in2="shape" result="effect1_innerShadow_683_2947"/>
</filter>
<filter id="filter6_i_683_2947" x="7.20776" y="15.1382" width="63.4993" height="54.5493" filterUnits="userSpaceOnUse" color-interpolation-filters="sRGB">
<feFlood flood-opacity="0" result="BackgroundImageFix"/>
<feBlend mode="normal" in="SourceGraphic" in2="BackgroundImageFix" result="shape"/>
<feColorMatrix in="SourceAlpha" type="matrix" values="0 0 0 0 0 0 0 0 0 0 0 0 0 0 0 0 0 0 127 0" result="hardAlpha"/>
<feOffset dx="-2" dy="4"/>
<feGaussianBlur stdDeviation="2.5"/>
<feComposite in2="hardAlpha" operator="arithmetic" k2="-1" k3="1"/>
<feColorMatrix type="matrix" values="0 0 0 0 0 0 0 0 0 0 0 0 0 0 0 0 0 0 0.51 0"/>
<feBlend mode="normal" in2="shape" result="effect1_innerShadow_683_2947"/>
</filter>
<filter id="filter7_i_683_2947" x="28.9075" y="53.5115" width="8.31006" height="8.84961" filterUnits="userSpaceOnUse" color-interpolation-filters="sRGB">
<feFlood flood-opacity="0" result="BackgroundImageFix"/>
<feBlend mode="normal" in="SourceGraphic" in2="BackgroundImageFix" result="shape"/>
<feColorMatrix in="SourceAlpha" type="matrix" values="0 0 0 0 0 0 0 0 0 0 0 0 0 0 0 0 0 0 127 0" result="hardAlpha"/>
<feOffset dy="1"/>
<feGaussianBlur stdDeviation="2"/>
<feComposite in2="hardAlpha" operator="arithmetic" k2="-1" k3="1"/>
<feColorMatrix type="matrix" values="0 0 0 0 0 0 0 0 0 0 0 0 0 0 0 0 0 0 0.95 0"/>
<feBlend mode="normal" in2="shape" result="effect1_innerShadow_683_2947"/>
</filter>
<filter id="filter8_i_683_2947" x="28.2766" y="52.8794" width="9.57446" height="10.1152" filterUnits="userSpaceOnUse" color-interpolation-filters="sRGB">
<feFlood flood-opacity="0" result="BackgroundImageFix"/>
<feBlend mode="normal" in="SourceGraphic" in2="BackgroundImageFix" result="shape"/>
<feColorMatrix in="SourceAlpha" type="matrix" values="0 0 0 0 0 0 0 0 0 0 0 0 0 0 0 0 0 0 127 0" result="hardAlpha"/>
<feOffset dy="1"/>
<feGaussianBlur stdDeviation="4"/>
<feComposite in2="hardAlpha" operator="arithmetic" k2="-1" k3="1"/>
<feColorMatrix type="matrix" values="0 0 0 0 0 0 0 0 0 0 0 0 0 0 0 0 0 0 0.8 0"/>
<feBlend mode="normal" in2="shape" result="effect1_innerShadow_683_2947"/>
</filter>
<filter id="filter9_i_683_2947" x="27.918" y="49.6008" width="6.93701" height="5.41992" filterUnits="userSpaceOnUse" color-interpolation-filters="sRGB">
<feFlood flood-opacity="0" result="BackgroundImageFix"/>
<feBlend mode="normal" in="SourceGraphic" in2="BackgroundImageFix" result="shape"/>
<feColorMatrix in="SourceAlpha" type="matrix" values="0 0 0 0 0 0 0 0 0 0 0 0 0 0 0 0 0 0 127 0" result="hardAlpha"/>
<feOffset dy="1"/>
<feGaussianBlur stdDeviation="2"/>
<feComposite in2="hardAlpha" operator="arithmetic" k2="-1" k3="1"/>
<feColorMatrix type="matrix" values="0 0 0 0 0 0 0 0 0 0 0 0 0 0 0 0 0 0 0.83 0"/>
<feBlend mode="normal" in2="shape" result="effect1_innerShadow_683_2947"/>
</filter>
<filter id="filter10_i_683_2947" x="27.2869" y="48.9685" width="8.20142" height="6.68555" filterUnits="userSpaceOnUse" color-interpolation-filters="sRGB">
<feFlood flood-opacity="0" result="BackgroundImageFix"/>
<feBlend mode="normal" in="SourceGraphic" in2="BackgroundImageFix" result="shape"/>
<feColorMatrix in="SourceAlpha" type="matrix" values="0 0 0 0 0 0 0 0 0 0 0 0 0 0 0 0 0 0 127 0" result="hardAlpha"/>
<feOffset dy="1"/>
<feGaussianBlur stdDeviation="4"/>
<feComposite in2="hardAlpha" operator="arithmetic" k2="-1" k3="1"/>
<feColorMatrix type="matrix" values="0 0 0 0 0 0 0 0 0 0 0 0 0 0 0 0 0 0 0.8 0"/>
<feBlend mode="normal" in2="shape" result="effect1_innerShadow_683_2947"/>
</filter>
<filter id="filter11_i_683_2947" x="15.3699" y="37.0564" width="2.13989" height="1.94727" filterUnits="userSpaceOnUse" color-interpolation-filters="sRGB">
<feFlood flood-opacity="0" result="BackgroundImageFix"/>
<feBlend mode="normal" in="SourceGraphic" in2="BackgroundImageFix" result="shape"/>
<feColorMatrix in="SourceAlpha" type="matrix" values="0 0 0 0 0 0 0 0 0 0 0 0 0 0 0 0 0 0 127 0" result="hardAlpha"/>
<feOffset/>
<feGaussianBlur stdDeviation="2"/>
<feComposite in2="hardAlpha" operator="arithmetic" k2="-1" k3="1"/>
<feColorMatrix type="matrix" values="0 0 0 0 0 0 0 0 0 0 0 0 0 0 0 0 0 0 0.4 0"/>
<feBlend mode="normal" in2="shape" result="effect1_innerShadow_683_2947"/>
</filter>
<filter id="filter12_i_683_2947" x="17.6851" y="37.2932" width="1.3374" height="1.62671" filterUnits="userSpaceOnUse" color-interpolation-filters="sRGB">
<feFlood flood-opacity="0" result="BackgroundImageFix"/>
<feBlend mode="normal" in="SourceGraphic" in2="BackgroundImageFix" result="shape"/>
<feColorMatrix in="SourceAlpha" type="matrix" values="0 0 0 0 0 0 0 0 0 0 0 0 0 0 0 0 0 0 127 0" result="hardAlpha"/>
<feOffset/>
<feGaussianBlur stdDeviation="2"/>
<feComposite in2="hardAlpha" operator="arithmetic" k2="-1" k3="1"/>
<feColorMatrix type="matrix" values="0 0 0 0 0 0 0 0 0 0 0 0 0 0 0 0 0 0 0.4 0"/>
<feBlend mode="normal" in2="shape" result="effect1_innerShadow_683_2947"/>
</filter>
<filter id="filter13_i_683_2947" x="14.3235" y="38.8801" width="3.11377" height="4.09204" filterUnits="userSpaceOnUse" color-interpolation-filters="sRGB">
<feFlood flood-opacity="0" result="BackgroundImageFix"/>
<feBlend mode="normal" in="SourceGraphic" in2="BackgroundImageFix" result="shape"/>
<feColorMatrix in="SourceAlpha" type="matrix" values="0 0 0 0 0 0 0 0 0 0 0 0 0 0 0 0 0 0 127 0" result="hardAlpha"/>
<feOffset/>
<feGaussianBlur stdDeviation="2"/>
<feComposite in2="hardAlpha" operator="arithmetic" k2="-1" k3="1"/>
<feColorMatrix type="matrix" values="0 0 0 0 0 0 0 0 0 0 0 0 0 0 0 0 0 0 0.4 0"/>
<feBlend mode="normal" in2="shape" result="effect1_innerShadow_683_2947"/>
</filter>
<filter id="filter14_i_683_2947" x="17.1587" y="40.9851" width="6.57715" height="5.76807" filterUnits="userSpaceOnUse" color-interpolation-filters="sRGB">
<feFlood flood-opacity="0" result="BackgroundImageFix"/>
<feBlend mode="normal" in="SourceGraphic" in2="BackgroundImageFix" result="shape"/>
<feColorMatrix in="SourceAlpha" type="matrix" values="0 0 0 0 0 0 0 0 0 0 0 0 0 0 0 0 0 0 127 0" result="hardAlpha"/>
<feOffset/>
<feGaussianBlur stdDeviation="2"/>
<feComposite in2="hardAlpha" operator="arithmetic" k2="-1" k3="1"/>
<feColorMatrix type="matrix" values="0 0 0 0 0 0 0 0 0 0 0 0 0 0 0 0 0 0 0.4 0"/>
<feBlend mode="normal" in2="shape" result="effect1_innerShadow_683_2947"/>
</filter>
<filter id="filter15_i_683_2947" x="16.1772" y="40.6538" width="8.18701" height="10.7319" filterUnits="userSpaceOnUse" color-interpolation-filters="sRGB">
<feFlood flood-opacity="0" result="BackgroundImageFix"/>
<feBlend mode="normal" in="SourceGraphic" in2="BackgroundImageFix" result="shape"/>
<feColorMatrix in="SourceAlpha" type="matrix" values="0 0 0 0 0 0 0 0 0 0 0 0 0 0 0 0 0 0 127 0" result="hardAlpha"/>
<feOffset dy="4"/>
<feGaussianBlur stdDeviation="2"/>
<feComposite in2="hardAlpha" operator="arithmetic" k2="-1" k3="1"/>
<feColorMatrix type="matrix" values="0 0 0 0 0 0 0 0 0 0 0 0 0 0 0 0 0 0 0.25 0"/>
<feBlend mode="normal" in2="shape" result="effect1_innerShadow_683_2947"/>
</filter>
<filter id="filter16_i_683_2947" x="17.5737" y="38.5811" width="5.07349" height="4.9375" filterUnits="userSpaceOnUse" color-interpolation-filters="sRGB">
<feFlood flood-opacity="0" result="BackgroundImageFix"/>
<feBlend mode="normal" in="SourceGraphic" in2="BackgroundImageFix" result="shape"/>
<feColorMatrix in="SourceAlpha" type="matrix" values="0 0 0 0 0 0 0 0 0 0 0 0 0 0 0 0 0 0 127 0" result="hardAlpha"/>
<feOffset/>
<feGaussianBlur stdDeviation="2"/>
<feComposite in2="hardAlpha" operator="arithmetic" k2="-1" k3="1"/>
<feColorMatrix type="matrix" values="0 0 0 0 0 0 0 0 0 0 0 0 0 0 0 0 0 0 0.4 0"/>
<feBlend mode="normal" in2="shape" result="effect1_innerShadow_683_2947"/>
</filter>
<filter id="filter17_i_683_2947" x="29.7373" y="46.8943" width="33.3965" height="18.1636" filterUnits="userSpaceOnUse" color-interpolation-filters="sRGB">
<feFlood flood-opacity="0" result="BackgroundImageFix"/>
<feBlend mode="normal" in="SourceGraphic" in2="BackgroundImageFix" result="shape"/>
<feColorMatrix in="SourceAlpha" type="matrix" values="0 0 0 0 0 0 0 0 0 0 0 0 0 0 0 0 0 0 127 0" result="hardAlpha"/>
<feOffset/>
<feGaussianBlur stdDeviation="11"/>
<feComposite in2="hardAlpha" operator="arithmetic" k2="-1" k3="1"/>
<feColorMatrix type="matrix" values="0 0 0 0 0 0 0 0 0 0 0 0 0 0 0 0 0 0 1 0"/>
<feBlend mode="normal" in2="shape" result="effect1_innerShadow_683_2947"/>
</filter>
<filter id="filter18_i_683_2947" x="29.2668" y="46.0957" width="34.228" height="19.3167" filterUnits="userSpaceOnUse" color-interpolation-filters="sRGB">
<feFlood flood-opacity="0" result="BackgroundImageFix"/>
<feBlend mode="normal" in="SourceGraphic" in2="BackgroundImageFix" result="shape"/>
<feColorMatrix in="SourceAlpha" type="matrix" values="0 0 0 0 0 0 0 0 0 0 0 0 0 0 0 0 0 0 127 0" result="hardAlpha"/>
<feOffset/>
<feGaussianBlur stdDeviation="12"/>
<feComposite in2="hardAlpha" operator="arithmetic" k2="-1" k3="1"/>
<feColorMatrix type="matrix" values="0 0 0 0 0 0 0 0 0 0 0 0 0 0 0 0 0 0 1 0"/>
<feBlend mode="normal" in2="shape" result="effect1_innerShadow_683_2947"/>
</filter>
<filter id="filter19_i_683_2947" x="24.6643" y="24.6484" width="33.5159" height="23.6113" filterUnits="userSpaceOnUse" color-interpolation-filters="sRGB">
<feFlood flood-opacity="0" result="BackgroundImageFix"/>
<feBlend mode="normal" in="SourceGraphic" in2="BackgroundImageFix" result="shape"/>
<feColorMatrix in="SourceAlpha" type="matrix" values="0 0 0 0 0 0 0 0 0 0 0 0 0 0 0 0 0 0 127 0" result="hardAlpha"/>
<feOffset/>
<feGaussianBlur stdDeviation="8"/>
<feComposite in2="hardAlpha" operator="arithmetic" k2="-1" k3="1"/>
<feColorMatrix type="matrix" values="0 0 0 0 0 0 0 0 0 0 0 0 0 0 0 0 0 0 1 0"/>
<feBlend mode="normal" in2="shape" result="effect1_innerShadow_683_2947"/>
</filter>
<filter id="filter20_i_683_2947" x="24.6643" y="24.6487" width="33.6292" height="23.6111" filterUnits="userSpaceOnUse" color-interpolation-filters="sRGB">
<feFlood flood-opacity="0" result="BackgroundImageFix"/>
<feBlend mode="normal" in="SourceGraphic" in2="BackgroundImageFix" result="shape"/>
<feColorMatrix in="SourceAlpha" type="matrix" values="0 0 0 0 0 0 0 0 0 0 0 0 0 0 0 0 0 0 127 0" result="hardAlpha"/>
<feOffset/>
<feGaussianBlur stdDeviation="15"/>
<feComposite in2="hardAlpha" operator="arithmetic" k2="-1" k3="1"/>
<feColorMatrix type="matrix" values="0 0 0 0 0 0 0 0 0 0 0 0 0 0 0 0 0 0 1 0"/>
<feBlend mode="normal" in2="shape" result="effect1_innerShadow_683_2947"/>
</filter>
<filter id="filter21_i_683_2947" x="31.3118" y="31.9968" width="19.501" height="14.6731" filterUnits="userSpaceOnUse" color-interpolation-filters="sRGB">
<feFlood flood-opacity="0" result="BackgroundImageFix"/>
<feBlend mode="normal" in="SourceGraphic" in2="BackgroundImageFix" result="shape"/>
<feColorMatrix in="SourceAlpha" type="matrix" values="0 0 0 0 0 0 0 0 0 0 0 0 0 0 0 0 0 0 127 0" result="hardAlpha"/>
<feOffset/>
<feGaussianBlur stdDeviation="10.5"/>
<feComposite in2="hardAlpha" operator="arithmetic" k2="-1" k3="1"/>
<feColorMatrix type="matrix" values="0 0 0 0 0 0 0 0 0 0 0 0 0 0 0 0 0 0 0.56 0"/>
<feBlend mode="normal" in2="shape" result="effect1_innerShadow_683_2947"/>
</filter>
<filter id="filter22_i_683_2947" x="30.76" y="31.4407" width="20.6072" height="15.7852" filterUnits="userSpaceOnUse" color-interpolation-filters="sRGB">
<feFlood flood-opacity="0" result="BackgroundImageFix"/>
<feBlend mode="normal" in="SourceGraphic" in2="BackgroundImageFix" result="shape"/>
<feColorMatrix in="SourceAlpha" type="matrix" values="0 0 0 0 0 0 0 0 0 0 0 0 0 0 0 0 0 0 127 0" result="hardAlpha"/>
<feOffset/>
<feGaussianBlur stdDeviation="4"/>
<feComposite in2="hardAlpha" operator="arithmetic" k2="-1" k3="1"/>
<feColorMatrix type="matrix" values="0 0 0 0 0 0 0 0 0 0 0 0 0 0 0 0 0 0 0.8 0"/>
<feBlend mode="normal" in2="shape" result="effect1_innerShadow_683_2947"/>
</filter>
<filter id="filter23_i_683_2947" x="19.1694" y="23.1292" width="11.4426" height="8.11694" filterUnits="userSpaceOnUse" color-interpolation-filters="sRGB">
<feFlood flood-opacity="0" result="BackgroundImageFix"/>
<feBlend mode="normal" in="SourceGraphic" in2="BackgroundImageFix" result="shape"/>
<feColorMatrix in="SourceAlpha" type="matrix" values="0 0 0 0 0 0 0 0 0 0 0 0 0 0 0 0 0 0 127 0" result="hardAlpha"/>
<feOffset/>
<feGaussianBlur stdDeviation="2"/>
<feComposite in2="hardAlpha" operator="arithmetic" k2="-1" k3="1"/>
<feColorMatrix type="matrix" values="0 0 0 0 0 0 0 0 0 0 0 0 0 0 0 0 0 0 0.4 0"/>
<feBlend mode="normal" in2="shape" result="effect1_innerShadow_683_2947"/>
</filter>
</defs>
</svg>
