<svg width="500" height="437" viewBox="0 0 500 437" fill="none" xmlns="http://www.w3.org/2000/svg">
<g filter="url(#filter0_f_683_2947)">
<path d="M250.351 251.865H250.405C269.989 251.865 285.864 235.975 285.864 216.373C285.864 213.271 285.467 210.262 284.72 207.394C284.712 207.385 284.705 207.377 284.698 207.368L284.077 205.469C284.077 205.469 283.189 202.989 282.45 201.473C281.577 199.68 281.008 198.7 279.856 197.065C278.874 195.673 278.259 194.93 277.097 193.679C275.73 192.208 274.799 191.435 273.352 190.233L273.352 190.232C273.222 190.125 273.088 190.013 272.949 189.898C272.807 189.78 272.674 189.669 272.547 189.562L272.543 189.559C271.702 188.856 271.121 188.371 270.117 187.676C269.612 187.327 268.801 186.816 268.801 186.816C268.704 186.762 268.494 186.68 268.436 186.78L268.966 187.425C268.966 187.425 269.529 188.098 269.879 188.536C270.49 189.299 270.826 189.733 271.396 190.525C272.046 191.429 272.41 191.939 272.986 192.89C273.699 194.069 274.083 194.747 274.63 196.008C275.072 197.026 275.278 197.617 275.598 198.678C275.983 199.951 276.183 200.678 276.366 201.993C276.513 203.049 276.529 203.651 276.549 204.716C276.55 204.791 276.551 204.863 276.553 204.933L276.553 204.938C276.57 205.827 276.581 206.393 276.476 207.333C276.37 208.274 276.256 208.798 276.019 209.716C275.755 210.737 275.556 211.299 275.16 212.278C274.605 213.651 274.239 214.411 273.442 215.665C272.776 216.714 272.362 217.286 271.524 218.209C270.745 219.067 270.275 219.53 269.35 220.234C268.538 220.851 268.057 221.181 267.139 221.632C266.345 222.021 265.884 222.243 265.019 222.438C263.94 222.681 263.281 222.732 262.187 222.563C260.714 222.335 259.88 221.917 258.715 221.004C257.701 220.21 257.268 219.578 256.614 218.478C255.89 217.26 255.654 216.466 255.335 215.091C254.951 213.436 254.983 212.451 255.043 210.755C255.105 208.99 255.255 207.991 255.682 206.275C256.056 204.775 256.28 203.914 256.98 202.53C257.916 200.68 258.63 199.666 260.195 198.284C261.26 197.344 263.228 196.259 263.228 196.259L264.069 195.919L259.94 191.313C259.94 191.313 258.751 192.028 258.021 192.532C257.92 192.602 257.826 192.666 257.738 192.726L257.737 192.726C257.349 192.99 257.062 193.187 256.651 193.535C256.211 193.909 255.954 194.183 255.617 194.544C255.53 194.637 255.437 194.736 255.335 194.843C255.147 195.041 254.986 195.222 254.836 195.392C254.694 195.552 254.56 195.702 254.421 195.847C254.135 196.145 253.599 196.958 253.599 196.958C253.618 196.695 253.64 196.411 253.672 196.062C253.682 195.96 253.69 195.87 253.697 195.785C253.718 195.536 253.735 195.336 253.782 195.041C253.886 194.389 254.001 194.016 254.186 193.414C254.197 193.378 254.209 193.341 254.22 193.302C254.428 192.626 254.565 192.252 254.842 191.6C255.062 191.08 255.22 190.769 255.453 190.312C255.466 190.287 255.479 190.262 255.492 190.236C255.512 190.196 255.533 190.155 255.554 190.113C255.591 190.04 255.626 189.971 255.659 189.907C255.845 189.538 255.976 189.278 256.212 188.877C256.409 188.542 256.59 188.261 256.742 188.034L250.378 180.892L244.014 188.035C244.166 188.262 244.347 188.542 244.544 188.877C244.78 189.278 244.911 189.538 245.097 189.907C245.13 189.972 245.164 190.04 245.202 190.113C245.237 190.183 245.271 190.249 245.303 190.312C245.536 190.769 245.694 191.08 245.914 191.6C246.19 192.252 246.328 192.627 246.535 193.303C246.547 193.341 246.559 193.378 246.57 193.414C246.755 194.016 246.87 194.389 246.974 195.041C247.021 195.336 247.038 195.537 247.059 195.785L247.059 195.786C247.066 195.87 247.074 195.961 247.084 196.062C247.116 196.412 247.138 196.695 247.157 196.958C247.157 196.958 246.621 196.146 246.334 195.847C246.195 195.702 246.062 195.552 245.92 195.392C245.769 195.222 245.609 195.041 245.421 194.844C245.319 194.736 245.226 194.637 245.139 194.544C244.802 194.183 244.545 193.909 244.105 193.536C243.694 193.187 243.406 192.991 243.019 192.726L243.018 192.726C242.93 192.666 242.836 192.602 242.735 192.532C242.005 192.029 240.816 191.314 240.816 191.314L236.687 195.919L237.527 196.259C237.527 196.259 239.495 197.344 240.561 198.284C242.126 199.666 242.84 200.68 243.776 202.531C244.476 203.914 244.7 204.775 245.074 206.276C245.501 207.992 245.651 208.99 245.713 210.755C245.773 212.451 245.805 213.437 245.421 215.091C245.102 216.467 244.866 217.26 244.142 218.478C243.488 219.578 243.055 220.21 242.041 221.004C240.876 221.917 240.042 222.336 238.569 222.563C237.475 222.732 236.816 222.681 235.737 222.438C234.871 222.243 234.411 222.021 233.617 221.632C232.699 221.181 232.218 220.852 231.406 220.234C230.481 219.53 230.011 219.067 229.232 218.209C228.394 217.286 227.98 216.714 227.314 215.665C226.517 214.411 226.151 213.651 225.596 212.278C225.2 211.299 225.001 210.737 224.737 209.716C224.5 208.798 224.386 208.274 224.28 207.333C224.175 206.393 224.186 205.827 224.203 204.938L224.203 204.932C224.205 204.862 224.206 204.791 224.207 204.717C224.227 203.651 224.243 203.049 224.39 201.993C224.573 200.678 224.773 199.951 225.157 198.678C225.478 197.617 225.684 197.027 226.126 196.008C226.673 194.747 227.057 194.069 227.77 192.89C228.346 191.939 228.71 191.429 229.36 190.525C229.93 189.733 230.266 189.299 230.877 188.536C231.227 188.098 231.79 187.425 231.79 187.425L232.32 186.78C232.262 186.68 232.052 186.762 231.955 186.816C231.955 186.816 231.144 187.327 230.639 187.676C229.635 188.371 229.054 188.856 228.213 189.559C228.084 189.667 227.95 189.779 227.807 189.898C227.669 190.013 227.535 190.124 227.406 190.232L227.404 190.233C225.957 191.435 225.026 192.208 223.659 193.679C222.497 194.93 221.882 195.673 220.9 197.065C219.748 198.7 219.179 199.68 218.306 201.473C217.567 202.989 216.679 205.469 216.679 205.469L216.058 207.369C216.051 207.377 216.044 207.385 216.036 207.394C215.289 210.262 214.892 213.271 214.892 216.373C214.892 235.975 230.767 251.865 250.351 251.865Z" fill="#363636"/>
</g>
<g filter="url(#filter1_d_683_2947)">
<g filter="url(#filter2_i_683_2947)">
<path d="M220.091 209.829L220.96 211.482L224.286 212.946L224.072 211.384L220.091 209.829Z" fill="white"/>
<path d="M254.002 199.488L252.293 196.153C252.293 196.153 246.405 192.73 235.274 197.828C227.268 201.495 224.072 211.384 224.072 211.384C224.072 211.384 226.539 209.029 230.072 210.494C234.466 212.315 234.41 213.319 234.41 213.319C234.41 213.319 233.761 218.53 233.933 221.871C234.165 226.393 235.508 228.394 235.508 228.394L236.651 228.458L237.415 231.346L238.292 236.954L240.883 241.082C240.883 241.082 244.355 244.428 250.753 244.304C257.151 244.18 261.447 242.232 261.447 242.232L263.914 240.662L265.505 235.061L270.282 233.183L272.005 230.741C272.005 230.741 275.235 221.042 271.043 212.434C266.06 202.202 254.002 199.488 254.002 199.488Z" fill="white"/>
</g>
<g filter="url(#filter3_i_683_2947)">
<path fill-rule="evenodd" clip-rule="evenodd" d="M247.934 195.395C245.127 195.18 240.926 195.588 235.406 198.116C231.484 199.913 228.724 203.242 226.94 206.147C226.05 207.597 225.407 208.933 224.987 209.907C224.888 210.135 224.802 210.344 224.728 210.528C224.98 210.381 225.284 210.228 225.634 210.094C226.753 209.666 228.338 209.433 230.193 210.202C232.404 211.118 233.526 211.841 234.099 212.354C234.388 212.611 234.545 212.823 234.631 212.988C234.674 213.071 234.699 213.143 234.712 213.202C234.719 213.232 234.723 213.258 234.725 213.281C234.726 213.292 234.726 213.302 234.726 213.312C234.726 213.316 234.726 213.321 234.726 213.325L234.726 213.331L234.726 213.334L234.726 213.335C234.726 213.336 234.726 213.337 234.41 213.319L234.726 213.337L234.725 213.347L234.724 213.358L234.681 213.353C234.724 213.358 234.724 213.358 234.724 213.358L234.722 213.373L234.717 213.416C234.712 213.455 234.705 213.512 234.697 213.586C234.679 213.734 234.655 213.95 234.626 214.219C234.568 214.758 234.492 215.511 234.422 216.368C234.282 218.086 234.164 220.207 234.249 221.855C234.363 224.087 234.752 225.689 235.107 226.726C235.285 227.245 235.454 227.623 235.577 227.869C235.623 227.96 235.662 228.033 235.693 228.088L236.898 228.155L237.725 231.281L238.595 236.841L241.129 240.879C241.131 240.881 241.133 240.883 241.136 240.885C241.16 240.908 241.198 240.941 241.249 240.985C241.351 241.071 241.506 241.197 241.712 241.348C242.125 241.65 242.743 242.054 243.558 242.456C245.188 243.258 247.606 244.049 250.747 243.988C253.915 243.927 256.563 243.413 258.417 242.916C259.344 242.667 260.072 242.423 260.567 242.241C260.814 242.151 261.003 242.075 261.129 242.023C261.193 241.997 261.24 241.977 261.272 241.964C261.282 241.959 261.29 241.955 261.297 241.952L263.643 240.46L265.244 234.824L270.079 232.924L271.719 230.598C271.724 230.582 271.731 230.561 271.739 230.537C271.76 230.466 271.792 230.36 271.832 230.221C271.911 229.944 272.019 229.537 272.136 229.021C272.371 227.989 272.641 226.523 272.781 224.79C273.062 221.321 272.821 216.808 270.759 212.573C268.307 207.538 264.109 204.343 260.505 202.403C258.704 201.434 257.058 200.781 255.862 200.371C255.265 200.167 254.78 200.022 254.446 199.93C254.279 199.883 254.15 199.85 254.063 199.828C254.019 199.817 253.986 199.809 253.965 199.804C253.954 199.802 253.946 199.8 253.94 199.798L253.935 199.797L253.934 199.797L253.789 199.764L252.057 196.386C252.017 196.365 251.96 196.337 251.887 196.304C251.714 196.225 251.452 196.115 251.1 195.999C250.397 195.765 249.338 195.502 247.934 195.395ZM252.294 196.154L252.452 195.88L252.532 195.927L254.218 199.215C254.31 199.238 254.444 199.272 254.615 199.32C254.96 199.416 255.456 199.564 256.067 199.773C257.288 200.192 258.967 200.857 260.804 201.846C264.474 203.821 268.796 207.099 271.327 212.296C273.457 216.669 273.697 221.309 273.411 224.841C273.268 226.61 272.992 228.106 272.752 229.161C272.632 229.689 272.521 230.107 272.44 230.394C272.399 230.538 272.366 230.648 272.342 230.724C272.331 230.761 272.321 230.79 272.315 230.81C272.312 230.82 272.309 230.827 272.308 230.833L272.306 230.839L272.305 230.841C272.305 230.841 272.305 230.841 272.005 230.741L272.305 230.841L272.29 230.886L270.486 233.443L265.766 235.299L264.185 240.865L261.597 242.511L261.577 242.52L261.447 242.232C261.577 242.52 261.577 242.52 261.577 242.52L261.577 242.52L261.573 242.522L261.562 242.527C261.553 242.531 261.54 242.537 261.522 242.544C261.488 242.559 261.437 242.581 261.37 242.608C261.236 242.663 261.04 242.742 260.784 242.835C260.274 243.023 259.528 243.273 258.581 243.527C256.687 244.035 253.988 244.558 250.759 244.62C247.502 244.683 244.985 243.863 243.279 243.023C242.427 242.604 241.777 242.179 241.339 241.858C241.12 241.698 240.953 241.563 240.84 241.467C240.784 241.419 240.741 241.381 240.712 241.354C240.697 241.341 240.685 241.33 240.678 241.323L240.668 241.314L240.665 241.312L240.664 241.31C240.664 241.31 240.664 241.31 240.883 241.082L240.664 241.31L240.636 241.283L237.99 237.067L237.106 231.411L236.404 228.761L235.334 228.701L235.246 228.571L235.508 228.394C235.246 228.571 235.246 228.57 235.246 228.57L235.246 228.57L235.245 228.569L235.244 228.567L235.24 228.561C235.236 228.555 235.232 228.548 235.226 228.539C235.214 228.52 235.198 228.494 235.178 228.459C235.137 228.39 235.08 228.288 235.013 228.153C234.877 227.882 234.696 227.478 234.509 226.931C234.135 225.838 233.735 224.178 233.617 221.888C233.53 220.195 233.651 218.04 233.792 216.317C233.863 215.453 233.939 214.695 233.997 214.152C234.027 213.88 234.051 213.663 234.069 213.513C234.078 213.438 234.085 213.38 234.089 213.34L234.091 213.327C234.087 213.316 234.081 213.3 234.07 213.279C234.028 213.199 233.926 213.046 233.678 212.825C233.181 212.381 232.134 211.691 229.951 210.786C228.273 210.09 226.858 210.303 225.86 210.685C225.359 210.877 224.962 211.113 224.692 211.299C224.571 211.383 224.476 211.456 224.408 211.511L224.676 213.464L220.732 211.728L219.408 209.562C219.408 209.562 219.29 209.419 219.294 209.3C219.298 209.175 219.536 208.896 219.536 208.896L223.882 210.97C223.896 210.931 223.912 210.888 223.929 210.842C224.034 210.56 224.192 210.154 224.406 209.656C224.836 208.661 225.492 207.297 226.402 205.816C228.217 202.859 231.059 199.411 235.143 197.541C240.754 194.971 245.062 194.541 247.982 194.764C249.441 194.875 250.55 195.149 251.299 195.398C251.673 195.523 251.958 195.641 252.15 195.729C252.246 195.773 252.32 195.809 252.37 195.836C252.395 195.849 252.415 195.859 252.429 195.867C252.435 195.871 252.441 195.874 252.445 195.876L252.45 195.878L252.451 195.879L252.452 195.88C252.452 195.88 252.452 195.88 252.294 196.154ZM223.784 211.611L220.765 210.432L221.188 211.238L223.897 212.429L223.784 211.611Z" fill="black"/>
</g>
<path fill-rule="evenodd" clip-rule="evenodd" d="M247.968 194.999C245.158 194.784 240.954 195.197 235.432 197.748C231.504 199.563 228.741 202.924 226.954 205.854C226.063 207.316 225.419 208.665 224.998 209.647C224.886 209.908 224.79 210.143 224.709 210.348C224.973 210.188 225.298 210.02 225.676 209.873C226.79 209.443 228.369 209.208 230.216 209.979C232.425 210.901 233.543 211.628 234.113 212.141C234.399 212.399 234.554 212.61 234.638 212.773C234.68 212.854 234.704 212.924 234.717 212.981C234.723 213.01 234.727 213.035 234.728 213.056C234.729 213.067 234.73 213.076 234.73 213.085C234.73 213.09 234.73 213.094 234.73 213.098C234.73 213.099 234.73 213.101 234.73 213.103L234.73 213.106L234.729 213.107C234.729 213.108 234.729 213.108 234.439 213.092C234.728 213.128 234.728 213.128 234.728 213.128L234.726 213.143C234.725 213.152 234.723 213.167 234.72 213.187C234.716 213.226 234.709 213.283 234.7 213.358C234.683 213.507 234.658 213.725 234.629 213.996C234.571 214.539 234.495 215.298 234.425 216.162C234.283 217.893 234.165 220.032 234.249 221.695C234.363 223.946 234.75 225.562 235.106 226.61C235.284 227.134 235.454 227.516 235.577 227.765C235.626 227.864 235.668 227.941 235.701 227.999L236.9 228.066L237.72 231.194L238.588 236.8L241.124 240.876C241.127 240.878 241.13 240.881 241.134 240.885C241.158 240.907 241.196 240.941 241.248 240.985C241.35 241.073 241.505 241.2 241.712 241.352C242.125 241.657 242.744 242.065 243.56 242.47C245.192 243.279 247.612 244.075 250.756 244.013C253.926 243.949 256.574 243.431 258.429 242.929C259.357 242.678 260.085 242.431 260.58 242.247C260.828 242.155 261.017 242.08 261.144 242.027C261.207 242.001 261.255 241.98 261.286 241.966C261.298 241.962 261.307 241.957 261.314 241.954L263.67 240.443L265.272 234.767L270.1 232.852L271.749 230.498C271.754 230.481 271.761 230.459 271.769 230.431C271.791 230.36 271.823 230.253 271.863 230.113C271.942 229.833 272.05 229.423 272.168 228.902C272.403 227.861 272.674 226.382 272.815 224.635C273.098 221.137 272.859 216.583 270.797 212.311C268.344 207.232 264.144 204.011 260.54 202.057C258.739 201.081 257.092 200.424 255.896 200.011C255.299 199.804 254.814 199.659 254.48 199.566C254.313 199.519 254.183 199.486 254.096 199.464C254.052 199.453 254.019 199.445 253.998 199.439C253.992 199.438 253.987 199.437 253.982 199.436C253.979 199.435 253.976 199.434 253.973 199.434L253.967 199.432L253.966 199.432L253.833 199.402L252.105 196.002C252.064 195.981 252.004 195.951 251.927 195.915C251.753 195.835 251.49 195.725 251.138 195.607C250.433 195.371 249.373 195.106 247.968 194.999ZM252.323 195.789L252.47 195.538L252.543 195.581L254.228 198.897C254.231 198.898 254.234 198.899 254.238 198.9C254.329 198.923 254.464 198.958 254.636 199.006C254.98 199.102 255.476 199.25 256.086 199.461C257.305 199.882 258.982 200.551 260.816 201.546C264.482 203.533 268.796 206.83 271.32 212.058C273.444 216.457 273.682 221.126 273.394 224.682C273.251 226.462 272.975 227.968 272.735 229.03C272.615 229.562 272.503 229.982 272.422 230.271C272.381 230.415 272.348 230.527 272.325 230.602C272.313 230.64 272.304 230.669 272.298 230.689C272.294 230.699 272.292 230.706 272.29 230.712L272.288 230.718L272.288 230.719L272.288 230.72C272.288 230.72 272.287 230.72 272.012 230.629L272.287 230.72L272.274 230.761L270.476 233.329L265.753 235.202L264.169 240.814L261.592 242.467L261.573 242.475L261.463 242.233C261.531 242.384 261.557 242.441 261.567 242.462C261.573 242.475 261.573 242.475 261.573 242.475L261.572 242.476L261.569 242.477C261.566 242.478 261.563 242.48 261.558 242.482C261.549 242.486 261.536 242.492 261.519 242.499C261.484 242.515 261.433 242.536 261.367 242.564C261.233 242.619 261.037 242.698 260.782 242.793C260.272 242.982 259.527 243.234 258.581 243.49C256.69 244.002 253.993 244.53 250.767 244.594C247.516 244.659 245.004 243.835 243.302 242.991C242.452 242.569 241.804 242.143 241.367 241.82C241.148 241.659 240.982 241.523 240.87 241.427C240.814 241.379 240.771 241.341 240.742 241.314C240.727 241.301 240.716 241.29 240.708 241.283C240.704 241.279 240.701 241.276 240.699 241.274L240.696 241.272L240.696 241.271L240.695 241.271C240.695 241.271 240.695 241.27 240.897 241.062L240.695 241.27L240.67 241.246L238.032 237.007L237.151 231.313L236.445 228.623L235.369 228.563L235.289 228.442L235.53 228.28C235.289 228.442 235.289 228.441 235.289 228.441L235.288 228.441L235.288 228.44L235.287 228.438C235.285 228.437 235.284 228.435 235.282 228.432C235.28 228.429 235.278 228.425 235.275 228.421C235.273 228.418 235.271 228.414 235.269 228.41C235.257 228.392 235.241 228.366 235.221 228.331C235.181 228.262 235.125 228.16 235.057 228.024C234.922 227.752 234.742 227.346 234.556 226.797C234.183 225.698 233.785 224.029 233.668 221.724C233.582 220.021 233.704 217.851 233.846 216.115C233.917 215.245 233.993 214.481 234.051 213.934C234.081 213.661 234.106 213.442 234.123 213.291C234.132 213.215 234.139 213.157 234.144 213.117C234.145 213.11 234.145 213.103 234.146 213.096C234.142 213.085 234.135 213.065 234.121 213.038C234.078 212.954 233.973 212.798 233.724 212.574C233.225 212.123 232.175 211.427 229.992 210.516C228.308 209.813 226.888 210.028 225.886 210.416C225.382 210.61 224.984 210.849 224.713 211.038C224.585 211.127 224.487 211.204 224.418 211.26L224.652 213.438L220.797 211.545L219.558 209.144L223.93 210.766C223.947 210.719 223.966 210.668 223.987 210.611C224.091 210.327 224.249 209.919 224.464 209.418C224.893 208.416 225.55 207.042 226.458 205.551C228.273 202.574 231.112 199.104 235.188 197.22C240.794 194.63 245.097 194.196 248.012 194.419C249.468 194.53 250.575 194.806 251.322 195.055C251.695 195.18 251.978 195.299 252.17 195.387C252.266 195.431 252.339 195.468 252.389 195.494C252.414 195.507 252.433 195.518 252.447 195.525C252.453 195.529 252.459 195.532 252.463 195.534L252.467 195.537L252.469 195.538L252.469 195.538C252.469 195.538 252.47 195.538 252.323 195.789ZM223.845 211.357L220.732 210.133L221.227 211.11L224.027 212.502L223.845 211.357ZM234.439 213.092L234.728 213.128L234.729 213.118L234.729 213.108L234.439 213.092Z" fill="black"/>
<path d="M224.669 213.436C224.669 213.436 225.411 212.829 225.998 212.753C226.584 212.677 227.145 212.729 227.66 212.978C229.719 213.975 232.764 215.469 232.734 215.996C232.705 216.524 225.814 224.558 225.774 226.605C225.765 227.036 225.92 227.357 226.288 227.582C226.972 227.999 229.167 228.565 229.167 228.565L229.991 231.66L231.048 231.773L231.539 232.122L232.129 232.418L232.165 233.297L230.009 238.777L235.65 241.915C235.65 241.915 242.352 244.784 246.917 245.28C251.042 245.727 253.598 246.023 257.525 244.682C259.822 243.897 263.018 241.77 263.018 241.77L265.235 240.078L263.921 240.585C263.921 240.585 262.389 241.75 261.273 242.245C259.421 243.068 254.474 244.511 250.014 244.262C244.392 243.948 241.567 241.673 241.026 241.113C240.484 240.554 238.27 236.814 238.27 236.814L236.713 228.391L235.571 228.327C235.571 228.327 233.946 224.153 233.892 221.309C233.825 217.777 234.48 213.139 234.48 213.139C234.48 213.139 235.356 212.438 229.581 210.131C226.517 208.906 224.195 211.109 224.195 211.109L224.669 213.436Z" fill="black"/>
<path d="M222.836 204.581L226.268 206.205C226.268 206.205 225.459 207.659 224.997 208.62C224.554 209.543 223.945 211.021 223.945 211.021L219.735 209.116C219.735 209.116 220.582 207.631 221.201 206.729C221.798 205.86 222.836 204.581 222.836 204.581Z" fill="black"/>
<g filter="url(#filter4_i_683_2947)">
<path d="M229.881 239.623C229.577 239.665 229.388 239.008 229.388 239.008L228.747 232.634C228.747 232.634 228.674 231.874 228.981 231.59C229.351 231.249 230.27 231.604 230.27 231.604L236.884 234.967C236.884 234.967 238.159 235.582 238.273 236.336C238.347 236.819 238.108 237.082 237.971 237.551C237.68 238.545 237.064 240.142 237.064 240.142C237.064 240.142 235.635 240.531 234.758 240.482C234.686 240.478 234.63 240.472 234.586 240.414C234.531 240.341 234.552 240.259 234.599 240.18C235.246 239.101 236.428 237.876 236.458 237.349C236.471 237.112 232.643 235.317 232.643 235.317C232.643 235.317 231.966 235.005 231.708 235.264C231.527 235.446 231.612 235.83 231.545 236.077C231.343 236.817 230.866 237.741 230.866 237.741L230.265 239.057C230.265 239.057 230.145 239.586 229.881 239.623Z" fill="#CFCFCF"/>
</g>
<g filter="url(#filter5_i_683_2947)">
<path fill-rule="evenodd" clip-rule="evenodd" d="M229.373 231.763C229.272 231.774 229.22 231.801 229.196 231.823C229.174 231.844 229.144 231.888 229.116 231.972C229.09 232.052 229.074 232.148 229.065 232.247C229.056 232.344 229.055 232.435 229.057 232.502C229.058 232.536 229.06 232.563 229.061 232.58C229.061 232.589 229.062 232.596 229.062 232.6L229.062 232.604C229.062 232.604 229.062 232.604 229.062 232.604C229.062 232.604 229.062 232.604 229.062 232.604C229.062 232.604 229.062 232.604 229.062 232.604C229.062 232.604 229.062 232.604 229.062 232.604L229.7 238.945C229.705 238.959 229.711 238.978 229.72 239.001C229.739 239.053 229.766 239.12 229.8 239.182C229.817 239.215 229.834 239.242 229.85 239.264C229.861 239.244 229.874 239.221 229.886 239.195C229.91 239.143 229.928 239.09 229.941 239.048C229.947 239.028 229.951 239.012 229.954 239.001C229.956 238.995 229.957 238.991 229.957 238.989L229.957 238.988L229.957 238.988L229.958 238.987L229.958 238.987L229.965 238.956L230.583 237.603L230.586 237.596L230.587 237.594L230.591 237.587C230.594 237.58 230.599 237.571 230.606 237.558C230.618 237.532 230.637 237.494 230.661 237.446C230.707 237.351 230.772 237.215 230.842 237.058C230.985 236.739 231.147 236.34 231.241 235.994C231.249 235.965 231.255 235.921 231.259 235.853C231.261 235.822 231.262 235.79 231.263 235.755L231.264 235.747C231.265 235.71 231.267 235.668 231.269 235.626C231.279 235.48 231.303 235.224 231.485 235.041C231.623 234.902 231.799 234.858 231.941 234.848C232.084 234.838 232.226 234.859 232.343 234.885C232.461 234.912 232.568 234.947 232.644 234.976C232.683 234.99 232.714 235.003 232.737 235.012C232.748 235.017 232.757 235.021 232.764 235.024L232.772 235.028L232.774 235.029L232.775 235.029L232.775 235.029C232.776 235.029 232.776 235.029 232.644 235.317L232.776 235.029L232.778 235.03L232.648 235.307C232.778 235.03 232.778 235.03 232.778 235.03L232.821 235.051C232.85 235.064 232.891 235.084 232.943 235.109C233.048 235.158 233.198 235.23 233.378 235.316C233.738 235.488 234.218 235.721 234.698 235.961C235.176 236.201 235.659 236.451 236.023 236.656C236.204 236.758 236.363 236.854 236.479 236.934C236.535 236.973 236.592 237.016 236.637 237.059C236.659 237.08 236.687 237.111 236.712 237.148C236.732 237.179 236.78 237.258 236.774 237.367C236.762 237.585 236.642 237.821 236.517 238.027C236.383 238.247 236.204 238.494 236.014 238.748C235.939 238.847 235.863 238.948 235.786 239.049C235.505 239.42 235.215 239.801 234.979 240.17C235.346 240.163 235.791 240.096 236.18 240.02C236.408 239.976 236.609 239.93 236.754 239.895C236.781 239.888 236.806 239.882 236.828 239.876C236.841 239.844 236.855 239.807 236.87 239.765C236.932 239.601 237.018 239.371 237.113 239.111C237.303 238.588 237.526 237.949 237.668 237.463C237.707 237.329 237.753 237.213 237.795 237.111C237.808 237.08 237.82 237.052 237.831 237.025C237.859 236.958 237.883 236.9 237.905 236.84C237.961 236.687 237.988 236.557 237.962 236.384C237.945 236.273 237.881 236.146 237.766 236.006C237.652 235.869 237.503 235.738 237.348 235.623C237.194 235.508 237.043 235.415 236.929 235.35C236.872 235.317 236.826 235.292 236.794 235.276C236.778 235.267 236.766 235.261 236.758 235.257L236.749 235.253L236.747 235.252L236.747 235.252L236.745 235.251L230.144 231.894C230.14 231.893 230.134 231.891 230.127 231.888C230.104 231.88 230.071 231.869 230.03 231.857C229.947 231.831 229.834 231.801 229.713 231.781C229.591 231.761 229.472 231.753 229.373 231.763ZM230.271 231.604L230.385 231.309L230.4 231.315L237.026 234.684L237.028 234.685L237.04 234.691C237.051 234.697 237.067 234.704 237.086 234.714C237.124 234.734 237.178 234.763 237.243 234.8C237.371 234.874 237.546 234.982 237.725 235.115C237.903 235.248 238.095 235.413 238.252 235.602C238.408 235.79 238.546 236.022 238.587 236.288C238.634 236.599 238.578 236.841 238.499 237.058C238.471 237.133 238.439 237.21 238.409 237.282C238.399 237.306 238.389 237.33 238.379 237.352C238.34 237.447 238.305 237.539 238.275 237.64C238.127 238.147 237.897 238.803 237.706 239.327C237.611 239.591 237.524 239.823 237.462 239.989C237.43 240.072 237.405 240.138 237.387 240.184L237.367 240.237L237.36 240.256L237.36 240.256C237.36 240.256 237.36 240.256 237.065 240.142C237.148 240.447 237.148 240.447 237.148 240.447L237.147 240.448L237.143 240.449L237.13 240.452C237.119 240.455 237.102 240.459 237.081 240.465C237.039 240.476 236.978 240.491 236.902 240.51C236.751 240.546 236.541 240.594 236.302 240.641C235.832 240.733 235.222 240.825 234.742 240.798C234.74 240.798 234.738 240.798 234.737 240.798C234.661 240.794 234.472 240.784 234.336 240.606C234.157 240.372 234.264 240.127 234.329 240.018C234.601 239.563 234.966 239.084 235.292 238.654C235.366 238.556 235.439 238.46 235.508 238.368C235.698 238.115 235.86 237.889 235.977 237.698C236.042 237.591 236.084 237.508 236.109 237.447C236.018 237.385 235.883 237.303 235.713 237.207C235.363 237.01 234.891 236.766 234.415 236.527C233.939 236.289 233.463 236.058 233.105 235.886C232.926 235.801 232.777 235.73 232.673 235.68C232.621 235.656 232.58 235.636 232.552 235.623L232.512 235.604L232.508 235.603C232.505 235.601 232.499 235.599 232.492 235.596C232.476 235.589 232.453 235.58 232.424 235.569C232.365 235.547 232.286 235.521 232.204 235.502C232.118 235.483 232.043 235.475 231.987 235.479C231.953 235.481 231.937 235.487 231.931 235.49C231.927 235.498 231.909 235.537 231.9 235.667C231.898 235.7 231.897 235.734 231.895 235.772L231.895 235.78C231.893 235.815 231.892 235.853 231.89 235.89C231.885 235.969 231.877 236.066 231.851 236.16C231.743 236.554 231.566 236.988 231.419 237.316C231.345 237.482 231.278 237.623 231.228 237.724C231.204 237.775 231.184 237.815 231.17 237.842C231.163 237.856 231.157 237.867 231.154 237.875L231.151 237.879L230.565 239.162C230.561 239.18 230.554 239.205 230.545 239.233C230.527 239.292 230.499 239.374 230.46 239.459C230.422 239.542 230.367 239.642 230.29 239.729C230.215 239.815 230.094 239.913 229.925 239.936C229.721 239.964 229.562 239.869 229.463 239.778C229.365 239.688 229.293 239.574 229.243 239.481C229.191 239.385 229.152 239.289 229.127 239.22C229.114 239.185 229.104 239.155 229.097 239.134C229.093 239.123 229.091 239.114 229.089 239.108L229.086 239.1L229.086 239.098L229.085 239.097L229.085 239.096C229.085 239.096 229.085 239.096 229.389 239.009L229.085 239.096L229.077 239.069L228.433 232.664L228.747 232.634C228.433 232.664 228.433 232.664 228.433 232.664L228.433 232.663L228.433 232.662L228.433 232.66L228.432 232.651C228.432 232.644 228.431 232.634 228.43 232.621C228.428 232.596 228.427 232.562 228.425 232.519C228.423 232.435 228.424 232.318 228.435 232.19C228.447 232.063 228.469 231.916 228.516 231.775C228.561 231.636 228.637 231.479 228.768 231.358C228.929 231.21 229.131 231.153 229.306 231.134C229.483 231.115 229.664 231.132 229.817 231.157C229.973 231.183 230.113 231.221 230.214 231.251C230.264 231.267 230.306 231.281 230.335 231.291C230.35 231.296 230.362 231.3 230.37 231.303L230.38 231.307L230.383 231.308L230.384 231.309L230.385 231.309C230.385 231.309 230.385 231.309 230.271 231.604ZM231.929 235.491C231.929 235.491 231.929 235.491 231.929 235.491L231.929 235.491ZM237.065 240.142L237.148 240.447L237.302 240.405L237.36 240.256L237.065 240.142Z" fill="black"/>
</g>
<g filter="url(#filter6_i_683_2947)">
<path fill-rule="evenodd" clip-rule="evenodd" d="M275.65 236.732C278.264 232.697 279.88 228.005 280.163 222.948C281.071 206.692 267.862 192.657 250.556 191.691C244.226 191.337 238.246 192.782 233.162 195.552C224.379 200.847 219.903 209.105 219.903 209.105L224.24 211.067C224.24 211.067 226.769 202.846 233.566 198.579C242.919 192.707 252.435 195.752 252.435 195.752L254.182 199.158C254.182 199.158 266.451 202.658 270.902 211.956C275.292 221.126 272.251 230.027 271.92 230.801C271.757 231.183 269.987 233.718 269.327 233.876C267.934 234.207 265.57 235.008 265.57 235.008C265.57 235.008 265.411 235.081 265.343 235.168C265.269 235.262 265.225 235.464 265.225 235.464L263.887 240.658C263.887 240.658 265.273 239.857 266.11 239.398C267.748 238.497 268.784 238.198 270.587 237.704C272.465 237.19 275.5 236.867 275.5 236.867C275.5 236.867 275.554 236.823 275.65 236.732Z" fill="#2456B6"/>
</g>
<path d="M275.65 236.732L275.994 237.094L276.037 237.053L276.069 237.004L275.65 236.732ZM233.162 195.552L232.923 195.113L232.914 195.118L232.904 195.124L233.162 195.552ZM219.903 209.105L219.464 208.867L219.208 209.339L219.697 209.56L219.903 209.105ZM224.24 211.067L224.034 211.523L224.551 211.757L224.718 211.214L224.24 211.067ZM233.566 198.579L233.301 198.155L233.566 198.579ZM252.435 195.752L252.88 195.524L252.785 195.34L252.588 195.276L252.435 195.752ZM254.182 199.158L253.737 199.386L253.836 199.579L254.045 199.639L254.182 199.158ZM270.902 211.956L271.353 211.74L270.902 211.956ZM271.92 230.801L272.38 230.998L272.38 230.998L271.92 230.801ZM269.327 233.876L269.443 234.362L269.443 234.362L269.327 233.876ZM265.57 235.008L265.41 234.535L265.385 234.543L265.361 234.554L265.57 235.008ZM265.343 235.168L264.95 234.859L264.95 234.859L265.343 235.168ZM265.225 235.464L265.709 235.589L265.712 235.58L265.714 235.571L265.225 235.464ZM263.887 240.658L263.403 240.534L263.106 241.687L264.137 241.091L263.887 240.658ZM266.11 239.398L266.351 239.836L266.11 239.398ZM270.587 237.704L270.455 237.222L270.587 237.704ZM275.5 236.867L275.553 237.364L275.701 237.348L275.817 237.254L275.5 236.867ZM279.664 222.92C279.386 227.887 277.799 232.495 275.23 236.46L276.069 237.004C278.729 232.899 280.374 228.123 280.662 222.976L279.664 222.92ZM250.528 192.19C267.585 193.143 280.555 206.966 279.664 222.92L280.662 222.976C281.587 206.419 268.139 192.172 250.583 191.191L250.528 192.19ZM233.402 195.991C238.404 193.265 244.292 191.842 250.528 192.19L250.583 191.191C244.16 190.833 238.087 192.299 232.923 195.113L233.402 195.991ZM232.904 195.124C228.449 197.81 225.092 201.243 222.851 203.999C221.73 205.378 220.886 206.59 220.321 207.459C220.038 207.894 219.825 208.244 219.682 208.485C219.611 208.606 219.557 208.7 219.52 208.765C219.502 208.797 219.488 208.822 219.479 208.839C219.474 208.848 219.471 208.854 219.468 208.859C219.467 208.861 219.466 208.863 219.465 208.864C219.465 208.865 219.464 208.865 219.464 208.866C219.464 208.866 219.464 208.866 219.464 208.866C219.464 208.867 219.464 208.867 219.903 209.105C220.343 209.343 220.343 209.343 220.343 209.343C220.343 209.343 220.343 209.343 220.343 209.343C220.343 209.343 220.343 209.343 220.343 209.343C220.344 209.342 220.344 209.341 220.345 209.339C220.347 209.336 220.35 209.33 220.354 209.323C220.362 209.309 220.374 209.287 220.391 209.257C220.424 209.198 220.475 209.109 220.543 208.994C220.679 208.764 220.885 208.426 221.159 208.004C221.708 207.16 222.532 205.977 223.627 204.63C225.82 201.933 229.093 198.589 233.421 195.981L232.904 195.124ZM219.697 209.56L224.034 211.523L224.447 210.612L220.109 208.649L219.697 209.56ZM224.24 211.067C224.718 211.214 224.718 211.215 224.718 211.215C224.718 211.215 224.718 211.215 224.718 211.215C224.718 211.215 224.718 211.214 224.718 211.214C224.719 211.213 224.719 211.212 224.719 211.211C224.72 211.208 224.722 211.202 224.724 211.195C224.729 211.181 224.736 211.159 224.745 211.13C224.764 211.073 224.794 210.986 224.834 210.872C224.914 210.646 225.036 210.316 225.204 209.906C225.541 209.084 226.06 207.944 226.788 206.672C228.248 204.122 230.529 201.076 233.832 199.002L233.301 198.155C229.806 200.349 227.425 203.547 225.92 206.175C225.167 207.492 224.629 208.673 224.279 209.527C224.104 209.954 223.976 210.299 223.891 210.539C223.848 210.659 223.817 210.753 223.796 210.818C223.785 210.85 223.777 210.875 223.771 210.892C223.769 210.901 223.767 210.907 223.765 210.912C223.764 210.915 223.764 210.916 223.763 210.918C223.763 210.919 223.763 210.919 223.763 210.92C223.763 210.92 223.763 210.92 223.763 210.92C223.763 210.92 223.763 210.92 224.24 211.067ZM233.832 199.002C238.408 196.129 243.025 195.437 246.504 195.463C248.244 195.477 249.696 195.67 250.71 195.86C251.217 195.954 251.615 196.048 251.883 196.117C252.017 196.152 252.119 196.18 252.187 196.2C252.22 196.21 252.245 196.217 252.262 196.222C252.27 196.225 252.275 196.226 252.279 196.227C252.281 196.228 252.282 196.228 252.283 196.229C252.283 196.229 252.283 196.229 252.283 196.229C252.283 196.229 252.283 196.229 252.283 196.229C252.283 196.229 252.283 196.229 252.435 195.752C252.588 195.276 252.587 195.276 252.587 195.276C252.587 195.276 252.587 195.276 252.586 195.276C252.586 195.276 252.585 195.275 252.584 195.275C252.583 195.275 252.58 195.274 252.577 195.273C252.572 195.271 252.564 195.269 252.554 195.266C252.533 195.259 252.504 195.251 252.465 195.239C252.389 195.217 252.277 195.186 252.133 195.149C251.844 195.074 251.425 194.976 250.894 194.877C249.832 194.679 248.32 194.478 246.512 194.463C242.895 194.435 238.078 195.156 233.301 198.155L233.832 199.002ZM251.99 195.981L253.737 199.386L254.627 198.93L252.88 195.524L251.99 195.981ZM254.182 199.158C254.045 199.639 254.045 199.639 254.045 199.639C254.045 199.639 254.045 199.639 254.045 199.639C254.045 199.639 254.046 199.639 254.046 199.639C254.047 199.639 254.049 199.64 254.052 199.641C254.057 199.642 254.065 199.644 254.076 199.648C254.098 199.654 254.131 199.664 254.174 199.677C254.262 199.704 254.393 199.745 254.561 199.801C254.898 199.913 255.387 200.083 255.988 200.316C257.191 200.783 258.841 201.502 260.628 202.506C264.212 204.521 268.29 207.657 270.451 212.172L271.353 211.74C269.064 206.957 264.781 203.694 261.118 201.634C259.281 200.602 257.586 199.864 256.35 199.384C255.731 199.144 255.227 198.968 254.875 198.852C254.699 198.794 254.562 198.75 254.468 198.721C254.421 198.707 254.384 198.696 254.359 198.689C254.347 198.685 254.337 198.682 254.331 198.68C254.327 198.679 254.325 198.679 254.323 198.678C254.322 198.678 254.321 198.677 254.321 198.677C254.32 198.677 254.32 198.677 254.32 198.677C254.32 198.677 254.319 198.677 254.182 199.158ZM270.451 212.172C272.599 216.658 272.931 221.084 272.683 224.491C272.434 227.904 271.604 230.269 271.46 230.604L272.38 230.998C272.568 230.559 273.423 228.086 273.68 224.563C273.938 221.034 273.596 216.424 271.353 211.74L270.451 212.172ZM271.46 230.604C271.461 230.604 271.454 230.619 271.435 230.653C271.417 230.685 271.393 230.725 271.363 230.774C271.303 230.873 271.222 230.997 271.125 231.14C270.932 231.425 270.681 231.774 270.415 232.116C270.148 232.459 269.873 232.786 269.631 233.032C269.51 233.156 269.405 233.251 269.319 233.316C269.222 233.389 269.19 233.394 269.211 233.389L269.443 234.362C269.629 234.318 269.797 234.209 269.924 234.112C270.062 234.007 270.205 233.875 270.344 233.733C270.625 233.448 270.926 233.088 271.205 232.73C271.484 232.37 271.748 232.003 271.953 231.701C272.145 231.417 272.317 231.146 272.38 230.998L271.46 230.604ZM269.211 233.389C268.496 233.559 267.542 233.847 266.776 234.089C266.391 234.211 266.05 234.322 265.805 234.403C265.682 234.443 265.584 234.476 265.516 234.499C265.482 234.51 265.455 234.519 265.437 234.525C265.428 234.528 265.422 234.53 265.417 234.532C265.415 234.533 265.413 234.533 265.412 234.534C265.411 234.534 265.411 234.534 265.41 234.534C265.41 234.534 265.41 234.534 265.41 234.534C265.41 234.534 265.41 234.534 265.41 234.534C265.41 234.534 265.41 234.535 265.57 235.008C265.731 235.482 265.731 235.482 265.731 235.482C265.731 235.482 265.731 235.482 265.731 235.482C265.731 235.482 265.731 235.482 265.731 235.482C265.731 235.481 265.732 235.481 265.732 235.481C265.733 235.481 265.735 235.48 265.737 235.479C265.741 235.478 265.748 235.476 265.757 235.473C265.774 235.467 265.8 235.458 265.833 235.447C265.9 235.425 265.997 235.392 266.118 235.353C266.36 235.273 266.697 235.163 267.077 235.043C267.841 234.802 268.766 234.523 269.443 234.362L269.211 233.389ZM265.57 235.008C265.361 234.554 265.361 234.554 265.361 234.554C265.361 234.554 265.361 234.554 265.361 234.554C265.361 234.554 265.361 234.554 265.361 234.554C265.36 234.554 265.36 234.554 265.36 234.554C265.36 234.555 265.359 234.555 265.359 234.555C265.358 234.555 265.356 234.556 265.355 234.557C265.352 234.558 265.349 234.559 265.345 234.561C265.338 234.565 265.327 234.57 265.316 234.576C265.292 234.588 265.26 234.606 265.224 234.627C265.166 234.662 265.043 234.741 264.95 234.859L265.736 235.477C265.719 235.499 265.708 235.506 265.715 235.501C265.719 235.497 265.728 235.491 265.741 235.483C265.753 235.476 265.765 235.47 265.773 235.465C265.777 235.463 265.78 235.462 265.781 235.461C265.782 235.461 265.782 235.461 265.782 235.461C265.781 235.461 265.781 235.461 265.781 235.462C265.78 235.462 265.78 235.462 265.78 235.462C265.78 235.462 265.78 235.462 265.78 235.462C265.779 235.462 265.779 235.462 265.779 235.462C265.779 235.462 265.779 235.462 265.779 235.462C265.779 235.462 265.779 235.462 265.57 235.008ZM264.95 234.859C264.854 234.981 264.803 235.13 264.781 235.197C264.767 235.24 264.756 235.279 264.749 235.306C264.745 235.321 264.742 235.332 264.74 235.341C264.739 235.345 264.738 235.349 264.738 235.352C264.737 235.354 264.737 235.355 264.737 235.356C264.737 235.356 264.737 235.357 264.737 235.357C264.737 235.358 264.737 235.358 264.737 235.358C264.736 235.358 264.736 235.358 264.736 235.358C264.736 235.358 264.736 235.358 264.736 235.358C264.736 235.358 264.736 235.358 265.225 235.464C265.714 235.571 265.714 235.571 265.714 235.571C265.714 235.571 265.714 235.571 265.714 235.571C265.714 235.571 265.714 235.571 265.714 235.571C265.714 235.571 265.713 235.571 265.713 235.571C265.713 235.572 265.713 235.572 265.713 235.572C265.713 235.572 265.713 235.572 265.713 235.572C265.713 235.572 265.713 235.571 265.714 235.57C265.714 235.568 265.716 235.563 265.717 235.556C265.721 235.543 265.726 235.525 265.732 235.506C265.738 235.486 265.744 235.47 265.749 235.46C265.755 235.446 265.752 235.456 265.736 235.477L264.95 234.859ZM264.741 235.34L263.403 240.534L264.371 240.783L265.709 235.589L264.741 235.34ZM263.887 240.658C264.137 241.091 264.137 241.091 264.137 241.091C264.137 241.091 264.137 241.091 264.137 241.091C264.137 241.091 264.137 241.091 264.138 241.091C264.138 241.091 264.138 241.091 264.138 241.091C264.139 241.09 264.14 241.09 264.141 241.089C264.144 241.088 264.148 241.085 264.153 241.082C264.163 241.076 264.178 241.068 264.198 241.056C264.238 241.034 264.295 241.001 264.366 240.96C264.509 240.877 264.708 240.763 264.933 240.635C265.384 240.377 265.936 240.064 266.351 239.836L265.869 238.96C265.447 239.192 264.888 239.508 264.437 239.766C264.211 239.895 264.011 240.01 263.868 240.093C263.796 240.134 263.738 240.167 263.699 240.19C263.679 240.201 263.663 240.21 263.653 240.216C263.648 240.219 263.644 240.222 263.641 240.223C263.64 240.224 263.639 240.225 263.638 240.225C263.638 240.225 263.637 240.225 263.637 240.225C263.637 240.225 263.637 240.225 263.637 240.225C263.637 240.225 263.637 240.225 263.637 240.226C263.637 240.226 263.637 240.226 263.887 240.658ZM266.351 239.836C267.936 238.964 268.926 238.677 270.719 238.186L270.455 237.222C268.643 237.718 267.561 238.029 265.869 238.96L266.351 239.836ZM270.719 238.186C271.627 237.938 272.83 237.732 273.82 237.588C274.312 237.516 274.746 237.46 275.057 237.422C275.212 237.403 275.337 237.388 275.422 237.379C275.465 237.374 275.498 237.37 275.52 237.368C275.531 237.366 275.54 237.366 275.545 237.365C275.548 237.365 275.55 237.364 275.551 237.364C275.552 237.364 275.552 237.364 275.553 237.364C275.553 237.364 275.553 237.364 275.553 237.364C275.553 237.364 275.553 237.364 275.553 237.364C275.553 237.364 275.553 237.364 275.5 236.867C275.447 236.37 275.447 236.37 275.447 236.37C275.447 236.37 275.447 236.37 275.447 236.37C275.447 236.37 275.447 236.37 275.446 236.37C275.446 236.37 275.445 236.37 275.444 236.37C275.443 236.37 275.441 236.37 275.437 236.371C275.431 236.371 275.422 236.372 275.411 236.374C275.388 236.376 275.353 236.38 275.309 236.385C275.222 236.395 275.094 236.41 274.936 236.429C274.619 236.468 274.177 236.525 273.675 236.598C272.678 236.744 271.425 236.957 270.455 237.222L270.719 238.186ZM275.5 236.867C275.817 237.254 275.817 237.254 275.817 237.254C275.817 237.254 275.817 237.254 275.817 237.254C275.817 237.254 275.817 237.254 275.817 237.253C275.817 237.253 275.817 237.253 275.817 237.253C275.818 237.253 275.818 237.253 275.818 237.253C275.818 237.253 275.819 237.252 275.819 237.252C275.82 237.251 275.821 237.25 275.823 237.249C275.826 237.246 275.829 237.243 275.834 237.24C275.842 237.232 275.854 237.222 275.87 237.209C275.9 237.182 275.942 237.144 275.994 237.094L275.305 236.37C275.262 236.411 275.229 236.44 275.208 236.458C275.198 236.468 275.19 236.474 275.186 236.478C275.184 236.479 275.183 236.48 275.182 236.481C275.182 236.481 275.182 236.481 275.182 236.481C275.182 236.481 275.182 236.481 275.182 236.481C275.183 236.481 275.183 236.481 275.183 236.48C275.183 236.48 275.183 236.48 275.183 236.48C275.183 236.48 275.183 236.48 275.183 236.48C275.183 236.48 275.183 236.48 275.183 236.48C275.183 236.48 275.183 236.48 275.5 236.867Z" fill="black"/>
<g filter="url(#filter7_i_683_2947)">
<path d="M245.115 229.523C245.224 229.486 245.342 229.543 245.381 229.651L247.205 234.697C247.245 234.808 247.187 234.929 247.077 234.968L240.304 237.349C240.184 237.391 240.054 237.318 240.028 237.193L238.912 231.801C238.89 231.697 238.95 231.592 239.051 231.558L245.115 229.523Z" fill="#2456B6"/>
</g>
<g filter="url(#filter8_i_683_2947)">
<path fill-rule="evenodd" clip-rule="evenodd" d="M245.976 229.436L247.8 234.483C247.96 234.924 247.729 235.41 247.287 235.566L240.515 237.947C240.034 238.116 239.514 237.822 239.411 237.322L238.294 231.93C238.208 231.512 238.447 231.095 238.851 230.959L244.916 228.923C245.35 228.778 245.82 229.005 245.976 229.436ZM245.382 229.651C245.343 229.544 245.225 229.487 245.117 229.523L239.052 231.559C238.951 231.593 238.892 231.697 238.913 231.802L240.029 237.193C240.055 237.318 240.185 237.392 240.306 237.35L247.078 234.969C247.188 234.93 247.246 234.808 247.206 234.698L245.382 229.651Z" fill="black"/>
</g>
<g filter="url(#filter9_i_683_2947)">
<path d="M244.71 228.026C244.845 227.982 244.898 227.82 244.816 227.705L243.393 225.69C243.34 225.615 243.244 225.583 243.156 225.611L238.064 227.263C237.96 227.297 237.899 227.404 237.923 227.51L237.965 227.694L238.455 229.857C238.483 229.978 238.609 230.049 238.727 230.01L244.71 228.026Z" fill="#2456B6"/>
</g>
<g filter="url(#filter10_i_683_2947)">
<path fill-rule="evenodd" clip-rule="evenodd" d="M237.308 227.65C237.211 227.225 237.455 226.796 237.87 226.661L242.962 225.01C243.313 224.896 243.697 225.024 243.91 225.325L245.333 227.339C245.66 227.802 245.447 228.449 244.91 228.627L238.927 230.611C238.454 230.767 237.95 230.483 237.84 229.997L237.308 227.65ZM237.924 227.511C237.9 227.404 237.961 227.297 238.065 227.263L243.157 225.611C243.245 225.583 243.341 225.615 243.394 225.69L244.817 227.705C244.899 227.82 244.846 227.982 244.711 228.027L238.728 230.01C238.61 230.049 238.484 229.978 238.456 229.857L237.924 227.511Z" fill="black"/>
</g>
<path d="M229.749 235.02L229.655 232.817L230 232.461L230.703 232.5L231.596 233.032L231.587 233.193C231.517 233.135 231.358 233.019 231.271 233.014C231.185 233.009 230.77 232.915 230.574 232.868L230.082 232.948L230.034 233.803C230.024 233.974 229.84 234.686 229.749 235.02Z" fill="#424242"/>
<path d="M233.276 234.038L236.648 235.835L237.363 236.626L237.092 236.611L233.276 234.038Z" fill="#414141"/>
<path d="M230.514 233.937L230.318 234.516L230.075 234.985L230.454 235.007L230.697 234.538L230.715 234.217L230.514 233.937Z" fill="#606060"/>
<path d="M230.359 237.606L231.252 237.667L231.031 237.996L230.339 237.958C230.339 237.958 230.226 237.858 230.23 237.775C230.235 237.692 230.359 237.606 230.359 237.606Z" fill="#C4C4C4"/>
<path d="M236.003 237.922L236.669 237.959C236.669 237.959 236.761 238.062 236.756 238.14C236.752 238.219 236.649 238.311 236.649 238.311L235.605 238.252L236.003 237.922Z" fill="#C4C4C4"/>
<g opacity="0.8" filter="url(#filter11_i_683_2947)">
<path d="M226.676 213.276L225.37 214.57C225.37 214.57 225.922 214.899 226.317 214.976C226.775 215.065 227.51 214.91 227.51 214.91L227.481 213.056L226.866 213.816L226.676 213.276Z" fill="#773737"/>
</g>
<path opacity="0.8" fill-rule="evenodd" clip-rule="evenodd" d="M227.666 212.52L227.706 215.068L227.549 215.1L227.51 214.911C227.549 215.1 227.549 215.1 227.549 215.1L227.549 215.1L227.549 215.101L227.547 215.101L227.54 215.102C227.534 215.104 227.525 215.105 227.514 215.108C227.492 215.112 227.46 215.118 227.42 215.125C227.342 215.138 227.232 215.155 227.107 215.17C226.862 215.198 226.539 215.217 226.279 215.167C226.056 215.123 225.8 215.012 225.61 214.919C225.513 214.871 225.428 214.826 225.368 214.793C225.338 214.776 225.314 214.762 225.298 214.753C225.289 214.748 225.283 214.744 225.278 214.742L225.273 214.738L225.271 214.738L225.271 214.737L225.271 214.737C225.271 214.737 225.271 214.737 225.37 214.571L225.271 214.737L225.056 214.609L226.757 212.923L226.933 213.425L227.666 212.52ZM225.691 214.525C225.719 214.54 225.749 214.555 225.78 214.57C225.965 214.661 226.182 214.753 226.353 214.786C226.552 214.825 226.825 214.812 227.063 214.784C227.158 214.773 227.245 214.761 227.313 214.749L227.295 213.593L226.798 214.207L226.595 213.629L225.691 214.525Z" fill="black"/>
<g filter="url(#filter12_i_683_2947)">
<path d="M227.776 213.293L227.685 214.92L229.022 214.642L227.776 213.293Z" fill="#773737"/>
</g>
<path fill-rule="evenodd" clip-rule="evenodd" d="M227.608 212.826L229.397 214.762L227.478 215.161L227.608 212.826ZM227.944 213.76L227.892 214.679L228.648 214.522L227.944 213.76Z" fill="black"/>
<g filter="url(#filter13_i_683_2947)">
<path d="M227.437 215.318L227.321 218.972L225.56 216.58L224.323 215.85L225.127 214.88L227.437 215.318Z" fill="#F8B249"/>
</g>
<path fill-rule="evenodd" clip-rule="evenodd" d="M225.05 214.668L227.636 215.158L227.497 219.538L225.428 216.727L224.029 215.901L225.05 214.668ZM225.203 215.092L224.618 215.798L225.693 216.433L227.146 218.406L227.238 215.478L225.203 215.092Z" fill="black"/>
<g filter="url(#filter14_i_683_2947)">
<path d="M227.159 219.253L227.588 219.773C227.588 219.773 228.918 220.096 229.467 220.054C230.009 220.013 231.07 219.538 231.859 219.041C232.862 218.409 233.736 216.985 233.736 216.985L233.352 220.712C233.352 220.712 230.935 222.613 229.493 222.746C228.615 222.827 227.936 222.218 227.936 222.218L227.207 221.074L227.237 219.753L227.159 219.253Z" fill="#FEC775"/>
</g>
<g filter="url(#filter15_i_683_2947)">
<path fill-rule="evenodd" clip-rule="evenodd" d="M226.177 217.074L227.938 219.204C227.939 219.204 227.94 219.204 227.941 219.205C228.07 219.233 228.246 219.271 228.438 219.307C228.853 219.385 229.241 219.436 229.419 219.423C229.579 219.411 229.899 219.319 230.32 219.137C230.722 218.964 231.156 218.736 231.522 218.505C231.931 218.248 232.347 217.802 232.678 217.383C232.838 217.18 232.97 216.995 233.061 216.861C233.106 216.794 233.141 216.741 233.165 216.705C233.176 216.687 233.185 216.673 233.19 216.665L233.196 216.655L233.197 216.654C233.197 216.654 233.197 216.654 233.198 216.654L234.364 217.05L233.952 221.044L233.742 221.21L233.351 220.712L233.736 216.985C233.736 216.985 233.44 217.466 232.996 217.993C232.676 218.373 232.279 218.776 231.858 219.041C231.07 219.538 230.009 220.013 229.467 220.054C229.075 220.083 228.287 219.928 227.867 219.836C227.698 219.799 227.588 219.772 227.588 219.772L227.158 219.253L227.237 219.753L227.207 221.074L227.936 222.218L227.514 222.689L227.45 222.631L226.571 221.252L226.604 219.795L226.177 217.074ZM227.936 222.218C227.514 222.689 227.514 222.689 227.515 222.689L227.515 222.689L227.516 222.69L227.517 222.691L227.522 222.695C227.525 222.698 227.529 222.701 227.533 222.705C227.542 222.713 227.554 222.723 227.568 222.734C227.597 222.758 227.637 222.789 227.686 222.825C227.785 222.896 227.925 222.987 228.099 223.076C228.442 223.25 228.953 223.431 229.551 223.376C230.016 223.333 230.514 223.155 230.967 222.947C231.43 222.735 231.893 222.47 232.298 222.215C232.706 221.96 233.065 221.71 233.322 221.524C233.45 221.431 233.554 221.353 233.626 221.298C233.662 221.271 233.691 221.249 233.71 221.234C233.72 221.227 233.728 221.221 233.733 221.217L233.739 221.212L233.741 221.21L233.742 221.21C233.742 221.209 233.742 221.21 233.351 220.712C233.351 220.712 230.935 222.613 229.493 222.746C228.614 222.826 227.936 222.218 227.936 222.218Z" fill="black"/>
</g>
<g filter="url(#filter16_i_683_2947)">
<path d="M227.574 219.28L227.673 215.14L229.679 214.723L230.303 214.581L232.048 215.693L232.647 217.579C232.647 217.579 231.148 219.09 230.033 219.417C229.043 219.708 227.574 219.28 227.574 219.28Z" fill="#DEB565"/>
</g>
<path fill-rule="evenodd" clip-rule="evenodd" d="M230.339 214.375L232.211 215.568L232.867 217.632L232.784 217.716L232.647 217.579C232.784 217.716 232.784 217.716 232.784 217.716L232.784 217.716L232.783 217.717L232.78 217.721C232.777 217.724 232.772 217.728 232.766 217.734C232.755 217.746 232.737 217.762 232.715 217.784C232.671 217.827 232.607 217.888 232.527 217.963C232.367 218.111 232.142 218.313 231.88 218.526C231.365 218.946 230.686 219.428 230.088 219.604C229.551 219.761 228.902 219.722 228.404 219.65C228.152 219.614 227.932 219.568 227.775 219.531C227.696 219.513 227.633 219.497 227.589 219.485C227.567 219.48 227.55 219.475 227.538 219.472C227.533 219.47 227.528 219.469 227.525 219.468L227.521 219.467L227.52 219.466L227.52 219.466C227.519 219.466 227.519 219.466 227.574 219.28L227.519 219.466L227.376 219.425L227.483 214.982L229.637 214.534L230.339 214.375ZM227.771 219.132C227.798 219.139 227.829 219.146 227.862 219.154C228.012 219.188 228.221 219.232 228.46 219.266C228.944 219.336 229.525 219.365 229.979 219.232C230.495 219.08 231.123 218.643 231.636 218.225C231.889 218.019 232.108 217.823 232.264 217.678C232.33 217.616 232.385 217.564 232.426 217.524L231.884 215.819L230.267 214.788L229.719 214.912L227.862 215.299L227.771 219.132Z" fill="black"/>
<g filter="url(#filter17_i_683_2947)">
<path d="M239.737 239.044C245.507 237.694 251.476 235.885 257.674 233.167C264.312 230.256 269.692 226.278 273.134 222.894C273.134 222.894 273.064 224.142 273.033 224.709C272.996 225.358 272.831 226.251 272.831 226.251C272.831 226.251 264.862 232.63 258.579 235.345C252.205 238.1 241.108 241.058 241.108 241.058C241.108 241.058 240.589 240.501 240.329 240.09C240.082 239.699 239.737 239.044 239.737 239.044Z" fill="#CDCDCD"/>
</g>
<g filter="url(#filter18_i_683_2947)">
<path fill-rule="evenodd" clip-rule="evenodd" d="M239.267 238.829L239.665 238.736C245.421 237.389 251.37 235.586 257.547 232.877C264.148 229.982 269.496 226.027 272.912 222.668L273.495 222.096L273.449 222.912L273.449 222.912L273.449 222.913L273.348 224.726C273.329 225.066 273.277 225.463 273.231 225.771C273.207 225.925 273.185 226.059 273.169 226.155C273.16 226.203 273.154 226.241 273.149 226.267L273.143 226.298L273.142 226.306L273.142 226.308L273.141 226.309L273.141 226.309C273.141 226.309 273.141 226.309 272.831 226.251C273.028 226.498 273.028 226.498 273.028 226.498L273.022 226.503L273.004 226.517C272.989 226.53 272.966 226.548 272.936 226.572C272.875 226.619 272.786 226.69 272.67 226.78C272.439 226.961 272.102 227.221 271.678 227.542C270.83 228.185 269.634 229.07 268.241 230.04C265.46 231.976 261.876 234.265 258.705 235.635C255.5 237.021 251.117 238.453 247.545 239.537C245.756 240.08 244.168 240.536 243.027 240.857C242.456 241.018 241.997 241.144 241.68 241.23C241.522 241.274 241.399 241.307 241.316 241.329C241.274 241.341 241.243 241.349 241.221 241.355L241.189 241.363C241.189 241.363 241.189 241.363 241.108 241.058C240.877 241.274 240.877 241.274 240.877 241.274L240.875 241.272L240.87 241.266C240.866 241.262 240.86 241.255 240.852 241.247C240.837 241.23 240.815 241.206 240.788 241.176C240.733 241.116 240.658 241.031 240.575 240.933C240.411 240.74 240.204 240.484 240.062 240.258C239.933 240.055 239.781 239.786 239.664 239.573C239.605 239.465 239.553 239.37 239.517 239.302C239.498 239.268 239.484 239.24 239.473 239.221L239.462 239.199L239.458 239.192C239.458 239.192 239.458 239.191 239.737 239.044L239.458 239.192L239.267 238.829ZM240.212 239.257C240.213 239.26 240.215 239.264 240.217 239.267C240.334 239.479 240.478 239.733 240.596 239.92C240.713 240.106 240.896 240.334 241.056 240.523C241.114 240.591 241.167 240.652 241.212 240.702C241.29 240.681 241.391 240.654 241.514 240.62C241.829 240.534 242.287 240.408 242.856 240.248C243.994 239.928 245.578 239.473 247.361 238.932C250.931 237.849 255.284 236.425 258.454 235.055C261.565 233.71 265.107 231.451 267.881 229.52C269.265 228.556 270.454 227.676 271.297 227.038C271.718 226.719 272.053 226.46 272.282 226.281C272.394 226.193 272.481 226.125 272.541 226.078C272.542 226.068 272.544 226.058 272.546 226.048C272.562 225.956 272.583 225.826 272.606 225.676C272.651 225.375 272.7 225.001 272.717 224.691L272.773 223.68C269.296 226.96 264.113 230.688 257.801 233.456C251.725 236.121 245.871 237.914 240.212 239.257ZM241.108 241.058L240.877 241.274L241.006 241.412L241.189 241.363L241.108 241.058ZM272.831 226.251L273.028 226.498L273.12 226.425L273.141 226.309L272.831 226.251Z" fill="black"/>
</g>
<path d="M220.474 209.352L220.201 208.372L219.832 209.116L220.474 209.352Z" fill="#CE5B37"/>
<path d="M222.161 210.083L221.505 206.515L221.9 205.954L222.748 210.316L222.161 210.083Z" fill="#CE5B37"/>
<path d="M223.389 205.018L223.971 205.342L224.72 208.879L224.382 209.716L223.389 205.018Z" fill="#CE5B37"/>
<path fill-rule="evenodd" clip-rule="evenodd" d="M223.141 204.644L224.169 205.217L224.946 208.898L224.349 210.379L223.141 204.644ZM223.694 205.396L224.465 209.056L224.543 208.863L223.827 205.47L223.694 205.396ZM222.035 205.473L223.034 210.629L222.02 210.226L221.333 206.472L222.035 205.473ZM221.742 206.562L222.362 209.945L222.52 210.007L221.828 206.439L221.742 206.562ZM220.287 207.835L220.795 209.666L219.62 209.236L220.287 207.835ZM220.137 209.01L220.221 209.041L220.185 208.913L220.137 209.01Z" fill="black"/>
<path d="M220.482 208.232L221.146 207.086L221.713 209.976L220.754 209.558L220.482 208.232Z" fill="#D6A322"/>
<path d="M222.216 205.526L222.875 204.798L224.058 210.963L223.121 210.492L222.216 205.526Z" fill="#D6A322"/>
<path d="M224.36 205.555L225.016 205.864L225.461 207.327L224.877 208.351L224.36 205.555Z" fill="#D6A322"/>
<path fill-rule="evenodd" clip-rule="evenodd" d="M222.992 204.379L224.323 211.312L222.948 210.621L222.008 205.466L222.992 204.379ZM222.424 205.584L223.294 210.361L223.794 210.612L222.758 205.215L222.424 205.584ZM224.101 205.217L225.176 205.725L225.672 207.35L224.783 208.905L224.101 205.217ZM224.62 205.891L224.972 207.794L225.252 207.303L224.856 206.002L224.62 205.891ZM221.238 206.542L221.974 210.3L220.585 209.695L220.278 208.198L221.238 206.542ZM220.687 208.265L220.924 209.42L221.452 209.65L221.056 207.629L220.687 208.265Z" fill="black"/>
<path d="M225.81 206.868L226.159 206.339L225.532 206.081L225.81 206.868Z" fill="#C4C4C4"/>
<path fill-rule="evenodd" clip-rule="evenodd" d="M225.606 205.902L226.451 206.25L225.758 207.3L225.326 206.078L225.569 205.992L225.606 205.902ZM225.86 206.426L225.864 206.437L225.869 206.429L225.86 206.426Z" fill="black"/>
<path d="M228.176 215.248L228.364 217.737L228.554 219.28L229.111 219.311L229.721 219.285L229.351 215.001L228.176 215.248Z" fill="#EAEAEA"/>
<path d="M230.497 216.049L230.794 218.83L231.203 218.56L231.617 218.239L231.363 215.487L230.283 214.807L230.497 216.049Z" fill="#EAEAEA"/>
<path d="M230.944 219.899L231.019 221.856L231.457 221.606L231.851 221.377L231.81 219.436L230.944 219.899Z" fill="#EAEAEA"/>
<path d="M229.505 220.372L229.628 222.431C229.628 222.431 229.955 222.335 230.158 222.255C230.37 222.17 230.688 222.008 230.688 222.008L230.619 220.048L230.055 220.263L229.505 220.372Z" fill="#EAEAEA"/>
<path d="M231.86 222.393L232.368 222.171L232.504 227.418L232.853 228.257L234.204 230.096L233.786 230.483L231.476 228.091L231.86 222.393Z" fill="#C4C4C4" stroke="black"/>
<path fill-rule="evenodd" clip-rule="evenodd" d="M232.469 222.013L232.609 227.396L232.946 228.205L234.345 230.11L233.782 230.631L231.368 228.131L231.759 222.322L232.469 222.013ZM231.961 222.464L231.584 228.051L233.79 230.336L234.064 230.083L232.761 228.309L232.399 227.44L232.267 222.331L231.961 222.464Z" fill="black"/>
<g filter="url(#filter19_i_683_2947)">
<path d="M239.933 222.248C239.959 222.449 239.843 222.642 239.651 222.709L235.686 224.236C235.448 224.319 235.191 224.176 235.141 223.93C234.334 220.004 234.595 216.084 235.6 212.156C238.29 202.398 249.241 197.733 259.226 202.584C262.768 204.524 265.71 207.475 267.845 210.965C267.852 210.975 267.859 210.986 267.865 210.997C268.698 212.317 267.736 214.271 266.643 214.953C265.55 215.635 263.989 215.118 263.157 213.797C263.113 213.727 263.087 213.693 263.039 213.625C257.891 206.189 250.538 204.543 244.937 207.985C240.263 211.05 239.04 215.544 239.933 222.248Z" fill="white"/>
</g>
<g filter="url(#filter20_i_683_2947)">
<path fill-rule="evenodd" clip-rule="evenodd" d="M267.845 210.965C265.71 207.475 262.768 204.524 259.226 202.584C249.241 197.733 238.29 202.398 235.6 212.156C234.595 216.084 234.334 220.004 235.141 223.93C235.191 224.176 235.448 224.319 235.686 224.236L239.976 222.886C240.168 222.82 240.284 222.626 240.258 222.425C239.365 215.721 240.586 211.278 245.261 208.212C250.861 204.771 257.849 206.813 262.997 214.248C263.01 214.268 263.023 214.285 263.034 214.301C263.061 214.34 263.083 214.371 263.114 214.421C263.947 215.742 266.055 215.732 267.148 215.05C268.24 214.368 268.698 212.317 267.865 210.997C267.859 210.986 267.852 210.975 267.845 210.965ZM267.33 211.335C267.324 211.326 267.318 211.317 267.313 211.308L267.309 211.302L267.305 211.295C265.223 207.893 262.364 205.028 258.935 203.146C249.271 198.461 238.786 202.994 236.212 212.319C235.248 216.089 234.988 219.827 235.712 223.557L239.608 222.344C238.749 215.58 240.038 210.937 244.96 207.71C250.936 204.037 258.243 206.271 263.517 213.888C263.525 213.9 263.534 213.912 263.544 213.926C263.573 213.968 263.609 214.019 263.65 214.083M267.33 211.335C268.039 212.46 267.515 214.074 266.812 214.512C266.106 214.953 264.36 215.209 263.65 214.083" fill="black"/>
</g>
<path d="M242.6 206.4C243.465 207.102 243.596 208.373 242.894 209.237C242.191 210.102 240.921 210.233 240.056 209.53C239.192 208.828 239.06 207.557 239.763 206.693C240.466 205.828 241.736 205.697 242.6 206.4Z" fill="#2456B6"/>
<path fill-rule="evenodd" clip-rule="evenodd" d="M242.609 209.006C243.184 208.299 243.076 207.259 242.369 206.684C241.662 206.11 240.622 206.217 240.048 206.924C239.473 207.632 239.58 208.671 240.288 209.246C240.995 209.821 242.034 209.713 242.609 209.006ZM242.894 209.237C243.596 208.373 243.465 207.102 242.6 206.4C241.736 205.697 240.466 205.828 239.763 206.693C239.06 207.557 239.192 208.828 240.056 209.53C240.921 210.233 242.191 210.102 242.894 209.237Z" fill="black"/>
<path d="M238.633 208.374L239.17 207.713L241.177 207.842L240.635 205.91L241.177 205.243L241.773 207.767L241.898 208.427L241.231 208.434L238.633 208.374Z" fill="#EAA675"/>
<path fill-rule="evenodd" clip-rule="evenodd" d="M237.877 208.723L239.005 207.335L240.684 207.443L240.231 205.826L241.363 204.433L242.132 207.691L242.339 208.79L241.228 208.801L237.877 208.723ZM241.177 207.842L239.17 207.713L238.633 208.374L241.231 208.434L241.897 208.427L241.773 207.767L241.177 205.243L240.635 205.91L241.177 207.842Z" fill="black"/>
<path d="M239.16 211.051C240.142 211.447 240.618 212.564 240.222 213.546C239.827 214.528 238.71 215.003 237.728 214.608C236.745 214.212 236.27 213.095 236.666 212.113C237.061 211.131 238.178 210.655 239.16 211.051Z" fill="#2456B6"/>
<path fill-rule="evenodd" clip-rule="evenodd" d="M239.899 213.415C240.223 212.612 239.834 211.698 239.03 211.374C238.226 211.051 237.313 211.44 236.989 212.243C236.665 213.047 237.054 213.961 237.858 214.284C238.661 214.608 239.575 214.219 239.899 213.415ZM240.222 213.546C240.618 212.564 240.142 211.447 239.16 211.051C238.178 210.655 237.061 211.131 236.666 212.113C236.27 213.095 236.745 214.212 237.728 214.608C238.71 215.003 239.827 214.528 240.222 213.546Z" fill="black"/>
<path d="M236.111 213.956L236.413 213.206L238.272 212.76L237.238 211.157L237.543 210.4L238.792 212.525L239.091 213.09L238.487 213.282L236.111 213.956Z" fill="#EAA675"/>
<path fill-rule="evenodd" clip-rule="evenodd" d="M235.522 214.486L236.157 212.909L237.713 212.536L236.848 211.195L237.485 209.612L239.097 212.355L239.593 213.295L238.587 213.616L235.522 214.486ZM238.272 212.76L236.413 213.206L236.111 213.956L238.487 213.283L239.091 213.09L238.792 212.525L237.544 210.4L237.238 211.158L238.272 212.76Z" fill="black"/>
<path d="M256.274 204.582C256.025 205.738 254.885 206.473 253.729 206.224C252.573 205.974 251.837 204.835 252.087 203.678C252.336 202.522 253.476 201.787 254.632 202.036C255.788 202.286 256.524 203.425 256.274 204.582Z" fill="#2456B6"/>
<path fill-rule="evenodd" clip-rule="evenodd" d="M253.811 205.843C254.757 206.047 255.69 205.446 255.894 204.5C256.098 203.553 255.496 202.621 254.55 202.417C253.604 202.213 252.671 202.814 252.467 203.761C252.263 204.707 252.865 205.639 253.811 205.843ZM253.729 206.224C254.885 206.473 256.025 205.738 256.274 204.582C256.524 203.425 255.788 202.286 254.632 202.036C253.476 201.787 252.336 202.522 252.087 203.678C251.837 204.835 252.573 205.974 253.729 206.224Z" fill="black"/>
<path d="M252.497 201.775L253.381 201.965L254.224 203.928L255.793 202.486L256.685 202.678L254.582 204.455L254.016 204.891L253.69 204.263L252.497 201.775Z" fill="#EAA675"/>
<path fill-rule="evenodd" clip-rule="evenodd" d="M251.803 201.227L253.659 201.627L254.365 203.269L255.677 202.063L257.541 202.464L254.826 204.759L253.885 205.484L253.341 204.437L251.803 201.227ZM254.224 203.928L253.381 201.966L252.497 201.775L253.689 204.263L254.016 204.891L254.582 204.456L256.685 202.678L255.792 202.486L254.224 203.928Z" fill="black"/>
<path d="M261.668 208.095C260.979 209.016 259.675 209.204 258.755 208.515C257.834 207.826 257.646 206.522 258.335 205.602C259.024 204.681 260.328 204.493 261.248 205.182C262.169 205.871 262.357 207.175 261.668 208.095Z" fill="#2456B6"/>
<path fill-rule="evenodd" clip-rule="evenodd" d="M258.981 208.212C259.734 208.775 260.802 208.622 261.365 207.869C261.928 207.116 261.775 206.048 261.022 205.485C260.269 204.921 259.201 205.075 258.638 205.828C258.075 206.581 258.228 207.649 258.981 208.212ZM258.755 208.515C259.675 209.204 260.979 209.016 261.668 208.095C262.357 207.175 262.169 205.871 261.248 205.182C260.328 204.493 259.024 204.681 258.335 205.602C257.646 206.522 257.834 207.826 258.755 208.515Z" fill="black"/>
<path d="M259.469 204.086L260.172 204.613L260.122 206.687L262.091 206.049L262.802 206.58L260.224 207.298L259.548 207.454L259.514 206.767L259.469 204.086Z" fill="#EAA675"/>
<path fill-rule="evenodd" clip-rule="evenodd" d="M259.077 203.321L260.555 204.427L260.513 206.163L262.161 205.628L263.644 206.738L260.317 207.665L259.192 207.925L259.136 206.78L259.077 203.321ZM260.122 206.687L260.172 204.613L259.468 204.087L259.514 206.767L259.548 207.454L260.224 207.298L262.801 206.58L262.091 206.049L260.122 206.687Z" fill="black"/>
<path d="M265.354 212.766C264.433 213.467 263.118 213.288 262.418 212.367C261.717 211.446 261.896 210.131 262.817 209.43C263.738 208.73 265.053 208.908 265.753 209.829C266.454 210.751 266.275 212.065 265.354 212.766Z" fill="#2456B6"/>
<path fill-rule="evenodd" clip-rule="evenodd" d="M262.721 212.136C263.294 212.89 264.37 213.036 265.123 212.463C265.877 211.889 266.023 210.814 265.45 210.06C264.877 209.306 263.801 209.16 263.047 209.734C262.294 210.307 262.148 211.382 262.721 212.136ZM262.418 212.367C263.118 213.288 264.433 213.467 265.354 212.766C266.275 212.065 266.454 210.751 265.753 209.829C265.053 208.908 263.738 208.73 262.817 209.43C261.896 210.131 261.717 211.446 262.418 212.367Z" fill="black"/>
<path d="M264.333 208.277L264.868 208.981L264.247 210.975L266.33 210.902L266.87 211.613L264.176 211.595L263.479 211.559L263.636 210.885L264.333 208.277Z" fill="#EAA675"/>
<path fill-rule="evenodd" clip-rule="evenodd" d="M264.166 207.428L265.29 208.907L264.77 210.576L266.513 210.514L267.642 211.999L264.165 211.976L263.005 211.917L263.266 210.792L264.166 207.428ZM264.246 210.976L264.868 208.981L264.333 208.277L263.636 210.885L263.479 211.56L264.176 211.596L266.87 211.613L266.329 210.902L264.246 210.976Z" fill="black"/>
<g filter="url(#filter21_i_683_2947)">
<path d="M241.642 221.386C241.654 221.441 241.692 221.488 241.743 221.512L244.164 222.652C244.304 222.718 244.46 222.591 244.427 222.439C243.443 217.924 244.803 213.632 248.117 211.926C251.998 209.927 257.208 212.168 260.299 216.957C260.398 217.11 260.642 217.049 260.652 216.867L260.812 213.995C260.815 213.956 260.804 213.916 260.782 213.883C257.376 208.743 251.29 206.553 246.546 208.997C242.358 211.154 240.502 216.258 241.642 221.386Z" fill="#2456B6"/>
</g>
<g filter="url(#filter22_i_683_2947)">
<path fill-rule="evenodd" clip-rule="evenodd" d="M244.365 222.136C244.365 222.136 244.365 222.135 244.364 222.134C243.507 217.731 244.879 213.594 248.118 211.926C251.92 209.967 256.998 212.079 260.109 216.669C260.117 216.681 260.125 216.692 260.133 216.703C260.164 216.75 260.195 216.796 260.226 216.843C260.25 216.881 260.275 216.918 260.3 216.956C260.398 217.11 260.643 217.049 260.653 216.867L260.813 213.995C260.816 213.956 260.805 213.916 260.783 213.883C257.377 208.743 251.291 206.553 246.547 208.997C242.358 211.154 240.502 216.258 241.643 221.386C241.655 221.441 241.693 221.488 241.744 221.512L244.165 222.652C244.305 222.718 244.46 222.591 244.427 222.439C244.41 222.359 244.393 222.28 244.377 222.2C244.373 222.179 244.369 222.157 244.365 222.136ZM243.929 223.153L241.508 222.013C241.303 221.916 241.152 221.729 241.102 221.506C239.922 216.198 241.826 210.805 246.293 208.505C251.356 205.897 257.728 208.27 261.245 213.578C261.332 213.71 261.375 213.868 261.366 214.026L261.206 216.898C261.164 217.645 260.208 217.835 259.834 217.257C256.82 212.587 251.888 210.606 248.371 212.418C245.366 213.966 244.015 217.942 244.968 222.322C245.096 222.907 244.499 223.421 243.929 223.153Z" fill="black"/>
</g>
<path d="M263.317 216.556C264.334 218.418 266.38 219.319 268.056 218.578C269.604 217.894 270.329 216.036 269.887 214.177C269.887 214.177 269.629 214.082 269.492 214.155C269.361 214.224 269.288 214.476 269.288 214.476C269.496 216.201 269.024 217.367 267.722 217.942C266.482 218.49 265.151 217.887 263.967 216.241C263.967 216.241 263.685 216.137 263.536 216.217C263.397 216.291 263.317 216.556 263.317 216.556Z" fill="black"/>
<path d="M276.373 223.831C276.21 226.746 275.544 229.525 274.453 232.106L274.449 232.106C274 233.174 272.424 233.902 270.595 233.8C270.32 233.784 270.054 233.751 269.798 233.702L270.276 233.134C270.392 233.148 270.51 233.159 270.63 233.165C271.59 233.219 272.443 233.017 273.043 232.681C273.46 232.447 273.718 232.174 273.845 231.903L273.849 231.903C274.925 229.372 275.581 226.648 275.74 223.795C276.475 210.641 266.372 198.887 252.361 195.982L252.397 195.342C266.712 198.271 277.13 210.276 276.373 223.831Z" fill="black"/>
<g filter="url(#filter23_i_683_2947)">
<path d="M232.928 201.033C232.928 201.033 231.428 201.403 229.96 203.392C229.309 204.39 228.896 205.581 229.383 206.358C229.921 207.217 231.311 207.367 232.586 207.168C233.706 206.994 234.988 206.644 236.367 205.895L236.739 205.686C238.165 204.843 238.573 204.518 239.627 203.301C240.094 202.64 240.335 202.23 240.553 201.459C240.706 200.915 240.558 200.107 240.153 199.779C239.479 199.233 238.242 199.397 238.242 199.397C238.242 199.397 239.268 200.164 238.749 201.358C238.578 201.751 237.719 202.44 236.828 202.632C236.536 202.694 235.228 202.723 235.532 201.533C235.742 200.711 237.543 199.997 237.543 199.997L235.573 199.129L233.516 201.17C233.516 201.17 234.378 201.7 233.958 202.471C233.5 203.314 232.296 203.523 232.296 203.523C232.296 203.523 231.176 203.697 231.343 202.917C231.542 201.989 232.928 201.033 232.928 201.033Z" fill="#2456B6"/>
</g>
<path d="M232.296 203.523C232.381 204.015 232.382 204.015 232.382 204.015L232.382 204.015L232.383 204.015L232.385 204.015L232.39 204.014L232.405 204.011C232.417 204.008 232.434 204.005 232.455 204C232.496 203.991 232.554 203.978 232.623 203.959C232.761 203.922 232.95 203.861 233.157 203.771C233.557 203.594 234.091 203.273 234.398 202.71C234.726 202.107 234.539 201.574 234.302 201.241C234.281 201.212 234.26 201.184 234.238 201.157L235.683 199.724L236.365 200.024C236.364 200.025 236.363 200.026 236.362 200.026C236.108 200.176 235.831 200.363 235.596 200.579C235.371 200.786 235.136 201.066 235.048 201.409C234.951 201.789 234.965 202.143 235.121 202.445C235.275 202.744 235.53 202.918 235.767 203.015C236 203.11 236.243 203.145 236.437 203.153C236.63 203.162 236.81 203.147 236.933 203.12C237.46 203.007 237.959 202.753 238.347 202.479C238.543 202.341 238.719 202.191 238.862 202.043C238.999 201.901 239.131 201.734 239.208 201.557C239.487 200.915 239.418 200.352 239.242 199.924C239.479 199.97 239.69 200.048 239.838 200.168C239.918 200.233 240.018 200.393 240.074 200.646C240.128 200.891 240.122 201.143 240.072 201.323C239.876 202.013 239.671 202.37 239.233 202.992C238.72 203.584 238.379 203.94 238.005 204.248C237.626 204.56 237.197 204.835 236.49 205.253L236.125 205.457C234.807 206.173 233.582 206.507 232.509 206.674C231.912 206.767 231.309 206.774 230.81 206.67C230.307 206.565 229.975 206.362 229.806 206.093C229.662 205.862 229.623 205.525 229.731 205.074C229.836 204.631 230.069 204.142 230.371 203.677C230.524 203.471 230.676 203.283 230.827 203.113C230.836 203.317 230.905 203.509 231.045 203.669C231.23 203.881 231.478 203.965 231.655 204.002C231.84 204.04 232.02 204.042 232.144 204.037C232.208 204.035 232.262 204.03 232.301 204.026C232.321 204.024 232.337 204.022 232.349 204.02L232.364 204.018L232.369 204.017L232.371 204.017L232.372 204.017L232.373 204.017C232.373 204.017 232.373 204.017 232.296 203.523ZM232.296 203.523L232.373 204.017L232.381 204.015L232.296 203.523Z" stroke="black"/>
<path fill-rule="evenodd" clip-rule="evenodd" d="M231.548 201.875L230.467 202.82L229.07 204.81L229.068 205.55L229.444 206.615L230.174 206.997L231.292 207.155L232.479 207.164L234.244 206.712L236.306 205.916L238.415 204.63L239.07 203.87L239.922 202.779L240.294 202.135L240.525 201.2L240.497 200.629L240.245 199.837L239.485 199.623L238.608 199.404L238.288 199.462L238.644 200.165L238.701 201.268L238.173 201.884L237.168 202.511L236.331 202.635L235.643 202.559L235.333 202.086L235.463 201.524L235.768 201.029L237.534 199.856L236.678 199.599L235.706 199.299L234.483 200.312L233.612 201.041L233.843 201.509L233.979 202.257L233.653 202.77L232.935 203.242L232.148 203.521L231.576 203.489L231.18 203.144L231.417 202.456L231.548 201.875ZM230.542 203.602L230.774 203.349L230.814 203.693L231.174 203.96L231.586 204.021L232.079 204.049L232.56 203.943L232.946 203.755L233.314 203.548L233.562 203.353L233.833 203.103L234.027 202.81L234.208 202.403L234.358 202.202L234.454 201.904L234.392 201.597L234.306 201.365L234.342 201.063L234.787 200.898L234.994 200.72L234.985 200.53L235.259 200.222L235.762 200.08L236.333 199.77L237.217 199.876L235.445 201.144C235.357 201.316 235.167 201.674 235.116 201.732C235.065 201.79 234.967 202.154 234.924 202.329C234.984 202.446 235.113 202.7 235.156 202.778C235.199 202.857 235.348 202.998 235.417 203.059L236.147 203.099L236.944 202.992L237.429 202.81L238.073 202.6L238.57 202.21L238.863 201.923L239.082 201.536L239.24 201.185C239.264 201.003 239.311 200.619 239.316 200.544C239.32 200.468 239.353 200.337 239.37 200.281L239.481 200.06L239.782 200.342L240.003 200.62L240.105 200.929L240.073 201.497L240.018 202.139L239.409 203.111L238.43 204.005L237.604 204.623L237.732 204.82L237.344 205.045L237.39 204.914L237.342 204.722L237.189 204.619L237.018 204.856L236.807 205.091L236.474 205.395L236.042 205.693L235.375 205.94L234.852 206.101L234.702 205.96L234.593 205.783L234.43 205.869L234.394 206.151L234.241 206.067L233.996 206.205L233.816 206.233L233.707 206.056L233.635 206.299L233.433 206.363L233.517 205.571L233.521 205.154L233.386 205.089L232.779 206.384L232.571 206.581L232.346 206.701L232.361 206.436L232.227 206.353L231.899 206.562L231.77 206.745L231.589 206.811L231.479 206.653L231.411 206.801L231.239 206.696L231.086 206.612L230.897 206.81C230.798 206.798 230.583 206.766 230.505 206.731L230.216 206.601L229.971 206.379L229.614 205.695L229.753 204.981L230.047 204.315L230.542 203.602Z" fill="black"/>
<path d="M275.901 233.795C277.508 230.63 278.094 226.134 278.217 223.935C279.083 208.423 266.47 195.104 250.045 194.187C245.82 193.951 241.743 194.736 238.019 196.034L237.991 196.54C241.703 195.21 245.773 194.582 250.01 194.819C266.12 195.719 278.429 208.77 277.584 223.9C277.439 226.499 276.89 230.271 275.25 233.619C274.982 233.979 274.659 234.15 274.263 234.308C273.487 234.618 272.399 234.743 271.162 234.674C269.925 234.605 268.849 234.309 268.112 233.915C268.002 233.908 268.04 233.813 267.857 233.9L267.406 234.035C268.116 234.832 269.222 235.2 271.126 235.306C273.409 235.434 275.278 234.789 275.872 233.842L275.901 233.795Z" fill="black"/>
<path fill-rule="evenodd" clip-rule="evenodd" d="M250.052 229.045C251.529 229.776 253.324 229.161 254.061 227.672C254.799 226.182 254.2 224.382 252.723 223.651C251.247 222.92 249.452 223.535 248.714 225.024C247.977 226.514 248.576 228.314 250.052 229.045ZM249.77 229.615C251.558 230.501 253.733 229.756 254.626 227.951C255.52 226.147 254.794 223.967 253.006 223.081C251.217 222.196 249.043 222.94 248.149 224.745C247.256 226.549 247.981 228.73 249.77 229.615Z" fill="#6D6D6D"/>
<path fill-rule="evenodd" clip-rule="evenodd" d="M247.732 229.485C247.57 229.405 247.505 229.208 247.586 229.046L252.569 216.596C252.65 216.433 252.846 216.366 253.007 216.446C253.168 216.526 253.234 216.722 253.153 216.885L248.169 229.335C248.089 229.497 247.893 229.564 247.732 229.485Z" fill="#6D6D6D"/>
<path fill-rule="evenodd" clip-rule="evenodd" d="M248.329 230.723C248.168 230.644 248.103 230.447 248.183 230.285L254.123 215.904C254.204 215.741 254.4 215.674 254.561 215.754C254.722 215.834 254.788 216.03 254.707 216.193L248.767 230.574C248.687 230.736 248.491 230.803 248.329 230.723Z" fill="#6D6D6D"/>
<path fill-rule="evenodd" clip-rule="evenodd" d="M248.927 231.962C248.766 231.883 248.701 231.686 248.781 231.523L255.659 215.25C255.739 215.087 255.935 215.02 256.096 215.1C256.257 215.179 256.323 215.376 256.242 215.539L249.365 231.812C249.284 231.975 249.088 232.042 248.927 231.962Z" fill="#6D6D6D"/>
<path fill-rule="evenodd" clip-rule="evenodd" d="M250.275 231.687C250.114 231.607 250.048 231.41 250.129 231.248L256.069 216.867C256.149 216.704 256.345 216.637 256.507 216.717C256.668 216.797 256.733 216.993 256.653 217.156L250.713 231.537C250.632 231.699 250.436 231.766 250.275 231.687Z" fill="#6D6D6D"/>
<path fill-rule="evenodd" clip-rule="evenodd" d="M251.623 231.411C251.462 231.331 251.396 231.135 251.477 230.972L256.46 218.522C256.541 218.36 256.737 218.293 256.898 218.372C257.059 218.452 257.125 218.649 257.044 218.811L252.06 231.261C251.98 231.424 251.784 231.491 251.623 231.411Z" fill="#6D6D6D"/>
</g>
<defs>
<filter id="filter0_f_683_2947" x="210.892" y="176.892" width="78.9729" height="78.9729" filterUnits="userSpaceOnUse" color-interpolation-filters="sRGB">
<feFlood flood-opacity="0" result="BackgroundImageFix"/>
<feBlend mode="normal" in="SourceGraphic" in2="BackgroundImageFix" result="shape"/>
<feGaussianBlur stdDeviation="2" result="effect1_foregroundBlur_683_2947"/>
</filter>
<filter id="filter1_d_683_2947" x="-4" y="0" width="508" height="445" filterUnits="userSpaceOnUse" color-interpolation-filters="sRGB">
<feFlood flood-opacity="0" result="BackgroundImageFix"/>
<feColorMatrix in="SourceAlpha" type="matrix" values="0 0 0 0 0 0 0 0 0 0 0 0 0 0 0 0 0 0 127 0" result="hardAlpha"/>
<feOffset dy="4"/>
<feGaussianBlur stdDeviation="2"/>
<feComposite in2="hardAlpha" operator="out"/>
<feColorMatrix type="matrix" values="0 0 0 0 0 0 0 0 0 0 0 0 0 0 0 0 0 0 0.25 0"/>
<feBlend mode="normal" in2="BackgroundImageFix" result="effect1_dropShadow_683_2947"/>
<feBlend mode="normal" in="SourceGraphic" in2="effect1_dropShadow_683_2947" result="shape"/>
</filter>
<filter id="filter2_i_683_2947" x="220.091" y="193.029" width="53.1016" height="51.2786" filterUnits="userSpaceOnUse" color-interpolation-filters="sRGB">
<feFlood flood-opacity="0" result="BackgroundImageFix"/>
<feBlend mode="normal" in="SourceGraphic" in2="BackgroundImageFix" result="shape"/>
<feColorMatrix in="SourceAlpha" type="matrix" values="0 0 0 0 0 0 0 0 0 0 0 0 0 0 0 0 0 0 127 0" result="hardAlpha"/>
<feOffset dy="-2"/>
<feGaussianBlur stdDeviation="3.5"/>
<feComposite in2="hardAlpha" operator="arithmetic" k2="-1" k3="1"/>
<feColorMatrix type="matrix" values="0 0 0 0 0 0 0 0 0 0 0 0 0 0 0 0 0 0 1 0"/>
<feBlend mode="normal" in2="shape" result="effect1_innerShadow_683_2947"/>
</filter>
<filter id="filter3_i_683_2947" x="219.294" y="194.713" width="54.2148" height="49.9111" filterUnits="userSpaceOnUse" color-interpolation-filters="sRGB">
<feFlood flood-opacity="0" result="BackgroundImageFix"/>
<feBlend mode="normal" in="SourceGraphic" in2="BackgroundImageFix" result="shape"/>
<feColorMatrix in="SourceAlpha" type="matrix" values="0 0 0 0 0 0 0 0 0 0 0 0 0 0 0 0 0 0 127 0" result="hardAlpha"/>
<feOffset/>
<feGaussianBlur stdDeviation="4"/>
<feComposite in2="hardAlpha" operator="arithmetic" k2="-1" k3="1"/>
<feColorMatrix type="matrix" values="0 0 0 0 0 0 0 0 0 0 0 0 0 0 0 0 0 0 0.8 0"/>
<feBlend mode="normal" in2="shape" result="effect1_innerShadow_683_2947"/>
</filter>
<filter id="filter4_i_683_2947" x="228.74" y="231.442" width="9.54736" height="9.04468" filterUnits="userSpaceOnUse" color-interpolation-filters="sRGB">
<feFlood flood-opacity="0" result="BackgroundImageFix"/>
<feBlend mode="normal" in="SourceGraphic" in2="BackgroundImageFix" result="shape"/>
<feColorMatrix in="SourceAlpha" type="matrix" values="0 0 0 0 0 0 0 0 0 0 0 0 0 0 0 0 0 0 127 0" result="hardAlpha"/>
<feOffset/>
<feGaussianBlur stdDeviation="9.5"/>
<feComposite in2="hardAlpha" operator="arithmetic" k2="-1" k3="1"/>
<feColorMatrix type="matrix" values="0 0 0 0 0 0 0 0 0 0 0 0 0 0 0 0 0 0 1 0"/>
<feBlend mode="normal" in2="shape" result="effect1_innerShadow_683_2947"/>
</filter>
<filter id="filter5_i_683_2947" x="228.424" y="231.126" width="10.1797" height="9.67749" filterUnits="userSpaceOnUse" color-interpolation-filters="sRGB">
<feFlood flood-opacity="0" result="BackgroundImageFix"/>
<feBlend mode="normal" in="SourceGraphic" in2="BackgroundImageFix" result="shape"/>
<feColorMatrix in="SourceAlpha" type="matrix" values="0 0 0 0 0 0 0 0 0 0 0 0 0 0 0 0 0 0 127 0" result="hardAlpha"/>
<feOffset/>
<feGaussianBlur stdDeviation="4"/>
<feComposite in2="hardAlpha" operator="arithmetic" k2="-1" k3="1"/>
<feColorMatrix type="matrix" values="0 0 0 0 0 0 0 0 0 0 0 0 0 0 0 0 0 0 0.8 0"/>
<feBlend mode="normal" in2="shape" result="effect1_innerShadow_683_2947"/>
</filter>
<filter id="filter6_i_683_2947" x="217.208" y="191.138" width="63.4993" height="54.5493" filterUnits="userSpaceOnUse" color-interpolation-filters="sRGB">
<feFlood flood-opacity="0" result="BackgroundImageFix"/>
<feBlend mode="normal" in="SourceGraphic" in2="BackgroundImageFix" result="shape"/>
<feColorMatrix in="SourceAlpha" type="matrix" values="0 0 0 0 0 0 0 0 0 0 0 0 0 0 0 0 0 0 127 0" result="hardAlpha"/>
<feOffset dx="-2" dy="4"/>
<feGaussianBlur stdDeviation="2.5"/>
<feComposite in2="hardAlpha" operator="arithmetic" k2="-1" k3="1"/>
<feColorMatrix type="matrix" values="0 0 0 0 0 0 0 0 0 0 0 0 0 0 0 0 0 0 0.51 0"/>
<feBlend mode="normal" in2="shape" result="effect1_innerShadow_683_2947"/>
</filter>
<filter id="filter7_i_683_2947" x="238.907" y="229.511" width="8.31006" height="8.84961" filterUnits="userSpaceOnUse" color-interpolation-filters="sRGB">
<feFlood flood-opacity="0" result="BackgroundImageFix"/>
<feBlend mode="normal" in="SourceGraphic" in2="BackgroundImageFix" result="shape"/>
<feColorMatrix in="SourceAlpha" type="matrix" values="0 0 0 0 0 0 0 0 0 0 0 0 0 0 0 0 0 0 127 0" result="hardAlpha"/>
<feOffset dy="1"/>
<feGaussianBlur stdDeviation="2"/>
<feComposite in2="hardAlpha" operator="arithmetic" k2="-1" k3="1"/>
<feColorMatrix type="matrix" values="0 0 0 0 0 0 0 0 0 0 0 0 0 0 0 0 0 0 0.95 0"/>
<feBlend mode="normal" in2="shape" result="effect1_innerShadow_683_2947"/>
</filter>
<filter id="filter8_i_683_2947" x="238.277" y="228.879" width="9.57446" height="10.1152" filterUnits="userSpaceOnUse" color-interpolation-filters="sRGB">
<feFlood flood-opacity="0" result="BackgroundImageFix"/>
<feBlend mode="normal" in="SourceGraphic" in2="BackgroundImageFix" result="shape"/>
<feColorMatrix in="SourceAlpha" type="matrix" values="0 0 0 0 0 0 0 0 0 0 0 0 0 0 0 0 0 0 127 0" result="hardAlpha"/>
<feOffset dy="1"/>
<feGaussianBlur stdDeviation="4"/>
<feComposite in2="hardAlpha" operator="arithmetic" k2="-1" k3="1"/>
<feColorMatrix type="matrix" values="0 0 0 0 0 0 0 0 0 0 0 0 0 0 0 0 0 0 0.8 0"/>
<feBlend mode="normal" in2="shape" result="effect1_innerShadow_683_2947"/>
</filter>
<filter id="filter9_i_683_2947" x="237.918" y="225.601" width="6.93701" height="5.41992" filterUnits="userSpaceOnUse" color-interpolation-filters="sRGB">
<feFlood flood-opacity="0" result="BackgroundImageFix"/>
<feBlend mode="normal" in="SourceGraphic" in2="BackgroundImageFix" result="shape"/>
<feColorMatrix in="SourceAlpha" type="matrix" values="0 0 0 0 0 0 0 0 0 0 0 0 0 0 0 0 0 0 127 0" result="hardAlpha"/>
<feOffset dy="1"/>
<feGaussianBlur stdDeviation="2"/>
<feComposite in2="hardAlpha" operator="arithmetic" k2="-1" k3="1"/>
<feColorMatrix type="matrix" values="0 0 0 0 0 0 0 0 0 0 0 0 0 0 0 0 0 0 0.83 0"/>
<feBlend mode="normal" in2="shape" result="effect1_innerShadow_683_2947"/>
</filter>
<filter id="filter10_i_683_2947" x="237.287" y="224.969" width="8.20142" height="6.68555" filterUnits="userSpaceOnUse" color-interpolation-filters="sRGB">
<feFlood flood-opacity="0" result="BackgroundImageFix"/>
<feBlend mode="normal" in="SourceGraphic" in2="BackgroundImageFix" result="shape"/>
<feColorMatrix in="SourceAlpha" type="matrix" values="0 0 0 0 0 0 0 0 0 0 0 0 0 0 0 0 0 0 127 0" result="hardAlpha"/>
<feOffset dy="1"/>
<feGaussianBlur stdDeviation="4"/>
<feComposite in2="hardAlpha" operator="arithmetic" k2="-1" k3="1"/>
<feColorMatrix type="matrix" values="0 0 0 0 0 0 0 0 0 0 0 0 0 0 0 0 0 0 0.8 0"/>
<feBlend mode="normal" in2="shape" result="effect1_innerShadow_683_2947"/>
</filter>
<filter id="filter11_i_683_2947" x="225.37" y="213.056" width="2.13989" height="1.94727" filterUnits="userSpaceOnUse" color-interpolation-filters="sRGB">
<feFlood flood-opacity="0" result="BackgroundImageFix"/>
<feBlend mode="normal" in="SourceGraphic" in2="BackgroundImageFix" result="shape"/>
<feColorMatrix in="SourceAlpha" type="matrix" values="0 0 0 0 0 0 0 0 0 0 0 0 0 0 0 0 0 0 127 0" result="hardAlpha"/>
<feOffset/>
<feGaussianBlur stdDeviation="2"/>
<feComposite in2="hardAlpha" operator="arithmetic" k2="-1" k3="1"/>
<feColorMatrix type="matrix" values="0 0 0 0 0 0 0 0 0 0 0 0 0 0 0 0 0 0 0.4 0"/>
<feBlend mode="normal" in2="shape" result="effect1_innerShadow_683_2947"/>
</filter>
<filter id="filter12_i_683_2947" x="227.685" y="213.293" width="1.3374" height="1.62671" filterUnits="userSpaceOnUse" color-interpolation-filters="sRGB">
<feFlood flood-opacity="0" result="BackgroundImageFix"/>
<feBlend mode="normal" in="SourceGraphic" in2="BackgroundImageFix" result="shape"/>
<feColorMatrix in="SourceAlpha" type="matrix" values="0 0 0 0 0 0 0 0 0 0 0 0 0 0 0 0 0 0 127 0" result="hardAlpha"/>
<feOffset/>
<feGaussianBlur stdDeviation="2"/>
<feComposite in2="hardAlpha" operator="arithmetic" k2="-1" k3="1"/>
<feColorMatrix type="matrix" values="0 0 0 0 0 0 0 0 0 0 0 0 0 0 0 0 0 0 0.4 0"/>
<feBlend mode="normal" in2="shape" result="effect1_innerShadow_683_2947"/>
</filter>
<filter id="filter13_i_683_2947" x="224.323" y="214.88" width="3.11377" height="4.09204" filterUnits="userSpaceOnUse" color-interpolation-filters="sRGB">
<feFlood flood-opacity="0" result="BackgroundImageFix"/>
<feBlend mode="normal" in="SourceGraphic" in2="BackgroundImageFix" result="shape"/>
<feColorMatrix in="SourceAlpha" type="matrix" values="0 0 0 0 0 0 0 0 0 0 0 0 0 0 0 0 0 0 127 0" result="hardAlpha"/>
<feOffset/>
<feGaussianBlur stdDeviation="2"/>
<feComposite in2="hardAlpha" operator="arithmetic" k2="-1" k3="1"/>
<feColorMatrix type="matrix" values="0 0 0 0 0 0 0 0 0 0 0 0 0 0 0 0 0 0 0.4 0"/>
<feBlend mode="normal" in2="shape" result="effect1_innerShadow_683_2947"/>
</filter>
<filter id="filter14_i_683_2947" x="227.159" y="216.985" width="6.57715" height="5.76807" filterUnits="userSpaceOnUse" color-interpolation-filters="sRGB">
<feFlood flood-opacity="0" result="BackgroundImageFix"/>
<feBlend mode="normal" in="SourceGraphic" in2="BackgroundImageFix" result="shape"/>
<feColorMatrix in="SourceAlpha" type="matrix" values="0 0 0 0 0 0 0 0 0 0 0 0 0 0 0 0 0 0 127 0" result="hardAlpha"/>
<feOffset/>
<feGaussianBlur stdDeviation="2"/>
<feComposite in2="hardAlpha" operator="arithmetic" k2="-1" k3="1"/>
<feColorMatrix type="matrix" values="0 0 0 0 0 0 0 0 0 0 0 0 0 0 0 0 0 0 0.4 0"/>
<feBlend mode="normal" in2="shape" result="effect1_innerShadow_683_2947"/>
</filter>
<filter id="filter15_i_683_2947" x="226.177" y="216.654" width="8.18701" height="10.7319" filterUnits="userSpaceOnUse" color-interpolation-filters="sRGB">
<feFlood flood-opacity="0" result="BackgroundImageFix"/>
<feBlend mode="normal" in="SourceGraphic" in2="BackgroundImageFix" result="shape"/>
<feColorMatrix in="SourceAlpha" type="matrix" values="0 0 0 0 0 0 0 0 0 0 0 0 0 0 0 0 0 0 127 0" result="hardAlpha"/>
<feOffset dy="4"/>
<feGaussianBlur stdDeviation="2"/>
<feComposite in2="hardAlpha" operator="arithmetic" k2="-1" k3="1"/>
<feColorMatrix type="matrix" values="0 0 0 0 0 0 0 0 0 0 0 0 0 0 0 0 0 0 0.25 0"/>
<feBlend mode="normal" in2="shape" result="effect1_innerShadow_683_2947"/>
</filter>
<filter id="filter16_i_683_2947" x="227.574" y="214.581" width="5.07349" height="4.9375" filterUnits="userSpaceOnUse" color-interpolation-filters="sRGB">
<feFlood flood-opacity="0" result="BackgroundImageFix"/>
<feBlend mode="normal" in="SourceGraphic" in2="BackgroundImageFix" result="shape"/>
<feColorMatrix in="SourceAlpha" type="matrix" values="0 0 0 0 0 0 0 0 0 0 0 0 0 0 0 0 0 0 127 0" result="hardAlpha"/>
<feOffset/>
<feGaussianBlur stdDeviation="2"/>
<feComposite in2="hardAlpha" operator="arithmetic" k2="-1" k3="1"/>
<feColorMatrix type="matrix" values="0 0 0 0 0 0 0 0 0 0 0 0 0 0 0 0 0 0 0.4 0"/>
<feBlend mode="normal" in2="shape" result="effect1_innerShadow_683_2947"/>
</filter>
<filter id="filter17_i_683_2947" x="239.737" y="222.894" width="33.3965" height="18.1636" filterUnits="userSpaceOnUse" color-interpolation-filters="sRGB">
<feFlood flood-opacity="0" result="BackgroundImageFix"/>
<feBlend mode="normal" in="SourceGraphic" in2="BackgroundImageFix" result="shape"/>
<feColorMatrix in="SourceAlpha" type="matrix" values="0 0 0 0 0 0 0 0 0 0 0 0 0 0 0 0 0 0 127 0" result="hardAlpha"/>
<feOffset/>
<feGaussianBlur stdDeviation="11"/>
<feComposite in2="hardAlpha" operator="arithmetic" k2="-1" k3="1"/>
<feColorMatrix type="matrix" values="0 0 0 0 0 0 0 0 0 0 0 0 0 0 0 0 0 0 1 0"/>
<feBlend mode="normal" in2="shape" result="effect1_innerShadow_683_2947"/>
</filter>
<filter id="filter18_i_683_2947" x="239.267" y="222.096" width="34.228" height="19.3167" filterUnits="userSpaceOnUse" color-interpolation-filters="sRGB">
<feFlood flood-opacity="0" result="BackgroundImageFix"/>
<feBlend mode="normal" in="SourceGraphic" in2="BackgroundImageFix" result="shape"/>
<feColorMatrix in="SourceAlpha" type="matrix" values="0 0 0 0 0 0 0 0 0 0 0 0 0 0 0 0 0 0 127 0" result="hardAlpha"/>
<feOffset/>
<feGaussianBlur stdDeviation="12"/>
<feComposite in2="hardAlpha" operator="arithmetic" k2="-1" k3="1"/>
<feColorMatrix type="matrix" values="0 0 0 0 0 0 0 0 0 0 0 0 0 0 0 0 0 0 1 0"/>
<feBlend mode="normal" in2="shape" result="effect1_innerShadow_683_2947"/>
</filter>
<filter id="filter19_i_683_2947" x="234.664" y="200.648" width="33.5159" height="23.6113" filterUnits="userSpaceOnUse" color-interpolation-filters="sRGB">
<feFlood flood-opacity="0" result="BackgroundImageFix"/>
<feBlend mode="normal" in="SourceGraphic" in2="BackgroundImageFix" result="shape"/>
<feColorMatrix in="SourceAlpha" type="matrix" values="0 0 0 0 0 0 0 0 0 0 0 0 0 0 0 0 0 0 127 0" result="hardAlpha"/>
<feOffset/>
<feGaussianBlur stdDeviation="8"/>
<feComposite in2="hardAlpha" operator="arithmetic" k2="-1" k3="1"/>
<feColorMatrix type="matrix" values="0 0 0 0 0 0 0 0 0 0 0 0 0 0 0 0 0 0 1 0"/>
<feBlend mode="normal" in2="shape" result="effect1_innerShadow_683_2947"/>
</filter>
<filter id="filter20_i_683_2947" x="234.664" y="200.649" width="33.6292" height="23.6111" filterUnits="userSpaceOnUse" color-interpolation-filters="sRGB">
<feFlood flood-opacity="0" result="BackgroundImageFix"/>
<feBlend mode="normal" in="SourceGraphic" in2="BackgroundImageFix" result="shape"/>
<feColorMatrix in="SourceAlpha" type="matrix" values="0 0 0 0 0 0 0 0 0 0 0 0 0 0 0 0 0 0 127 0" result="hardAlpha"/>
<feOffset/>
<feGaussianBlur stdDeviation="15"/>
<feComposite in2="hardAlpha" operator="arithmetic" k2="-1" k3="1"/>
<feColorMatrix type="matrix" values="0 0 0 0 0 0 0 0 0 0 0 0 0 0 0 0 0 0 1 0"/>
<feBlend mode="normal" in2="shape" result="effect1_innerShadow_683_2947"/>
</filter>
<filter id="filter21_i_683_2947" x="241.312" y="207.997" width="19.501" height="14.6731" filterUnits="userSpaceOnUse" color-interpolation-filters="sRGB">
<feFlood flood-opacity="0" result="BackgroundImageFix"/>
<feBlend mode="normal" in="SourceGraphic" in2="BackgroundImageFix" result="shape"/>
<feColorMatrix in="SourceAlpha" type="matrix" values="0 0 0 0 0 0 0 0 0 0 0 0 0 0 0 0 0 0 127 0" result="hardAlpha"/>
<feOffset/>
<feGaussianBlur stdDeviation="10.5"/>
<feComposite in2="hardAlpha" operator="arithmetic" k2="-1" k3="1"/>
<feColorMatrix type="matrix" values="0 0 0 0 0 0 0 0 0 0 0 0 0 0 0 0 0 0 0.56 0"/>
<feBlend mode="normal" in2="shape" result="effect1_innerShadow_683_2947"/>
</filter>
<filter id="filter22_i_683_2947" x="240.76" y="207.441" width="20.6072" height="15.7852" filterUnits="userSpaceOnUse" color-interpolation-filters="sRGB">
<feFlood flood-opacity="0" result="BackgroundImageFix"/>
<feBlend mode="normal" in="SourceGraphic" in2="BackgroundImageFix" result="shape"/>
<feColorMatrix in="SourceAlpha" type="matrix" values="0 0 0 0 0 0 0 0 0 0 0 0 0 0 0 0 0 0 127 0" result="hardAlpha"/>
<feOffset/>
<feGaussianBlur stdDeviation="4"/>
<feComposite in2="hardAlpha" operator="arithmetic" k2="-1" k3="1"/>
<feColorMatrix type="matrix" values="0 0 0 0 0 0 0 0 0 0 0 0 0 0 0 0 0 0 0.8 0"/>
<feBlend mode="normal" in2="shape" result="effect1_innerShadow_683_2947"/>
</filter>
<filter id="filter23_i_683_2947" x="229.169" y="199.129" width="11.4426" height="8.11694" filterUnits="userSpaceOnUse" color-interpolation-filters="sRGB">
<feFlood flood-opacity="0" result="BackgroundImageFix"/>
<feBlend mode="normal" in="SourceGraphic" in2="BackgroundImageFix" result="shape"/>
<feColorMatrix in="SourceAlpha" type="matrix" values="0 0 0 0 0 0 0 0 0 0 0 0 0 0 0 0 0 0 127 0" result="hardAlpha"/>
<feOffset/>
<feGaussianBlur stdDeviation="2"/>
<feComposite in2="hardAlpha" operator="arithmetic" k2="-1" k3="1"/>
<feColorMatrix type="matrix" values="0 0 0 0 0 0 0 0 0 0 0 0 0 0 0 0 0 0 0.4 0"/>
<feBlend mode="normal" in2="shape" result="effect1_innerShadow_683_2947"/>
</filter>
</defs>
</svg>
